M48
;Layer_Color=9474304
;FILE_FORMAT=4:4
METRIC,LZ
;TYPE=PLATED
T1F00S00C0.1200
T2F00S00C0.1300
T3F00S00C0.2000
T4F00S00C0.4000
%
T01
X00294Y00097
T02
X00294Y00101
X00294Y00105
X00294Y00109
X00298Y00109
X00302
X00306Y00109
X00306Y00105
Y00101
Y00097
X00302
T03
X00166001Y00167999
X0015Y00349
T04
X00257Y0004
X0031Y00077
X00353Y00347
X00372Y00349
X00416999Y00314137
X00453Y00251497
X00286Y00367
X00269022Y00350978
M30
