M48
;Layer_Color=9474304
;FILE_FORMAT=4:4
METRIC,LZ
;TYPE=PLATED
T4F00S00C0.4000
%
T04
X00151Y00053
X00179Y00056
X0018Y0007
X00169978Y00083022
X00179Y00093
X00172Y00128
X00159Y00125
X00187Y00042
X00266Y0008
X00292Y00079
X0032104Y00087
X00337Y00086
X0033Y00097
X00377Y00074
Y00049
X00425
Y00074
X00466Y00037
X00467Y00012
X00269Y00113
X00276Y0015
X0029Y00158
X00327Y00153
X0034404Y00150522
X00329Y00186
X0027Y00194
Y00208
Y00221
X00227Y00213
X0018604Y0022
X00179Y0020296
X001705Y001905
X00149Y00188
X00158Y00217
X0014904Y00271
X0015596Y0030896
X00177Y0031
X00187Y00351
X00173Y0036
X00164Y0037192
X00211Y00369
X00222Y00372999
X00246Y00378
X0024646Y003665
X00233Y003515
X00203Y00343
X002075Y003885
X00311039Y00386039
X00319Y0037404
X00342Y00362
X0036Y00393
X00381Y00394003
X00386Y00434
X0042342Y00434577
X00423Y00409
X00451Y00432
X00465
X00467Y00483
X004Y00491
X00380044Y0049096
X00352427Y0048696
X00336Y00487
X00395Y0036296
X00468994Y00273
X0048696Y00265
Y00252
X00488Y00217
X0019904Y00181
X0020404Y0016704
X00158961Y00145
X00133Y00152
Y00189
X0014204Y0023
X0013496Y00287
X00137Y0037
X00132Y00387
X00133Y00402
M30
