M48
;Layer_Color=9474304
;FILE_FORMAT=4:4
METRIC,LZ
;TYPE=PLATED
T4F00S00C0.4000
%
T04
X00295999Y00025
X00306Y0006
X0028Y00089
X0026Y00094
X00286Y00137
X00198001Y0013
X00234001Y00186
X0029Y00214
X00286001Y00258001
Y00274001
Y00290001
Y00306001
X00266001Y00298001
Y00282001
Y00266001
X00306001
Y00282001
Y00298001
Y00314001
X00326001Y00306001
Y00290001
Y00274001
Y00258001
X00346001Y00266001
Y00282001
Y00298001
Y00314001
X00366001Y00306001
Y00290001
Y00274001
Y00258001
X00407Y00284874
X00426Y00271
X00388Y0034996
X00305Y00355
X00266001Y00314001
X00182Y00458
X00374198Y00434758
X00481Y00433
M30
