%TF.GenerationSoftware,Altium Limited,Altium Designer,20.1.11 (218)*%
G04 Layer_Color=255*
%FSLAX45Y45*%
%MOMM*%
%TF.SameCoordinates,C7425212-4277-447C-8971-9BA6FDDE4791*%
%TF.FilePolarity,Positive*%
%TF.FileFunction,Pads,Bot*%
%TF.Part,Single*%
G01*
G75*
%TA.AperFunction,SMDPad,CuDef*%
%ADD32R,0.55000X0.60000*%
%TA.AperFunction,ComponentPad*%
%ADD57C,0.90000*%
%ADD58C,1.02000*%
%TA.AperFunction,SMDPad,CuDef*%
%ADD76R,0.50000X0.60000*%
%ADD77R,0.30000X0.27000*%
%ADD78R,0.80000X0.75000*%
%ADD79C,1.00000*%
%ADD80R,0.40000X0.70000*%
%ADD81R,0.40000X0.25000*%
%TA.AperFunction,BGAPad,CuDef*%
%ADD82C,0.25000*%
%TA.AperFunction,SMDPad,CuDef*%
%ADD83R,0.25000X0.36000*%
%ADD84R,0.50000X0.65000*%
D32*
X4700000Y2990002D02*
D03*
Y3090002D02*
D03*
X2090000Y2840000D02*
D03*
Y2740000D02*
D03*
X2329999Y3839999D02*
D03*
Y3740000D02*
D03*
X2669999Y3740001D02*
D03*
Y3840001D02*
D03*
X3000002D02*
D03*
Y3740001D02*
D03*
X1579997Y2300001D02*
D03*
Y2400001D02*
D03*
X2130001Y559999D02*
D03*
Y459999D02*
D03*
X1510002Y779999D02*
D03*
Y679999D02*
D03*
X2999998Y4039999D02*
D03*
Y3939999D02*
D03*
X2669999Y4040000D02*
D03*
Y3940001D02*
D03*
X2329999Y4040000D02*
D03*
Y3940001D02*
D03*
X2720002Y690000D02*
D03*
Y590000D02*
D03*
X2820002Y589999D02*
D03*
Y689999D02*
D03*
X3089999Y1480001D02*
D03*
Y1380001D02*
D03*
X2929998Y589999D02*
D03*
Y689999D02*
D03*
X2710000Y350001D02*
D03*
Y450001D02*
D03*
X3180001Y1759999D02*
D03*
Y1859999D02*
D03*
D57*
X3780000Y240002D02*
D03*
X4459999D02*
D03*
D58*
X2020000Y4860000D02*
D03*
X2401000D02*
D03*
D76*
X2029998Y559999D02*
D03*
Y459999D02*
D03*
X4439999Y4789999D02*
D03*
Y4889999D02*
D03*
X4560002Y4789999D02*
D03*
Y4889999D02*
D03*
X4399998Y489999D02*
D03*
Y589999D02*
D03*
X4639999Y2349999D02*
D03*
Y2249999D02*
D03*
X1692502Y1059998D02*
D03*
Y959998D02*
D03*
X1449999Y4000002D02*
D03*
Y3900002D02*
D03*
X1530000Y2830000D02*
D03*
Y2930000D02*
D03*
X1410001Y2129999D02*
D03*
Y2029999D02*
D03*
X1749999Y2840000D02*
D03*
Y2740000D02*
D03*
X1869999Y2839998D02*
D03*
Y2739998D02*
D03*
X1349999Y2390001D02*
D03*
Y2490001D02*
D03*
X1760001Y3309999D02*
D03*
Y3209999D02*
D03*
X1970000Y2740000D02*
D03*
Y2840000D02*
D03*
X1300000Y1240000D02*
D03*
Y1340000D02*
D03*
X1419998Y1050002D02*
D03*
Y950002D02*
D03*
X1300000Y1049998D02*
D03*
Y949998D02*
D03*
X3729998Y2620000D02*
D03*
Y2520001D02*
D03*
X3610004Y3049999D02*
D03*
Y2949999D02*
D03*
X3770002Y3190002D02*
D03*
Y3290002D02*
D03*
X3650000Y4140000D02*
D03*
Y4240000D02*
D03*
X3759999Y4139999D02*
D03*
Y4239999D02*
D03*
X3989996Y4140000D02*
D03*
Y4240000D02*
D03*
X4120002Y4139999D02*
D03*
Y4239999D02*
D03*
D77*
X3170001Y1428502D02*
D03*
Y1371499D02*
D03*
X3410002Y1428501D02*
D03*
Y1371498D02*
D03*
X1520008Y931510D02*
D03*
Y988508D02*
D03*
X3780001Y601501D02*
D03*
Y658499D02*
D03*
X4019999Y658501D02*
D03*
Y601498D02*
D03*
X1900006Y2591507D02*
D03*
Y2648510D02*
D03*
X1579994Y4008491D02*
D03*
Y3951493D02*
D03*
X1640000Y2813003D02*
D03*
Y2870000D02*
D03*
X1439993Y2391495D02*
D03*
Y2448493D02*
D03*
X4509998Y491498D02*
D03*
Y548500D02*
D03*
X1650010Y3258510D02*
D03*
Y3201507D02*
D03*
X1690010Y2398508D02*
D03*
Y2341510D02*
D03*
X1680006Y748507D02*
D03*
Y691509D02*
D03*
X3660000Y3251501D02*
D03*
Y3308499D02*
D03*
X3329998Y1371503D02*
D03*
Y1428500D02*
D03*
X3259997Y1370003D02*
D03*
Y1427000D02*
D03*
X2509999Y1008501D02*
D03*
Y951498D02*
D03*
X2989999Y761498D02*
D03*
Y818501D02*
D03*
X3079999Y1761499D02*
D03*
Y1818502D02*
D03*
D78*
X3230001Y572501D02*
D03*
Y707502D02*
D03*
X3520001Y572501D02*
D03*
Y707502D02*
D03*
X2389998Y542498D02*
D03*
Y677499D02*
D03*
X3639998Y572502D02*
D03*
Y707503D02*
D03*
X3349999Y707499D02*
D03*
Y572498D02*
D03*
X2910001Y1712501D02*
D03*
Y1847502D02*
D03*
X2510002Y677500D02*
D03*
Y542499D02*
D03*
X2630000Y1417499D02*
D03*
Y1282498D02*
D03*
D79*
X3460000Y2870000D02*
D03*
X4510000Y4570000D02*
D03*
X2824998Y3944999D02*
D03*
X2470001Y3939998D02*
D03*
X3139998Y4010001D02*
D03*
X2710000Y200000D02*
D03*
X2350000Y1360000D02*
D03*
X4810001Y379999D02*
D03*
X4650000Y549998D02*
D03*
D80*
X3934999Y630000D02*
D03*
D81*
X3865002Y607501D02*
D03*
Y652499D02*
D03*
D82*
X4743500Y2464996D02*
D03*
Y2514999D02*
D03*
Y2564996D02*
D03*
Y2614999D02*
D03*
X4700000Y2490000D02*
D03*
Y2590000D02*
D03*
X4656500Y2464996D02*
D03*
Y2514999D02*
D03*
Y2564996D02*
D03*
Y2614999D02*
D03*
D83*
X3750000Y2865997D02*
D03*
Y2950000D02*
D03*
D84*
X2510002Y1427499D02*
D03*
Y1332498D02*
D03*
X2619998Y687499D02*
D03*
Y592498D02*
D03*
%TF.MD5,7029f2cdf0dbb6fbb0856fd3ba03ef98*%
M02*
