%TF.GenerationSoftware,Altium Limited,Altium Designer,20.1.11 (218)*%
G04 Layer_Color=65535*
%FSLAX45Y45*%
%MOMM*%
%TF.SameCoordinates,C7425212-4277-447C-8971-9BA6FDDE4791*%
%TF.FilePolarity,Positive*%
%TF.FileFunction,Legend,Top*%
%TF.Part,Single*%
G01*
G75*
%TA.AperFunction,NonConductor*%
%ADD51C,0.20000*%
%ADD64C,0.10000*%
%ADD85C,0.15000*%
%ADD86C,0.15240*%
%ADD87C,0.12500*%
%ADD88C,0.25400*%
%ADD112C,0.30000*%
%ADD113C,0.25000*%
D51*
X1863748Y689548D02*
G03*
X1863748Y689548I-5000J0D01*
G01*
X2861000Y1174000D02*
G03*
X2861000Y1174000I-5000J0D01*
G01*
X1377500Y3620000D02*
G03*
X1377500Y3620000I-7500J0D01*
G01*
X1537508Y1809992D02*
G03*
X1537508Y1809992I-7500J0D01*
G01*
X3519999Y2042502D02*
X4934997D01*
X3519999Y897500D02*
Y2042502D01*
Y897500D02*
X4987499D01*
Y1130002D01*
X4934997D02*
X4987499D01*
X4934997D02*
Y2042502D01*
X4539999Y2935000D02*
Y3105002D01*
X4699998Y2935000D02*
Y3105002D01*
X359999Y1480000D02*
Y4479999D01*
X39999Y1480000D02*
X359999D01*
X39999Y4479999D02*
X359999D01*
X39999Y1480000D02*
Y4479999D01*
D64*
X4750016Y2870007D02*
Y2909994D01*
X4770010D01*
X4776674Y2903329D01*
Y2890000D01*
X4770010Y2883336D01*
X4750016D01*
X4763345D02*
X4776674Y2870007D01*
X4790003D02*
X4803332D01*
X4796668D01*
Y2909994D01*
X4790003Y2903329D01*
X4849984Y2870007D02*
X4823326D01*
X4849984Y2896665D01*
Y2903329D01*
X4843319Y2909994D01*
X4829990D01*
X4823326Y2903329D01*
X4596677Y3199994D02*
Y3160007D01*
X4616671D01*
X4623335Y3166671D01*
Y3193329D01*
X4616671Y3199994D01*
X4596677D01*
X4663322Y3160007D02*
X4636664D01*
X4663322Y3186665D01*
Y3193329D01*
X4656658Y3199994D01*
X4643329D01*
X4636664Y3193329D01*
X4446681Y3120007D02*
Y3159994D01*
X4466674D01*
X4473339Y3153329D01*
Y3140000D01*
X4466674Y3133336D01*
X4446681D01*
X4460010D02*
X4473339Y3120007D01*
X4486668D02*
X4499997D01*
X4493332D01*
Y3159994D01*
X4486668Y3153329D01*
X4519990Y3120007D02*
X4533319D01*
X4526655D01*
Y3159994D01*
X4519990Y3153329D01*
D85*
X4827500Y4510000D02*
G03*
X4827500Y4510000I-7500J0D01*
G01*
X4675000Y4640000D02*
G03*
X4675000Y4640000I-35000J0D01*
G01*
X1590537Y1151214D02*
G03*
X1590537Y1151214I-5000J0D01*
G01*
X2332002Y2299999D02*
Y3399997D01*
X3982001Y2299999D02*
Y3399997D01*
X2332002Y2299999D02*
X3982001D01*
X2332002Y3399997D02*
X3982001D01*
X3557510Y197498D02*
Y447500D01*
X3115001Y9391D02*
X3485003D01*
X3042510Y197498D02*
Y447500D01*
X3450002D02*
X3557510D01*
X3042510D02*
X3150018D01*
X2406999Y1815002D02*
Y1924999D01*
Y1815002D02*
X2475000D01*
X2406999Y1924999D02*
X2475000D01*
X2306999Y1995002D02*
X2392999D01*
X2475000Y1815002D02*
Y1834001D01*
Y1906000D02*
Y1924999D01*
X2306999Y1745000D02*
X2392999D01*
X2224998Y1815002D02*
X2242498Y1832503D01*
X2224998Y1924999D02*
X2242498Y1907499D01*
X3457500Y4692497D02*
Y4772497D01*
X3477500D01*
X3457500Y4427499D02*
Y4507499D01*
Y4427499D02*
X3477500D01*
X3762498D02*
X3782498D01*
Y4507499D01*
Y4692497D02*
Y4772497D01*
X3762498D02*
X3782498D01*
X1915001Y1336998D02*
X2024998D01*
Y1404999D01*
X1915001Y1336998D02*
Y1404999D01*
X1844999Y1236998D02*
Y1322997D01*
X2005999Y1404999D02*
X2024998D01*
X1915001D02*
X1934000D01*
X2095001Y1236998D02*
Y1322997D01*
X2007498Y1172497D02*
X2024998Y1155002D01*
X1915001D02*
X1932502Y1172497D01*
X1604999Y3385001D02*
Y3594998D01*
X1395002Y3385001D02*
Y3595009D01*
Y3385001D02*
X1604999D01*
X1395002Y3594998D02*
X1604999D01*
X1765010Y1574990D02*
Y1784992D01*
X1555008Y1574990D02*
Y1785002D01*
Y1574990D02*
X1765010D01*
X1555008Y1784992D02*
X1765010D01*
X4542500Y4737499D02*
X4857501D01*
X4542500Y4422498D02*
Y4737499D01*
Y4422498D02*
X4857501D01*
Y4737499D01*
X4222499Y4782497D02*
X4242499D01*
Y4702497D02*
Y4782497D01*
Y4437499D02*
Y4517499D01*
X4222499Y4437499D02*
X4242499D01*
X3917501D02*
X3937501D01*
X3917501D02*
Y4517499D01*
Y4782497D02*
X3937501D01*
X3917501Y4702497D02*
Y4782497D01*
D86*
X4850078Y3650000D02*
G03*
X4850078Y3650000I-160078J0D01*
G01*
X3944999Y-140002D02*
Y65001D01*
Y-140002D02*
X4095001D01*
Y65001D01*
X4295001Y-140002D02*
Y-110000D01*
X4144998Y-140002D02*
Y-110000D01*
X4238999Y-140002D02*
X4264002D01*
X4144998Y-81999D02*
Y-52001D01*
X4295001Y-81999D02*
Y-52001D01*
Y30000D02*
Y65001D01*
Y-26002D02*
Y4000D01*
X4178999Y-140002D02*
X4204003D01*
X4144998Y-26002D02*
Y4000D01*
Y30000D02*
Y65001D01*
X4239999Y-140002D02*
X4270002D01*
X3669998Y65001D02*
Y414998D01*
Y65001D02*
X4570001D01*
Y414998D01*
X3669998D02*
X4570001D01*
X4837498Y3045001D02*
Y3107500D01*
Y2932499D02*
Y2994999D01*
X4762502Y3045001D02*
Y3107500D01*
Y2932499D02*
Y2994999D01*
Y2932499D02*
X4837498D01*
X4762502Y3107500D02*
X4837498D01*
X4389998Y3350002D02*
X4990001D01*
Y3950001D01*
X4389998D02*
X4990001D01*
X4389998Y3350002D02*
Y3950001D01*
X4452499Y2932498D02*
X4527500D01*
X4452499Y3107499D02*
X4527500D01*
Y3045000D02*
Y3107499D01*
Y2932498D02*
Y2994998D01*
X4452499Y3045000D02*
Y3107499D01*
Y2932498D02*
Y2994998D01*
D87*
X1876248Y1049547D02*
X2098747D01*
X1876248Y707049D02*
Y1049547D01*
Y707049D02*
X2098747D01*
Y1049547D01*
X2874999Y904998D02*
X3125001D01*
Y1155000D01*
X2874999Y904998D02*
Y1155000D01*
X3125001D01*
X1608748Y1140002D02*
X1703749D01*
X1608743Y979992D02*
X1703744D01*
X1311501Y312502D02*
Y321001D01*
X1528499D01*
Y312502D02*
Y321001D01*
Y104003D02*
Y112502D01*
X1311501Y104003D02*
Y112502D01*
Y104003D02*
X1528499D01*
X1766998Y314998D02*
Y323497D01*
X1984001D01*
Y314998D02*
Y323497D01*
Y106500D02*
Y114999D01*
X1766998Y106500D02*
Y114999D01*
Y106500D02*
X1984001D01*
D88*
X1893498Y4735001D02*
Y4984998D01*
Y4735001D02*
X2527497D01*
Y4984998D01*
X1893498D02*
X2527497D01*
X3388339Y2032486D02*
X3355016D01*
X3371678D01*
Y1949179D01*
X3355016Y1932518D01*
X3338355D01*
X3321694Y1949179D01*
X3471646Y1932518D02*
Y2032486D01*
X3421662Y1982502D01*
X3488307D01*
X4030357Y2469982D02*
Y2386675D01*
X4047019Y2370014D01*
X4080341D01*
X4097002Y2386675D01*
Y2469982D01*
X4130325Y2370014D02*
X4163648D01*
X4146986D01*
Y2469982D01*
X4130325Y2453320D01*
X1186694Y3589984D02*
Y3506678D01*
X1203355Y3490016D01*
X1236677D01*
X1253339Y3506678D01*
Y3589984D01*
X1286661Y3573323D02*
X1303323Y3589984D01*
X1336645D01*
X1353306Y3573323D01*
Y3556661D01*
X1336645Y3540000D01*
X1319984D01*
X1336645D01*
X1353306Y3523339D01*
Y3506678D01*
X1336645Y3490016D01*
X1303323D01*
X1286661Y3506678D01*
X1336694Y1769984D02*
Y1686678D01*
X1353355Y1670016D01*
X1386677D01*
X1403339Y1686678D01*
Y1769984D01*
X1503306Y1670016D02*
X1436661D01*
X1503306Y1736661D01*
Y1753323D01*
X1486645Y1769984D01*
X1453323D01*
X1436661Y1753323D01*
X2931702Y1289984D02*
Y1206678D01*
X2948363Y1190016D01*
X2981686D01*
X2998347Y1206678D01*
Y1289984D01*
X3031670Y1190016D02*
X3064992D01*
X3048331D01*
Y1289984D01*
X3031670Y1273323D01*
X3114976Y1190016D02*
X3148299D01*
X3131637D01*
Y1289984D01*
X3114976Y1273323D01*
X4466694Y4869984D02*
Y4786677D01*
X4483355Y4770016D01*
X4516678D01*
X4533339Y4786677D01*
Y4869984D01*
X4566661Y4786677D02*
X4583323Y4770016D01*
X4616645D01*
X4633306Y4786677D01*
Y4853323D01*
X4616645Y4869984D01*
X4583323D01*
X4566661Y4853323D01*
Y4836661D01*
X4583323Y4820000D01*
X4633306D01*
X3246694Y4519984D02*
Y4436677D01*
X3263355Y4420016D01*
X3296677D01*
X3313339Y4436677D01*
Y4519984D01*
X3346661Y4503322D02*
X3363323Y4519984D01*
X3396645D01*
X3413306Y4503322D01*
Y4486661D01*
X3396645Y4470000D01*
X3413306Y4453339D01*
Y4436677D01*
X3396645Y4420016D01*
X3363323D01*
X3346661Y4436677D01*
Y4453339D01*
X3363323Y4470000D01*
X3346661Y4486661D01*
Y4503322D01*
X3363323Y4470000D02*
X3396645D01*
X4286693Y4529984D02*
Y4446677D01*
X4303355Y4430016D01*
X4336677D01*
X4353339Y4446677D01*
Y4529984D01*
X4386661D02*
X4453306D01*
Y4513322D01*
X4386661Y4446677D01*
Y4430016D01*
X1556694Y939984D02*
Y856677D01*
X1573355Y840016D01*
X1606678D01*
X1623339Y856677D01*
Y939984D01*
X1723306D02*
X1656661D01*
Y890000D01*
X1689984Y906661D01*
X1706645D01*
X1723306Y890000D01*
Y856677D01*
X1706645Y840016D01*
X1673323D01*
X1656661Y856677D01*
X1916692Y679985D02*
Y596678D01*
X1933354Y580017D01*
X1966676D01*
X1983337Y596678D01*
Y679985D01*
X2066644Y580017D02*
Y679985D01*
X2016660Y630001D01*
X2083305D01*
X4123355Y3913323D02*
X4106694Y3929984D01*
X4073371D01*
X4056710Y3913323D01*
Y3896661D01*
X4073371Y3880000D01*
X4106694D01*
X4123355Y3863339D01*
Y3846678D01*
X4106694Y3830016D01*
X4073371D01*
X4056710Y3846678D01*
X4156677Y3929984D02*
Y3830016D01*
X4190000Y3863339D01*
X4223323Y3830016D01*
Y3929984D01*
X4256645Y3913323D02*
X4273307Y3929984D01*
X4306629D01*
X4323290Y3913323D01*
Y3896661D01*
X4306629Y3880000D01*
X4289968D01*
X4306629D01*
X4323290Y3863339D01*
Y3846678D01*
X4306629Y3830016D01*
X4273307D01*
X4256645Y3846678D01*
X4530016Y533323D02*
X4513355Y549984D01*
X4480032D01*
X4463371Y533323D01*
Y516661D01*
X4480032Y500000D01*
X4513355D01*
X4530016Y483339D01*
Y466678D01*
X4513355Y450016D01*
X4480032D01*
X4463371Y466678D01*
X4563339Y549984D02*
Y450016D01*
X4596661Y483339D01*
X4629984Y450016D01*
Y549984D01*
X4663307Y450016D02*
X4696629D01*
X4679968D01*
Y549984D01*
X4663307Y533323D01*
X2001685Y366677D02*
Y433322D01*
X1985024Y449984D01*
X1951702D01*
X1935040Y433322D01*
Y366677D01*
X1951702Y350016D01*
X1985024D01*
X1968363Y383339D02*
X2001685Y350016D01*
X1985024D02*
X2001685Y366677D01*
X2035008Y350016D02*
X2068331D01*
X2051670D01*
Y449984D01*
X2035008Y433322D01*
X2118315Y449984D02*
Y350016D01*
X2168298D01*
X2184960Y366677D01*
Y383339D01*
X2168298Y400000D01*
X2118315D01*
X2168298D01*
X2184960Y416661D01*
Y433322D01*
X2168298Y449984D01*
X2118315D01*
X1381685Y376677D02*
Y443322D01*
X1365024Y459984D01*
X1331702D01*
X1315040Y443322D01*
Y376677D01*
X1331702Y360016D01*
X1365024D01*
X1348363Y393339D02*
X1381685Y360016D01*
X1365024D02*
X1381685Y376677D01*
X1415008Y360016D02*
X1448331D01*
X1431669D01*
Y459984D01*
X1415008Y443322D01*
X1498315Y360016D02*
Y426661D01*
X1531637Y459984D01*
X1564960Y426661D01*
Y360016D01*
Y410000D01*
X1498315D01*
X2576694Y4600016D02*
Y4699984D01*
X2626677D01*
X2643339Y4683323D01*
Y4650000D01*
X2626677Y4633339D01*
X2576694D01*
X2743306Y4699984D02*
X2676661D01*
Y4650000D01*
X2709984Y4666661D01*
X2726645D01*
X2743306Y4650000D01*
Y4616678D01*
X2726645Y4600016D01*
X2693323D01*
X2676661Y4616678D01*
X3533339Y579984D02*
X3500016D01*
X3516677D01*
Y496677D01*
X3500016Y480016D01*
X3483355D01*
X3466694Y496677D01*
X3566661Y563322D02*
X3583323Y579984D01*
X3616645D01*
X3633306Y563322D01*
Y546661D01*
X3616645Y530000D01*
X3599984D01*
X3616645D01*
X3633306Y513339D01*
Y496677D01*
X3616645Y480016D01*
X3583323D01*
X3566661Y496677D01*
X1953341Y1559986D02*
X1920018D01*
X1936680D01*
Y1476680D01*
X1920018Y1460018D01*
X1903357D01*
X1886696Y1476680D01*
X2053309Y1460018D02*
X1986664D01*
X2053309Y1526663D01*
Y1543325D01*
X2036647Y1559986D01*
X2003325D01*
X1986664Y1543325D01*
X2380000Y2139984D02*
X2346678D01*
X2363339D01*
Y2056677D01*
X2346678Y2040016D01*
X2330016D01*
X2313355Y2056677D01*
X2413323Y2040016D02*
X2446645D01*
X2429984D01*
Y2139984D01*
X2413323Y2123322D01*
X23354Y4550018D02*
Y4616663D01*
X56676Y4649985D01*
X89999Y4616663D01*
Y4550018D01*
Y4600001D01*
X23354D01*
X123322Y4550018D02*
X156644D01*
X139983D01*
Y4649985D01*
X123322Y4633324D01*
D112*
X4032502Y2264998D02*
G03*
X4032502Y2264998I-15000J0D01*
G01*
D113*
X3486423Y868224D02*
G03*
X3488837Y866340I-6425J-10722D01*
G01*
X4632500Y2847500D02*
G03*
X4632500Y2847500I-12500J0D01*
G01*
X3787500Y4837500D02*
G03*
X3787500Y4837500I-12500J0D01*
G01*
X4882500Y4402500D02*
G03*
X4882500Y4402500I-5000J0D01*
G01*
X4247500Y4847500D02*
G03*
X4247500Y4847500I-12500J0D01*
G01*
X1282500Y335001D02*
G03*
X1282500Y335001I-5000J0D01*
G01*
X1737998Y337498D02*
G03*
X1737998Y337498I-5000J0D01*
G01*
%TF.MD5,8f74f7e97627050b0f3af038afd69a55*%
M02*
