%TF.GenerationSoftware,Altium Limited,Altium Designer,20.1.11 (218)*%
G04 Layer_Physical_Order=3*
G04 Layer_Color=128*
%FSLAX45Y45*%
%MOMM*%
%TF.SameCoordinates,C7425212-4277-447C-8971-9BA6FDDE4791*%
%TF.FilePolarity,Negative*%
%TF.FileFunction,Copper,L3,Inr,Plane*%
%TF.Part,Single*%
G01*
G75*
%TA.AperFunction,NonConductor*%
%ADD63C,1.01600*%
%TA.AperFunction,WasherPad*%
%ADD65C,2.01600*%
%TA.AperFunction,ComponentPad*%
%ADD66C,1.91600*%
%ADD67C,2.03600*%
%TA.AperFunction,ViaPad*%
G04:AMPARAMS|DCode=68|XSize=1.924mm|YSize=1.924mm|CornerRadius=0mm|HoleSize=0mm|Usage=FLASHONLY|Rotation=0.000|XOffset=0mm|YOffset=0mm|HoleType=Round|Shape=Relief|Width=0.254mm|Gap=0.254mm|Entries=4|*
%AMTHD68*
7,0,0,1.92400,1.41600,0.25400,45*
%
%ADD68THD68*%
%ADD70C,1.14600*%
%ADD71C,1.13600*%
%ADD72C,1.41600*%
%TA.AperFunction,NonConductor*%
%ADD74C,0.80000*%
%TA.AperFunction,ViaPad*%
%ADD75C,1.21600*%
D63*
X0Y0D02*
X5000000D01*
Y5000000D01*
X0D02*
X5000000D01*
X0Y0D02*
Y5000000D01*
D65*
X4840000Y4840000D02*
D03*
X160000Y160000D02*
D03*
Y4840000D02*
D03*
X4840000Y160000D02*
D03*
D66*
X3780000Y240002D02*
D03*
X4459999D02*
D03*
D67*
X2020000Y4860000D02*
D03*
X2401000D02*
D03*
D68*
X2530000Y3488800D02*
D03*
X4169992Y2990000D02*
D03*
X4530000Y2514969D02*
D03*
X1791091Y1081863D02*
D03*
D03*
X4130000Y620000D02*
D03*
X2810000Y410000D02*
D03*
X2600000Y939998D02*
D03*
X2900000Y1580000D02*
D03*
D03*
D70*
X2940003Y1090002D02*
D03*
Y1010002D02*
D03*
X2940000Y1050000D02*
D03*
X2980000Y1090000D02*
D03*
X3060002Y1090002D02*
D03*
X3060000Y1010000D02*
D03*
X3020000Y970000D02*
D03*
X3060000D02*
D03*
Y1050000D02*
D03*
X3020000Y1090000D02*
D03*
D71*
X2940000Y970000D02*
D03*
D72*
X2756552Y1265862D02*
D03*
X3100000Y770000D02*
D03*
D03*
X2690000Y1130000D02*
D03*
D03*
X2140000Y230000D02*
D03*
X1790000Y560000D02*
D03*
X2160000Y740000D02*
D03*
D03*
X1699782Y830217D02*
D03*
X1800000Y700000D02*
D03*
X2460000Y240000D02*
D03*
X3950000Y3629600D02*
D03*
X4169992Y3141369D02*
D03*
X3110394Y3860393D02*
D03*
X2860000Y3670000D02*
D03*
X3720000Y3490000D02*
D03*
X4290000Y4890000D02*
D03*
X3420000Y3620000D02*
D03*
X3190000Y3740400D02*
D03*
X3530000Y3470000D02*
D03*
X2464600Y3665000D02*
D03*
X4230000Y4090000D02*
D03*
X3600001Y3929998D02*
D03*
X3810000Y3940031D02*
D03*
X2330000Y3515000D02*
D03*
X2690220Y3509780D02*
D03*
X2219996Y3729993D02*
D03*
X2075000Y3885000D02*
D03*
D03*
X4869600Y2520000D02*
D03*
X4689937Y2730000D02*
D03*
X3440400Y1505220D02*
D03*
X4869600Y2649998D02*
D03*
X4290000Y4890000D02*
D03*
X2920000Y790000D02*
D03*
X3210400Y870000D02*
D03*
X4670000Y4830000D02*
D03*
D03*
X3190000Y3740400D02*
D03*
X3110394Y3860393D02*
D03*
X3950000Y3629600D02*
D03*
X3420000Y3620000D02*
D03*
X2460000Y3780000D02*
D03*
D03*
X2464600Y3665000D02*
D03*
X4880000Y2170000D02*
D03*
X4869600Y2520000D02*
D03*
Y2649998D02*
D03*
X3440400Y1505220D02*
D03*
X1900000Y2500000D02*
D03*
X2760000Y1500000D02*
D03*
D03*
X2660000Y800000D02*
D03*
D03*
X2920000Y790000D02*
D03*
X2960000Y480000D02*
D03*
X2410000Y950000D02*
D03*
X1850000Y1680000D02*
D03*
X1990400Y1810000D02*
D03*
D03*
X2040400Y1670400D02*
D03*
D03*
X1870000Y3510000D02*
D03*
D03*
X1630000Y3860000D02*
D03*
X1640000Y3719200D02*
D03*
D03*
X1790000Y930000D02*
D03*
D03*
X3600001Y3929998D02*
D03*
X3360000Y4870000D02*
D03*
D03*
X4000000Y4910000D02*
D03*
D03*
X3800439Y4909600D02*
D03*
D03*
X4510000Y4320000D02*
D03*
D03*
X4234200Y4345769D02*
D03*
D03*
X4689937Y2730000D02*
D03*
X4640000Y2120000D02*
D03*
X4880000Y2170000D02*
D03*
X3189999Y1620001D02*
D03*
X3290000Y1860000D02*
D03*
D03*
X2570000Y400000D02*
D03*
X3210400Y870000D02*
D03*
X4250000Y740000D02*
D03*
D03*
X2900000Y2140000D02*
D03*
X2270000Y2130000D02*
D03*
D03*
X3770000Y490000D02*
D03*
D03*
X4670000Y120000D02*
D03*
D03*
X3300000Y970000D02*
D03*
D03*
X3370000Y860000D02*
D03*
D03*
X1640000Y2710000D02*
D03*
X1720410Y3490000D02*
D03*
X1420000Y1250000D02*
D03*
X1330000Y1520000D02*
D03*
D03*
Y1890000D02*
D03*
D03*
X1490400Y2580000D02*
D03*
X1749192Y2490369D02*
D03*
X2670000Y4180000D02*
D03*
X3860000Y4340000D02*
D03*
D03*
X4244200Y4230000D02*
D03*
X3270000Y1530000D02*
D03*
D03*
X3770000Y740000D02*
D03*
D03*
X4660000Y370000D02*
D03*
D03*
X2700000Y2080000D02*
D03*
D03*
Y1940000D02*
D03*
D03*
Y2210000D02*
D03*
D03*
X4250000Y490000D02*
D03*
D03*
X3810000Y3940031D02*
D03*
X4230000Y4090000D02*
D03*
X4650000Y4320000D02*
D03*
D03*
X3524268Y4869600D02*
D03*
D03*
X1720000Y1280000D02*
D03*
D03*
X1559600Y3089600D02*
D03*
X1770000Y3100000D02*
D03*
X1559600Y3089600D02*
D03*
X1770000Y3100000D02*
D03*
X2219996Y3729993D02*
D03*
X2110001Y3690000D02*
D03*
D03*
X2030000Y3430000D02*
D03*
D03*
X1705000Y1905000D02*
D03*
X1730000Y3600000D02*
D03*
D03*
X2330000Y3515000D02*
D03*
X1330000Y4020000D02*
D03*
D03*
X1699782Y830217D02*
D03*
X1589606Y1450000D02*
D03*
D03*
X1860400Y2200000D02*
D03*
D03*
X1790000Y2029600D02*
D03*
D03*
X1420399Y2300000D02*
D03*
D03*
X1349600Y2870000D02*
D03*
D03*
X1870000Y420000D02*
D03*
D03*
X1790000Y560000D02*
D03*
X1510000Y530000D02*
D03*
D03*
X1800000Y700000D02*
D03*
X1590000Y1250000D02*
D03*
D03*
X1580000Y2170000D02*
D03*
D03*
X1705000Y1905000D02*
D03*
X1370000Y3700000D02*
D03*
D03*
X1320000Y3870000D02*
D03*
D03*
X1490400Y2710000D02*
D03*
D03*
X1490000Y1880000D02*
D03*
D03*
D74*
X2680000Y1590000D02*
X2790000Y1700000D01*
X2970000D01*
X3100000Y1570000D01*
Y20000D02*
Y1570000D01*
X2680000Y20000D02*
Y1590000D01*
D75*
X1660006Y1679993D02*
D03*
X1500000Y3490000D02*
D03*
%TF.MD5,3314ce63d25a211c06e8e6bb024fd927*%
M02*
