%TF.GenerationSoftware,Altium Limited,Altium Designer,20.1.11 (218)*%
G04 Layer_Color=16711935*
%FSLAX45Y45*%
%MOMM*%
%TF.SameCoordinates,C7425212-4277-447C-8971-9BA6FDDE4791*%
%TF.FilePolarity,Negative*%
%TF.FileFunction,Soldermask,Bot*%
%TF.Part,Single*%
G01*
G75*
%TA.AperFunction,SMDPad,CuDef*%
%ADD94R,0.70320X0.80320*%
%ADD95R,0.50320X0.47320*%
%ADD96R,1.00320X0.95320*%
%ADD97C,1.20320*%
%ADD98R,0.60320X0.90320*%
%ADD99R,0.60320X0.45320*%
%TA.AperFunction,BGAPad,CuDef*%
%ADD100C,0.45320*%
%TA.AperFunction,SMDPad,CuDef*%
%ADD101R,0.75320X0.80320*%
%ADD102R,0.45320X0.56320*%
%ADD103R,0.70320X0.85320*%
%TA.AperFunction,WasherPad*%
%ADD104C,0.10040*%
%ADD105C,0.20320*%
%TA.AperFunction,ComponentPad*%
%ADD106C,1.10320*%
%ADD107C,1.22320*%
%TA.AperFunction,ViaPad*%
%ADD108C,1.00320*%
%ADD109C,0.50320*%
%ADD110C,0.50400*%
%ADD111C,0.70320*%
D94*
X2029998Y559999D02*
D03*
Y459999D02*
D03*
X4439999Y4789999D02*
D03*
Y4889999D02*
D03*
X4560002Y4789999D02*
D03*
Y4889999D02*
D03*
X4399998Y489999D02*
D03*
Y589999D02*
D03*
X4639999Y2349999D02*
D03*
Y2249999D02*
D03*
X1692502Y1059998D02*
D03*
Y959998D02*
D03*
X1449999Y4000002D02*
D03*
Y3900002D02*
D03*
X1530000Y2830000D02*
D03*
Y2930000D02*
D03*
X1410001Y2129999D02*
D03*
Y2029999D02*
D03*
X1749999Y2840000D02*
D03*
Y2740000D02*
D03*
X1869999Y2839998D02*
D03*
Y2739998D02*
D03*
X1349999Y2390001D02*
D03*
Y2490001D02*
D03*
X1760001Y3309999D02*
D03*
Y3209999D02*
D03*
X1970000Y2740000D02*
D03*
Y2840000D02*
D03*
X1300000Y1240000D02*
D03*
Y1340000D02*
D03*
X1419998Y1050002D02*
D03*
Y950002D02*
D03*
X1300000Y1049998D02*
D03*
Y949998D02*
D03*
X3729998Y2620000D02*
D03*
Y2520001D02*
D03*
X3610004Y3049999D02*
D03*
Y2949999D02*
D03*
X3770002Y3190002D02*
D03*
Y3290002D02*
D03*
X3650000Y4140000D02*
D03*
Y4240000D02*
D03*
X3759999Y4139999D02*
D03*
Y4239999D02*
D03*
X3989996Y4140000D02*
D03*
Y4240000D02*
D03*
X4120002Y4139999D02*
D03*
Y4239999D02*
D03*
D95*
X3170001Y1428502D02*
D03*
Y1371499D02*
D03*
X3410002Y1428501D02*
D03*
Y1371498D02*
D03*
X1520008Y931510D02*
D03*
Y988508D02*
D03*
X3780001Y601501D02*
D03*
Y658499D02*
D03*
X4019999Y658501D02*
D03*
Y601498D02*
D03*
X1900006Y2591507D02*
D03*
Y2648510D02*
D03*
X1579994Y4008491D02*
D03*
Y3951493D02*
D03*
X1640000Y2813003D02*
D03*
Y2870000D02*
D03*
X1439993Y2391495D02*
D03*
Y2448493D02*
D03*
X4509998Y491498D02*
D03*
Y548500D02*
D03*
X1650010Y3258510D02*
D03*
Y3201507D02*
D03*
X1690010Y2398508D02*
D03*
Y2341510D02*
D03*
X1680006Y748507D02*
D03*
Y691509D02*
D03*
X3660000Y3251501D02*
D03*
Y3308499D02*
D03*
X3329998Y1371503D02*
D03*
Y1428500D02*
D03*
X3259997Y1370003D02*
D03*
Y1427000D02*
D03*
X2509999Y1008501D02*
D03*
Y951498D02*
D03*
X2989999Y761498D02*
D03*
Y818501D02*
D03*
X3079999Y1761499D02*
D03*
Y1818502D02*
D03*
D96*
X3230001Y572501D02*
D03*
Y707502D02*
D03*
X3520001Y572501D02*
D03*
Y707502D02*
D03*
X2389998Y542498D02*
D03*
Y677499D02*
D03*
X3639998Y572502D02*
D03*
Y707503D02*
D03*
X3349999Y707499D02*
D03*
Y572498D02*
D03*
X2910001Y1712501D02*
D03*
Y1847502D02*
D03*
X2510002Y677500D02*
D03*
Y542499D02*
D03*
X2630000Y1417499D02*
D03*
Y1282498D02*
D03*
D97*
X3460000Y2870000D02*
D03*
X4510000Y4570000D02*
D03*
X2824998Y3944999D02*
D03*
X2470001Y3939998D02*
D03*
X3139998Y4010001D02*
D03*
X2710000Y200000D02*
D03*
X2350000Y1360000D02*
D03*
X4810001Y379999D02*
D03*
X4650000Y549998D02*
D03*
D98*
X3934999Y630000D02*
D03*
D99*
X3865002Y607501D02*
D03*
Y652499D02*
D03*
D100*
X4743500Y2464996D02*
D03*
Y2514999D02*
D03*
Y2564996D02*
D03*
Y2614999D02*
D03*
X4700000Y2490000D02*
D03*
Y2590000D02*
D03*
X4656500Y2464996D02*
D03*
Y2514999D02*
D03*
Y2564996D02*
D03*
Y2614999D02*
D03*
D101*
X4700000Y2990002D02*
D03*
Y3090002D02*
D03*
X2090000Y2840000D02*
D03*
Y2740000D02*
D03*
X2329999Y3839999D02*
D03*
Y3740000D02*
D03*
X2669999Y3740001D02*
D03*
Y3840001D02*
D03*
X3000002D02*
D03*
Y3740001D02*
D03*
X1579997Y2300001D02*
D03*
Y2400001D02*
D03*
X2130001Y559999D02*
D03*
Y459999D02*
D03*
X1510002Y779999D02*
D03*
Y679999D02*
D03*
X2999998Y4039999D02*
D03*
Y3939999D02*
D03*
X2669999Y4040000D02*
D03*
Y3940001D02*
D03*
X2329999Y4040000D02*
D03*
Y3940001D02*
D03*
X2720002Y690000D02*
D03*
Y590000D02*
D03*
X2820002Y589999D02*
D03*
Y689999D02*
D03*
X3089999Y1480001D02*
D03*
Y1380001D02*
D03*
X2929998Y589999D02*
D03*
Y689999D02*
D03*
X2710000Y350001D02*
D03*
Y450001D02*
D03*
X3180001Y1759999D02*
D03*
Y1859999D02*
D03*
D102*
X3750000Y2865997D02*
D03*
Y2950000D02*
D03*
D103*
X2510002Y1427499D02*
D03*
Y1332498D02*
D03*
X2619998Y687499D02*
D03*
Y592498D02*
D03*
D104*
X4840000Y4840000D02*
D03*
D105*
X160000Y160000D02*
D03*
Y4840000D02*
D03*
X4840000Y160000D02*
D03*
D106*
X3780000Y240002D02*
D03*
X4459999D02*
D03*
D107*
X2020000Y4860000D02*
D03*
X2401000D02*
D03*
D108*
X2756552Y1265862D02*
D03*
X3100000Y770000D02*
D03*
D03*
X2690000Y1130000D02*
D03*
X2140000Y230000D02*
D03*
X1790000Y560000D02*
D03*
X2160000Y740000D02*
D03*
X2460000Y240000D02*
D03*
X4169992Y3141369D02*
D03*
X2860000Y3670000D02*
D03*
X3720000Y3490000D02*
D03*
X3530000Y3470000D02*
D03*
X2690220Y3509780D02*
D03*
X2075000Y3885000D02*
D03*
X4530000Y2514969D02*
D03*
X4290000Y4890000D02*
D03*
X4670000Y4830000D02*
D03*
X1791091Y1081863D02*
D03*
X3190000Y3740400D02*
D03*
X3110394Y3860393D02*
D03*
X3950000Y3629600D02*
D03*
X3420000Y3620000D02*
D03*
X2460000Y3780000D02*
D03*
X2464600Y3665000D02*
D03*
X4880000Y2170000D02*
D03*
X4869600Y2520000D02*
D03*
Y2649998D02*
D03*
X3440400Y1505220D02*
D03*
X4130000Y620000D02*
D03*
X1900000Y2500000D02*
D03*
X2810000Y410000D02*
D03*
X2760000Y1500000D02*
D03*
X2600000Y939998D02*
D03*
X2660000Y800000D02*
D03*
X2920000Y790000D02*
D03*
X2960000Y480000D02*
D03*
X2410000Y950000D02*
D03*
X1850000Y1680000D02*
D03*
X1990400Y1810000D02*
D03*
X2040400Y1670400D02*
D03*
X1870000Y3510000D02*
D03*
X1630000Y3860000D02*
D03*
X1640000Y3719200D02*
D03*
X1790000Y930000D02*
D03*
X3600001Y3929998D02*
D03*
X3360000Y4870000D02*
D03*
X4000000Y4910000D02*
D03*
X3800439Y4909600D02*
D03*
X4510000Y4320000D02*
D03*
X4234200Y4345769D02*
D03*
X4689937Y2730000D02*
D03*
X4640000Y2120000D02*
D03*
X3189999Y1620001D02*
D03*
X3290000Y1860000D02*
D03*
X2570000Y400000D02*
D03*
X3210400Y870000D02*
D03*
X4250000Y740000D02*
D03*
X2900000Y2140000D02*
D03*
X2270000Y2130000D02*
D03*
X3770000Y490000D02*
D03*
X4670000Y120000D02*
D03*
X3300000Y970000D02*
D03*
X3370000Y860000D02*
D03*
X1640000Y2710000D02*
D03*
X1720410Y3490000D02*
D03*
X1420000Y1250000D02*
D03*
X1330000Y1520000D02*
D03*
Y1890000D02*
D03*
X1490400Y2580000D02*
D03*
X1749192Y2490369D02*
D03*
X2670000Y4180000D02*
D03*
X3860000Y4340000D02*
D03*
X4244200Y4230000D02*
D03*
X3270000Y1530000D02*
D03*
X2900000Y1580000D02*
D03*
X3770000Y740000D02*
D03*
X4660000Y370000D02*
D03*
X2700000Y2080000D02*
D03*
Y1940000D02*
D03*
Y2210000D02*
D03*
X4250000Y490000D02*
D03*
X3810000Y3940031D02*
D03*
X4230000Y4090000D02*
D03*
X4650000Y4320000D02*
D03*
X3524268Y4869600D02*
D03*
X1720000Y1280000D02*
D03*
X1559600Y3089600D02*
D03*
X1770000Y3100000D02*
D03*
X2219996Y3729993D02*
D03*
X2110001Y3690000D02*
D03*
X2030000Y3430000D02*
D03*
X1730000Y3600000D02*
D03*
X2330000Y3515000D02*
D03*
X1330000Y4020000D02*
D03*
X1699782Y830217D02*
D03*
X1589606Y1450000D02*
D03*
X1860400Y2200000D02*
D03*
X1790000Y2029600D02*
D03*
X1420399Y2300000D02*
D03*
X1349600Y2870000D02*
D03*
X1870000Y420000D02*
D03*
X1510000Y530000D02*
D03*
X1800000Y700000D02*
D03*
X1590000Y1250000D02*
D03*
X1580000Y2170000D02*
D03*
X1705000Y1905000D02*
D03*
X1370000Y3700000D02*
D03*
X1320000Y3870000D02*
D03*
X1490400Y2710000D02*
D03*
X1490000Y1880000D02*
D03*
D109*
X2940003Y1090002D02*
D03*
Y1010002D02*
D03*
X2940000Y1050000D02*
D03*
X2980000Y1090000D02*
D03*
X3060002Y1090002D02*
D03*
X3060000Y1010000D02*
D03*
X3020000Y970000D02*
D03*
X3060000D02*
D03*
Y1050000D02*
D03*
X3020000Y1090000D02*
D03*
D110*
X2940000Y970000D02*
D03*
D111*
X1660006Y1679993D02*
D03*
X1500000Y3490000D02*
D03*
%TF.MD5,5f7e95956a95afb318168803cdd899f9*%
M02*
