%TF.GenerationSoftware,Altium Limited,Altium Designer,20.1.11 (218)*%
G04 Layer_Physical_Order=1*
G04 Layer_Color=255*
%FSLAX45Y45*%
%MOMM*%
%TF.SameCoordinates,C7425212-4277-447C-8971-9BA6FDDE4791*%
%TF.FilePolarity,Positive*%
%TF.FileFunction,Copper,L1,Top,Signal*%
%TF.Part,Single*%
G01*
G75*
%TA.AperFunction,Conductor*%
%ADD10C,0.10000*%
%TA.AperFunction,BGAPad,CuDef*%
%ADD11R,0.35000X0.35000*%
%ADD12R,0.80000X0.80000*%
%TA.AperFunction,SMDPad,CuDef*%
%ADD13R,0.30000X0.54000*%
%ADD14R,0.54000X0.54000*%
%ADD15R,0.54000X0.30000*%
%TA.AperFunction,BGAPad,CuDef*%
%ADD16R,0.30000X0.30000*%
%TA.AperFunction,SMDPad,CuDef*%
%ADD17R,2.90000X0.45000*%
%ADD18R,1.90000X0.45000*%
%ADD19R,2.40000X0.45000*%
%ADD20R,0.65000X1.20000*%
%ADD21R,0.50000X1.40000*%
%ADD22R,0.70000X0.75000*%
%ADD23R,0.60000X0.60000*%
%ADD24R,0.60000X0.30000*%
%ADD25R,0.70000X0.90000*%
%TA.AperFunction,BGAPad,CuDef*%
%ADD26C,0.21000*%
%TA.AperFunction,SMDPad,CuDef*%
%ADD27R,1.20000X1.80000*%
%ADD28R,0.60000X1.55000*%
%ADD29R,0.58000X0.50000*%
%ADD30R,0.80000X0.75000*%
%TA.AperFunction,ConnectorPad*%
%ADD31R,1.00000X1.60000*%
%TA.AperFunction,SMDPad,CuDef*%
%ADD32R,0.55000X0.60000*%
%ADD33R,1.40000X2.75000*%
%ADD34R,1.39000X2.75000*%
%ADD35R,0.80000X0.80000*%
%ADD36R,0.80000X0.30000*%
%ADD37R,0.30000X0.92500*%
%ADD38R,0.52500X0.25000*%
%ADD39R,0.50000X0.58000*%
%ADD40R,0.75000X0.80000*%
%ADD41R,1.00000X1.00000*%
%ADD42R,0.25000X0.23000*%
%ADD43R,0.23000X0.25000*%
%ADD44R,3.00000X3.00000*%
%ADD45R,3.00000X2.00000*%
%TA.AperFunction,BGAPad,CuDef*%
%ADD46R,0.40000X0.40000*%
%TA.AperFunction,SMDPad,CuDef*%
%ADD47R,0.55000X0.42000*%
%ADD48R,0.92000X0.71000*%
%TA.AperFunction,ConnectorPad*%
%ADD49R,0.76000X2.03000*%
%TA.AperFunction,SMDPad,CuDef*%
%ADD50C,2.00000*%
%TA.AperFunction,NonConductor*%
%ADD51C,0.20000*%
%TA.AperFunction,Conductor*%
%ADD52R,1.20000X1.10800*%
%ADD53R,0.47600X1.75798*%
%ADD54R,0.62499X0.09997*%
%ADD55R,0.60000X1.40000*%
%ADD56R,1.93040X1.00000*%
%TA.AperFunction,ComponentPad*%
%ADD57C,0.90000*%
%ADD58C,1.02000*%
%TA.AperFunction,ViaPad*%
%ADD59C,0.30000*%
%ADD60C,0.80000*%
%ADD61C,0.50000*%
G36*
X652560Y817360D02*
Y797040D01*
Y776720D01*
Y756400D01*
Y736080D01*
Y715760D01*
Y695440D01*
Y675120D01*
Y654800D01*
Y634480D01*
Y614160D01*
Y593840D01*
Y573520D01*
Y553200D01*
Y532880D01*
Y512560D01*
Y492240D01*
Y471920D01*
Y451600D01*
Y431280D01*
Y410960D01*
Y390640D01*
Y370320D01*
Y350000D01*
Y329680D01*
Y309360D01*
Y289040D01*
Y268720D01*
X632240D01*
Y248400D01*
Y228080D01*
Y207760D01*
Y187440D01*
Y167120D01*
X611920D01*
Y146800D01*
Y126480D01*
X591600D01*
Y106160D01*
X550960D01*
Y85840D01*
X510320D01*
Y65520D01*
X327440D01*
Y85840D01*
X286800D01*
Y106160D01*
X246160D01*
Y126480D01*
Y146800D01*
Y167120D01*
X266480D01*
Y187440D01*
Y207760D01*
X286800D01*
Y228080D01*
Y248400D01*
X307120D01*
Y228080D01*
X347760D01*
Y207760D01*
X429040D01*
Y228080D01*
X469680D01*
Y248400D01*
Y268720D01*
X490000D01*
Y289040D01*
Y309360D01*
Y329680D01*
Y350000D01*
Y370320D01*
Y390640D01*
Y410960D01*
Y431280D01*
Y451600D01*
Y471920D01*
Y492240D01*
Y512560D01*
Y532880D01*
Y553200D01*
Y573520D01*
Y593840D01*
Y614160D01*
Y634480D01*
Y654800D01*
Y675120D01*
Y695440D01*
Y715760D01*
Y736080D01*
Y756400D01*
Y776720D01*
Y797040D01*
Y817360D01*
Y837680D01*
X652560D01*
Y817360D01*
D02*
G37*
G36*
X876080D02*
X916720D01*
Y797040D01*
X957360D01*
Y776720D01*
X977680D01*
Y756400D01*
X998000D01*
Y736080D01*
X1018320D01*
Y715760D01*
Y695440D01*
X1038640D01*
Y675120D01*
Y654800D01*
Y634480D01*
Y614160D01*
Y593840D01*
Y573520D01*
Y553200D01*
Y532880D01*
X1018320D01*
Y512560D01*
Y492240D01*
X998000D01*
Y471920D01*
X977680D01*
Y451600D01*
X957360D01*
Y431280D01*
X937040D01*
Y410960D01*
X876080D01*
Y390640D01*
Y370320D01*
X896400D01*
Y350000D01*
X916720D01*
Y329680D01*
X937040D01*
Y309360D01*
X957360D01*
Y289040D01*
X977680D01*
Y268720D01*
Y248400D01*
X998000D01*
Y228080D01*
X1018320D01*
Y207760D01*
X1038640D01*
Y187440D01*
X1058960D01*
Y167120D01*
X1079280D01*
Y146800D01*
Y126480D01*
X1099600D01*
Y106160D01*
X1119920D01*
Y85840D01*
X1140240D01*
Y65520D01*
X1119920D01*
X937040Y85840D01*
Y106160D01*
X916720D01*
Y126480D01*
X896400D01*
Y146800D01*
X876080D01*
Y167120D01*
X855760D01*
Y187440D01*
X835440D01*
Y207760D01*
Y228080D01*
X815120D01*
Y248400D01*
X794800D01*
Y268720D01*
X774480D01*
Y289040D01*
Y309360D01*
X754160D01*
Y329680D01*
X733840D01*
Y350000D01*
X713520D01*
Y370320D01*
Y390640D01*
Y410960D01*
Y431280D01*
Y451600D01*
Y471920D01*
Y492240D01*
X815120D01*
Y512560D01*
X855760D01*
Y532880D01*
X876080D01*
Y553200D01*
Y573520D01*
Y593840D01*
Y614160D01*
Y634480D01*
Y654800D01*
Y675120D01*
X855760D01*
Y695440D01*
X815120D01*
Y715760D01*
X713520D01*
Y736080D01*
Y756400D01*
Y776720D01*
Y797040D01*
Y817360D01*
Y837680D01*
X876080D01*
Y817360D01*
D02*
G37*
G36*
X1655000Y1419994D02*
X1615006Y1380000D01*
X1704994D01*
X1665000Y1419994D01*
X1655000D01*
D02*
G37*
G36*
X250000Y1780000D02*
Y1680000D01*
X600000D01*
Y1780000D01*
X250000D01*
D02*
G37*
G36*
Y1930000D02*
Y1830000D01*
X600000D01*
Y1930000D01*
X250000D01*
D02*
G37*
G36*
X1610000Y1630000D02*
X1710000D01*
X1610000D01*
D01*
D02*
G37*
G36*
X2090000Y1025837D02*
Y790000D01*
X2017484Y789999D01*
Y790037D01*
X2002491Y805031D01*
X1957484Y723271D01*
Y863270D01*
X1898236D01*
X1892501Y857535D01*
Y1033333D01*
X1940101D01*
Y968332D01*
X2034903D01*
Y1033333D01*
X2082503D01*
X2090000Y1025837D01*
D02*
G37*
G36*
X2017484Y723271D02*
X2017484Y789999D01*
X2017484D01*
Y723271D01*
D02*
G37*
G36*
X2790000Y1170000D02*
D01*
D02*
G37*
G36*
X1745003Y1474997D02*
X1750000Y1470000D01*
X1830000D01*
X1790000Y1430000D01*
X1745003Y1474997D01*
D02*
G37*
G36*
X1840000Y1350000D02*
X2100000D01*
Y1210000D01*
X1840000D01*
Y1350000D01*
D02*
G37*
G36*
X2410000Y1990000D02*
X2270000D01*
Y1745000D01*
X2410000D01*
Y1990000D01*
D02*
G37*
G36*
X1220000Y4280000D02*
X1120000D01*
Y4380000D01*
X454742D01*
Y4480000D01*
X1120000Y4480000D01*
D01*
X1220000D01*
Y4280000D01*
D02*
G37*
G36*
X600000Y4180000D02*
X250000D01*
Y4280000D01*
X600000D01*
Y4180000D01*
D02*
G37*
G36*
Y4030000D02*
X250000D01*
Y4130000D01*
X600000D01*
Y4030000D01*
D02*
G37*
G36*
X1540000Y3450000D02*
X1460000D01*
Y3530000D01*
X1540000D01*
Y3450000D01*
D02*
G37*
G36*
X1640000Y3180000D02*
Y3130000D01*
X1590000Y3180000D01*
X1640000D01*
D02*
G37*
G36*
X3800000Y3210000D02*
Y2490000D01*
X2510000Y2490000D01*
X2510000Y3210000D01*
X3800000D01*
D02*
G37*
G36*
X3470282Y2295434D02*
X3515433Y2250282D01*
X3424566Y2249718D01*
X3470282Y2295434D01*
D02*
G37*
G36*
X3770000Y3710000D02*
Y3610000D01*
X3870000Y3610000D01*
X3770000Y3710000D01*
D02*
G37*
G36*
X3802500Y4520000D02*
X3830000D01*
Y4492500D01*
X3802500Y4520000D01*
D02*
G37*
G36*
X4090000Y4960000D02*
Y4875858D01*
X4090858Y4875000D01*
X4167408D01*
X4090000Y4960000D01*
D02*
G37*
G36*
X978045Y1206276D02*
X978784Y1206184D01*
X979524Y1205906D01*
X979617D01*
X979709Y1205814D01*
X980171Y1205537D01*
X980726Y1205167D01*
X981281Y1204612D01*
X981466Y1204520D01*
X981743Y1204150D01*
X982205Y1203595D01*
X982575Y1202855D01*
X982668Y1202670D01*
X982852Y1202208D01*
X982945Y1201469D01*
X983037Y1200636D01*
Y1200544D01*
Y1200451D01*
X982945Y1199897D01*
X982852Y1199157D01*
X982575Y1198417D01*
X982483Y1198233D01*
X982205Y1197770D01*
X981835Y1197216D01*
X981281Y1196568D01*
X981188Y1196476D01*
X980818Y1196106D01*
X980264Y1195736D01*
X979524Y1195366D01*
X979339Y1195274D01*
X978877Y1195182D01*
X978137Y1195089D01*
X977305Y1194997D01*
X977120D01*
X976565Y1195089D01*
X975826Y1195182D01*
X975086Y1195366D01*
X974901Y1195459D01*
X974439Y1195736D01*
X973884Y1196106D01*
X973237Y1196568D01*
X973145Y1196753D01*
X972775Y1197123D01*
X972405Y1197678D01*
X972035Y1198417D01*
Y1198510D01*
X971943Y1198602D01*
X971850Y1199065D01*
X971758Y1199804D01*
X971665Y1200636D01*
Y1200729D01*
Y1200821D01*
X971758Y1201376D01*
X971850Y1202116D01*
X972035Y1202855D01*
Y1202948D01*
X972128Y1203040D01*
X972405Y1203503D01*
X972775Y1204057D01*
X973237Y1204612D01*
X973422Y1204797D01*
X973792Y1205074D01*
X974347Y1205537D01*
X975086Y1205906D01*
X975179D01*
X975271Y1205999D01*
X975733Y1206184D01*
X976473Y1206276D01*
X977305Y1206369D01*
X977490D01*
X978045Y1206276D01*
D02*
G37*
G36*
X415542D02*
X416282Y1206184D01*
X417022Y1205906D01*
X417114D01*
X417207Y1205814D01*
X417669Y1205537D01*
X418224Y1205167D01*
X418778Y1204612D01*
X418963Y1204520D01*
X419241Y1204150D01*
X419703Y1203595D01*
X420073Y1202855D01*
X420165Y1202670D01*
X420350Y1202208D01*
X420443Y1201469D01*
X420535Y1200636D01*
Y1200544D01*
Y1200451D01*
X420443Y1199897D01*
X420350Y1199157D01*
X420073Y1198417D01*
X419980Y1198233D01*
X419703Y1197770D01*
X419333Y1197216D01*
X418778Y1196568D01*
X418686Y1196476D01*
X418316Y1196106D01*
X417761Y1195736D01*
X417022Y1195366D01*
X416837Y1195274D01*
X416375Y1195182D01*
X415635Y1195089D01*
X414803Y1194997D01*
X414618D01*
X414063Y1195089D01*
X413324Y1195182D01*
X412584Y1195366D01*
X412399Y1195459D01*
X411937Y1195736D01*
X411382Y1196106D01*
X410735Y1196568D01*
X410642Y1196753D01*
X410272Y1197123D01*
X409903Y1197678D01*
X409533Y1198417D01*
Y1198510D01*
X409440Y1198602D01*
X409348Y1199065D01*
X409255Y1199804D01*
X409163Y1200636D01*
Y1200729D01*
Y1200821D01*
X409255Y1201376D01*
X409348Y1202116D01*
X409533Y1202855D01*
Y1202948D01*
X409625Y1203040D01*
X409903Y1203503D01*
X410272Y1204057D01*
X410735Y1204612D01*
X410920Y1204797D01*
X411289Y1205074D01*
X411844Y1205537D01*
X412584Y1205906D01*
X412676D01*
X412769Y1205999D01*
X413231Y1206184D01*
X413971Y1206276D01*
X414803Y1206369D01*
X414988D01*
X415542Y1206276D01*
D02*
G37*
G36*
X935330Y1189542D02*
X935792D01*
X936440Y1189449D01*
X937919Y1189172D01*
X939491Y1188710D01*
X941062Y1187970D01*
X942634Y1187045D01*
X944021Y1185751D01*
X944206Y1185566D01*
X944576Y1185011D01*
X945038Y1184179D01*
X945685Y1182885D01*
X946332Y1181313D01*
X946795Y1179279D01*
X947164Y1176968D01*
X947349Y1174286D01*
Y1147104D01*
X940138D01*
Y1173732D01*
Y1173824D01*
Y1173917D01*
Y1174194D01*
Y1174564D01*
X940045Y1175396D01*
X939953Y1176505D01*
X939676Y1177615D01*
X939398Y1178817D01*
X938936Y1180019D01*
X938289Y1180943D01*
X938196Y1181036D01*
X937919Y1181313D01*
X937549Y1181683D01*
X936902Y1182145D01*
X936162Y1182607D01*
X935238Y1182977D01*
X934128Y1183255D01*
X932834Y1183347D01*
X932372D01*
X932002Y1183255D01*
X931077Y1183162D01*
X930153Y1182885D01*
X930060D01*
X929968Y1182792D01*
X929413Y1182607D01*
X928581Y1182145D01*
X927564Y1181498D01*
X927471D01*
X927286Y1181313D01*
X927009Y1181128D01*
X926639Y1180851D01*
X925715Y1180019D01*
X924513Y1178909D01*
X924420Y1178817D01*
X924235Y1178632D01*
X923958Y1178262D01*
X923496Y1177800D01*
X922941Y1177153D01*
X922386Y1176413D01*
X921739Y1175673D01*
X920999Y1174749D01*
Y1147104D01*
X913788D01*
Y1188894D01*
X920167D01*
X920445Y1182145D01*
X920537Y1182238D01*
X920722Y1182515D01*
X921092Y1182885D01*
X921554Y1183347D01*
X922756Y1184549D01*
X923958Y1185659D01*
X924050Y1185751D01*
X924235Y1185936D01*
X924605Y1186213D01*
X925067Y1186491D01*
X926085Y1187230D01*
X927286Y1187970D01*
X927379D01*
X927564Y1188155D01*
X927934Y1188247D01*
X928303Y1188525D01*
X929413Y1188894D01*
X930615Y1189264D01*
X930707D01*
X930892Y1189357D01*
X931262D01*
X931724Y1189449D01*
X932926Y1189542D01*
X934221Y1189634D01*
X934868D01*
X935330Y1189542D01*
D02*
G37*
G36*
X1075401D02*
X1076326D01*
X1078452Y1189357D01*
X1078544D01*
X1079007Y1189264D01*
X1079561D01*
X1080394Y1189172D01*
X1081318Y1188987D01*
X1082335Y1188894D01*
X1083537Y1188617D01*
X1084739Y1188432D01*
Y1181960D01*
X1084554D01*
X1084184Y1182145D01*
X1083537Y1182238D01*
X1082613Y1182423D01*
X1081688Y1182607D01*
X1080578Y1182792D01*
X1078267Y1183162D01*
X1078175D01*
X1077712Y1183255D01*
X1077158Y1183347D01*
X1076418Y1183440D01*
X1075586D01*
X1074754Y1183532D01*
X1072905Y1183625D01*
X1071980D01*
X1071333Y1183532D01*
X1069854Y1183440D01*
X1068374Y1183162D01*
X1068282D01*
X1068097Y1183070D01*
X1067727Y1182977D01*
X1067265Y1182885D01*
X1066340Y1182423D01*
X1065323Y1181960D01*
X1065138Y1181868D01*
X1064676Y1181498D01*
X1064214Y1180943D01*
X1063751Y1180296D01*
X1063659Y1180111D01*
X1063567Y1179649D01*
X1063382Y1179002D01*
X1063289Y1178170D01*
Y1178077D01*
Y1177985D01*
X1063382Y1177522D01*
X1063474Y1176875D01*
X1063659Y1176136D01*
X1063751Y1175951D01*
X1064029Y1175581D01*
X1064584Y1175026D01*
X1065323Y1174379D01*
X1065416D01*
X1065508Y1174194D01*
X1065786Y1174102D01*
X1066155Y1173824D01*
X1066710Y1173547D01*
X1067265Y1173269D01*
X1067912Y1172992D01*
X1068652Y1172622D01*
X1068744D01*
X1069021Y1172437D01*
X1069484Y1172345D01*
X1070131Y1172068D01*
X1070963Y1171790D01*
X1071888Y1171513D01*
X1072905Y1171235D01*
X1074107Y1170866D01*
X1074291Y1170773D01*
X1074754Y1170681D01*
X1075401Y1170496D01*
X1076326Y1170126D01*
X1077343Y1169849D01*
X1078360Y1169386D01*
X1079377Y1169016D01*
X1080394Y1168554D01*
X1080486Y1168462D01*
X1080856Y1168369D01*
X1081226Y1168092D01*
X1081873Y1167815D01*
X1083167Y1166890D01*
X1084462Y1165873D01*
X1084554Y1165780D01*
X1084739Y1165596D01*
X1085016Y1165318D01*
X1085386Y1164948D01*
X1086126Y1163931D01*
X1086496Y1163284D01*
X1086773Y1162637D01*
Y1162545D01*
X1086865Y1162360D01*
X1087050Y1161897D01*
X1087143Y1161435D01*
X1087328Y1160788D01*
X1087420Y1160141D01*
X1087513Y1158476D01*
Y1158384D01*
Y1158107D01*
Y1157644D01*
X1087420Y1157182D01*
X1087143Y1155888D01*
X1086681Y1154501D01*
Y1154408D01*
X1086588Y1154223D01*
X1086403Y1153854D01*
X1086126Y1153484D01*
X1085479Y1152467D01*
X1084647Y1151357D01*
X1084554Y1151265D01*
X1084462Y1151172D01*
X1084184Y1150895D01*
X1083814Y1150618D01*
X1082797Y1149878D01*
X1081595Y1149046D01*
X1081503D01*
X1081318Y1148861D01*
X1080948Y1148769D01*
X1080486Y1148491D01*
X1079377Y1148029D01*
X1077990Y1147567D01*
X1077897D01*
X1077712Y1147474D01*
X1077250Y1147382D01*
X1076788Y1147289D01*
X1076233Y1147104D01*
X1075493Y1147012D01*
X1074014Y1146735D01*
X1073922D01*
X1073644Y1146642D01*
X1073274D01*
X1072720Y1146550D01*
X1071518Y1146457D01*
X1070038Y1146365D01*
X1068467D01*
X1067450Y1146457D01*
X1066248D01*
X1064953Y1146550D01*
X1062180Y1146735D01*
X1061995D01*
X1061625Y1146827D01*
X1060885Y1146919D01*
X1060053Y1147012D01*
X1058944Y1147197D01*
X1057834Y1147382D01*
X1055338Y1147936D01*
Y1154593D01*
X1055523D01*
X1055985Y1154408D01*
X1056632Y1154223D01*
X1057557Y1153946D01*
X1058666Y1153669D01*
X1059868Y1153391D01*
X1062550Y1152929D01*
X1062734D01*
X1063197Y1152837D01*
X1063844Y1152744D01*
X1064769D01*
X1065878Y1152652D01*
X1067080Y1152559D01*
X1069761Y1152467D01*
X1070593D01*
X1071518Y1152559D01*
X1072627Y1152652D01*
X1073922Y1152837D01*
X1075216Y1153022D01*
X1076418Y1153391D01*
X1077435Y1153854D01*
X1077527Y1153946D01*
X1077805Y1154131D01*
X1078267Y1154408D01*
X1078729Y1154871D01*
X1079192Y1155425D01*
X1079654Y1156165D01*
X1079931Y1156997D01*
X1080024Y1157922D01*
Y1158014D01*
Y1158107D01*
X1079931Y1158569D01*
X1079839Y1159216D01*
X1079561Y1159863D01*
X1079469Y1160048D01*
X1079284Y1160418D01*
X1078822Y1160973D01*
X1078082Y1161620D01*
X1077897Y1161805D01*
X1077620Y1161897D01*
X1077343Y1162175D01*
X1076880Y1162360D01*
X1076326Y1162637D01*
X1075586Y1163007D01*
X1074846Y1163284D01*
X1074754D01*
X1074476Y1163469D01*
X1074014Y1163654D01*
X1073274Y1163931D01*
X1072442Y1164209D01*
X1071425Y1164579D01*
X1070316Y1164948D01*
X1068929Y1165318D01*
X1068837D01*
X1068467Y1165503D01*
X1067912Y1165596D01*
X1067265Y1165873D01*
X1066433Y1166150D01*
X1065601Y1166428D01*
X1063751Y1167167D01*
X1063659Y1167260D01*
X1063382Y1167352D01*
X1062919Y1167630D01*
X1062365Y1167907D01*
X1060978Y1168647D01*
X1059591Y1169664D01*
X1059499Y1169756D01*
X1059314Y1169941D01*
X1058944Y1170218D01*
X1058574Y1170681D01*
X1057649Y1171698D01*
X1056817Y1173085D01*
Y1173177D01*
X1056632Y1173454D01*
X1056540Y1173824D01*
X1056355Y1174379D01*
X1056170Y1175026D01*
X1056078Y1175858D01*
X1055893Y1176783D01*
Y1177707D01*
Y1177800D01*
Y1177985D01*
Y1178355D01*
X1055985Y1178817D01*
X1056078Y1179372D01*
X1056170Y1180019D01*
X1056632Y1181498D01*
Y1181590D01*
X1056817Y1181868D01*
X1057002Y1182238D01*
X1057280Y1182792D01*
X1057649Y1183347D01*
X1058112Y1183994D01*
X1058759Y1184734D01*
X1059406Y1185381D01*
X1059499Y1185474D01*
X1059776Y1185659D01*
X1060238Y1186028D01*
X1060793Y1186491D01*
X1061533Y1186953D01*
X1062457Y1187415D01*
X1063474Y1187970D01*
X1064676Y1188432D01*
X1064861Y1188525D01*
X1065323Y1188617D01*
X1065970Y1188802D01*
X1066987Y1189079D01*
X1068189Y1189264D01*
X1069576Y1189449D01*
X1071240Y1189542D01*
X1072997Y1189634D01*
X1074661D01*
X1075401Y1189542D01*
D02*
G37*
G36*
X701879D02*
X702711Y1189449D01*
X703728Y1189264D01*
X704745Y1188987D01*
X705854Y1188617D01*
X706871Y1188062D01*
X706964Y1187970D01*
X707334Y1187785D01*
X707796Y1187415D01*
X708443Y1186953D01*
X709183Y1186398D01*
X709922Y1185659D01*
X710662Y1184826D01*
X711402Y1183809D01*
X711494Y1183717D01*
X711679Y1183347D01*
X712049Y1182792D01*
X712419Y1181960D01*
X712881Y1181036D01*
X713343Y1179926D01*
X713806Y1178632D01*
X714175Y1177245D01*
Y1177060D01*
X714360Y1176598D01*
X714453Y1175766D01*
X714638Y1174749D01*
X714823Y1173547D01*
X714915Y1172068D01*
X715100Y1170496D01*
Y1168739D01*
Y1168647D01*
Y1168462D01*
Y1168184D01*
Y1167815D01*
X715007Y1166705D01*
X714915Y1165411D01*
X714730Y1163839D01*
X714453Y1162267D01*
X714083Y1160603D01*
X713528Y1158939D01*
X713436Y1158754D01*
X713251Y1158292D01*
X712881Y1157552D01*
X712419Y1156535D01*
X711771Y1155518D01*
X711032Y1154316D01*
X710200Y1153206D01*
X709183Y1152097D01*
X709090Y1152005D01*
X708720Y1151635D01*
X708073Y1151172D01*
X707334Y1150525D01*
X706409Y1149878D01*
X705207Y1149138D01*
X704005Y1148491D01*
X702618Y1147936D01*
X702433Y1147844D01*
X701971Y1147752D01*
X701232Y1147567D01*
X700214Y1147289D01*
X699013Y1147012D01*
X697626Y1146827D01*
X696146Y1146735D01*
X694575Y1146642D01*
X693280D01*
X692078Y1146735D01*
X690599Y1146919D01*
X690229D01*
X689859Y1147012D01*
X689397Y1147104D01*
X688750D01*
X688103Y1147197D01*
X686623Y1147474D01*
Y1130000D01*
X679412D01*
Y1188894D01*
X685791D01*
X686254Y1181868D01*
Y1181960D01*
X686439Y1182053D01*
X686808Y1182607D01*
X687456Y1183347D01*
X688288Y1184179D01*
X689305Y1185196D01*
X690414Y1186213D01*
X691616Y1187138D01*
X692910Y1187877D01*
X693095Y1187970D01*
X693558Y1188155D01*
X694205Y1188432D01*
X695222Y1188802D01*
X696331Y1189079D01*
X697626Y1189357D01*
X699105Y1189542D01*
X700584Y1189634D01*
X701232D01*
X701879Y1189542D01*
D02*
G37*
G36*
X516042D02*
X516504D01*
X517152Y1189449D01*
X518631Y1189079D01*
X520203Y1188617D01*
X521774Y1187877D01*
X523346Y1186768D01*
X524086Y1186121D01*
X524733Y1185381D01*
X524918Y1185196D01*
X525010Y1184919D01*
X525288Y1184642D01*
X525473Y1184179D01*
X525750Y1183625D01*
X526120Y1182977D01*
X526397Y1182238D01*
X526675Y1181406D01*
X526952Y1180573D01*
X527229Y1179556D01*
X527507Y1178447D01*
X527692Y1177153D01*
X527784Y1175858D01*
X527877Y1174471D01*
Y1172992D01*
X520572D01*
Y1173085D01*
Y1173269D01*
Y1173547D01*
Y1173917D01*
X520480Y1174841D01*
X520388Y1175951D01*
X520203Y1177245D01*
X519925Y1178539D01*
X519463Y1179834D01*
X518908Y1180851D01*
X518816Y1180943D01*
X518631Y1181221D01*
X518169Y1181683D01*
X517614Y1182145D01*
X516874Y1182515D01*
X516042Y1182977D01*
X515025Y1183255D01*
X513823Y1183347D01*
X513268D01*
X512991Y1183255D01*
X512067Y1183162D01*
X510957Y1182792D01*
X510865D01*
X510680Y1182700D01*
X510402Y1182607D01*
X510033Y1182423D01*
X509015Y1181868D01*
X507906Y1181128D01*
X507814Y1181036D01*
X507629Y1180943D01*
X507351Y1180666D01*
X506889Y1180389D01*
X505872Y1179372D01*
X504578Y1178170D01*
X504485Y1178077D01*
X504300Y1177892D01*
X503930Y1177522D01*
X503468Y1176968D01*
X502913Y1176320D01*
X502266Y1175673D01*
X501619Y1174841D01*
X500879Y1173917D01*
Y1147104D01*
X493575D01*
Y1188894D01*
X500140D01*
X500325Y1181128D01*
Y1181221D01*
X500510Y1181313D01*
X500972Y1181868D01*
X501711Y1182607D01*
X502636Y1183625D01*
X503745Y1184642D01*
X504947Y1185751D01*
X506242Y1186768D01*
X507629Y1187600D01*
X507814Y1187693D01*
X508276Y1187877D01*
X508923Y1188247D01*
X509940Y1188617D01*
X510957Y1188987D01*
X512251Y1189357D01*
X513546Y1189542D01*
X514933Y1189634D01*
X515580D01*
X516042Y1189542D01*
D02*
G37*
G36*
X371996Y1147104D02*
X363675D01*
X347310Y1188894D01*
X355539D01*
X365801Y1161158D01*
X368020Y1154408D01*
X370331Y1161343D01*
X380502Y1188894D01*
X388453D01*
X371996Y1147104D01*
D02*
G37*
G36*
X287306Y1163654D02*
Y1163469D01*
Y1163099D01*
X287214Y1162360D01*
Y1161528D01*
X287029Y1160511D01*
X286844Y1159401D01*
X286566Y1158199D01*
X286197Y1156997D01*
Y1156905D01*
X286012Y1156442D01*
X285734Y1155888D01*
X285457Y1155148D01*
X284995Y1154316D01*
X284440Y1153391D01*
X283793Y1152467D01*
X283053Y1151542D01*
X282961Y1151450D01*
X282683Y1151172D01*
X282221Y1150710D01*
X281574Y1150248D01*
X280834Y1149601D01*
X279910Y1149046D01*
X278893Y1148399D01*
X277691Y1147844D01*
X277506Y1147752D01*
X277136Y1147659D01*
X276489Y1147474D01*
X275564Y1147197D01*
X274455Y1146919D01*
X273253Y1146735D01*
X271773Y1146642D01*
X270202Y1146550D01*
X269185D01*
X268168Y1146642D01*
X266966Y1146827D01*
X266688D01*
X266318Y1146919D01*
X265949Y1147012D01*
X264932Y1147104D01*
X263730Y1147382D01*
X263637D01*
X263452Y1147474D01*
X263175Y1147567D01*
X262805Y1147659D01*
X261788Y1147936D01*
X260771Y1148306D01*
X260679D01*
X260586Y1148399D01*
X259939Y1148676D01*
X259199Y1149046D01*
X258460Y1149601D01*
Y1157090D01*
X258552Y1156997D01*
X258922Y1156812D01*
X259384Y1156442D01*
X260124Y1155980D01*
X260956Y1155518D01*
X261881Y1154963D01*
X262990Y1154501D01*
X264100Y1154039D01*
X264284D01*
X264654Y1153854D01*
X265301Y1153761D01*
X266041Y1153576D01*
X266966Y1153391D01*
X268075Y1153206D01*
X269185Y1153114D01*
X270294Y1153022D01*
X271034D01*
X271866Y1153206D01*
X272883Y1153391D01*
X273992Y1153669D01*
X275194Y1154131D01*
X276304Y1154778D01*
X277321Y1155703D01*
X277413Y1155795D01*
X277691Y1156258D01*
X278153Y1156905D01*
X278615Y1157737D01*
X278985Y1158846D01*
X279447Y1160233D01*
X279725Y1161897D01*
X279817Y1163746D01*
Y1195089D01*
X259199D01*
Y1201469D01*
X287306D01*
Y1163654D01*
D02*
G37*
G36*
X1167487Y1189542D02*
X1168504Y1189449D01*
X1169706Y1189264D01*
X1172017Y1188802D01*
X1172110D01*
X1172572Y1188617D01*
X1173127Y1188432D01*
X1173774Y1188155D01*
X1174606Y1187785D01*
X1175438Y1187323D01*
X1176270Y1186860D01*
X1177103Y1186213D01*
X1177195Y1186121D01*
X1177472Y1185936D01*
X1177842Y1185566D01*
X1178304Y1185104D01*
X1178859Y1184457D01*
X1179414Y1183717D01*
X1179876Y1182885D01*
X1180339Y1181960D01*
X1180431Y1181868D01*
X1180523Y1181498D01*
X1180708Y1180943D01*
X1180986Y1180204D01*
X1181171Y1179372D01*
X1181356Y1178262D01*
X1181448Y1177153D01*
X1181540Y1175858D01*
Y1147104D01*
X1174976D01*
X1174791Y1152652D01*
X1174606Y1152467D01*
X1174236Y1152097D01*
X1173497Y1151542D01*
X1172665Y1150803D01*
X1171555Y1150063D01*
X1170446Y1149231D01*
X1169151Y1148491D01*
X1167857Y1147844D01*
X1167672Y1147752D01*
X1167210Y1147659D01*
X1166563Y1147382D01*
X1165638Y1147104D01*
X1164529Y1146827D01*
X1163234Y1146642D01*
X1161940Y1146457D01*
X1160460Y1146365D01*
X1159906D01*
X1159259Y1146457D01*
X1158426D01*
X1157409Y1146550D01*
X1156392Y1146735D01*
X1154358Y1147197D01*
X1154266D01*
X1153989Y1147382D01*
X1153526Y1147567D01*
X1152879Y1147844D01*
X1151585Y1148676D01*
X1150198Y1149693D01*
X1150105Y1149786D01*
X1149920Y1149971D01*
X1149643Y1150340D01*
X1149273Y1150803D01*
X1148903Y1151357D01*
X1148441Y1152005D01*
X1147794Y1153484D01*
Y1153576D01*
X1147702Y1153854D01*
X1147609Y1154316D01*
X1147424Y1154871D01*
X1147332Y1155610D01*
X1147147Y1156442D01*
X1147054Y1158199D01*
Y1158292D01*
Y1158476D01*
Y1158846D01*
X1147147Y1159216D01*
X1147239Y1159771D01*
X1147332Y1160418D01*
X1147609Y1161805D01*
X1148164Y1163377D01*
X1148996Y1165041D01*
X1149551Y1165873D01*
X1150198Y1166613D01*
X1150845Y1167352D01*
X1151677Y1168092D01*
X1151770D01*
X1151862Y1168277D01*
X1152139Y1168462D01*
X1152602Y1168647D01*
X1153064Y1168924D01*
X1153619Y1169201D01*
X1154358Y1169571D01*
X1155190Y1169941D01*
X1156115Y1170218D01*
X1157132Y1170588D01*
X1158242Y1170866D01*
X1159536Y1171143D01*
X1160830Y1171328D01*
X1162310Y1171513D01*
X1163881Y1171698D01*
X1174236D01*
Y1175303D01*
Y1175488D01*
Y1175951D01*
X1174144Y1176598D01*
X1173959Y1177430D01*
X1173682Y1178355D01*
X1173219Y1179372D01*
X1172665Y1180296D01*
X1171833Y1181221D01*
X1171740Y1181313D01*
X1171370Y1181590D01*
X1170816Y1181960D01*
X1170076Y1182330D01*
X1169059Y1182700D01*
X1167764Y1183070D01*
X1166285Y1183347D01*
X1164621Y1183440D01*
X1163327D01*
X1162402Y1183347D01*
X1161293Y1183255D01*
X1160183Y1183070D01*
X1157594Y1182607D01*
X1157409D01*
X1157040Y1182423D01*
X1156300Y1182238D01*
X1155468Y1182053D01*
X1154358Y1181683D01*
X1153156Y1181313D01*
X1151862Y1180851D01*
X1150568Y1180389D01*
Y1186953D01*
X1150660D01*
X1150845Y1187045D01*
X1151030Y1187138D01*
X1151400Y1187230D01*
X1152324Y1187508D01*
X1153526Y1187877D01*
X1153619D01*
X1153804Y1187970D01*
X1154173Y1188062D01*
X1154636Y1188155D01*
X1155838Y1188432D01*
X1157132Y1188710D01*
X1157225D01*
X1157502Y1188802D01*
X1157872Y1188894D01*
X1158334Y1188987D01*
X1158889Y1189079D01*
X1159536Y1189172D01*
X1161015Y1189357D01*
X1161108D01*
X1161385Y1189449D01*
X1161755D01*
X1162310Y1189542D01*
X1162957D01*
X1163604Y1189634D01*
X1166563D01*
X1167487Y1189542D01*
D02*
G37*
G36*
X982113Y1153114D02*
X994594D01*
Y1147104D01*
X961125D01*
Y1153114D01*
X974809D01*
Y1182885D01*
X962512D01*
Y1188894D01*
X982113D01*
Y1153114D01*
D02*
G37*
G36*
X900012Y1195182D02*
X887438D01*
Y1153391D01*
X900012D01*
Y1147104D01*
X867375D01*
Y1153391D01*
X879949D01*
Y1195182D01*
X867375D01*
Y1201469D01*
X900012D01*
Y1195182D01*
D02*
G37*
G36*
X805614Y1183255D02*
X782408Y1153206D01*
X807001D01*
Y1147104D01*
X773347D01*
Y1152189D01*
X796831Y1182792D01*
X773902D01*
Y1188894D01*
X805614D01*
Y1183255D01*
D02*
G37*
G36*
X596201Y1153391D02*
X620055D01*
Y1147104D01*
X588713D01*
Y1201469D01*
X596201D01*
Y1153391D01*
D02*
G37*
G36*
X419611Y1153114D02*
X432092D01*
Y1147104D01*
X398623D01*
Y1153114D01*
X412307D01*
Y1182885D01*
X400010D01*
Y1188894D01*
X419611D01*
Y1153114D01*
D02*
G37*
G36*
X323734Y1189542D02*
X324751Y1189449D01*
X325953Y1189264D01*
X328264Y1188802D01*
X328356D01*
X328819Y1188617D01*
X329373Y1188432D01*
X330021Y1188155D01*
X330853Y1187785D01*
X331685Y1187323D01*
X332517Y1186860D01*
X333349Y1186213D01*
X333442Y1186121D01*
X333719Y1185936D01*
X334089Y1185566D01*
X334551Y1185104D01*
X335106Y1184457D01*
X335660Y1183717D01*
X336123Y1182885D01*
X336585Y1181960D01*
X336678Y1181868D01*
X336770Y1181498D01*
X336955Y1180943D01*
X337232Y1180204D01*
X337417Y1179372D01*
X337602Y1178262D01*
X337695Y1177153D01*
X337787Y1175858D01*
Y1147104D01*
X331223D01*
X331038Y1152652D01*
X330853Y1152467D01*
X330483Y1152097D01*
X329743Y1151542D01*
X328911Y1150803D01*
X327802Y1150063D01*
X326692Y1149231D01*
X325398Y1148491D01*
X324103Y1147844D01*
X323919Y1147752D01*
X323456Y1147659D01*
X322809Y1147382D01*
X321885Y1147104D01*
X320775Y1146827D01*
X319481Y1146642D01*
X318186Y1146457D01*
X316707Y1146365D01*
X316152D01*
X315505Y1146457D01*
X314673D01*
X313656Y1146550D01*
X312639Y1146735D01*
X310605Y1147197D01*
X310512D01*
X310235Y1147382D01*
X309773Y1147567D01*
X309126Y1147844D01*
X307831Y1148676D01*
X306444Y1149693D01*
X306352Y1149786D01*
X306167Y1149971D01*
X305890Y1150340D01*
X305520Y1150803D01*
X305150Y1151357D01*
X304688Y1152005D01*
X304041Y1153484D01*
Y1153576D01*
X303948Y1153854D01*
X303856Y1154316D01*
X303671Y1154871D01*
X303578Y1155610D01*
X303393Y1156442D01*
X303301Y1158199D01*
Y1158292D01*
Y1158476D01*
Y1158846D01*
X303393Y1159216D01*
X303486Y1159771D01*
X303578Y1160418D01*
X303856Y1161805D01*
X304410Y1163377D01*
X305242Y1165041D01*
X305797Y1165873D01*
X306444Y1166613D01*
X307092Y1167352D01*
X307924Y1168092D01*
X308016D01*
X308109Y1168277D01*
X308386Y1168462D01*
X308848Y1168647D01*
X309311Y1168924D01*
X309865Y1169201D01*
X310605Y1169571D01*
X311437Y1169941D01*
X312362Y1170218D01*
X313379Y1170588D01*
X314488Y1170866D01*
X315782Y1171143D01*
X317077Y1171328D01*
X318556Y1171513D01*
X320128Y1171698D01*
X330483D01*
Y1175303D01*
Y1175488D01*
Y1175951D01*
X330390Y1176598D01*
X330206Y1177430D01*
X329928Y1178355D01*
X329466Y1179372D01*
X328911Y1180296D01*
X328079Y1181221D01*
X327987Y1181313D01*
X327617Y1181590D01*
X327062Y1181960D01*
X326322Y1182330D01*
X325305Y1182700D01*
X324011Y1183070D01*
X322532Y1183347D01*
X320868Y1183440D01*
X319573D01*
X318649Y1183347D01*
X317539Y1183255D01*
X316430Y1183070D01*
X313841Y1182607D01*
X313656D01*
X313286Y1182423D01*
X312546Y1182238D01*
X311714Y1182053D01*
X310605Y1181683D01*
X309403Y1181313D01*
X308109Y1180851D01*
X306814Y1180389D01*
Y1186953D01*
X306907D01*
X307092Y1187045D01*
X307276Y1187138D01*
X307646Y1187230D01*
X308571Y1187508D01*
X309773Y1187877D01*
X309865D01*
X310050Y1187970D01*
X310420Y1188062D01*
X310882Y1188155D01*
X312084Y1188432D01*
X313379Y1188710D01*
X313471D01*
X313748Y1188802D01*
X314118Y1188894D01*
X314581Y1188987D01*
X315135Y1189079D01*
X315782Y1189172D01*
X317262Y1189357D01*
X317354D01*
X317632Y1189449D01*
X318001D01*
X318556Y1189542D01*
X319203D01*
X319851Y1189634D01*
X322809D01*
X323734Y1189542D01*
D02*
G37*
G36*
X1116082Y1188894D02*
X1134943D01*
Y1182792D01*
X1116082D01*
Y1161528D01*
Y1161435D01*
Y1161343D01*
Y1160788D01*
X1116174Y1160048D01*
X1116359Y1159031D01*
X1116636Y1157922D01*
X1117099Y1156812D01*
X1117653Y1155795D01*
X1118485Y1154871D01*
X1118578Y1154778D01*
X1118948Y1154501D01*
X1119502Y1154131D01*
X1120242Y1153761D01*
X1121259Y1153391D01*
X1122461Y1153022D01*
X1123848Y1152744D01*
X1125512Y1152652D01*
X1126806D01*
X1127454Y1152744D01*
X1128286D01*
X1129950Y1152929D01*
X1130042D01*
X1130412Y1153022D01*
X1130875D01*
X1131522Y1153206D01*
X1132261Y1153299D01*
X1133093Y1153484D01*
X1134943Y1153946D01*
Y1147659D01*
X1134850D01*
X1134480Y1147567D01*
X1134018Y1147474D01*
X1133371Y1147382D01*
X1132539Y1147197D01*
X1131707Y1147104D01*
X1129765Y1146827D01*
X1129303D01*
X1128841Y1146735D01*
X1128101D01*
X1127361Y1146642D01*
X1126437D01*
X1124495Y1146550D01*
X1123755D01*
X1123201Y1146642D01*
X1122554D01*
X1121814Y1146735D01*
X1120057Y1147012D01*
X1118208Y1147382D01*
X1116266Y1148029D01*
X1114417Y1148861D01*
X1113493Y1149416D01*
X1112753Y1150063D01*
X1112568Y1150248D01*
X1112106Y1150710D01*
X1111551Y1151542D01*
X1110812Y1152744D01*
X1110072Y1154316D01*
X1109517Y1156165D01*
X1109055Y1158384D01*
X1108870Y1160973D01*
Y1182792D01*
X1097221D01*
Y1188894D01*
X1108870D01*
Y1200359D01*
X1116082Y1202301D01*
Y1188894D01*
D02*
G37*
G36*
X1026307Y1189542D02*
X1027324Y1189449D01*
X1028526Y1189264D01*
X1029820Y1189079D01*
X1031115Y1188710D01*
X1032409Y1188247D01*
X1032594Y1188155D01*
X1032964Y1187970D01*
X1033611Y1187693D01*
X1034443Y1187230D01*
X1035275Y1186676D01*
X1036292Y1186028D01*
X1037217Y1185196D01*
X1038141Y1184272D01*
X1038234Y1184179D01*
X1038511Y1183809D01*
X1038973Y1183255D01*
X1039436Y1182607D01*
X1039990Y1181683D01*
X1040637Y1180666D01*
X1041192Y1179464D01*
X1041655Y1178170D01*
X1041747Y1177985D01*
X1041839Y1177522D01*
X1042024Y1176783D01*
X1042302Y1175858D01*
X1042487Y1174656D01*
X1042672Y1173362D01*
X1042764Y1171883D01*
X1042856Y1170218D01*
Y1170126D01*
Y1169941D01*
Y1169664D01*
Y1169294D01*
Y1168462D01*
X1042764Y1167537D01*
Y1167352D01*
Y1166890D01*
Y1166335D01*
X1042672Y1165688D01*
X1013363D01*
Y1165596D01*
Y1165411D01*
Y1165041D01*
X1013455Y1164671D01*
Y1164116D01*
X1013548Y1163469D01*
X1013825Y1161990D01*
X1014195Y1160418D01*
X1014842Y1158754D01*
X1015674Y1157182D01*
X1016876Y1155795D01*
X1017061Y1155610D01*
X1017523Y1155241D01*
X1018356Y1154686D01*
X1019558Y1154131D01*
X1021037Y1153484D01*
X1022793Y1152929D01*
X1024828Y1152559D01*
X1027231Y1152374D01*
X1029543D01*
X1030837Y1152467D01*
X1031115D01*
X1031484Y1152559D01*
X1031947D01*
X1033149Y1152744D01*
X1034350Y1152837D01*
X1034443D01*
X1034628Y1152929D01*
X1034998D01*
X1035460Y1153022D01*
X1036477Y1153206D01*
X1037679Y1153391D01*
X1037771D01*
X1037956Y1153484D01*
X1038234Y1153576D01*
X1038603Y1153669D01*
X1039620Y1153854D01*
X1040637Y1154131D01*
Y1148214D01*
X1040545D01*
X1040083Y1148121D01*
X1039528Y1147936D01*
X1038696Y1147752D01*
X1037679Y1147567D01*
X1036569Y1147289D01*
X1035275Y1147104D01*
X1033888Y1146919D01*
X1033703D01*
X1033241Y1146827D01*
X1032501Y1146735D01*
X1031577Y1146642D01*
X1030375Y1146550D01*
X1029080Y1146457D01*
X1027694Y1146365D01*
X1025290D01*
X1024273Y1146457D01*
X1023071Y1146550D01*
X1021592Y1146735D01*
X1020020Y1146919D01*
X1018448Y1147289D01*
X1016969Y1147752D01*
X1016784Y1147844D01*
X1016322Y1148029D01*
X1015582Y1148399D01*
X1014750Y1148861D01*
X1013733Y1149416D01*
X1012623Y1150155D01*
X1011606Y1150988D01*
X1010589Y1152005D01*
X1010497Y1152097D01*
X1010219Y1152467D01*
X1009757Y1153114D01*
X1009202Y1153854D01*
X1008555Y1154871D01*
X1008001Y1155980D01*
X1007353Y1157367D01*
X1006891Y1158754D01*
Y1158846D01*
Y1158939D01*
X1006706Y1159493D01*
X1006521Y1160326D01*
X1006336Y1161435D01*
X1006151Y1162822D01*
X1005966Y1164301D01*
X1005874Y1166058D01*
X1005782Y1167907D01*
Y1167999D01*
Y1168092D01*
Y1168647D01*
X1005874Y1169479D01*
X1005966Y1170588D01*
X1006059Y1171790D01*
X1006336Y1173177D01*
X1006614Y1174656D01*
X1006984Y1176136D01*
Y1176228D01*
X1007076Y1176320D01*
X1007261Y1176783D01*
X1007538Y1177522D01*
X1007908Y1178539D01*
X1008463Y1179556D01*
X1009110Y1180758D01*
X1009850Y1181960D01*
X1010682Y1183070D01*
X1010774Y1183162D01*
X1011144Y1183532D01*
X1011699Y1184087D01*
X1012346Y1184826D01*
X1013271Y1185566D01*
X1014288Y1186398D01*
X1015397Y1187138D01*
X1016691Y1187877D01*
X1016876Y1187970D01*
X1017339Y1188155D01*
X1018078Y1188432D01*
X1019003Y1188802D01*
X1020205Y1189079D01*
X1021592Y1189357D01*
X1023071Y1189542D01*
X1024735Y1189634D01*
X1025475D01*
X1026307Y1189542D01*
D02*
G37*
G36*
X745056D02*
X746073Y1189449D01*
X747275Y1189264D01*
X748569Y1189079D01*
X749863Y1188710D01*
X751158Y1188247D01*
X751343Y1188155D01*
X751712Y1187970D01*
X752360Y1187693D01*
X753192Y1187230D01*
X754024Y1186676D01*
X755041Y1186028D01*
X755965Y1185196D01*
X756890Y1184272D01*
X756982Y1184179D01*
X757260Y1183809D01*
X757722Y1183255D01*
X758184Y1182607D01*
X758739Y1181683D01*
X759386Y1180666D01*
X759941Y1179464D01*
X760403Y1178170D01*
X760496Y1177985D01*
X760588Y1177522D01*
X760773Y1176783D01*
X761051Y1175858D01*
X761235Y1174656D01*
X761420Y1173362D01*
X761513Y1171883D01*
X761605Y1170218D01*
Y1170126D01*
Y1169941D01*
Y1169664D01*
Y1169294D01*
Y1168462D01*
X761513Y1167537D01*
Y1167352D01*
Y1166890D01*
Y1166335D01*
X761420Y1165688D01*
X732112D01*
Y1165596D01*
Y1165411D01*
Y1165041D01*
X732204Y1164671D01*
Y1164116D01*
X732297Y1163469D01*
X732574Y1161990D01*
X732944Y1160418D01*
X733591Y1158754D01*
X734423Y1157182D01*
X735625Y1155795D01*
X735810Y1155610D01*
X736272Y1155241D01*
X737104Y1154686D01*
X738306Y1154131D01*
X739786Y1153484D01*
X741542Y1152929D01*
X743576Y1152559D01*
X745980Y1152374D01*
X748292D01*
X749586Y1152467D01*
X749863D01*
X750233Y1152559D01*
X750695D01*
X751897Y1152744D01*
X753099Y1152837D01*
X753192D01*
X753377Y1152929D01*
X753747D01*
X754209Y1153022D01*
X755226Y1153206D01*
X756428Y1153391D01*
X756520D01*
X756705Y1153484D01*
X756982Y1153576D01*
X757352Y1153669D01*
X758369Y1153854D01*
X759386Y1154131D01*
Y1148214D01*
X759294D01*
X758832Y1148121D01*
X758277Y1147936D01*
X757445Y1147752D01*
X756428Y1147567D01*
X755318Y1147289D01*
X754024Y1147104D01*
X752637Y1146919D01*
X752452D01*
X751990Y1146827D01*
X751250Y1146735D01*
X750326Y1146642D01*
X749124Y1146550D01*
X747829Y1146457D01*
X746443Y1146365D01*
X744039D01*
X743022Y1146457D01*
X741820Y1146550D01*
X740340Y1146735D01*
X738769Y1146919D01*
X737197Y1147289D01*
X735718Y1147752D01*
X735533Y1147844D01*
X735070Y1148029D01*
X734331Y1148399D01*
X733499Y1148861D01*
X732482Y1149416D01*
X731372Y1150155D01*
X730355Y1150988D01*
X729338Y1152005D01*
X729246Y1152097D01*
X728968Y1152467D01*
X728506Y1153114D01*
X727951Y1153854D01*
X727304Y1154871D01*
X726749Y1155980D01*
X726102Y1157367D01*
X725640Y1158754D01*
Y1158846D01*
Y1158939D01*
X725455Y1159493D01*
X725270Y1160326D01*
X725085Y1161435D01*
X724900Y1162822D01*
X724715Y1164301D01*
X724623Y1166058D01*
X724530Y1167907D01*
Y1167999D01*
Y1168092D01*
Y1168647D01*
X724623Y1169479D01*
X724715Y1170588D01*
X724808Y1171790D01*
X725085Y1173177D01*
X725363Y1174656D01*
X725732Y1176136D01*
Y1176228D01*
X725825Y1176320D01*
X726010Y1176783D01*
X726287Y1177522D01*
X726657Y1178539D01*
X727212Y1179556D01*
X727859Y1180758D01*
X728598Y1181960D01*
X729431Y1183070D01*
X729523Y1183162D01*
X729893Y1183532D01*
X730448Y1184087D01*
X731095Y1184826D01*
X732019Y1185566D01*
X733036Y1186398D01*
X734146Y1187138D01*
X735440Y1187877D01*
X735625Y1187970D01*
X736087Y1188155D01*
X736827Y1188432D01*
X737752Y1188802D01*
X738954Y1189079D01*
X740340Y1189357D01*
X741820Y1189542D01*
X743484Y1189634D01*
X744224D01*
X745056Y1189542D01*
D02*
G37*
G36*
X651305D02*
X652322Y1189449D01*
X653617Y1189264D01*
X654911Y1188987D01*
X656298Y1188617D01*
X657685Y1188155D01*
X657870Y1188062D01*
X658332Y1187877D01*
X658979Y1187600D01*
X659811Y1187138D01*
X660736Y1186583D01*
X661753Y1185843D01*
X662770Y1185011D01*
X663694Y1184087D01*
X663787Y1183994D01*
X664064Y1183625D01*
X664526Y1183070D01*
X665081Y1182238D01*
X665728Y1181313D01*
X666376Y1180111D01*
X666930Y1178817D01*
X667485Y1177430D01*
X667578Y1177245D01*
X667670Y1176690D01*
X667947Y1175858D01*
X668225Y1174841D01*
X668410Y1173454D01*
X668687Y1171883D01*
X668779Y1170126D01*
X668872Y1168277D01*
Y1168184D01*
Y1168092D01*
Y1167815D01*
Y1167445D01*
X668779Y1166520D01*
X668687Y1165318D01*
X668502Y1163931D01*
X668317Y1162452D01*
X667947Y1160880D01*
X667485Y1159309D01*
X667393Y1159124D01*
X667208Y1158661D01*
X666930Y1157922D01*
X666468Y1156997D01*
X665913Y1155888D01*
X665266Y1154686D01*
X664434Y1153484D01*
X663509Y1152374D01*
X663417Y1152282D01*
X663047Y1151912D01*
X662492Y1151357D01*
X661753Y1150710D01*
X660828Y1150063D01*
X659811Y1149323D01*
X658517Y1148584D01*
X657222Y1147936D01*
X657038Y1147844D01*
X656575Y1147659D01*
X655836Y1147474D01*
X654819Y1147197D01*
X653524Y1146827D01*
X652137Y1146642D01*
X650566Y1146457D01*
X648809Y1146365D01*
X648069D01*
X647145Y1146457D01*
X646128Y1146550D01*
X644833Y1146735D01*
X643447Y1146919D01*
X642060Y1147289D01*
X640673Y1147752D01*
X640488Y1147844D01*
X640118Y1148029D01*
X639471Y1148306D01*
X638639Y1148769D01*
X637622Y1149323D01*
X636697Y1150063D01*
X635680Y1150895D01*
X634663Y1151820D01*
X634571Y1151912D01*
X634293Y1152282D01*
X633831Y1152837D01*
X633276Y1153669D01*
X632722Y1154593D01*
X632074Y1155795D01*
X631520Y1157090D01*
X630965Y1158476D01*
Y1158569D01*
X630872Y1158661D01*
X630780Y1159216D01*
X630595Y1160048D01*
X630318Y1161158D01*
X630040Y1162545D01*
X629855Y1164116D01*
X629763Y1165873D01*
X629671Y1167722D01*
Y1167815D01*
Y1167907D01*
Y1168184D01*
Y1168554D01*
X629763Y1169479D01*
X629855Y1170588D01*
X629948Y1171975D01*
X630225Y1173454D01*
X630503Y1175026D01*
X630965Y1176505D01*
Y1176598D01*
X631057Y1176690D01*
X631242Y1177153D01*
X631520Y1177985D01*
X631982Y1178909D01*
X632537Y1180019D01*
X633276Y1181128D01*
X634016Y1182330D01*
X634941Y1183440D01*
X635033Y1183532D01*
X635403Y1183902D01*
X635958Y1184457D01*
X636697Y1185104D01*
X637622Y1185843D01*
X638731Y1186583D01*
X639933Y1187323D01*
X641228Y1187970D01*
X641412Y1188062D01*
X641875Y1188247D01*
X642614Y1188525D01*
X643631Y1188802D01*
X644926Y1189079D01*
X646313Y1189357D01*
X647884Y1189542D01*
X649641Y1189634D01*
X650381D01*
X651305Y1189542D01*
D02*
G37*
G36*
X463805D02*
X464822Y1189449D01*
X466023Y1189264D01*
X467318Y1189079D01*
X468612Y1188710D01*
X469907Y1188247D01*
X470092Y1188155D01*
X470461Y1187970D01*
X471109Y1187693D01*
X471941Y1187230D01*
X472773Y1186676D01*
X473790Y1186028D01*
X474714Y1185196D01*
X475639Y1184272D01*
X475731Y1184179D01*
X476009Y1183809D01*
X476471Y1183255D01*
X476933Y1182607D01*
X477488Y1181683D01*
X478135Y1180666D01*
X478690Y1179464D01*
X479152Y1178170D01*
X479245Y1177985D01*
X479337Y1177522D01*
X479522Y1176783D01*
X479799Y1175858D01*
X479984Y1174656D01*
X480169Y1173362D01*
X480262Y1171883D01*
X480354Y1170218D01*
Y1170126D01*
Y1169941D01*
Y1169664D01*
Y1169294D01*
Y1168462D01*
X480262Y1167537D01*
Y1167352D01*
Y1166890D01*
Y1166335D01*
X480169Y1165688D01*
X450861D01*
Y1165596D01*
Y1165411D01*
Y1165041D01*
X450953Y1164671D01*
Y1164116D01*
X451046Y1163469D01*
X451323Y1161990D01*
X451693Y1160418D01*
X452340Y1158754D01*
X453172Y1157182D01*
X454374Y1155795D01*
X454559Y1155610D01*
X455021Y1155241D01*
X455853Y1154686D01*
X457055Y1154131D01*
X458535Y1153484D01*
X460291Y1152929D01*
X462325Y1152559D01*
X464729Y1152374D01*
X467040D01*
X468335Y1152467D01*
X468612D01*
X468982Y1152559D01*
X469444D01*
X470646Y1152744D01*
X471848Y1152837D01*
X471941D01*
X472126Y1152929D01*
X472495D01*
X472958Y1153022D01*
X473975Y1153206D01*
X475177Y1153391D01*
X475269D01*
X475454Y1153484D01*
X475731Y1153576D01*
X476101Y1153669D01*
X477118Y1153854D01*
X478135Y1154131D01*
Y1148214D01*
X478043D01*
X477580Y1148121D01*
X477026Y1147936D01*
X476194Y1147752D01*
X475177Y1147567D01*
X474067Y1147289D01*
X472773Y1147104D01*
X471386Y1146919D01*
X471201D01*
X470739Y1146827D01*
X469999Y1146735D01*
X469074Y1146642D01*
X467873Y1146550D01*
X466578Y1146457D01*
X465191Y1146365D01*
X462787D01*
X461770Y1146457D01*
X460569Y1146550D01*
X459089Y1146735D01*
X457517Y1146919D01*
X455946Y1147289D01*
X454466Y1147752D01*
X454282Y1147844D01*
X453819Y1148029D01*
X453080Y1148399D01*
X452248Y1148861D01*
X451230Y1149416D01*
X450121Y1150155D01*
X449104Y1150988D01*
X448087Y1152005D01*
X447995Y1152097D01*
X447717Y1152467D01*
X447255Y1153114D01*
X446700Y1153854D01*
X446053Y1154871D01*
X445498Y1155980D01*
X444851Y1157367D01*
X444389Y1158754D01*
Y1158846D01*
Y1158939D01*
X444204Y1159493D01*
X444019Y1160326D01*
X443834Y1161435D01*
X443649Y1162822D01*
X443464Y1164301D01*
X443372Y1166058D01*
X443279Y1167907D01*
Y1167999D01*
Y1168092D01*
Y1168647D01*
X443372Y1169479D01*
X443464Y1170588D01*
X443557Y1171790D01*
X443834Y1173177D01*
X444111Y1174656D01*
X444481Y1176136D01*
Y1176228D01*
X444574Y1176320D01*
X444759Y1176783D01*
X445036Y1177522D01*
X445406Y1178539D01*
X445960Y1179556D01*
X446608Y1180758D01*
X447347Y1181960D01*
X448179Y1183070D01*
X448272Y1183162D01*
X448642Y1183532D01*
X449196Y1184087D01*
X449844Y1184826D01*
X450768Y1185566D01*
X451785Y1186398D01*
X452895Y1187138D01*
X454189Y1187877D01*
X454374Y1187970D01*
X454836Y1188155D01*
X455576Y1188432D01*
X456500Y1188802D01*
X457702Y1189079D01*
X459089Y1189357D01*
X460569Y1189542D01*
X462233Y1189634D01*
X462972D01*
X463805Y1189542D01*
D02*
G37*
G36*
X863370Y970187D02*
X864294D01*
X865311Y970002D01*
X866421Y969817D01*
X867623Y969540D01*
X868732Y969170D01*
X868825Y969077D01*
X869195Y968985D01*
X869749Y968707D01*
X870489Y968338D01*
X871321Y967875D01*
X872153Y967413D01*
X873817Y966026D01*
X873910Y965934D01*
X874187Y965656D01*
X874557Y965194D01*
X875112Y964639D01*
X875667Y963900D01*
X876221Y963068D01*
X876776Y962143D01*
X877238Y961034D01*
X877331Y960941D01*
X877423Y960479D01*
X877608Y959924D01*
X877885Y959092D01*
X878070Y958075D01*
X878255Y956966D01*
X878348Y955764D01*
X878440Y954377D01*
Y954284D01*
Y953822D01*
Y953267D01*
X878348Y952435D01*
X878255Y951603D01*
X878070Y950586D01*
X877608Y948552D01*
Y948460D01*
X877423Y948090D01*
X877238Y947535D01*
X876961Y946888D01*
X876591Y946056D01*
X876129Y945131D01*
X875019Y943190D01*
X874927Y943097D01*
X874742Y942727D01*
X874372Y942265D01*
X873910Y941525D01*
X873263Y940693D01*
X872523Y939769D01*
X871691Y938752D01*
X870766Y937735D01*
X870674Y937642D01*
X870304Y937272D01*
X869749Y936718D01*
X869102Y935978D01*
X868178Y935054D01*
X867161Y934036D01*
X866051Y932835D01*
X864757Y931633D01*
X854956Y922017D01*
X881399D01*
Y915083D01*
X845526D01*
Y921555D01*
X859487Y935516D01*
X859672Y935701D01*
X860041Y936071D01*
X860689Y936718D01*
X861521Y937550D01*
X862445Y938474D01*
X863370Y939491D01*
X864294Y940508D01*
X865127Y941433D01*
X865219Y941525D01*
X865496Y941895D01*
X865866Y942358D01*
X866328Y942912D01*
X866883Y943652D01*
X867438Y944392D01*
X868455Y945963D01*
X868547Y946056D01*
X868640Y946333D01*
X868917Y946703D01*
X869195Y947258D01*
X869749Y948460D01*
X870119Y949846D01*
Y949939D01*
X870212Y950216D01*
X870304Y950586D01*
X870397Y951048D01*
Y951603D01*
X870489Y952343D01*
X870581Y953822D01*
Y953915D01*
Y954192D01*
Y954562D01*
X870489Y955024D01*
X870397Y956318D01*
X870027Y957613D01*
Y957705D01*
X869934Y957890D01*
X869842Y958260D01*
X869657Y958722D01*
X869102Y959739D01*
X868362Y960849D01*
X868270Y960941D01*
X868178Y961126D01*
X867900Y961311D01*
X867623Y961681D01*
X866606Y962328D01*
X865404Y963068D01*
X865311D01*
X865127Y963160D01*
X864757Y963345D01*
X864202Y963530D01*
X863555Y963622D01*
X862908Y963807D01*
X862075Y963900D01*
X860596D01*
X859949Y963807D01*
X859117Y963715D01*
X858100Y963530D01*
X857083Y963253D01*
X855973Y962883D01*
X854864Y962328D01*
X854771Y962236D01*
X854402Y962051D01*
X853847Y961681D01*
X853107Y961219D01*
X852368Y960664D01*
X851443Y960017D01*
X850611Y959185D01*
X849686Y958352D01*
X845711Y963068D01*
X845896Y963253D01*
X846266Y963622D01*
X846913Y964177D01*
X847745Y964917D01*
X848762Y965749D01*
X849964Y966581D01*
X851258Y967506D01*
X852737Y968245D01*
X852830D01*
X852922Y968338D01*
X853477Y968523D01*
X854309Y968892D01*
X855419Y969262D01*
X856806Y969632D01*
X858377Y970002D01*
X860134Y970187D01*
X862075Y970279D01*
X862723D01*
X863370Y970187D01*
D02*
G37*
G36*
X769619D02*
X770544D01*
X771561Y970002D01*
X772671Y969817D01*
X773872Y969540D01*
X774982Y969170D01*
X775074Y969077D01*
X775444Y968985D01*
X775999Y968707D01*
X776739Y968338D01*
X777571Y967875D01*
X778403Y967413D01*
X780067Y966026D01*
X780159Y965934D01*
X780437Y965656D01*
X780807Y965194D01*
X781361Y964639D01*
X781916Y963900D01*
X782471Y963068D01*
X783026Y962143D01*
X783488Y961034D01*
X783580Y960941D01*
X783673Y960479D01*
X783858Y959924D01*
X784135Y959092D01*
X784320Y958075D01*
X784505Y956966D01*
X784597Y955764D01*
X784690Y954377D01*
Y954284D01*
Y953822D01*
Y953267D01*
X784597Y952435D01*
X784505Y951603D01*
X784320Y950586D01*
X783858Y948552D01*
Y948460D01*
X783673Y948090D01*
X783488Y947535D01*
X783211Y946888D01*
X782841Y946056D01*
X782378Y945131D01*
X781269Y943190D01*
X781176Y943097D01*
X780992Y942727D01*
X780622Y942265D01*
X780159Y941525D01*
X779512Y940693D01*
X778773Y939769D01*
X777941Y938752D01*
X777016Y937735D01*
X776924Y937642D01*
X776554Y937272D01*
X775999Y936718D01*
X775352Y935978D01*
X774427Y935054D01*
X773410Y934036D01*
X772301Y932835D01*
X771006Y931633D01*
X761206Y922017D01*
X787648D01*
Y915083D01*
X751775D01*
Y921555D01*
X765736Y935516D01*
X765921Y935701D01*
X766291Y936071D01*
X766938Y936718D01*
X767770Y937550D01*
X768695Y938474D01*
X769619Y939491D01*
X770544Y940508D01*
X771376Y941433D01*
X771469Y941525D01*
X771746Y941895D01*
X772116Y942358D01*
X772578Y942912D01*
X773133Y943652D01*
X773688Y944392D01*
X774705Y945963D01*
X774797Y946056D01*
X774889Y946333D01*
X775167Y946703D01*
X775444Y947258D01*
X775999Y948460D01*
X776369Y949846D01*
Y949939D01*
X776461Y950216D01*
X776554Y950586D01*
X776646Y951048D01*
Y951603D01*
X776739Y952343D01*
X776831Y953822D01*
Y953915D01*
Y954192D01*
Y954562D01*
X776739Y955024D01*
X776646Y956318D01*
X776276Y957613D01*
Y957705D01*
X776184Y957890D01*
X776091Y958260D01*
X775906Y958722D01*
X775352Y959739D01*
X774612Y960849D01*
X774520Y960941D01*
X774427Y961126D01*
X774150Y961311D01*
X773872Y961681D01*
X772855Y962328D01*
X771654Y963068D01*
X771561D01*
X771376Y963160D01*
X771006Y963345D01*
X770452Y963530D01*
X769804Y963622D01*
X769157Y963807D01*
X768325Y963900D01*
X766846D01*
X766199Y963807D01*
X765367Y963715D01*
X764349Y963530D01*
X763332Y963253D01*
X762223Y962883D01*
X761114Y962328D01*
X761021Y962236D01*
X760651Y962051D01*
X760097Y961681D01*
X759357Y961219D01*
X758617Y960664D01*
X757693Y960017D01*
X756861Y959185D01*
X755936Y958352D01*
X751960Y963068D01*
X752145Y963253D01*
X752515Y963622D01*
X753162Y964177D01*
X753994Y964917D01*
X755011Y965749D01*
X756213Y966581D01*
X757508Y967506D01*
X758987Y968245D01*
X759080D01*
X759172Y968338D01*
X759727Y968523D01*
X760559Y968892D01*
X761668Y969262D01*
X763055Y969632D01*
X764627Y970002D01*
X766384Y970187D01*
X768325Y970279D01*
X768972D01*
X769619Y970187D01*
D02*
G37*
G36*
X681324Y921832D02*
X693436D01*
Y915083D01*
X659319D01*
Y921832D01*
X673280D01*
Y961496D01*
X660244Y954469D01*
X657655Y960664D01*
X674852Y969725D01*
X681324D01*
Y921832D01*
D02*
G37*
G36*
X634449D02*
X646561D01*
Y915083D01*
X612444D01*
Y921832D01*
X626405D01*
Y961496D01*
X613369Y954469D01*
X610780Y960664D01*
X627977Y969725D01*
X634449D01*
Y921832D01*
D02*
G37*
G36*
X546616Y933482D02*
X555954D01*
Y927102D01*
X546616D01*
Y915083D01*
X539219D01*
Y927102D01*
X513054D01*
Y933482D01*
X536168Y969447D01*
X546616D01*
Y933482D01*
D02*
G37*
G36*
X488368Y970187D02*
X489293D01*
X490310Y970002D01*
X491419Y969817D01*
X492621Y969540D01*
X493731Y969170D01*
X493823Y969077D01*
X494193Y968985D01*
X494748Y968707D01*
X495487Y968338D01*
X496320Y967875D01*
X497152Y967413D01*
X498816Y966026D01*
X498908Y965934D01*
X499186Y965656D01*
X499556Y965194D01*
X500110Y964639D01*
X500665Y963900D01*
X501220Y963068D01*
X501774Y962143D01*
X502237Y961034D01*
X502329Y960941D01*
X502422Y960479D01*
X502607Y959924D01*
X502884Y959092D01*
X503069Y958075D01*
X503254Y956966D01*
X503346Y955764D01*
X503439Y954377D01*
Y954284D01*
Y953822D01*
Y953267D01*
X503346Y952435D01*
X503254Y951603D01*
X503069Y950586D01*
X502607Y948552D01*
Y948460D01*
X502422Y948090D01*
X502237Y947535D01*
X501959Y946888D01*
X501590Y946056D01*
X501127Y945131D01*
X500018Y943190D01*
X499925Y943097D01*
X499740Y942727D01*
X499371Y942265D01*
X498908Y941525D01*
X498261Y940693D01*
X497521Y939769D01*
X496689Y938752D01*
X495765Y937735D01*
X495672Y937642D01*
X495303Y937272D01*
X494748Y936718D01*
X494101Y935978D01*
X493176Y935054D01*
X492159Y934036D01*
X491050Y932835D01*
X489755Y931633D01*
X479955Y922017D01*
X506397D01*
Y915083D01*
X470524D01*
Y921555D01*
X484485Y935516D01*
X484670Y935701D01*
X485040Y936071D01*
X485687Y936718D01*
X486519Y937550D01*
X487444Y938474D01*
X488368Y939491D01*
X489293Y940508D01*
X490125Y941433D01*
X490217Y941525D01*
X490495Y941895D01*
X490865Y942358D01*
X491327Y942912D01*
X491882Y943652D01*
X492436Y944392D01*
X493453Y945963D01*
X493546Y946056D01*
X493638Y946333D01*
X493916Y946703D01*
X494193Y947258D01*
X494748Y948460D01*
X495118Y949846D01*
Y949939D01*
X495210Y950216D01*
X495303Y950586D01*
X495395Y951048D01*
Y951603D01*
X495487Y952343D01*
X495580Y953822D01*
Y953915D01*
Y954192D01*
Y954562D01*
X495487Y955024D01*
X495395Y956318D01*
X495025Y957613D01*
Y957705D01*
X494933Y957890D01*
X494840Y958260D01*
X494655Y958722D01*
X494101Y959739D01*
X493361Y960849D01*
X493269Y960941D01*
X493176Y961126D01*
X492899Y961311D01*
X492621Y961681D01*
X491604Y962328D01*
X490402Y963068D01*
X490310D01*
X490125Y963160D01*
X489755Y963345D01*
X489200Y963530D01*
X488553Y963622D01*
X487906Y963807D01*
X487074Y963900D01*
X485595D01*
X484947Y963807D01*
X484115Y963715D01*
X483098Y963530D01*
X482081Y963253D01*
X480972Y962883D01*
X479862Y962328D01*
X479770Y962236D01*
X479400Y962051D01*
X478845Y961681D01*
X478106Y961219D01*
X477366Y960664D01*
X476442Y960017D01*
X475609Y959185D01*
X474685Y958352D01*
X470709Y963068D01*
X470894Y963253D01*
X471264Y963622D01*
X471911Y964177D01*
X472743Y964917D01*
X473760Y965749D01*
X474962Y966581D01*
X476257Y967506D01*
X477736Y968245D01*
X477828D01*
X477921Y968338D01*
X478476Y968523D01*
X479308Y968892D01*
X480417Y969262D01*
X481804Y969632D01*
X483376Y970002D01*
X485132Y970187D01*
X487074Y970279D01*
X487721D01*
X488368Y970187D01*
D02*
G37*
G36*
X911724D02*
X912741Y970094D01*
X913943Y969909D01*
X915330Y969540D01*
X916625Y969170D01*
X918011Y968615D01*
X918196Y968523D01*
X918659Y968338D01*
X919306Y967875D01*
X920138Y967321D01*
X921062Y966673D01*
X922079Y965749D01*
X923096Y964732D01*
X924113Y963530D01*
X924206Y963345D01*
X924576Y962883D01*
X925038Y962143D01*
X925593Y961126D01*
X926240Y959924D01*
X926887Y958352D01*
X927534Y956688D01*
X928089Y954747D01*
Y954654D01*
X928182Y954469D01*
Y954192D01*
X928274Y953822D01*
X928459Y953267D01*
X928551Y952713D01*
X928644Y951973D01*
X928829Y951233D01*
X929014Y949384D01*
X929291Y947258D01*
X929383Y944854D01*
X929476Y942265D01*
Y942173D01*
Y941988D01*
Y941618D01*
Y941248D01*
Y940693D01*
X929383Y940046D01*
X929291Y938474D01*
X929199Y936718D01*
X928921Y934776D01*
X928644Y932742D01*
X928182Y930801D01*
Y930708D01*
X928089Y930616D01*
Y930338D01*
X927997Y929968D01*
X927627Y929044D01*
X927257Y927842D01*
X926702Y926455D01*
X926055Y924976D01*
X925315Y923497D01*
X924391Y922017D01*
X924298Y921832D01*
X923929Y921370D01*
X923374Y920723D01*
X922634Y919891D01*
X921802Y918966D01*
X920693Y918042D01*
X919491Y917117D01*
X918104Y916285D01*
X917919Y916192D01*
X917457Y916008D01*
X916625Y915638D01*
X915608Y915360D01*
X914313Y914991D01*
X912834Y914621D01*
X911170Y914436D01*
X909321Y914343D01*
X908581D01*
X907749Y914436D01*
X906639Y914528D01*
X905437Y914713D01*
X904051Y914991D01*
X902664Y915360D01*
X901277Y915915D01*
X901092Y916008D01*
X900722Y916192D01*
X900075Y916655D01*
X899243Y917209D01*
X898226Y917857D01*
X897209Y918781D01*
X896192Y919798D01*
X895175Y921000D01*
X895082Y921185D01*
X894805Y921647D01*
X894343Y922387D01*
X893788Y923404D01*
X893141Y924606D01*
X892494Y926085D01*
X891846Y927842D01*
X891292Y929691D01*
Y929784D01*
X891199Y929968D01*
Y930246D01*
X891107Y930616D01*
X891014Y931170D01*
X890922Y931725D01*
X890737Y932465D01*
X890644Y933204D01*
X890367Y935054D01*
X890182Y937180D01*
X890090Y939676D01*
X889997Y942265D01*
Y942358D01*
Y942542D01*
Y942912D01*
Y943282D01*
Y943837D01*
X890090Y944484D01*
X890182Y946056D01*
X890275Y947812D01*
X890552Y949662D01*
X890829Y951696D01*
X891199Y953637D01*
Y953730D01*
X891292Y953915D01*
X891384Y954099D01*
X891476Y954469D01*
X891754Y955486D01*
X892124Y956688D01*
X892678Y958075D01*
X893326Y959554D01*
X894158Y961034D01*
X894990Y962513D01*
X895082Y962698D01*
X895452Y963160D01*
X896007Y963807D01*
X896746Y964639D01*
X897579Y965564D01*
X898688Y966489D01*
X899890Y967413D01*
X901277Y968245D01*
X901462Y968338D01*
X901924Y968523D01*
X902756Y968892D01*
X903773Y969262D01*
X905068Y969632D01*
X906639Y970002D01*
X908303Y970187D01*
X910153Y970279D01*
X910892D01*
X911724Y970187D01*
D02*
G37*
G36*
X817974D02*
X818991Y970094D01*
X820193Y969909D01*
X821580Y969540D01*
X822874Y969170D01*
X824261Y968615D01*
X824446Y968523D01*
X824908Y968338D01*
X825555Y967875D01*
X826387Y967321D01*
X827312Y966673D01*
X828329Y965749D01*
X829346Y964732D01*
X830363Y963530D01*
X830456Y963345D01*
X830825Y962883D01*
X831288Y962143D01*
X831842Y961126D01*
X832490Y959924D01*
X833137Y958352D01*
X833784Y956688D01*
X834339Y954747D01*
Y954654D01*
X834431Y954469D01*
Y954192D01*
X834524Y953822D01*
X834709Y953267D01*
X834801Y952713D01*
X834893Y951973D01*
X835078Y951233D01*
X835263Y949384D01*
X835541Y947258D01*
X835633Y944854D01*
X835726Y942265D01*
Y942173D01*
Y941988D01*
Y941618D01*
Y941248D01*
Y940693D01*
X835633Y940046D01*
X835541Y938474D01*
X835448Y936718D01*
X835171Y934776D01*
X834893Y932742D01*
X834431Y930801D01*
Y930708D01*
X834339Y930616D01*
Y930338D01*
X834246Y929968D01*
X833876Y929044D01*
X833507Y927842D01*
X832952Y926455D01*
X832305Y924976D01*
X831565Y923497D01*
X830640Y922017D01*
X830548Y921832D01*
X830178Y921370D01*
X829623Y920723D01*
X828884Y919891D01*
X828052Y918966D01*
X826942Y918042D01*
X825740Y917117D01*
X824353Y916285D01*
X824169Y916192D01*
X823706Y916008D01*
X822874Y915638D01*
X821857Y915360D01*
X820563Y914991D01*
X819083Y914621D01*
X817419Y914436D01*
X815570Y914343D01*
X814830D01*
X813998Y914436D01*
X812889Y914528D01*
X811687Y914713D01*
X810300Y914991D01*
X808913Y915360D01*
X807526Y915915D01*
X807342Y916008D01*
X806972Y916192D01*
X806325Y916655D01*
X805492Y917209D01*
X804475Y917857D01*
X803458Y918781D01*
X802441Y919798D01*
X801424Y921000D01*
X801332Y921185D01*
X801055Y921647D01*
X800592Y922387D01*
X800038Y923404D01*
X799390Y924606D01*
X798743Y926085D01*
X798096Y927842D01*
X797541Y929691D01*
Y929784D01*
X797449Y929968D01*
Y930246D01*
X797356Y930616D01*
X797264Y931170D01*
X797171Y931725D01*
X796986Y932465D01*
X796894Y933204D01*
X796617Y935054D01*
X796432Y937180D01*
X796339Y939676D01*
X796247Y942265D01*
Y942358D01*
Y942542D01*
Y942912D01*
Y943282D01*
Y943837D01*
X796339Y944484D01*
X796432Y946056D01*
X796524Y947812D01*
X796802Y949662D01*
X797079Y951696D01*
X797449Y953637D01*
Y953730D01*
X797541Y953915D01*
X797634Y954099D01*
X797726Y954469D01*
X798003Y955486D01*
X798373Y956688D01*
X798928Y958075D01*
X799575Y959554D01*
X800407Y961034D01*
X801239Y962513D01*
X801332Y962698D01*
X801702Y963160D01*
X802256Y963807D01*
X802996Y964639D01*
X803828Y965564D01*
X804938Y966489D01*
X806140Y967413D01*
X807526Y968245D01*
X807711Y968338D01*
X808174Y968523D01*
X809006Y968892D01*
X810023Y969262D01*
X811317Y969632D01*
X812889Y970002D01*
X814553Y970187D01*
X816402Y970279D01*
X817142D01*
X817974Y970187D01*
D02*
G37*
G36*
X710448Y906115D02*
X703606D01*
X732175Y973885D01*
X739017D01*
X710448Y906115D01*
D02*
G37*
G36*
X569822D02*
X562980D01*
X591549Y973885D01*
X598391D01*
X569822Y906115D01*
D02*
G37*
G36*
X908095Y1381813D02*
X909482D01*
X911008Y1381536D01*
X912672Y1381259D01*
X914475Y1380843D01*
X916139Y1380288D01*
X916278Y1380149D01*
X916833Y1380010D01*
X917665Y1379594D01*
X918774Y1379040D01*
X920022Y1378346D01*
X921270Y1377653D01*
X923767Y1375573D01*
X923905Y1375434D01*
X924321Y1375018D01*
X924876Y1374324D01*
X925708Y1373492D01*
X926540Y1372383D01*
X927373Y1371135D01*
X928205Y1369748D01*
X928898Y1368084D01*
X929037Y1367945D01*
X929175Y1367252D01*
X929453Y1366419D01*
X929869Y1365171D01*
X930146Y1363646D01*
X930424Y1361982D01*
X930562Y1360179D01*
X930701Y1358098D01*
Y1357960D01*
Y1357266D01*
Y1356434D01*
X930562Y1355186D01*
X930424Y1353938D01*
X930146Y1352412D01*
X929453Y1349361D01*
Y1349223D01*
X929175Y1348668D01*
X928898Y1347836D01*
X928482Y1346865D01*
X927927Y1345617D01*
X927234Y1344230D01*
X925570Y1341318D01*
X925431Y1341179D01*
X925154Y1340624D01*
X924599Y1339931D01*
X923905Y1338821D01*
X922935Y1337573D01*
X921825Y1336186D01*
X920577Y1334661D01*
X919190Y1333135D01*
X919052Y1332997D01*
X918497Y1332442D01*
X917665Y1331610D01*
X916694Y1330500D01*
X915307Y1329113D01*
X913782Y1327588D01*
X912117Y1325785D01*
X910176Y1323982D01*
X895475Y1309559D01*
X935139D01*
Y1299158D01*
X881329D01*
Y1308866D01*
X902271Y1329807D01*
X902548Y1330084D01*
X903103Y1330639D01*
X904074Y1331610D01*
X905322Y1332858D01*
X906709Y1334245D01*
X908095Y1335770D01*
X909482Y1337296D01*
X910730Y1338683D01*
X910869Y1338821D01*
X911285Y1339376D01*
X911840Y1340069D01*
X912533Y1340902D01*
X913365Y1342011D01*
X914198Y1343121D01*
X915723Y1345478D01*
X915862Y1345617D01*
X916000Y1346033D01*
X916417Y1346588D01*
X916833Y1347420D01*
X917665Y1349223D01*
X918219Y1351303D01*
Y1351442D01*
X918358Y1351858D01*
X918497Y1352412D01*
X918635Y1353106D01*
Y1353938D01*
X918774Y1355047D01*
X918913Y1357266D01*
Y1357405D01*
Y1357821D01*
Y1358376D01*
X918774Y1359069D01*
X918635Y1361011D01*
X918081Y1362952D01*
Y1363091D01*
X917942Y1363368D01*
X917803Y1363923D01*
X917526Y1364617D01*
X916694Y1366142D01*
X915584Y1367806D01*
X915446Y1367945D01*
X915307Y1368222D01*
X914891Y1368500D01*
X914475Y1369054D01*
X912949Y1370025D01*
X911147Y1371135D01*
X911008D01*
X910730Y1371273D01*
X910176Y1371551D01*
X909344Y1371828D01*
X908373Y1371967D01*
X907402Y1372244D01*
X906154Y1372383D01*
X903935D01*
X902964Y1372244D01*
X901716Y1372105D01*
X900190Y1371828D01*
X898665Y1371412D01*
X897001Y1370857D01*
X895337Y1370025D01*
X895198Y1369887D01*
X894643Y1369609D01*
X893811Y1369054D01*
X892702Y1368361D01*
X891592Y1367529D01*
X890205Y1366558D01*
X888957Y1365310D01*
X887570Y1364062D01*
X881607Y1371135D01*
X881884Y1371412D01*
X882439Y1371967D01*
X883410Y1372799D01*
X884658Y1373908D01*
X886183Y1375157D01*
X887986Y1376405D01*
X889928Y1377792D01*
X892147Y1378901D01*
X892285D01*
X892424Y1379040D01*
X893256Y1379317D01*
X894504Y1379872D01*
X896169Y1380426D01*
X898249Y1380981D01*
X900607Y1381536D01*
X903242Y1381813D01*
X906154Y1381952D01*
X907125D01*
X908095Y1381813D01*
D02*
G37*
G36*
X767470D02*
X768857D01*
X770382Y1381536D01*
X772046Y1381259D01*
X773849Y1380843D01*
X775514Y1380288D01*
X775652Y1380149D01*
X776207Y1380010D01*
X777039Y1379594D01*
X778149Y1379040D01*
X779397Y1378346D01*
X780645Y1377653D01*
X783141Y1375573D01*
X783280Y1375434D01*
X783696Y1375018D01*
X784251Y1374324D01*
X785083Y1373492D01*
X785915Y1372383D01*
X786747Y1371135D01*
X787579Y1369748D01*
X788272Y1368084D01*
X788411Y1367945D01*
X788550Y1367252D01*
X788827Y1366419D01*
X789243Y1365171D01*
X789521Y1363646D01*
X789798Y1361982D01*
X789937Y1360179D01*
X790075Y1358098D01*
Y1357960D01*
Y1357266D01*
Y1356434D01*
X789937Y1355186D01*
X789798Y1353938D01*
X789521Y1352412D01*
X788827Y1349361D01*
Y1349223D01*
X788550Y1348668D01*
X788272Y1347836D01*
X787856Y1346865D01*
X787302Y1345617D01*
X786608Y1344230D01*
X784944Y1341318D01*
X784805Y1341179D01*
X784528Y1340624D01*
X783973Y1339931D01*
X783280Y1338821D01*
X782309Y1337573D01*
X781200Y1336186D01*
X779951Y1334661D01*
X778565Y1333135D01*
X778426Y1332997D01*
X777871Y1332442D01*
X777039Y1331610D01*
X776068Y1330500D01*
X774681Y1329113D01*
X773156Y1327588D01*
X771492Y1325785D01*
X769550Y1323982D01*
X754850Y1309559D01*
X794513D01*
Y1299158D01*
X740704D01*
Y1308866D01*
X761645Y1329807D01*
X761923Y1330084D01*
X762477Y1330639D01*
X763448Y1331610D01*
X764696Y1332858D01*
X766083Y1334245D01*
X767470Y1335770D01*
X768857Y1337296D01*
X770105Y1338683D01*
X770244Y1338821D01*
X770660Y1339376D01*
X771214Y1340069D01*
X771908Y1340902D01*
X772740Y1342011D01*
X773572Y1343121D01*
X775098Y1345478D01*
X775236Y1345617D01*
X775375Y1346033D01*
X775791Y1346588D01*
X776207Y1347420D01*
X777039Y1349223D01*
X777594Y1351303D01*
Y1351442D01*
X777733Y1351858D01*
X777871Y1352412D01*
X778010Y1353106D01*
Y1353938D01*
X778149Y1355047D01*
X778287Y1357266D01*
Y1357405D01*
Y1357821D01*
Y1358376D01*
X778149Y1359069D01*
X778010Y1361011D01*
X777455Y1362952D01*
Y1363091D01*
X777316Y1363368D01*
X777178Y1363923D01*
X776900Y1364617D01*
X776068Y1366142D01*
X774959Y1367806D01*
X774820Y1367945D01*
X774681Y1368222D01*
X774265Y1368500D01*
X773849Y1369054D01*
X772324Y1370025D01*
X770521Y1371135D01*
X770382D01*
X770105Y1371273D01*
X769550Y1371551D01*
X768718Y1371828D01*
X767747Y1371967D01*
X766776Y1372244D01*
X765528Y1372383D01*
X763309D01*
X762339Y1372244D01*
X761090Y1372105D01*
X759565Y1371828D01*
X758039Y1371412D01*
X756375Y1370857D01*
X754711Y1370025D01*
X754572Y1369887D01*
X754018Y1369609D01*
X753185Y1369054D01*
X752076Y1368361D01*
X750966Y1367529D01*
X749580Y1366558D01*
X748331Y1365310D01*
X746945Y1364062D01*
X740981Y1371135D01*
X741259Y1371412D01*
X741813Y1371967D01*
X742784Y1372799D01*
X744032Y1373908D01*
X745558Y1375157D01*
X747361Y1376405D01*
X749302Y1377792D01*
X751521Y1378901D01*
X751660D01*
X751799Y1379040D01*
X752631Y1379317D01*
X753879Y1379872D01*
X755543Y1380426D01*
X757623Y1380981D01*
X759981Y1381536D01*
X762616Y1381813D01*
X765528Y1381952D01*
X766499D01*
X767470Y1381813D01*
D02*
G37*
G36*
X616720Y1308588D02*
X652501D01*
Y1299158D01*
X605487D01*
Y1380704D01*
X616720D01*
Y1308588D01*
D02*
G37*
G36*
X579553Y1371273D02*
X544189D01*
Y1346172D01*
X578166D01*
Y1336741D01*
X544189D01*
Y1308588D01*
X579553D01*
Y1299158D01*
X533094D01*
Y1380704D01*
X579553D01*
Y1371273D01*
D02*
G37*
G36*
X509240D02*
X473876D01*
Y1346172D01*
X507853D01*
Y1336741D01*
X473876D01*
Y1308588D01*
X509240D01*
Y1299158D01*
X462781D01*
Y1380704D01*
X509240D01*
Y1371273D01*
D02*
G37*
G36*
X438789D02*
X404118D01*
Y1344785D01*
X436847D01*
Y1335493D01*
X404118D01*
Y1299158D01*
X392746D01*
Y1380704D01*
X438789D01*
Y1371273D01*
D02*
G37*
G36*
X980627Y1381813D02*
X982153Y1381675D01*
X983956Y1381397D01*
X986036Y1380843D01*
X987977Y1380288D01*
X990058Y1379456D01*
X990335Y1379317D01*
X991028Y1379040D01*
X991999Y1378346D01*
X993247Y1377514D01*
X994634Y1376543D01*
X996160Y1375157D01*
X997685Y1373631D01*
X999211Y1371828D01*
X999350Y1371551D01*
X999904Y1370857D01*
X1000598Y1369748D01*
X1001430Y1368222D01*
X1002401Y1366419D01*
X1003371Y1364062D01*
X1004342Y1361565D01*
X1005174Y1358653D01*
Y1358514D01*
X1005313Y1358237D01*
Y1357821D01*
X1005452Y1357266D01*
X1005729Y1356434D01*
X1005868Y1355602D01*
X1006006Y1354493D01*
X1006284Y1353383D01*
X1006561Y1350609D01*
X1006977Y1347420D01*
X1007116Y1343814D01*
X1007255Y1339931D01*
Y1339792D01*
Y1339515D01*
Y1338960D01*
Y1338405D01*
Y1337573D01*
X1007116Y1336602D01*
X1006977Y1334245D01*
X1006838Y1331610D01*
X1006422Y1328697D01*
X1006006Y1325646D01*
X1005313Y1322734D01*
Y1322595D01*
X1005174Y1322457D01*
Y1322041D01*
X1005036Y1321486D01*
X1004481Y1320099D01*
X1003926Y1318296D01*
X1003094Y1316216D01*
X1002123Y1313997D01*
X1001014Y1311778D01*
X999627Y1309559D01*
X999488Y1309282D01*
X998933Y1308588D01*
X998101Y1307617D01*
X996992Y1306369D01*
X995744Y1304982D01*
X994080Y1303596D01*
X992277Y1302209D01*
X990196Y1300961D01*
X989919Y1300822D01*
X989226Y1300545D01*
X987977Y1299990D01*
X986452Y1299574D01*
X984510Y1299019D01*
X982291Y1298464D01*
X979795Y1298187D01*
X977021Y1298048D01*
X975912D01*
X974664Y1298187D01*
X973000Y1298326D01*
X971197Y1298603D01*
X969116Y1299019D01*
X967036Y1299574D01*
X964956Y1300406D01*
X964679Y1300545D01*
X964124Y1300822D01*
X963153Y1301515D01*
X961905Y1302347D01*
X960379Y1303318D01*
X958854Y1304705D01*
X957328Y1306231D01*
X955803Y1308033D01*
X955664Y1308311D01*
X955248Y1309004D01*
X954555Y1310114D01*
X953723Y1311639D01*
X952752Y1313442D01*
X951781Y1315661D01*
X950810Y1318296D01*
X949978Y1321070D01*
Y1321208D01*
X949839Y1321486D01*
Y1321902D01*
X949701Y1322457D01*
X949562Y1323289D01*
X949423Y1324121D01*
X949146Y1325230D01*
X949007Y1326340D01*
X948591Y1329113D01*
X948314Y1332303D01*
X948175Y1336048D01*
X948036Y1339931D01*
Y1340069D01*
Y1340347D01*
Y1340902D01*
Y1341456D01*
Y1342288D01*
X948175Y1343259D01*
X948314Y1345617D01*
X948453Y1348252D01*
X948869Y1351025D01*
X949285Y1354077D01*
X949839Y1356989D01*
Y1357128D01*
X949978Y1357405D01*
X950117Y1357682D01*
X950255Y1358237D01*
X950671Y1359763D01*
X951226Y1361565D01*
X952058Y1363646D01*
X953029Y1365865D01*
X954277Y1368084D01*
X955525Y1370303D01*
X955664Y1370580D01*
X956219Y1371273D01*
X957051Y1372244D01*
X958160Y1373492D01*
X959409Y1374879D01*
X961073Y1376266D01*
X962876Y1377653D01*
X964956Y1378901D01*
X965233Y1379040D01*
X965927Y1379317D01*
X967175Y1379872D01*
X968700Y1380426D01*
X970642Y1380981D01*
X973000Y1381536D01*
X975496Y1381813D01*
X978270Y1381952D01*
X979379D01*
X980627Y1381813D01*
D02*
G37*
G36*
X840002D02*
X841527Y1381675D01*
X843330Y1381397D01*
X845410Y1380843D01*
X847352Y1380288D01*
X849432Y1379456D01*
X849710Y1379317D01*
X850403Y1379040D01*
X851374Y1378346D01*
X852622Y1377514D01*
X854009Y1376543D01*
X855534Y1375157D01*
X857060Y1373631D01*
X858585Y1371828D01*
X858724Y1371551D01*
X859279Y1370857D01*
X859972Y1369748D01*
X860804Y1368222D01*
X861775Y1366419D01*
X862746Y1364062D01*
X863717Y1361565D01*
X864549Y1358653D01*
Y1358514D01*
X864687Y1358237D01*
Y1357821D01*
X864826Y1357266D01*
X865103Y1356434D01*
X865242Y1355602D01*
X865381Y1354493D01*
X865658Y1353383D01*
X865936Y1350609D01*
X866352Y1347420D01*
X866490Y1343814D01*
X866629Y1339931D01*
Y1339792D01*
Y1339515D01*
Y1338960D01*
Y1338405D01*
Y1337573D01*
X866490Y1336602D01*
X866352Y1334245D01*
X866213Y1331610D01*
X865797Y1328697D01*
X865381Y1325646D01*
X864687Y1322734D01*
Y1322595D01*
X864549Y1322457D01*
Y1322041D01*
X864410Y1321486D01*
X863855Y1320099D01*
X863301Y1318296D01*
X862468Y1316216D01*
X861498Y1313997D01*
X860388Y1311778D01*
X859001Y1309559D01*
X858863Y1309282D01*
X858308Y1308588D01*
X857476Y1307617D01*
X856366Y1306369D01*
X855118Y1304982D01*
X853454Y1303596D01*
X851651Y1302209D01*
X849571Y1300961D01*
X849293Y1300822D01*
X848600Y1300545D01*
X847352Y1299990D01*
X845826Y1299574D01*
X843885Y1299019D01*
X841666Y1298464D01*
X839170Y1298187D01*
X836396Y1298048D01*
X835286D01*
X834038Y1298187D01*
X832374Y1298326D01*
X830571Y1298603D01*
X828491Y1299019D01*
X826411Y1299574D01*
X824330Y1300406D01*
X824053Y1300545D01*
X823498Y1300822D01*
X822527Y1301515D01*
X821279Y1302347D01*
X819754Y1303318D01*
X818228Y1304705D01*
X816703Y1306231D01*
X815177Y1308033D01*
X815039Y1308311D01*
X814622Y1309004D01*
X813929Y1310114D01*
X813097Y1311639D01*
X812126Y1313442D01*
X811155Y1315661D01*
X810185Y1318296D01*
X809352Y1321070D01*
Y1321208D01*
X809214Y1321486D01*
Y1321902D01*
X809075Y1322457D01*
X808936Y1323289D01*
X808798Y1324121D01*
X808520Y1325230D01*
X808382Y1326340D01*
X807966Y1329113D01*
X807688Y1332303D01*
X807550Y1336048D01*
X807411Y1339931D01*
Y1340069D01*
Y1340347D01*
Y1340902D01*
Y1341456D01*
Y1342288D01*
X807550Y1343259D01*
X807688Y1345617D01*
X807827Y1348252D01*
X808243Y1351025D01*
X808659Y1354077D01*
X809214Y1356989D01*
Y1357128D01*
X809352Y1357405D01*
X809491Y1357682D01*
X809630Y1358237D01*
X810046Y1359763D01*
X810601Y1361565D01*
X811433Y1363646D01*
X812404Y1365865D01*
X813652Y1368084D01*
X814900Y1370303D01*
X815039Y1370580D01*
X815593Y1371273D01*
X816425Y1372244D01*
X817535Y1373492D01*
X818783Y1374879D01*
X820447Y1376266D01*
X822250Y1377653D01*
X824330Y1378901D01*
X824608Y1379040D01*
X825301Y1379317D01*
X826549Y1379872D01*
X828075Y1380426D01*
X830016Y1380981D01*
X832374Y1381536D01*
X834870Y1381813D01*
X837644Y1381952D01*
X838753D01*
X840002Y1381813D01*
D02*
G37*
G36*
X954838Y1118277D02*
X955578Y1118184D01*
X956318Y1117907D01*
X956410D01*
X956503Y1117815D01*
X956965Y1117537D01*
X957520Y1117167D01*
X958074Y1116613D01*
X958259Y1116520D01*
X958537Y1116150D01*
X958999Y1115596D01*
X959369Y1114856D01*
X959461Y1114671D01*
X959646Y1114209D01*
X959738Y1113469D01*
X959831Y1112637D01*
Y1112545D01*
Y1112452D01*
X959738Y1111897D01*
X959646Y1111158D01*
X959369Y1110418D01*
X959276Y1110233D01*
X958999Y1109771D01*
X958629Y1109216D01*
X958074Y1108569D01*
X957982Y1108477D01*
X957612Y1108107D01*
X957057Y1107737D01*
X956318Y1107367D01*
X956133Y1107275D01*
X955670Y1107182D01*
X954931Y1107090D01*
X954099Y1106997D01*
X953914D01*
X953359Y1107090D01*
X952619Y1107182D01*
X951880Y1107367D01*
X951695Y1107460D01*
X951233Y1107737D01*
X950678Y1108107D01*
X950031Y1108569D01*
X949938Y1108754D01*
X949568Y1109124D01*
X949199Y1109679D01*
X948829Y1110418D01*
Y1110511D01*
X948736Y1110603D01*
X948644Y1111065D01*
X948551Y1111805D01*
X948459Y1112637D01*
Y1112730D01*
Y1112822D01*
X948551Y1113377D01*
X948644Y1114116D01*
X948829Y1114856D01*
Y1114948D01*
X948921Y1115041D01*
X949199Y1115503D01*
X949568Y1116058D01*
X950031Y1116613D01*
X950216Y1116798D01*
X950585Y1117075D01*
X951140Y1117537D01*
X951880Y1117907D01*
X951972D01*
X952065Y1118000D01*
X952527Y1118184D01*
X953267Y1118277D01*
X954099Y1118369D01*
X954284D01*
X954838Y1118277D01*
D02*
G37*
G36*
X532962D02*
X533701Y1118184D01*
X534441Y1117907D01*
X534533D01*
X534626Y1117815D01*
X535088Y1117537D01*
X535643Y1117167D01*
X536198Y1116613D01*
X536382Y1116520D01*
X536660Y1116150D01*
X537122Y1115596D01*
X537492Y1114856D01*
X537584Y1114671D01*
X537769Y1114209D01*
X537862Y1113469D01*
X537954Y1112637D01*
Y1112545D01*
Y1112452D01*
X537862Y1111897D01*
X537769Y1111158D01*
X537492Y1110418D01*
X537399Y1110233D01*
X537122Y1109771D01*
X536752Y1109216D01*
X536198Y1108569D01*
X536105Y1108477D01*
X535735Y1108107D01*
X535181Y1107737D01*
X534441Y1107367D01*
X534256Y1107275D01*
X533794Y1107182D01*
X533054Y1107090D01*
X532222Y1106997D01*
X532037D01*
X531482Y1107090D01*
X530743Y1107182D01*
X530003Y1107367D01*
X529818Y1107460D01*
X529356Y1107737D01*
X528801Y1108107D01*
X528154Y1108569D01*
X528061Y1108754D01*
X527692Y1109124D01*
X527322Y1109679D01*
X526952Y1110418D01*
Y1110511D01*
X526859Y1110603D01*
X526767Y1111065D01*
X526675Y1111805D01*
X526582Y1112637D01*
Y1112730D01*
Y1112822D01*
X526675Y1113377D01*
X526767Y1114116D01*
X526952Y1114856D01*
Y1114948D01*
X527044Y1115041D01*
X527322Y1115503D01*
X527692Y1116058D01*
X528154Y1116613D01*
X528339Y1116798D01*
X528709Y1117075D01*
X529263Y1117537D01*
X530003Y1117907D01*
X530095D01*
X530188Y1118000D01*
X530650Y1118184D01*
X531390Y1118277D01*
X532222Y1118369D01*
X532407D01*
X532962Y1118277D01*
D02*
G37*
G36*
X455206Y1059105D02*
X448642D01*
X448364Y1066964D01*
Y1066871D01*
X448272Y1066779D01*
X447810Y1066224D01*
X447255Y1065485D01*
X446423Y1064468D01*
X445406Y1063451D01*
X444296Y1062341D01*
X443094Y1061324D01*
X441800Y1060399D01*
X441615Y1060307D01*
X441153Y1060122D01*
X440506Y1059752D01*
X439489Y1059382D01*
X438379Y1059013D01*
X437085Y1058643D01*
X435698Y1058458D01*
X434126Y1058365D01*
X433571D01*
X432832Y1058458D01*
X432000Y1058550D01*
X431075Y1058735D01*
X429966Y1059013D01*
X428949Y1059382D01*
X427839Y1059845D01*
X427747Y1059937D01*
X427377Y1060122D01*
X426915Y1060492D01*
X426267Y1060954D01*
X425528Y1061509D01*
X424788Y1062249D01*
X424048Y1063081D01*
X423309Y1064005D01*
X423216Y1064098D01*
X423031Y1064468D01*
X422662Y1065115D01*
X422292Y1065854D01*
X421829Y1066871D01*
X421367Y1067981D01*
X420905Y1069183D01*
X420535Y1070570D01*
Y1070755D01*
X420443Y1071217D01*
X420258Y1072049D01*
X420165Y1073066D01*
X419980Y1074360D01*
X419795Y1075840D01*
X419703Y1077411D01*
Y1079076D01*
Y1079168D01*
Y1079353D01*
Y1079630D01*
Y1080000D01*
X419795Y1080925D01*
X419888Y1082219D01*
X420073Y1083698D01*
X420258Y1085270D01*
X420628Y1086934D01*
X421090Y1088506D01*
Y1088599D01*
X421182Y1088691D01*
X421367Y1089246D01*
X421737Y1089985D01*
X422199Y1090910D01*
X422754Y1092019D01*
X423494Y1093221D01*
X424326Y1094423D01*
X425250Y1095533D01*
X425343Y1095625D01*
X425713Y1095995D01*
X426267Y1096550D01*
X427099Y1097197D01*
X428024Y1097844D01*
X429134Y1098584D01*
X430335Y1099231D01*
X431722Y1099878D01*
X431907Y1099971D01*
X432369Y1100156D01*
X433202Y1100340D01*
X434219Y1100618D01*
X435421Y1100895D01*
X436900Y1101173D01*
X438472Y1101265D01*
X440136Y1101357D01*
X441338D01*
X442632Y1101265D01*
X444019Y1101080D01*
X444111D01*
X444389Y1100988D01*
X444759D01*
X445221Y1100895D01*
X446515Y1100618D01*
X447902Y1100248D01*
Y1117907D01*
X455206D01*
Y1059105D01*
D02*
G37*
G36*
X820962Y1101542D02*
X821424D01*
X822072Y1101450D01*
X823551Y1101080D01*
X825123Y1100618D01*
X826694Y1099878D01*
X828266Y1098769D01*
X829006Y1098122D01*
X829653Y1097382D01*
X829838Y1097197D01*
X829930Y1096920D01*
X830208Y1096642D01*
X830393Y1096180D01*
X830670Y1095625D01*
X831040Y1094978D01*
X831317Y1094238D01*
X831594Y1093406D01*
X831872Y1092574D01*
X832149Y1091557D01*
X832427Y1090448D01*
X832611Y1089153D01*
X832704Y1087859D01*
X832796Y1086472D01*
Y1084993D01*
X825492D01*
Y1085085D01*
Y1085270D01*
Y1085547D01*
Y1085917D01*
X825400Y1086842D01*
X825307Y1087951D01*
X825123Y1089246D01*
X824845Y1090540D01*
X824383Y1091834D01*
X823828Y1092852D01*
X823736Y1092944D01*
X823551Y1093221D01*
X823089Y1093684D01*
X822534Y1094146D01*
X821794Y1094516D01*
X820962Y1094978D01*
X819945Y1095255D01*
X818743Y1095348D01*
X818188D01*
X817911Y1095255D01*
X816986Y1095163D01*
X815877Y1094793D01*
X815785D01*
X815600Y1094701D01*
X815322Y1094608D01*
X814952Y1094423D01*
X813935Y1093869D01*
X812826Y1093129D01*
X812733Y1093036D01*
X812549Y1092944D01*
X812271Y1092667D01*
X811809Y1092389D01*
X810792Y1091372D01*
X809497Y1090170D01*
X809405Y1090078D01*
X809220Y1089893D01*
X808850Y1089523D01*
X808388Y1088968D01*
X807833Y1088321D01*
X807186Y1087674D01*
X806539Y1086842D01*
X805799Y1085917D01*
Y1059105D01*
X798495D01*
Y1100895D01*
X805060D01*
X805245Y1093129D01*
Y1093221D01*
X805429Y1093314D01*
X805892Y1093869D01*
X806631Y1094608D01*
X807556Y1095625D01*
X808665Y1096642D01*
X809867Y1097752D01*
X811162Y1098769D01*
X812549Y1099601D01*
X812733Y1099693D01*
X813196Y1099878D01*
X813843Y1100248D01*
X814860Y1100618D01*
X815877Y1100988D01*
X817171Y1101357D01*
X818466Y1101542D01*
X819853Y1101635D01*
X820500D01*
X820962Y1101542D01*
D02*
G37*
G36*
X492836D02*
X493298D01*
X493945Y1101450D01*
X495424Y1101080D01*
X496996Y1100618D01*
X498568Y1099878D01*
X500140Y1098769D01*
X500879Y1098122D01*
X501527Y1097382D01*
X501711Y1097197D01*
X501804Y1096920D01*
X502081Y1096642D01*
X502266Y1096180D01*
X502544Y1095625D01*
X502913Y1094978D01*
X503191Y1094238D01*
X503468Y1093406D01*
X503745Y1092574D01*
X504023Y1091557D01*
X504300Y1090448D01*
X504485Y1089153D01*
X504578Y1087859D01*
X504670Y1086472D01*
Y1084993D01*
X497366D01*
Y1085085D01*
Y1085270D01*
Y1085547D01*
Y1085917D01*
X497274Y1086842D01*
X497181Y1087951D01*
X496996Y1089246D01*
X496719Y1090540D01*
X496257Y1091834D01*
X495702Y1092852D01*
X495609Y1092944D01*
X495424Y1093221D01*
X494962Y1093684D01*
X494407Y1094146D01*
X493668Y1094516D01*
X492836Y1094978D01*
X491819Y1095255D01*
X490617Y1095348D01*
X490062D01*
X489785Y1095255D01*
X488860Y1095163D01*
X487751Y1094793D01*
X487658D01*
X487473Y1094701D01*
X487196Y1094608D01*
X486826Y1094423D01*
X485809Y1093869D01*
X484700Y1093129D01*
X484607Y1093036D01*
X484422Y1092944D01*
X484145Y1092667D01*
X483683Y1092389D01*
X482666Y1091372D01*
X481371Y1090170D01*
X481279Y1090078D01*
X481094Y1089893D01*
X480724Y1089523D01*
X480262Y1088968D01*
X479707Y1088321D01*
X479060Y1087674D01*
X478413Y1086842D01*
X477673Y1085917D01*
Y1059105D01*
X470369D01*
Y1100895D01*
X476933D01*
X477118Y1093129D01*
Y1093221D01*
X477303Y1093314D01*
X477765Y1093869D01*
X478505Y1094608D01*
X479430Y1095625D01*
X480539Y1096642D01*
X481741Y1097752D01*
X483035Y1098769D01*
X484422Y1099601D01*
X484607Y1099693D01*
X485069Y1099878D01*
X485717Y1100248D01*
X486734Y1100618D01*
X487751Y1100988D01*
X489045Y1101357D01*
X490339Y1101542D01*
X491726Y1101635D01*
X492373D01*
X492836Y1101542D01*
D02*
G37*
G36*
X741265Y1059105D02*
X734053D01*
X732944Y1093036D01*
X732482Y1105980D01*
X729893Y1098491D01*
X721849Y1076857D01*
X716764D01*
X709090Y1097659D01*
X706594Y1105980D01*
X706409Y1092482D01*
X705484Y1059105D01*
X698458D01*
X701139Y1113469D01*
X709922D01*
X717226Y1092944D01*
X719630Y1086010D01*
X721849Y1092944D01*
X729616Y1113469D01*
X738676D01*
X741265Y1059105D01*
D02*
G37*
G36*
X580484Y1101542D02*
X581501Y1101357D01*
X581778D01*
X582333Y1101265D01*
X583165Y1101080D01*
X583997Y1100895D01*
X599160D01*
Y1094978D01*
X592411D01*
X592503Y1094886D01*
X592596Y1094701D01*
X592873Y1094423D01*
X593058Y1093961D01*
X593705Y1092944D01*
X594260Y1091557D01*
Y1091465D01*
X594352Y1091187D01*
X594445Y1090817D01*
X594630Y1090355D01*
X594722Y1089708D01*
X594815Y1088968D01*
X594907Y1087397D01*
Y1087212D01*
Y1086842D01*
X594815Y1086195D01*
X594722Y1085455D01*
X594630Y1084530D01*
X594445Y1083513D01*
X594075Y1082496D01*
X593705Y1081479D01*
X593613Y1081387D01*
X593520Y1081017D01*
X593243Y1080555D01*
X592873Y1079908D01*
X592318Y1079168D01*
X591764Y1078428D01*
X591116Y1077596D01*
X590284Y1076857D01*
X590192Y1076764D01*
X589914Y1076579D01*
X589452Y1076209D01*
X588805Y1075747D01*
X588065Y1075285D01*
X587233Y1074823D01*
X586216Y1074360D01*
X585107Y1073898D01*
X585014D01*
X584552Y1073713D01*
X583997Y1073621D01*
X583165Y1073436D01*
X582241Y1073251D01*
X581131Y1073066D01*
X579837Y1072973D01*
X578542Y1072881D01*
X577618D01*
X576971Y1072973D01*
X576231D01*
X575399Y1073158D01*
X573642Y1073436D01*
X573550D01*
X573272Y1073528D01*
X572810Y1073621D01*
X572348Y1073806D01*
X571146Y1074268D01*
X570591Y1074545D01*
X570036Y1074823D01*
Y1074730D01*
X569944Y1074638D01*
X569574Y1074083D01*
X569204Y1073343D01*
X568742Y1072604D01*
X568650Y1072419D01*
X568557Y1071956D01*
X568372Y1071217D01*
X568280Y1070292D01*
Y1070200D01*
Y1070015D01*
X568372Y1069738D01*
X568465Y1069368D01*
X568650Y1068905D01*
X568927Y1068443D01*
X569297Y1067981D01*
X569759Y1067611D01*
X569852D01*
X570036Y1067426D01*
X570406Y1067241D01*
X570776Y1067056D01*
X571423Y1066871D01*
X572070Y1066686D01*
X572810Y1066594D01*
X573735Y1066502D01*
X584737Y1066039D01*
X585846D01*
X586679Y1065947D01*
X587511Y1065854D01*
X588528Y1065762D01*
X590469Y1065300D01*
X590562D01*
X590932Y1065207D01*
X591394Y1065022D01*
X592041Y1064745D01*
X593520Y1064098D01*
X595000Y1063173D01*
X595092Y1063081D01*
X595277Y1062988D01*
X595647Y1062618D01*
X596109Y1062249D01*
X597034Y1061232D01*
X597958Y1059937D01*
X598051Y1059845D01*
X598143Y1059567D01*
X598328Y1059198D01*
X598513Y1058735D01*
X598698Y1058088D01*
X598883Y1057256D01*
X599068Y1056424D01*
Y1055499D01*
Y1055407D01*
Y1055037D01*
X598975Y1054482D01*
X598883Y1053835D01*
X598790Y1053003D01*
X598513Y1052078D01*
X598236Y1051154D01*
X597773Y1050229D01*
X597681Y1050137D01*
X597588Y1049859D01*
X597219Y1049305D01*
X596849Y1048750D01*
X596386Y1048103D01*
X595739Y1047363D01*
X595000Y1046624D01*
X594075Y1045884D01*
X593983Y1045791D01*
X593613Y1045606D01*
X593058Y1045237D01*
X592318Y1044774D01*
X591394Y1044312D01*
X590377Y1043757D01*
X589082Y1043295D01*
X587696Y1042833D01*
X587511Y1042740D01*
X587048Y1042648D01*
X586216Y1042463D01*
X585107Y1042278D01*
X583720Y1042001D01*
X582241Y1041816D01*
X580484Y1041723D01*
X578542Y1041631D01*
X577710D01*
X576786Y1041723D01*
X575584D01*
X574197Y1041816D01*
X572718Y1042001D01*
X571238Y1042186D01*
X569852Y1042463D01*
X569667D01*
X569297Y1042648D01*
X568650Y1042833D01*
X567818Y1043110D01*
X566893Y1043388D01*
X565876Y1043757D01*
X564951Y1044220D01*
X564027Y1044774D01*
X563934Y1044867D01*
X563657Y1045052D01*
X563287Y1045329D01*
X562732Y1045699D01*
X562178Y1046254D01*
X561623Y1046808D01*
X561161Y1047456D01*
X560698Y1048195D01*
Y1048288D01*
X560513Y1048565D01*
X560421Y1048935D01*
X560236Y1049490D01*
X560051Y1050137D01*
X559866Y1050876D01*
X559774Y1051709D01*
X559681Y1052541D01*
Y1052633D01*
Y1053003D01*
X559774Y1053558D01*
X559866Y1054297D01*
X560051Y1055129D01*
X560236Y1056054D01*
X560606Y1056886D01*
X561068Y1057811D01*
X561161Y1057903D01*
X561346Y1058181D01*
X561623Y1058643D01*
X562178Y1059198D01*
X562732Y1059845D01*
X563472Y1060584D01*
X564397Y1061324D01*
X565414Y1062156D01*
X565229Y1062249D01*
X564766Y1062526D01*
X564212Y1062896D01*
X563565Y1063358D01*
X563472Y1063543D01*
X563102Y1063913D01*
X562732Y1064375D01*
X562270Y1065022D01*
X562178Y1065207D01*
X561993Y1065577D01*
X561808Y1066224D01*
X561530Y1066964D01*
Y1067056D01*
Y1067149D01*
X561438Y1067611D01*
X561346Y1068258D01*
Y1068905D01*
Y1068998D01*
Y1069368D01*
X561438Y1069830D01*
X561530Y1070570D01*
X561623Y1071309D01*
X561900Y1072141D01*
X562178Y1072973D01*
X562548Y1073806D01*
X562640Y1073898D01*
X562825Y1074175D01*
X563010Y1074638D01*
X563380Y1075192D01*
X563842Y1075840D01*
X564304Y1076579D01*
X565506Y1078151D01*
X565414Y1078336D01*
X565044Y1078706D01*
X564582Y1079353D01*
X564119Y1080000D01*
X564027Y1080185D01*
X563749Y1080555D01*
X563472Y1081202D01*
X563102Y1081942D01*
Y1082034D01*
X563010Y1082127D01*
X562825Y1082681D01*
X562640Y1083421D01*
X562455Y1084253D01*
Y1084346D01*
Y1084438D01*
X562363Y1084715D01*
Y1085085D01*
X562270Y1085917D01*
Y1087027D01*
Y1087212D01*
Y1087582D01*
X562363Y1088229D01*
X562455Y1088968D01*
X562548Y1089893D01*
X562732Y1090910D01*
X563010Y1091927D01*
X563380Y1092944D01*
X563472Y1093036D01*
X563565Y1093406D01*
X563842Y1093869D01*
X564212Y1094516D01*
X564766Y1095255D01*
X565321Y1095995D01*
X565968Y1096827D01*
X566708Y1097567D01*
X566800Y1097659D01*
X567078Y1097844D01*
X567540Y1098214D01*
X568187Y1098676D01*
X568927Y1099139D01*
X569759Y1099601D01*
X570776Y1100063D01*
X571886Y1100525D01*
X572070Y1100618D01*
X572440Y1100710D01*
X573088Y1100895D01*
X573827Y1101080D01*
X574844Y1101265D01*
X575954Y1101450D01*
X577248Y1101635D01*
X579467D01*
X580484Y1101542D01*
D02*
G37*
G36*
X1097405D02*
X1098422Y1101450D01*
X1099624Y1101265D01*
X1101936Y1100803D01*
X1102028D01*
X1102491Y1100618D01*
X1103045Y1100433D01*
X1103692Y1100156D01*
X1104525Y1099786D01*
X1105357Y1099323D01*
X1106189Y1098861D01*
X1107021Y1098214D01*
X1107113Y1098122D01*
X1107391Y1097937D01*
X1107761Y1097567D01*
X1108223Y1097104D01*
X1108778Y1096457D01*
X1109332Y1095718D01*
X1109795Y1094886D01*
X1110257Y1093961D01*
X1110349Y1093869D01*
X1110442Y1093499D01*
X1110627Y1092944D01*
X1110904Y1092204D01*
X1111089Y1091372D01*
X1111274Y1090263D01*
X1111366Y1089153D01*
X1111459Y1087859D01*
Y1059105D01*
X1104894D01*
X1104710Y1064652D01*
X1104525Y1064468D01*
X1104155Y1064098D01*
X1103415Y1063543D01*
X1102583Y1062803D01*
X1101474Y1062064D01*
X1100364Y1061232D01*
X1099070Y1060492D01*
X1097775Y1059845D01*
X1097590Y1059752D01*
X1097128Y1059660D01*
X1096481Y1059382D01*
X1095556Y1059105D01*
X1094447Y1058828D01*
X1093153Y1058643D01*
X1091858Y1058458D01*
X1090379Y1058365D01*
X1089824D01*
X1089177Y1058458D01*
X1088345D01*
X1087328Y1058550D01*
X1086311Y1058735D01*
X1084277Y1059198D01*
X1084184D01*
X1083907Y1059382D01*
X1083445Y1059567D01*
X1082797Y1059845D01*
X1081503Y1060677D01*
X1080116Y1061694D01*
X1080024Y1061786D01*
X1079839Y1061971D01*
X1079561Y1062341D01*
X1079192Y1062803D01*
X1078822Y1063358D01*
X1078360Y1064005D01*
X1077712Y1065485D01*
Y1065577D01*
X1077620Y1065854D01*
X1077527Y1066317D01*
X1077343Y1066871D01*
X1077250Y1067611D01*
X1077065Y1068443D01*
X1076973Y1070200D01*
Y1070292D01*
Y1070477D01*
Y1070847D01*
X1077065Y1071217D01*
X1077158Y1071772D01*
X1077250Y1072419D01*
X1077527Y1073806D01*
X1078082Y1075377D01*
X1078914Y1077042D01*
X1079469Y1077874D01*
X1080116Y1078613D01*
X1080763Y1079353D01*
X1081595Y1080093D01*
X1081688D01*
X1081780Y1080277D01*
X1082058Y1080462D01*
X1082520Y1080647D01*
X1082982Y1080925D01*
X1083537Y1081202D01*
X1084277Y1081572D01*
X1085109Y1081942D01*
X1086033Y1082219D01*
X1087050Y1082589D01*
X1088160Y1082866D01*
X1089454Y1083144D01*
X1090749Y1083329D01*
X1092228Y1083513D01*
X1093800Y1083698D01*
X1104155D01*
Y1087304D01*
Y1087489D01*
Y1087951D01*
X1104062Y1088599D01*
X1103877Y1089431D01*
X1103600Y1090355D01*
X1103138Y1091372D01*
X1102583Y1092297D01*
X1101751Y1093221D01*
X1101658Y1093314D01*
X1101289Y1093591D01*
X1100734Y1093961D01*
X1099994Y1094331D01*
X1098977Y1094701D01*
X1097683Y1095070D01*
X1096204Y1095348D01*
X1094539Y1095440D01*
X1093245D01*
X1092320Y1095348D01*
X1091211Y1095255D01*
X1090101Y1095070D01*
X1087513Y1094608D01*
X1087328D01*
X1086958Y1094423D01*
X1086218Y1094238D01*
X1085386Y1094053D01*
X1084277Y1093684D01*
X1083075Y1093314D01*
X1081780Y1092852D01*
X1080486Y1092389D01*
Y1098954D01*
X1080578D01*
X1080763Y1099046D01*
X1080948Y1099139D01*
X1081318Y1099231D01*
X1082243Y1099508D01*
X1083445Y1099878D01*
X1083537D01*
X1083722Y1099971D01*
X1084092Y1100063D01*
X1084554Y1100156D01*
X1085756Y1100433D01*
X1087050Y1100710D01*
X1087143D01*
X1087420Y1100803D01*
X1087790Y1100895D01*
X1088252Y1100988D01*
X1088807Y1101080D01*
X1089454Y1101173D01*
X1090934Y1101357D01*
X1091026D01*
X1091303Y1101450D01*
X1091673D01*
X1092228Y1101542D01*
X1092875D01*
X1093522Y1101635D01*
X1096481D01*
X1097405Y1101542D01*
D02*
G37*
G36*
X1052657Y1065115D02*
X1065138D01*
Y1059105D01*
X1031669D01*
Y1065115D01*
X1045353D01*
Y1111990D01*
X1033056D01*
Y1117907D01*
X1052657D01*
Y1065115D01*
D02*
G37*
G36*
X1005782D02*
X1018263D01*
Y1059105D01*
X984794D01*
Y1065115D01*
X998478D01*
Y1111990D01*
X986181D01*
Y1117907D01*
X1005782D01*
Y1065115D01*
D02*
G37*
G36*
X958906D02*
X971388D01*
Y1059105D01*
X937919D01*
Y1065115D01*
X951602D01*
Y1094886D01*
X939306D01*
Y1100895D01*
X958906D01*
Y1065115D01*
D02*
G37*
G36*
X863030Y1101542D02*
X864047Y1101450D01*
X865248Y1101265D01*
X867560Y1100803D01*
X867652D01*
X868115Y1100618D01*
X868669Y1100433D01*
X869317Y1100156D01*
X870149Y1099786D01*
X870981Y1099323D01*
X871813Y1098861D01*
X872645Y1098214D01*
X872737Y1098122D01*
X873015Y1097937D01*
X873385Y1097567D01*
X873847Y1097104D01*
X874402Y1096457D01*
X874956Y1095718D01*
X875419Y1094886D01*
X875881Y1093961D01*
X875973Y1093869D01*
X876066Y1093499D01*
X876251Y1092944D01*
X876528Y1092204D01*
X876713Y1091372D01*
X876898Y1090263D01*
X876990Y1089153D01*
X877083Y1087859D01*
Y1059105D01*
X870518D01*
X870334Y1064652D01*
X870149Y1064468D01*
X869779Y1064098D01*
X869039Y1063543D01*
X868207Y1062803D01*
X867098Y1062064D01*
X865988Y1061232D01*
X864694Y1060492D01*
X863399Y1059845D01*
X863214Y1059752D01*
X862752Y1059660D01*
X862105Y1059382D01*
X861180Y1059105D01*
X860071Y1058828D01*
X858777Y1058643D01*
X857482Y1058458D01*
X856003Y1058365D01*
X855448D01*
X854801Y1058458D01*
X853969D01*
X852952Y1058550D01*
X851935Y1058735D01*
X849901Y1059198D01*
X849808D01*
X849531Y1059382D01*
X849069Y1059567D01*
X848421Y1059845D01*
X847127Y1060677D01*
X845740Y1061694D01*
X845648Y1061786D01*
X845463Y1061971D01*
X845186Y1062341D01*
X844816Y1062803D01*
X844446Y1063358D01*
X843984Y1064005D01*
X843336Y1065485D01*
Y1065577D01*
X843244Y1065854D01*
X843151Y1066317D01*
X842967Y1066871D01*
X842874Y1067611D01*
X842689Y1068443D01*
X842597Y1070200D01*
Y1070292D01*
Y1070477D01*
Y1070847D01*
X842689Y1071217D01*
X842782Y1071772D01*
X842874Y1072419D01*
X843151Y1073806D01*
X843706Y1075377D01*
X844538Y1077042D01*
X845093Y1077874D01*
X845740Y1078613D01*
X846387Y1079353D01*
X847220Y1080093D01*
X847312D01*
X847404Y1080277D01*
X847682Y1080462D01*
X848144Y1080647D01*
X848606Y1080925D01*
X849161Y1081202D01*
X849901Y1081572D01*
X850733Y1081942D01*
X851657Y1082219D01*
X852674Y1082589D01*
X853784Y1082866D01*
X855078Y1083144D01*
X856373Y1083329D01*
X857852Y1083513D01*
X859424Y1083698D01*
X869779D01*
Y1087304D01*
Y1087489D01*
Y1087951D01*
X869686Y1088599D01*
X869501Y1089431D01*
X869224Y1090355D01*
X868762Y1091372D01*
X868207Y1092297D01*
X867375Y1093221D01*
X867282Y1093314D01*
X866913Y1093591D01*
X866358Y1093961D01*
X865618Y1094331D01*
X864601Y1094701D01*
X863307Y1095070D01*
X861828Y1095348D01*
X860163Y1095440D01*
X858869D01*
X857944Y1095348D01*
X856835Y1095255D01*
X855725Y1095070D01*
X853137Y1094608D01*
X852952D01*
X852582Y1094423D01*
X851842Y1094238D01*
X851010Y1094053D01*
X849901Y1093684D01*
X848699Y1093314D01*
X847404Y1092852D01*
X846110Y1092389D01*
Y1098954D01*
X846203D01*
X846387Y1099046D01*
X846572Y1099139D01*
X846942Y1099231D01*
X847867Y1099508D01*
X849069Y1099878D01*
X849161D01*
X849346Y1099971D01*
X849716Y1100063D01*
X850178Y1100156D01*
X851380Y1100433D01*
X852674Y1100710D01*
X852767D01*
X853044Y1100803D01*
X853414Y1100895D01*
X853876Y1100988D01*
X854431Y1101080D01*
X855078Y1101173D01*
X856558Y1101357D01*
X856650D01*
X856927Y1101450D01*
X857297D01*
X857852Y1101542D01*
X858499D01*
X859146Y1101635D01*
X862105D01*
X863030Y1101542D01*
D02*
G37*
G36*
X537030Y1065115D02*
X549511D01*
Y1059105D01*
X516042D01*
Y1065115D01*
X529726D01*
Y1094886D01*
X517429D01*
Y1100895D01*
X537030D01*
Y1065115D01*
D02*
G37*
G36*
X344721Y1113377D02*
X345831D01*
X347125Y1113192D01*
X348512Y1113007D01*
X349899Y1112730D01*
X351193Y1112360D01*
X351378D01*
X351748Y1112175D01*
X352395Y1111897D01*
X353135Y1111620D01*
X354059Y1111250D01*
X354984Y1110696D01*
X355908Y1110141D01*
X356740Y1109494D01*
X356833Y1109401D01*
X357110Y1109124D01*
X357480Y1108754D01*
X357942Y1108199D01*
X358497Y1107552D01*
X359052Y1106812D01*
X359514Y1105888D01*
X359976Y1104963D01*
X360069Y1104871D01*
X360161Y1104501D01*
X360346Y1103946D01*
X360531Y1103207D01*
X360716Y1102374D01*
X360901Y1101357D01*
X361086Y1100340D01*
Y1099139D01*
Y1099046D01*
Y1098676D01*
Y1098214D01*
X360993Y1097567D01*
X360901Y1096827D01*
X360716Y1095995D01*
X360254Y1094238D01*
Y1094146D01*
X360161Y1093869D01*
X359976Y1093406D01*
X359699Y1092944D01*
X359052Y1091557D01*
X358035Y1090170D01*
X357942Y1090078D01*
X357757Y1089893D01*
X357480Y1089523D01*
X357018Y1089061D01*
X356463Y1088599D01*
X355816Y1088044D01*
X354337Y1086934D01*
X354244Y1086842D01*
X353967Y1086749D01*
X353504Y1086472D01*
X352950Y1086195D01*
X352210Y1085917D01*
X351378Y1085547D01*
X350361Y1085270D01*
X349344Y1084993D01*
X349436D01*
X349714Y1084808D01*
X350176Y1084623D01*
X350731Y1084346D01*
X351286Y1083976D01*
X351933Y1083421D01*
X352580Y1082866D01*
X353227Y1082127D01*
X353320Y1082034D01*
X353504Y1081757D01*
X353874Y1081387D01*
X354244Y1080740D01*
X354799Y1080000D01*
X355354Y1079168D01*
X355908Y1078059D01*
X356556Y1076949D01*
X365246Y1059105D01*
X356833D01*
X348697Y1076487D01*
Y1076579D01*
X348512Y1076857D01*
X348327Y1077134D01*
X348142Y1077596D01*
X347495Y1078706D01*
X346755Y1079723D01*
Y1079815D01*
X346570Y1080000D01*
X346200Y1080555D01*
X345553Y1081202D01*
X344721Y1081849D01*
X344629D01*
X344536Y1081942D01*
X343982Y1082312D01*
X343242Y1082589D01*
X342317Y1082959D01*
X342225D01*
X342132Y1083051D01*
X341855D01*
X341485Y1083144D01*
X340561Y1083236D01*
X339359Y1083329D01*
X335938D01*
Y1059105D01*
X328541D01*
Y1113469D01*
X343889D01*
X344721Y1113377D01*
D02*
G37*
G36*
X905374Y1100895D02*
X924235D01*
Y1094793D01*
X905374D01*
Y1073528D01*
Y1073436D01*
Y1073343D01*
Y1072789D01*
X905467Y1072049D01*
X905652Y1071032D01*
X905929Y1069922D01*
X906391Y1068813D01*
X906946Y1067796D01*
X907778Y1066871D01*
X907871Y1066779D01*
X908240Y1066502D01*
X908795Y1066132D01*
X909535Y1065762D01*
X910552Y1065392D01*
X911754Y1065022D01*
X913141Y1064745D01*
X914805Y1064652D01*
X916099D01*
X916746Y1064745D01*
X917579D01*
X919243Y1064930D01*
X919335D01*
X919705Y1065022D01*
X920167D01*
X920815Y1065207D01*
X921554Y1065300D01*
X922386Y1065485D01*
X924235Y1065947D01*
Y1059660D01*
X924143D01*
X923773Y1059567D01*
X923311Y1059475D01*
X922664Y1059382D01*
X921832Y1059198D01*
X920999Y1059105D01*
X919058Y1058828D01*
X918596D01*
X918133Y1058735D01*
X917394D01*
X916654Y1058643D01*
X915729D01*
X913788Y1058550D01*
X913048D01*
X912493Y1058643D01*
X911846D01*
X911107Y1058735D01*
X909350Y1059013D01*
X907501Y1059382D01*
X905559Y1060030D01*
X903710Y1060862D01*
X902786Y1061416D01*
X902046Y1062064D01*
X901861Y1062249D01*
X901399Y1062711D01*
X900844Y1063543D01*
X900104Y1064745D01*
X899365Y1066317D01*
X898810Y1068166D01*
X898348Y1070385D01*
X898163Y1072973D01*
Y1094793D01*
X886513D01*
Y1100895D01*
X898163D01*
Y1112360D01*
X905374Y1114301D01*
Y1100895D01*
D02*
G37*
G36*
X768724Y1101542D02*
X769741Y1101450D01*
X771036Y1101265D01*
X772330Y1100988D01*
X773717Y1100618D01*
X775104Y1100156D01*
X775289Y1100063D01*
X775751Y1099878D01*
X776398Y1099601D01*
X777230Y1099139D01*
X778155Y1098584D01*
X779172Y1097844D01*
X780189Y1097012D01*
X781113Y1096087D01*
X781206Y1095995D01*
X781483Y1095625D01*
X781946Y1095070D01*
X782500Y1094238D01*
X783148Y1093314D01*
X783795Y1092112D01*
X784349Y1090817D01*
X784904Y1089431D01*
X784997Y1089246D01*
X785089Y1088691D01*
X785366Y1087859D01*
X785644Y1086842D01*
X785829Y1085455D01*
X786106Y1083883D01*
X786199Y1082127D01*
X786291Y1080277D01*
Y1080185D01*
Y1080093D01*
Y1079815D01*
Y1079445D01*
X786199Y1078521D01*
X786106Y1077319D01*
X785921Y1075932D01*
X785736Y1074453D01*
X785366Y1072881D01*
X784904Y1071309D01*
X784812Y1071124D01*
X784627Y1070662D01*
X784349Y1069922D01*
X783887Y1068998D01*
X783332Y1067888D01*
X782685Y1066686D01*
X781853Y1065485D01*
X780929Y1064375D01*
X780836Y1064283D01*
X780466Y1063913D01*
X779912Y1063358D01*
X779172Y1062711D01*
X778247Y1062064D01*
X777230Y1061324D01*
X775936Y1060584D01*
X774642Y1059937D01*
X774457Y1059845D01*
X773994Y1059660D01*
X773255Y1059475D01*
X772238Y1059198D01*
X770943Y1058828D01*
X769556Y1058643D01*
X767985Y1058458D01*
X766228Y1058365D01*
X765488D01*
X764564Y1058458D01*
X763547Y1058550D01*
X762252Y1058735D01*
X760866Y1058920D01*
X759479Y1059290D01*
X758092Y1059752D01*
X757907Y1059845D01*
X757537Y1060030D01*
X756890Y1060307D01*
X756058Y1060769D01*
X755041Y1061324D01*
X754116Y1062064D01*
X753099Y1062896D01*
X752082Y1063820D01*
X751990Y1063913D01*
X751712Y1064283D01*
X751250Y1064837D01*
X750695Y1065669D01*
X750141Y1066594D01*
X749494Y1067796D01*
X748939Y1069090D01*
X748384Y1070477D01*
Y1070570D01*
X748292Y1070662D01*
X748199Y1071217D01*
X748014Y1072049D01*
X747737Y1073158D01*
X747460Y1074545D01*
X747275Y1076117D01*
X747182Y1077874D01*
X747090Y1079723D01*
Y1079815D01*
Y1079908D01*
Y1080185D01*
Y1080555D01*
X747182Y1081479D01*
X747275Y1082589D01*
X747367Y1083976D01*
X747644Y1085455D01*
X747922Y1087027D01*
X748384Y1088506D01*
Y1088599D01*
X748477Y1088691D01*
X748661Y1089153D01*
X748939Y1089985D01*
X749401Y1090910D01*
X749956Y1092019D01*
X750695Y1093129D01*
X751435Y1094331D01*
X752360Y1095440D01*
X752452Y1095533D01*
X752822Y1095903D01*
X753377Y1096457D01*
X754116Y1097104D01*
X755041Y1097844D01*
X756150Y1098584D01*
X757352Y1099323D01*
X758647Y1099971D01*
X758832Y1100063D01*
X759294Y1100248D01*
X760034Y1100525D01*
X761051Y1100803D01*
X762345Y1101080D01*
X763732Y1101357D01*
X765304Y1101542D01*
X767060Y1101635D01*
X767800D01*
X768724Y1101542D01*
D02*
G37*
G36*
X628099D02*
X629116Y1101450D01*
X630410Y1101265D01*
X631705Y1100988D01*
X633091Y1100618D01*
X634478Y1100156D01*
X634663Y1100063D01*
X635125Y1099878D01*
X635773Y1099601D01*
X636605Y1099139D01*
X637529Y1098584D01*
X638546Y1097844D01*
X639563Y1097012D01*
X640488Y1096087D01*
X640580Y1095995D01*
X640858Y1095625D01*
X641320Y1095070D01*
X641875Y1094238D01*
X642522Y1093314D01*
X643169Y1092112D01*
X643724Y1090817D01*
X644279Y1089431D01*
X644371Y1089246D01*
X644464Y1088691D01*
X644741Y1087859D01*
X645018Y1086842D01*
X645203Y1085455D01*
X645481Y1083883D01*
X645573Y1082127D01*
X645665Y1080277D01*
Y1080185D01*
Y1080093D01*
Y1079815D01*
Y1079445D01*
X645573Y1078521D01*
X645481Y1077319D01*
X645296Y1075932D01*
X645111Y1074453D01*
X644741Y1072881D01*
X644279Y1071309D01*
X644186Y1071124D01*
X644001Y1070662D01*
X643724Y1069922D01*
X643262Y1068998D01*
X642707Y1067888D01*
X642060Y1066686D01*
X641228Y1065485D01*
X640303Y1064375D01*
X640211Y1064283D01*
X639841Y1063913D01*
X639286Y1063358D01*
X638546Y1062711D01*
X637622Y1062064D01*
X636605Y1061324D01*
X635310Y1060584D01*
X634016Y1059937D01*
X633831Y1059845D01*
X633369Y1059660D01*
X632629Y1059475D01*
X631612Y1059198D01*
X630318Y1058828D01*
X628931Y1058643D01*
X627359Y1058458D01*
X625603Y1058365D01*
X624863D01*
X623938Y1058458D01*
X622921Y1058550D01*
X621627Y1058735D01*
X620240Y1058920D01*
X618853Y1059290D01*
X617466Y1059752D01*
X617281Y1059845D01*
X616912Y1060030D01*
X616264Y1060307D01*
X615432Y1060769D01*
X614415Y1061324D01*
X613491Y1062064D01*
X612474Y1062896D01*
X611457Y1063820D01*
X611364Y1063913D01*
X611087Y1064283D01*
X610625Y1064837D01*
X610070Y1065669D01*
X609515Y1066594D01*
X608868Y1067796D01*
X608313Y1069090D01*
X607759Y1070477D01*
Y1070570D01*
X607666Y1070662D01*
X607574Y1071217D01*
X607389Y1072049D01*
X607111Y1073158D01*
X606834Y1074545D01*
X606649Y1076117D01*
X606557Y1077874D01*
X606464Y1079723D01*
Y1079815D01*
Y1079908D01*
Y1080185D01*
Y1080555D01*
X606557Y1081479D01*
X606649Y1082589D01*
X606741Y1083976D01*
X607019Y1085455D01*
X607296Y1087027D01*
X607759Y1088506D01*
Y1088599D01*
X607851Y1088691D01*
X608036Y1089153D01*
X608313Y1089985D01*
X608776Y1090910D01*
X609330Y1092019D01*
X610070Y1093129D01*
X610810Y1094331D01*
X611734Y1095440D01*
X611827Y1095533D01*
X612196Y1095903D01*
X612751Y1096457D01*
X613491Y1097104D01*
X614415Y1097844D01*
X615525Y1098584D01*
X616727Y1099323D01*
X618021Y1099971D01*
X618206Y1100063D01*
X618668Y1100248D01*
X619408Y1100525D01*
X620425Y1100803D01*
X621719Y1101080D01*
X623106Y1101357D01*
X624678Y1101542D01*
X626435Y1101635D01*
X627174D01*
X628099Y1101542D01*
D02*
G37*
G36*
X393723D02*
X394740Y1101450D01*
X396034Y1101265D01*
X397329Y1100988D01*
X398715Y1100618D01*
X400102Y1100156D01*
X400287Y1100063D01*
X400750Y1099878D01*
X401397Y1099601D01*
X402229Y1099139D01*
X403153Y1098584D01*
X404170Y1097844D01*
X405187Y1097012D01*
X406112Y1096087D01*
X406204Y1095995D01*
X406482Y1095625D01*
X406944Y1095070D01*
X407499Y1094238D01*
X408146Y1093314D01*
X408793Y1092112D01*
X409348Y1090817D01*
X409903Y1089431D01*
X409995Y1089246D01*
X410088Y1088691D01*
X410365Y1087859D01*
X410642Y1086842D01*
X410827Y1085455D01*
X411105Y1083883D01*
X411197Y1082127D01*
X411289Y1080277D01*
Y1080185D01*
Y1080093D01*
Y1079815D01*
Y1079445D01*
X411197Y1078521D01*
X411105Y1077319D01*
X410920Y1075932D01*
X410735Y1074453D01*
X410365Y1072881D01*
X409903Y1071309D01*
X409810Y1071124D01*
X409625Y1070662D01*
X409348Y1069922D01*
X408886Y1068998D01*
X408331Y1067888D01*
X407684Y1066686D01*
X406852Y1065485D01*
X405927Y1064375D01*
X405835Y1064283D01*
X405465Y1063913D01*
X404910Y1063358D01*
X404170Y1062711D01*
X403246Y1062064D01*
X402229Y1061324D01*
X400934Y1060584D01*
X399640Y1059937D01*
X399455Y1059845D01*
X398993Y1059660D01*
X398253Y1059475D01*
X397236Y1059198D01*
X395942Y1058828D01*
X394555Y1058643D01*
X392983Y1058458D01*
X391227Y1058365D01*
X390487D01*
X389562Y1058458D01*
X388545Y1058550D01*
X387251Y1058735D01*
X385864Y1058920D01*
X384477Y1059290D01*
X383090Y1059752D01*
X382906Y1059845D01*
X382536Y1060030D01*
X381888Y1060307D01*
X381056Y1060769D01*
X380039Y1061324D01*
X379115Y1062064D01*
X378098Y1062896D01*
X377081Y1063820D01*
X376988Y1063913D01*
X376711Y1064283D01*
X376249Y1064837D01*
X375694Y1065669D01*
X375139Y1066594D01*
X374492Y1067796D01*
X373937Y1069090D01*
X373383Y1070477D01*
Y1070570D01*
X373290Y1070662D01*
X373198Y1071217D01*
X373013Y1072049D01*
X372735Y1073158D01*
X372458Y1074545D01*
X372273Y1076117D01*
X372181Y1077874D01*
X372088Y1079723D01*
Y1079815D01*
Y1079908D01*
Y1080185D01*
Y1080555D01*
X372181Y1081479D01*
X372273Y1082589D01*
X372366Y1083976D01*
X372643Y1085455D01*
X372920Y1087027D01*
X373383Y1088506D01*
Y1088599D01*
X373475Y1088691D01*
X373660Y1089153D01*
X373937Y1089985D01*
X374400Y1090910D01*
X374954Y1092019D01*
X375694Y1093129D01*
X376434Y1094331D01*
X377358Y1095440D01*
X377451Y1095533D01*
X377820Y1095903D01*
X378375Y1096457D01*
X379115Y1097104D01*
X380039Y1097844D01*
X381149Y1098584D01*
X382351Y1099323D01*
X383645Y1099971D01*
X383830Y1100063D01*
X384292Y1100248D01*
X385032Y1100525D01*
X386049Y1100803D01*
X387343Y1101080D01*
X388730Y1101357D01*
X390302Y1101542D01*
X392059Y1101635D01*
X392798D01*
X393723Y1101542D01*
D02*
G37*
%LPC*%
G36*
X699937Y1183347D02*
X698550D01*
X698273Y1183255D01*
X697348Y1183162D01*
X696331Y1182885D01*
X696239D01*
X696054Y1182792D01*
X695777Y1182700D01*
X695407Y1182515D01*
X694482Y1182053D01*
X693373Y1181406D01*
X693280D01*
X693095Y1181221D01*
X692818Y1181036D01*
X692448Y1180666D01*
X691431Y1179834D01*
X690137Y1178632D01*
X690044Y1178539D01*
X689859Y1178355D01*
X689490Y1177985D01*
X689120Y1177522D01*
X688565Y1176875D01*
X687918Y1176136D01*
X687271Y1175396D01*
X686623Y1174471D01*
Y1154223D01*
X686716D01*
X686993Y1154131D01*
X687363Y1153946D01*
X687918Y1153761D01*
X688473Y1153576D01*
X689212Y1153299D01*
X690784Y1152929D01*
X690876D01*
X691154Y1152837D01*
X691616Y1152744D01*
X692171D01*
X692818Y1152652D01*
X693558Y1152559D01*
X695129Y1152467D01*
X695684D01*
X696054Y1152559D01*
X697163Y1152652D01*
X698458Y1152929D01*
X699937Y1153484D01*
X701416Y1154131D01*
X702896Y1155148D01*
X703635Y1155703D01*
X704283Y1156442D01*
Y1156535D01*
X704467Y1156627D01*
X704560Y1156905D01*
X704837Y1157182D01*
X705115Y1157644D01*
X705392Y1158107D01*
X705669Y1158754D01*
X706039Y1159401D01*
X706317Y1160233D01*
X706594Y1161065D01*
X706871Y1162082D01*
X707149Y1163192D01*
X707426Y1164301D01*
X707519Y1165596D01*
X707703Y1166890D01*
Y1168369D01*
Y1168554D01*
Y1168924D01*
Y1169571D01*
X707611Y1170403D01*
Y1171328D01*
X707519Y1172345D01*
X707149Y1174379D01*
Y1174471D01*
X707056Y1174841D01*
X706964Y1175396D01*
X706779Y1176043D01*
X706317Y1177522D01*
X705669Y1179094D01*
Y1179187D01*
X705484Y1179464D01*
X705300Y1179834D01*
X704930Y1180296D01*
X704098Y1181313D01*
X702988Y1182238D01*
X702896Y1182330D01*
X702711Y1182423D01*
X702341Y1182607D01*
X701879Y1182792D01*
X701324Y1182977D01*
X700677Y1183162D01*
X699937Y1183347D01*
D02*
G37*
G36*
X1174236Y1166150D02*
X1164066D01*
X1163419Y1166058D01*
X1161940Y1165965D01*
X1160368Y1165596D01*
X1160276D01*
X1160091Y1165503D01*
X1159721Y1165411D01*
X1159259Y1165226D01*
X1158149Y1164671D01*
X1157132Y1164024D01*
X1157040D01*
X1156947Y1163839D01*
X1156485Y1163377D01*
X1155838Y1162545D01*
X1155283Y1161620D01*
Y1161528D01*
X1155190Y1161343D01*
X1155098Y1161065D01*
X1155006Y1160695D01*
X1154821Y1159678D01*
X1154728Y1158476D01*
Y1158384D01*
Y1158292D01*
X1154821Y1157737D01*
X1154913Y1156997D01*
X1155098Y1156165D01*
Y1156073D01*
X1155190Y1155980D01*
X1155375Y1155518D01*
X1155745Y1154871D01*
X1156300Y1154131D01*
X1156485Y1154039D01*
X1156855Y1153669D01*
X1157594Y1153206D01*
X1158426Y1152837D01*
X1158519D01*
X1158704Y1152744D01*
X1158981Y1152652D01*
X1159351D01*
X1160368Y1152467D01*
X1161662Y1152374D01*
X1162125D01*
X1162587Y1152467D01*
X1163327Y1152559D01*
X1164159Y1152744D01*
X1165176Y1153022D01*
X1166193Y1153391D01*
X1167395Y1153854D01*
X1167580Y1153946D01*
X1167949Y1154131D01*
X1168597Y1154501D01*
X1169429Y1155056D01*
X1170446Y1155703D01*
X1171648Y1156535D01*
X1172942Y1157459D01*
X1174236Y1158661D01*
Y1166150D01*
D02*
G37*
G36*
X330483D02*
X320313D01*
X319666Y1166058D01*
X318186Y1165965D01*
X316615Y1165596D01*
X316522D01*
X316337Y1165503D01*
X315967Y1165411D01*
X315505Y1165226D01*
X314396Y1164671D01*
X313379Y1164024D01*
X313286D01*
X313194Y1163839D01*
X312731Y1163377D01*
X312084Y1162545D01*
X311529Y1161620D01*
Y1161528D01*
X311437Y1161343D01*
X311345Y1161065D01*
X311252Y1160695D01*
X311067Y1159678D01*
X310975Y1158476D01*
Y1158384D01*
Y1158292D01*
X311067Y1157737D01*
X311160Y1156997D01*
X311345Y1156165D01*
Y1156073D01*
X311437Y1155980D01*
X311622Y1155518D01*
X311992Y1154871D01*
X312546Y1154131D01*
X312731Y1154039D01*
X313101Y1153669D01*
X313841Y1153206D01*
X314673Y1152837D01*
X314765D01*
X314950Y1152744D01*
X315228Y1152652D01*
X315598D01*
X316615Y1152467D01*
X317909Y1152374D01*
X318371D01*
X318833Y1152467D01*
X319573Y1152559D01*
X320405Y1152744D01*
X321422Y1153022D01*
X322439Y1153391D01*
X323641Y1153854D01*
X323826Y1153946D01*
X324196Y1154131D01*
X324843Y1154501D01*
X325675Y1155056D01*
X326692Y1155703D01*
X327894Y1156535D01*
X329189Y1157459D01*
X330483Y1158661D01*
Y1166150D01*
D02*
G37*
G36*
X1025382Y1183809D02*
X1023533D01*
X1022978Y1183717D01*
X1022331Y1183625D01*
X1021592Y1183440D01*
X1020020Y1182885D01*
X1019927D01*
X1019742Y1182700D01*
X1019373Y1182515D01*
X1018910Y1182238D01*
X1017801Y1181406D01*
X1016691Y1180296D01*
X1016599Y1180204D01*
X1016506Y1180019D01*
X1016229Y1179649D01*
X1015859Y1179187D01*
X1015489Y1178632D01*
X1015120Y1177892D01*
X1014380Y1176320D01*
Y1176228D01*
X1014288Y1175951D01*
X1014103Y1175488D01*
X1013918Y1174841D01*
X1013733Y1174102D01*
X1013640Y1173177D01*
X1013363Y1171235D01*
X1035368D01*
Y1171328D01*
Y1171698D01*
Y1172252D01*
Y1172900D01*
X1035275Y1173639D01*
X1035183Y1174471D01*
X1034720Y1176228D01*
Y1176320D01*
X1034628Y1176598D01*
X1034443Y1177060D01*
X1034258Y1177615D01*
X1033611Y1178909D01*
X1032686Y1180204D01*
X1032594Y1180296D01*
X1032409Y1180481D01*
X1032132Y1180758D01*
X1031762Y1181128D01*
X1031207Y1181590D01*
X1030652Y1181960D01*
X1029173Y1182792D01*
X1029080Y1182885D01*
X1028803Y1182977D01*
X1028341Y1183162D01*
X1027786Y1183347D01*
X1027139Y1183532D01*
X1026307Y1183625D01*
X1025382Y1183809D01*
D02*
G37*
G36*
X744131D02*
X742282D01*
X741727Y1183717D01*
X741080Y1183625D01*
X740340Y1183440D01*
X738769Y1182885D01*
X738676D01*
X738491Y1182700D01*
X738121Y1182515D01*
X737659Y1182238D01*
X736550Y1181406D01*
X735440Y1180296D01*
X735348Y1180204D01*
X735255Y1180019D01*
X734978Y1179649D01*
X734608Y1179187D01*
X734238Y1178632D01*
X733868Y1177892D01*
X733129Y1176320D01*
Y1176228D01*
X733036Y1175951D01*
X732851Y1175488D01*
X732667Y1174841D01*
X732482Y1174102D01*
X732389Y1173177D01*
X732112Y1171235D01*
X754116D01*
Y1171328D01*
Y1171698D01*
Y1172252D01*
Y1172900D01*
X754024Y1173639D01*
X753931Y1174471D01*
X753469Y1176228D01*
Y1176320D01*
X753377Y1176598D01*
X753192Y1177060D01*
X753007Y1177615D01*
X752360Y1178909D01*
X751435Y1180204D01*
X751343Y1180296D01*
X751158Y1180481D01*
X750880Y1180758D01*
X750511Y1181128D01*
X749956Y1181590D01*
X749401Y1181960D01*
X747922Y1182792D01*
X747829Y1182885D01*
X747552Y1182977D01*
X747090Y1183162D01*
X746535Y1183347D01*
X745888Y1183532D01*
X745056Y1183625D01*
X744131Y1183809D01*
D02*
G37*
G36*
X650288Y1183440D02*
X648717D01*
X648069Y1183347D01*
X647330Y1183255D01*
X646405Y1183162D01*
X645481Y1182885D01*
X644556Y1182607D01*
X643631Y1182145D01*
X643539Y1182053D01*
X643262Y1181868D01*
X642799Y1181590D01*
X642337Y1181221D01*
X641690Y1180758D01*
X641043Y1180204D01*
X639841Y1178724D01*
X639748Y1178632D01*
X639563Y1178355D01*
X639378Y1177892D01*
X639009Y1177337D01*
X638639Y1176598D01*
X638361Y1175766D01*
X637992Y1174841D01*
X637714Y1173824D01*
Y1173732D01*
X637622Y1173362D01*
X637529Y1172807D01*
X637437Y1172068D01*
X637252Y1171143D01*
X637160Y1170126D01*
X637067Y1167907D01*
Y1167722D01*
Y1167260D01*
X637160Y1166520D01*
Y1165596D01*
X637252Y1164579D01*
X637437Y1163377D01*
X637899Y1161065D01*
Y1160973D01*
X638084Y1160603D01*
X638269Y1160048D01*
X638546Y1159401D01*
X639286Y1157829D01*
X640303Y1156258D01*
X640395Y1156165D01*
X640580Y1155980D01*
X640950Y1155610D01*
X641412Y1155241D01*
X641967Y1154778D01*
X642614Y1154316D01*
X644094Y1153391D01*
X644186D01*
X644464Y1153206D01*
X645018Y1153114D01*
X645573Y1152929D01*
X646405Y1152744D01*
X647237Y1152652D01*
X648254Y1152467D01*
X649826D01*
X650381Y1152559D01*
X651213Y1152652D01*
X652045Y1152744D01*
X652969Y1153022D01*
X653894Y1153299D01*
X654819Y1153669D01*
X654911Y1153761D01*
X655188Y1153946D01*
X655651Y1154223D01*
X656205Y1154593D01*
X656760Y1155056D01*
X657407Y1155703D01*
X658609Y1157090D01*
X658702Y1157182D01*
X658887Y1157459D01*
X659072Y1157922D01*
X659441Y1158476D01*
X659811Y1159216D01*
X660089Y1160048D01*
X660458Y1160973D01*
X660736Y1161990D01*
Y1162082D01*
X660828Y1162452D01*
X661013Y1163099D01*
X661106Y1163839D01*
X661291Y1164671D01*
X661383Y1165688D01*
X661475Y1167907D01*
Y1168092D01*
Y1168554D01*
Y1169294D01*
X661383Y1170218D01*
X661291Y1171235D01*
X661106Y1172437D01*
X660828Y1173547D01*
X660551Y1174656D01*
Y1174749D01*
X660366Y1175119D01*
X660181Y1175673D01*
X659904Y1176413D01*
X659164Y1177892D01*
X658702Y1178724D01*
X658147Y1179464D01*
X658055Y1179556D01*
X657870Y1179741D01*
X657500Y1180111D01*
X657038Y1180573D01*
X656483Y1181036D01*
X655836Y1181498D01*
X654264Y1182423D01*
X654171Y1182515D01*
X653894Y1182607D01*
X653432Y1182792D01*
X652785Y1182977D01*
X652045Y1183162D01*
X651213Y1183255D01*
X650288Y1183440D01*
D02*
G37*
G36*
X462880Y1183809D02*
X461031D01*
X460476Y1183717D01*
X459829Y1183625D01*
X459089Y1183440D01*
X457517Y1182885D01*
X457425D01*
X457240Y1182700D01*
X456870Y1182515D01*
X456408Y1182238D01*
X455299Y1181406D01*
X454189Y1180296D01*
X454097Y1180204D01*
X454004Y1180019D01*
X453727Y1179649D01*
X453357Y1179187D01*
X452987Y1178632D01*
X452617Y1177892D01*
X451878Y1176320D01*
Y1176228D01*
X451785Y1175951D01*
X451600Y1175488D01*
X451415Y1174841D01*
X451230Y1174102D01*
X451138Y1173177D01*
X450861Y1171235D01*
X472865D01*
Y1171328D01*
Y1171698D01*
Y1172252D01*
Y1172900D01*
X472773Y1173639D01*
X472680Y1174471D01*
X472218Y1176228D01*
Y1176320D01*
X472126Y1176598D01*
X471941Y1177060D01*
X471756Y1177615D01*
X471109Y1178909D01*
X470184Y1180204D01*
X470092Y1180296D01*
X469907Y1180481D01*
X469629Y1180758D01*
X469259Y1181128D01*
X468705Y1181590D01*
X468150Y1181960D01*
X466671Y1182792D01*
X466578Y1182885D01*
X466301Y1182977D01*
X465839Y1183162D01*
X465284Y1183347D01*
X464637Y1183532D01*
X463805Y1183625D01*
X462880Y1183809D01*
D02*
G37*
G36*
X539219Y962420D02*
X520266Y933482D01*
X539219D01*
Y962420D01*
D02*
G37*
G36*
X909690Y964085D02*
X909228D01*
X908673Y963992D01*
X907934Y963900D01*
X907194Y963715D01*
X906269Y963530D01*
X905437Y963160D01*
X904513Y962698D01*
X904420Y962605D01*
X904143Y962420D01*
X903681Y962143D01*
X903126Y961681D01*
X902571Y961034D01*
X901832Y960386D01*
X901184Y959554D01*
X900537Y958537D01*
X900445Y958445D01*
X900260Y958075D01*
X899982Y957520D01*
X899613Y956688D01*
X899243Y955671D01*
X898873Y954562D01*
X898503Y953267D01*
X898133Y951788D01*
Y951603D01*
X898041Y951048D01*
X897856Y950216D01*
X897764Y949107D01*
X897579Y947720D01*
X897394Y946148D01*
X897301Y944392D01*
Y942450D01*
Y942358D01*
Y942265D01*
Y941618D01*
Y940786D01*
Y939861D01*
Y939769D01*
Y939676D01*
Y939122D01*
Y938382D01*
X897394Y937457D01*
X920415Y954469D01*
Y954562D01*
X920323Y954839D01*
X920138Y955209D01*
X919953Y955764D01*
X919491Y956966D01*
X918843Y958352D01*
Y958445D01*
X918659Y958630D01*
X918474Y959000D01*
X918196Y959369D01*
X917457Y960386D01*
X916532Y961311D01*
X916440Y961403D01*
X916347Y961496D01*
X916070Y961773D01*
X915700Y962051D01*
X914683Y962698D01*
X913481Y963345D01*
X913389D01*
X913204Y963437D01*
X912834Y963622D01*
X912372Y963715D01*
X911817Y963900D01*
X911170Y963992D01*
X909690Y964085D01*
D02*
G37*
G36*
X921802Y947535D02*
X898781Y930431D01*
Y930338D01*
X898873Y930061D01*
X899058Y929599D01*
X899243Y929136D01*
X899705Y927749D01*
X900352Y926363D01*
X900445Y926270D01*
X900537Y926085D01*
X900722Y925715D01*
X900999Y925346D01*
X901739Y924329D01*
X902664Y923219D01*
X902756Y923127D01*
X902941Y923034D01*
X903218Y922757D01*
X903588Y922479D01*
X904513Y921832D01*
X905715Y921185D01*
X905807D01*
X905992Y921093D01*
X906362Y921000D01*
X906917Y920908D01*
X907471Y920723D01*
X908119Y920630D01*
X909690Y920538D01*
X910153D01*
X910707Y920630D01*
X911447Y920723D01*
X912187Y920815D01*
X913111Y921093D01*
X913943Y921370D01*
X914868Y921832D01*
X914960Y921925D01*
X915238Y922110D01*
X915700Y922387D01*
X916255Y922849D01*
X916809Y923404D01*
X917457Y924144D01*
X918104Y924976D01*
X918751Y925900D01*
X918843Y925993D01*
X919028Y926363D01*
X919306Y927010D01*
X919676Y927749D01*
X920138Y928766D01*
X920508Y929876D01*
X920878Y931263D01*
X921247Y932650D01*
Y932742D01*
Y932835D01*
X921432Y933389D01*
X921525Y934221D01*
X921710Y935331D01*
X921895Y936718D01*
X921987Y938289D01*
X922172Y940046D01*
Y941988D01*
Y942080D01*
Y942265D01*
Y942542D01*
Y942820D01*
X922079Y943744D01*
X921987Y944761D01*
Y944854D01*
Y945039D01*
Y945316D01*
X921895Y945593D01*
Y946518D01*
X921802Y947535D01*
D02*
G37*
G36*
X815940Y964085D02*
X815478D01*
X814923Y963992D01*
X814183Y963900D01*
X813444Y963715D01*
X812519Y963530D01*
X811687Y963160D01*
X810762Y962698D01*
X810670Y962605D01*
X810393Y962420D01*
X809930Y962143D01*
X809376Y961681D01*
X808821Y961034D01*
X808081Y960386D01*
X807434Y959554D01*
X806787Y958537D01*
X806694Y958445D01*
X806509Y958075D01*
X806232Y957520D01*
X805862Y956688D01*
X805492Y955671D01*
X805123Y954562D01*
X804753Y953267D01*
X804383Y951788D01*
Y951603D01*
X804290Y951048D01*
X804106Y950216D01*
X804013Y949107D01*
X803828Y947720D01*
X803643Y946148D01*
X803551Y944392D01*
Y942450D01*
Y942358D01*
Y942265D01*
Y941618D01*
Y940786D01*
Y939861D01*
Y939769D01*
Y939676D01*
Y939122D01*
Y938382D01*
X803643Y937457D01*
X826665Y954469D01*
Y954562D01*
X826572Y954839D01*
X826387Y955209D01*
X826203Y955764D01*
X825740Y956966D01*
X825093Y958352D01*
Y958445D01*
X824908Y958630D01*
X824723Y959000D01*
X824446Y959369D01*
X823706Y960386D01*
X822782Y961311D01*
X822689Y961403D01*
X822597Y961496D01*
X822319Y961773D01*
X821950Y962051D01*
X820933Y962698D01*
X819731Y963345D01*
X819638D01*
X819453Y963437D01*
X819083Y963622D01*
X818621Y963715D01*
X818066Y963900D01*
X817419Y963992D01*
X815940Y964085D01*
D02*
G37*
G36*
X828052Y947535D02*
X805030Y930431D01*
Y930338D01*
X805123Y930061D01*
X805308Y929599D01*
X805492Y929136D01*
X805955Y927749D01*
X806602Y926363D01*
X806694Y926270D01*
X806787Y926085D01*
X806972Y925715D01*
X807249Y925346D01*
X807989Y924329D01*
X808913Y923219D01*
X809006Y923127D01*
X809191Y923034D01*
X809468Y922757D01*
X809838Y922479D01*
X810762Y921832D01*
X811964Y921185D01*
X812057D01*
X812242Y921093D01*
X812612Y921000D01*
X813166Y920908D01*
X813721Y920723D01*
X814368Y920630D01*
X815940Y920538D01*
X816402D01*
X816957Y920630D01*
X817697Y920723D01*
X818436Y920815D01*
X819361Y921093D01*
X820193Y921370D01*
X821117Y921832D01*
X821210Y921925D01*
X821487Y922110D01*
X821950Y922387D01*
X822504Y922849D01*
X823059Y923404D01*
X823706Y924144D01*
X824353Y924976D01*
X825001Y925900D01*
X825093Y925993D01*
X825278Y926363D01*
X825555Y927010D01*
X825925Y927749D01*
X826387Y928766D01*
X826757Y929876D01*
X827127Y931263D01*
X827497Y932650D01*
Y932742D01*
Y932835D01*
X827682Y933389D01*
X827774Y934221D01*
X827959Y935331D01*
X828144Y936718D01*
X828237Y938289D01*
X828422Y940046D01*
Y941988D01*
Y942080D01*
Y942265D01*
Y942542D01*
Y942820D01*
X828329Y943744D01*
X828237Y944761D01*
Y944854D01*
Y945039D01*
Y945316D01*
X828144Y945593D01*
Y946518D01*
X828052Y947535D01*
D02*
G37*
G36*
X977576Y1372660D02*
X976883D01*
X976051Y1372522D01*
X974941Y1372383D01*
X973832Y1372105D01*
X972445Y1371828D01*
X971197Y1371273D01*
X969810Y1370580D01*
X969671Y1370441D01*
X969255Y1370164D01*
X968562Y1369748D01*
X967730Y1369054D01*
X966897Y1368084D01*
X965788Y1367113D01*
X964817Y1365865D01*
X963846Y1364339D01*
X963708Y1364200D01*
X963430Y1363646D01*
X963014Y1362814D01*
X962460Y1361565D01*
X961905Y1360040D01*
X961350Y1358376D01*
X960795Y1356434D01*
X960241Y1354215D01*
Y1353938D01*
X960102Y1353106D01*
X959825Y1351858D01*
X959686Y1350193D01*
X959409Y1348113D01*
X959131Y1345755D01*
X958992Y1343121D01*
Y1340208D01*
Y1340069D01*
Y1339931D01*
Y1338960D01*
Y1337712D01*
Y1336325D01*
Y1336186D01*
Y1336048D01*
Y1335216D01*
Y1334106D01*
X959131Y1332719D01*
X993663Y1358237D01*
Y1358376D01*
X993525Y1358792D01*
X993247Y1359347D01*
X992970Y1360179D01*
X992277Y1361982D01*
X991306Y1364062D01*
Y1364200D01*
X991028Y1364478D01*
X990751Y1365033D01*
X990335Y1365587D01*
X989226Y1367113D01*
X987839Y1368500D01*
X987700Y1368638D01*
X987561Y1368777D01*
X987145Y1369193D01*
X986591Y1369609D01*
X985065Y1370580D01*
X983262Y1371551D01*
X983124D01*
X982846Y1371689D01*
X982291Y1371967D01*
X981598Y1372105D01*
X980766Y1372383D01*
X979795Y1372522D01*
X977576Y1372660D01*
D02*
G37*
G36*
X995744Y1347836D02*
X961211Y1322179D01*
Y1322041D01*
X961350Y1321624D01*
X961627Y1320931D01*
X961905Y1320238D01*
X962598Y1318157D01*
X963569Y1316077D01*
X963708Y1315938D01*
X963846Y1315661D01*
X964124Y1315106D01*
X964540Y1314552D01*
X965649Y1313026D01*
X967036Y1311362D01*
X967175Y1311223D01*
X967452Y1311084D01*
X967868Y1310668D01*
X968423Y1310252D01*
X969810Y1309282D01*
X971613Y1308311D01*
X971751D01*
X972029Y1308172D01*
X972584Y1308033D01*
X973416Y1307895D01*
X974248Y1307617D01*
X975219Y1307479D01*
X977576Y1307340D01*
X978270D01*
X979102Y1307479D01*
X980211Y1307617D01*
X981321Y1307756D01*
X982707Y1308172D01*
X983956Y1308588D01*
X985342Y1309282D01*
X985481Y1309420D01*
X985897Y1309698D01*
X986591Y1310114D01*
X987423Y1310807D01*
X988255Y1311639D01*
X989226Y1312749D01*
X990196Y1313997D01*
X991167Y1315384D01*
X991306Y1315522D01*
X991583Y1316077D01*
X991999Y1317048D01*
X992554Y1318157D01*
X993247Y1319683D01*
X993802Y1321347D01*
X994357Y1323427D01*
X994912Y1325508D01*
Y1325646D01*
Y1325785D01*
X995189Y1326617D01*
X995328Y1327865D01*
X995605Y1329529D01*
X995882Y1331610D01*
X996021Y1333967D01*
X996298Y1336602D01*
Y1339515D01*
Y1339653D01*
Y1339931D01*
Y1340347D01*
Y1340763D01*
X996160Y1342150D01*
X996021Y1343675D01*
Y1343814D01*
Y1344091D01*
Y1344507D01*
X995882Y1344923D01*
Y1346310D01*
X995744Y1347836D01*
D02*
G37*
G36*
X836951Y1372660D02*
X836257D01*
X835425Y1372522D01*
X834316Y1372383D01*
X833206Y1372105D01*
X831819Y1371828D01*
X830571Y1371273D01*
X829184Y1370580D01*
X829046Y1370441D01*
X828630Y1370164D01*
X827936Y1369748D01*
X827104Y1369054D01*
X826272Y1368084D01*
X825162Y1367113D01*
X824192Y1365865D01*
X823221Y1364339D01*
X823082Y1364200D01*
X822805Y1363646D01*
X822389Y1362814D01*
X821834Y1361565D01*
X821279Y1360040D01*
X820725Y1358376D01*
X820170Y1356434D01*
X819615Y1354215D01*
Y1353938D01*
X819476Y1353106D01*
X819199Y1351858D01*
X819060Y1350193D01*
X818783Y1348113D01*
X818506Y1345755D01*
X818367Y1343121D01*
Y1340208D01*
Y1340069D01*
Y1339931D01*
Y1338960D01*
Y1337712D01*
Y1336325D01*
Y1336186D01*
Y1336048D01*
Y1335216D01*
Y1334106D01*
X818506Y1332719D01*
X853038Y1358237D01*
Y1358376D01*
X852899Y1358792D01*
X852622Y1359347D01*
X852344Y1360179D01*
X851651Y1361982D01*
X850680Y1364062D01*
Y1364200D01*
X850403Y1364478D01*
X850126Y1365033D01*
X849710Y1365587D01*
X848600Y1367113D01*
X847213Y1368500D01*
X847075Y1368638D01*
X846936Y1368777D01*
X846520Y1369193D01*
X845965Y1369609D01*
X844440Y1370580D01*
X842637Y1371551D01*
X842498D01*
X842221Y1371689D01*
X841666Y1371967D01*
X840972Y1372105D01*
X840140Y1372383D01*
X839170Y1372522D01*
X836951Y1372660D01*
D02*
G37*
G36*
X855118Y1347836D02*
X820586Y1322179D01*
Y1322041D01*
X820725Y1321624D01*
X821002Y1320931D01*
X821279Y1320238D01*
X821973Y1318157D01*
X822943Y1316077D01*
X823082Y1315938D01*
X823221Y1315661D01*
X823498Y1315106D01*
X823914Y1314552D01*
X825024Y1313026D01*
X826411Y1311362D01*
X826549Y1311223D01*
X826827Y1311084D01*
X827243Y1310668D01*
X827797Y1310252D01*
X829184Y1309282D01*
X830987Y1308311D01*
X831126D01*
X831403Y1308172D01*
X831958Y1308033D01*
X832790Y1307895D01*
X833622Y1307617D01*
X834593Y1307479D01*
X836951Y1307340D01*
X837644D01*
X838476Y1307479D01*
X839586Y1307617D01*
X840695Y1307756D01*
X842082Y1308172D01*
X843330Y1308588D01*
X844717Y1309282D01*
X844856Y1309420D01*
X845272Y1309698D01*
X845965Y1310114D01*
X846797Y1310807D01*
X847629Y1311639D01*
X848600Y1312749D01*
X849571Y1313997D01*
X850542Y1315384D01*
X850680Y1315522D01*
X850958Y1316077D01*
X851374Y1317048D01*
X851928Y1318157D01*
X852622Y1319683D01*
X853177Y1321347D01*
X853731Y1323427D01*
X854286Y1325508D01*
Y1325646D01*
Y1325785D01*
X854563Y1326617D01*
X854702Y1327865D01*
X854979Y1329529D01*
X855257Y1331610D01*
X855396Y1333967D01*
X855673Y1336602D01*
Y1339515D01*
Y1339653D01*
Y1339931D01*
Y1340347D01*
Y1340763D01*
X855534Y1342150D01*
X855396Y1343675D01*
Y1343814D01*
Y1344091D01*
Y1344507D01*
X855257Y1344923D01*
Y1346310D01*
X855118Y1347836D01*
D02*
G37*
G36*
X439581Y1095348D02*
X439026D01*
X438564Y1095255D01*
X437547Y1095163D01*
X436253Y1094886D01*
X434681Y1094423D01*
X433202Y1093684D01*
X431722Y1092759D01*
X430335Y1091465D01*
X430243Y1091280D01*
X429873Y1090725D01*
X429596Y1090355D01*
X429318Y1089800D01*
X429041Y1089246D01*
X428764Y1088599D01*
X428394Y1087766D01*
X428116Y1086934D01*
X427839Y1085917D01*
X427654Y1084808D01*
X427377Y1083698D01*
X427284Y1082404D01*
X427099Y1081017D01*
Y1079538D01*
Y1079445D01*
Y1079168D01*
Y1078798D01*
Y1078336D01*
X427192Y1077689D01*
Y1076949D01*
X427377Y1075285D01*
X427654Y1073436D01*
X428024Y1071587D01*
X428579Y1069830D01*
X429318Y1068258D01*
X429411Y1068073D01*
X429688Y1067703D01*
X430243Y1067056D01*
X430983Y1066409D01*
X431815Y1065762D01*
X432924Y1065115D01*
X434126Y1064745D01*
X435605Y1064560D01*
X436068D01*
X436622Y1064652D01*
X437362Y1064837D01*
X438287Y1065115D01*
X439211Y1065577D01*
X440321Y1066132D01*
X441430Y1066964D01*
X441615Y1067056D01*
X441985Y1067426D01*
X442540Y1067981D01*
X443372Y1068813D01*
X444389Y1069830D01*
X445406Y1071124D01*
X446608Y1072604D01*
X447902Y1074268D01*
Y1093591D01*
X447810D01*
X447625Y1093776D01*
X447162Y1093869D01*
X446700Y1094053D01*
X446145Y1094238D01*
X445406Y1094516D01*
X443834Y1094886D01*
X443742D01*
X443464Y1094978D01*
X443094Y1095070D01*
X442540Y1095163D01*
X441892D01*
X441153Y1095255D01*
X439581Y1095348D01*
D02*
G37*
G36*
X578542Y1096180D02*
X577803D01*
X577248Y1096087D01*
X576046Y1095810D01*
X574659Y1095348D01*
X574567D01*
X574382Y1095255D01*
X574105Y1095070D01*
X573735Y1094793D01*
X572810Y1094238D01*
X571886Y1093406D01*
Y1093314D01*
X571701Y1093221D01*
X571516Y1092944D01*
X571238Y1092574D01*
X570684Y1091650D01*
X570129Y1090540D01*
Y1090448D01*
X570036Y1090263D01*
X569944Y1089985D01*
X569852Y1089523D01*
X569667Y1088506D01*
X569574Y1087212D01*
Y1087119D01*
Y1086842D01*
Y1086472D01*
X569667Y1086010D01*
X569852Y1084808D01*
X570221Y1083513D01*
Y1083421D01*
X570314Y1083236D01*
X570499Y1082959D01*
X570684Y1082589D01*
X571238Y1081664D01*
X572070Y1080740D01*
X572163Y1080647D01*
X572255Y1080555D01*
X572533Y1080370D01*
X572903Y1080093D01*
X573735Y1079445D01*
X574844Y1078891D01*
X574937D01*
X575122Y1078798D01*
X575491Y1078706D01*
X575954Y1078613D01*
X576508Y1078521D01*
X577156Y1078428D01*
X578542Y1078336D01*
X579282D01*
X579837Y1078428D01*
X581039Y1078613D01*
X582333Y1078983D01*
X582426D01*
X582610Y1079076D01*
X582980Y1079260D01*
X583350Y1079538D01*
X584275Y1080093D01*
X585199Y1080925D01*
X585292Y1081017D01*
X585384Y1081110D01*
X585569Y1081387D01*
X585846Y1081757D01*
X586401Y1082681D01*
X586956Y1083791D01*
Y1083883D01*
X587048Y1084068D01*
X587141Y1084438D01*
X587326Y1084808D01*
X587511Y1085917D01*
X587603Y1087212D01*
Y1087304D01*
Y1087582D01*
Y1087951D01*
X587511Y1088414D01*
X587326Y1089616D01*
X586863Y1090817D01*
Y1090910D01*
X586771Y1091095D01*
X586586Y1091372D01*
X586401Y1091834D01*
X585846Y1092759D01*
X585014Y1093684D01*
X584922Y1093776D01*
X584829Y1093869D01*
X584552Y1094146D01*
X584182Y1094331D01*
X583258Y1094978D01*
X582148Y1095533D01*
X582056D01*
X581871Y1095625D01*
X581501Y1095718D01*
X581131Y1095903D01*
X580576Y1095995D01*
X579929Y1096087D01*
X578542Y1096180D01*
D02*
G37*
G36*
X571886Y1060215D02*
X571793D01*
X571701Y1060030D01*
X571053Y1059660D01*
X570314Y1059105D01*
X569574Y1058458D01*
X569482Y1058273D01*
X569112Y1057903D01*
X568650Y1057441D01*
X568187Y1056794D01*
X568095Y1056609D01*
X567910Y1056239D01*
X567725Y1055592D01*
X567540Y1054945D01*
Y1054760D01*
X567448Y1054390D01*
X567355Y1053835D01*
Y1053188D01*
Y1053095D01*
X567448Y1052726D01*
X567540Y1052171D01*
X567725Y1051524D01*
X568095Y1050784D01*
X568650Y1050137D01*
X569389Y1049397D01*
X570406Y1048842D01*
X570591Y1048750D01*
X570961Y1048658D01*
X571701Y1048380D01*
X572625Y1048195D01*
X573827Y1047918D01*
X575306Y1047641D01*
X577063Y1047548D01*
X579005Y1047456D01*
X580207D01*
X581039Y1047548D01*
X581871Y1047641D01*
X582888Y1047733D01*
X583812Y1047918D01*
X584737Y1048103D01*
X584829D01*
X585107Y1048195D01*
X585569Y1048380D01*
X586124Y1048565D01*
X587326Y1049120D01*
X587973Y1049397D01*
X588528Y1049767D01*
X588620Y1049859D01*
X588805Y1049952D01*
X589360Y1050414D01*
X590007Y1051154D01*
X590654Y1052078D01*
Y1052171D01*
X590747Y1052263D01*
X590839Y1052541D01*
X591024Y1052911D01*
X591209Y1053743D01*
X591301Y1054760D01*
Y1054852D01*
Y1055129D01*
X591209Y1055592D01*
X591024Y1056146D01*
X590747Y1056794D01*
X590377Y1057348D01*
X589914Y1057996D01*
X589175Y1058458D01*
X589082Y1058550D01*
X588805Y1058643D01*
X588250Y1058828D01*
X587603Y1059105D01*
X586679Y1059290D01*
X585569Y1059567D01*
X584275Y1059752D01*
X582795Y1059845D01*
X571886Y1060215D01*
D02*
G37*
G36*
X1104155Y1078151D02*
X1093985D01*
X1093337Y1078059D01*
X1091858Y1077966D01*
X1090286Y1077596D01*
X1090194D01*
X1090009Y1077504D01*
X1089639Y1077411D01*
X1089177Y1077226D01*
X1088067Y1076672D01*
X1087050Y1076025D01*
X1086958D01*
X1086865Y1075840D01*
X1086403Y1075377D01*
X1085756Y1074545D01*
X1085201Y1073621D01*
Y1073528D01*
X1085109Y1073343D01*
X1085016Y1073066D01*
X1084924Y1072696D01*
X1084739Y1071679D01*
X1084647Y1070477D01*
Y1070385D01*
Y1070292D01*
X1084739Y1069738D01*
X1084831Y1068998D01*
X1085016Y1068166D01*
Y1068073D01*
X1085109Y1067981D01*
X1085294Y1067519D01*
X1085664Y1066871D01*
X1086218Y1066132D01*
X1086403Y1066039D01*
X1086773Y1065669D01*
X1087513Y1065207D01*
X1088345Y1064837D01*
X1088437D01*
X1088622Y1064745D01*
X1088900Y1064652D01*
X1089269D01*
X1090286Y1064468D01*
X1091581Y1064375D01*
X1092043D01*
X1092505Y1064468D01*
X1093245Y1064560D01*
X1094077Y1064745D01*
X1095094Y1065022D01*
X1096111Y1065392D01*
X1097313Y1065854D01*
X1097498Y1065947D01*
X1097868Y1066132D01*
X1098515Y1066502D01*
X1099347Y1067056D01*
X1100364Y1067703D01*
X1101566Y1068536D01*
X1102860Y1069460D01*
X1104155Y1070662D01*
Y1078151D01*
D02*
G37*
G36*
X869779D02*
X859609D01*
X858961Y1078059D01*
X857482Y1077966D01*
X855910Y1077596D01*
X855818D01*
X855633Y1077504D01*
X855263Y1077411D01*
X854801Y1077226D01*
X853691Y1076672D01*
X852674Y1076025D01*
X852582D01*
X852490Y1075840D01*
X852027Y1075377D01*
X851380Y1074545D01*
X850825Y1073621D01*
Y1073528D01*
X850733Y1073343D01*
X850640Y1073066D01*
X850548Y1072696D01*
X850363Y1071679D01*
X850271Y1070477D01*
Y1070385D01*
Y1070292D01*
X850363Y1069738D01*
X850455Y1068998D01*
X850640Y1068166D01*
Y1068073D01*
X850733Y1067981D01*
X850918Y1067519D01*
X851288Y1066871D01*
X851842Y1066132D01*
X852027Y1066039D01*
X852397Y1065669D01*
X853137Y1065207D01*
X853969Y1064837D01*
X854061D01*
X854246Y1064745D01*
X854524Y1064652D01*
X854893D01*
X855910Y1064468D01*
X857205Y1064375D01*
X857667D01*
X858129Y1064468D01*
X858869Y1064560D01*
X859701Y1064745D01*
X860718Y1065022D01*
X861735Y1065392D01*
X862937Y1065854D01*
X863122Y1065947D01*
X863492Y1066132D01*
X864139Y1066502D01*
X864971Y1067056D01*
X865988Y1067703D01*
X867190Y1068536D01*
X868484Y1069460D01*
X869779Y1070662D01*
Y1078151D01*
D02*
G37*
G36*
X342872Y1107182D02*
X335938D01*
Y1089246D01*
X342780D01*
X343427Y1089338D01*
X344166D01*
X344999Y1089523D01*
X346570Y1089800D01*
X346663D01*
X346940Y1089893D01*
X347310Y1090078D01*
X347865Y1090263D01*
X348974Y1090817D01*
X350176Y1091557D01*
X350269Y1091650D01*
X350453Y1091742D01*
X350731Y1092019D01*
X351008Y1092389D01*
X351748Y1093314D01*
X352487Y1094423D01*
Y1094516D01*
X352580Y1094701D01*
X352765Y1095070D01*
X352950Y1095625D01*
X353042Y1096180D01*
X353227Y1096920D01*
X353320Y1098491D01*
Y1098584D01*
Y1098676D01*
Y1099231D01*
X353135Y1099971D01*
X352950Y1100895D01*
X352672Y1102005D01*
X352118Y1103022D01*
X351470Y1104039D01*
X350546Y1104963D01*
X350453Y1105056D01*
X350084Y1105333D01*
X349436Y1105703D01*
X348604Y1106073D01*
X347495Y1106443D01*
X346200Y1106812D01*
X344629Y1107090D01*
X342872Y1107182D01*
D02*
G37*
G36*
X767707Y1095440D02*
X766136D01*
X765488Y1095348D01*
X764749Y1095255D01*
X763824Y1095163D01*
X762900Y1094886D01*
X761975Y1094608D01*
X761051Y1094146D01*
X760958Y1094053D01*
X760681Y1093869D01*
X760218Y1093591D01*
X759756Y1093221D01*
X759109Y1092759D01*
X758462Y1092204D01*
X757260Y1090725D01*
X757167Y1090633D01*
X756982Y1090355D01*
X756798Y1089893D01*
X756428Y1089338D01*
X756058Y1088599D01*
X755781Y1087766D01*
X755411Y1086842D01*
X755133Y1085825D01*
Y1085732D01*
X755041Y1085363D01*
X754948Y1084808D01*
X754856Y1084068D01*
X754671Y1083144D01*
X754579Y1082127D01*
X754486Y1079908D01*
Y1079723D01*
Y1079260D01*
X754579Y1078521D01*
Y1077596D01*
X754671Y1076579D01*
X754856Y1075377D01*
X755318Y1073066D01*
Y1072973D01*
X755503Y1072604D01*
X755688Y1072049D01*
X755965Y1071402D01*
X756705Y1069830D01*
X757722Y1068258D01*
X757815Y1068166D01*
X757999Y1067981D01*
X758369Y1067611D01*
X758832Y1067241D01*
X759386Y1066779D01*
X760034Y1066317D01*
X761513Y1065392D01*
X761605D01*
X761883Y1065207D01*
X762437Y1065115D01*
X762992Y1064930D01*
X763824Y1064745D01*
X764656Y1064652D01*
X765673Y1064468D01*
X767245D01*
X767800Y1064560D01*
X768632Y1064652D01*
X769464Y1064745D01*
X770389Y1065022D01*
X771313Y1065300D01*
X772238Y1065669D01*
X772330Y1065762D01*
X772608Y1065947D01*
X773070Y1066224D01*
X773625Y1066594D01*
X774179Y1067056D01*
X774826Y1067703D01*
X776028Y1069090D01*
X776121Y1069183D01*
X776306Y1069460D01*
X776491Y1069922D01*
X776861Y1070477D01*
X777230Y1071217D01*
X777508Y1072049D01*
X777878Y1072973D01*
X778155Y1073990D01*
Y1074083D01*
X778247Y1074453D01*
X778432Y1075100D01*
X778525Y1075840D01*
X778710Y1076672D01*
X778802Y1077689D01*
X778895Y1079908D01*
Y1080093D01*
Y1080555D01*
Y1081295D01*
X778802Y1082219D01*
X778710Y1083236D01*
X778525Y1084438D01*
X778247Y1085547D01*
X777970Y1086657D01*
Y1086749D01*
X777785Y1087119D01*
X777600Y1087674D01*
X777323Y1088414D01*
X776583Y1089893D01*
X776121Y1090725D01*
X775566Y1091465D01*
X775474Y1091557D01*
X775289Y1091742D01*
X774919Y1092112D01*
X774457Y1092574D01*
X773902Y1093036D01*
X773255Y1093499D01*
X771683Y1094423D01*
X771591Y1094516D01*
X771313Y1094608D01*
X770851Y1094793D01*
X770204Y1094978D01*
X769464Y1095163D01*
X768632Y1095255D01*
X767707Y1095440D01*
D02*
G37*
G36*
X627082D02*
X625510D01*
X624863Y1095348D01*
X624123Y1095255D01*
X623199Y1095163D01*
X622274Y1094886D01*
X621350Y1094608D01*
X620425Y1094146D01*
X620333Y1094053D01*
X620055Y1093869D01*
X619593Y1093591D01*
X619131Y1093221D01*
X618483Y1092759D01*
X617836Y1092204D01*
X616634Y1090725D01*
X616542Y1090633D01*
X616357Y1090355D01*
X616172Y1089893D01*
X615802Y1089338D01*
X615432Y1088599D01*
X615155Y1087766D01*
X614785Y1086842D01*
X614508Y1085825D01*
Y1085732D01*
X614415Y1085363D01*
X614323Y1084808D01*
X614230Y1084068D01*
X614046Y1083144D01*
X613953Y1082127D01*
X613861Y1079908D01*
Y1079723D01*
Y1079260D01*
X613953Y1078521D01*
Y1077596D01*
X614046Y1076579D01*
X614230Y1075377D01*
X614693Y1073066D01*
Y1072973D01*
X614878Y1072604D01*
X615063Y1072049D01*
X615340Y1071402D01*
X616080Y1069830D01*
X617097Y1068258D01*
X617189Y1068166D01*
X617374Y1067981D01*
X617744Y1067611D01*
X618206Y1067241D01*
X618761Y1066779D01*
X619408Y1066317D01*
X620887Y1065392D01*
X620980D01*
X621257Y1065207D01*
X621812Y1065115D01*
X622367Y1064930D01*
X623199Y1064745D01*
X624031Y1064652D01*
X625048Y1064468D01*
X626620D01*
X627174Y1064560D01*
X628006Y1064652D01*
X628838Y1064745D01*
X629763Y1065022D01*
X630688Y1065300D01*
X631612Y1065669D01*
X631705Y1065762D01*
X631982Y1065947D01*
X632444Y1066224D01*
X632999Y1066594D01*
X633554Y1067056D01*
X634201Y1067703D01*
X635403Y1069090D01*
X635495Y1069183D01*
X635680Y1069460D01*
X635865Y1069922D01*
X636235Y1070477D01*
X636605Y1071217D01*
X636882Y1072049D01*
X637252Y1072973D01*
X637529Y1073990D01*
Y1074083D01*
X637622Y1074453D01*
X637807Y1075100D01*
X637899Y1075840D01*
X638084Y1076672D01*
X638177Y1077689D01*
X638269Y1079908D01*
Y1080093D01*
Y1080555D01*
Y1081295D01*
X638177Y1082219D01*
X638084Y1083236D01*
X637899Y1084438D01*
X637622Y1085547D01*
X637344Y1086657D01*
Y1086749D01*
X637160Y1087119D01*
X636975Y1087674D01*
X636697Y1088414D01*
X635958Y1089893D01*
X635495Y1090725D01*
X634941Y1091465D01*
X634848Y1091557D01*
X634663Y1091742D01*
X634293Y1092112D01*
X633831Y1092574D01*
X633276Y1093036D01*
X632629Y1093499D01*
X631057Y1094423D01*
X630965Y1094516D01*
X630688Y1094608D01*
X630225Y1094793D01*
X629578Y1094978D01*
X628838Y1095163D01*
X628006Y1095255D01*
X627082Y1095440D01*
D02*
G37*
G36*
X392706D02*
X391134D01*
X390487Y1095348D01*
X389747Y1095255D01*
X388823Y1095163D01*
X387898Y1094886D01*
X386974Y1094608D01*
X386049Y1094146D01*
X385957Y1094053D01*
X385679Y1093869D01*
X385217Y1093591D01*
X384755Y1093221D01*
X384107Y1092759D01*
X383460Y1092204D01*
X382258Y1090725D01*
X382166Y1090633D01*
X381981Y1090355D01*
X381796Y1089893D01*
X381426Y1089338D01*
X381056Y1088599D01*
X380779Y1087766D01*
X380409Y1086842D01*
X380132Y1085825D01*
Y1085732D01*
X380039Y1085363D01*
X379947Y1084808D01*
X379854Y1084068D01*
X379670Y1083144D01*
X379577Y1082127D01*
X379485Y1079908D01*
Y1079723D01*
Y1079260D01*
X379577Y1078521D01*
Y1077596D01*
X379670Y1076579D01*
X379854Y1075377D01*
X380317Y1073066D01*
Y1072973D01*
X380502Y1072604D01*
X380687Y1072049D01*
X380964Y1071402D01*
X381704Y1069830D01*
X382721Y1068258D01*
X382813Y1068166D01*
X382998Y1067981D01*
X383368Y1067611D01*
X383830Y1067241D01*
X384385Y1066779D01*
X385032Y1066317D01*
X386511Y1065392D01*
X386604D01*
X386881Y1065207D01*
X387436Y1065115D01*
X387991Y1064930D01*
X388823Y1064745D01*
X389655Y1064652D01*
X390672Y1064468D01*
X392244D01*
X392798Y1064560D01*
X393630Y1064652D01*
X394463Y1064745D01*
X395387Y1065022D01*
X396312Y1065300D01*
X397236Y1065669D01*
X397329Y1065762D01*
X397606Y1065947D01*
X398068Y1066224D01*
X398623Y1066594D01*
X399178Y1067056D01*
X399825Y1067703D01*
X401027Y1069090D01*
X401119Y1069183D01*
X401304Y1069460D01*
X401489Y1069922D01*
X401859Y1070477D01*
X402229Y1071217D01*
X402506Y1072049D01*
X402876Y1072973D01*
X403153Y1073990D01*
Y1074083D01*
X403246Y1074453D01*
X403431Y1075100D01*
X403523Y1075840D01*
X403708Y1076672D01*
X403801Y1077689D01*
X403893Y1079908D01*
Y1080093D01*
Y1080555D01*
Y1081295D01*
X403801Y1082219D01*
X403708Y1083236D01*
X403523Y1084438D01*
X403246Y1085547D01*
X402968Y1086657D01*
Y1086749D01*
X402784Y1087119D01*
X402599Y1087674D01*
X402321Y1088414D01*
X401582Y1089893D01*
X401119Y1090725D01*
X400565Y1091465D01*
X400472Y1091557D01*
X400287Y1091742D01*
X399917Y1092112D01*
X399455Y1092574D01*
X398900Y1093036D01*
X398253Y1093499D01*
X396681Y1094423D01*
X396589Y1094516D01*
X396312Y1094608D01*
X395849Y1094793D01*
X395202Y1094978D01*
X394463Y1095163D01*
X393630Y1095255D01*
X392706Y1095440D01*
D02*
G37*
%LPD*%
D10*
X2891478Y930000D02*
G03*
X2899112Y929111I8524J40002D01*
G01*
X2940000Y970000D02*
X2940002Y970002D01*
X2729998Y1090002D02*
X2900003D01*
X2940000Y1138547D02*
Y1389937D01*
X2899102Y1130902D02*
Y1330898D01*
X3100002Y1090002D02*
X3337005D01*
X3060000Y820000D02*
Y921457D01*
X3020000Y640000D02*
Y930002D01*
X2800000Y890000D02*
X2802368D01*
X2800000D02*
Y914626D01*
X2730440Y970000D02*
X2891460D01*
X2802368Y890000D02*
X2842368Y930000D01*
X2891478D01*
X3100892Y1049111D02*
X3327833D01*
X3500400Y876544D01*
Y876544D02*
Y876544D01*
Y876544D02*
X3576944Y800000D01*
X3060000Y820000D02*
X3100000Y780000D01*
Y770000D02*
Y780000D01*
X3337005Y1090002D02*
X3535800Y891207D01*
Y891206D02*
Y891207D01*
Y891206D02*
X3591607Y835400D01*
X2860000Y1370000D02*
X2899102Y1330898D01*
Y1130902D02*
X2900003Y1130002D01*
X2690000Y1130000D02*
X2729998Y1090002D01*
X3108544Y970000D02*
X3300000D01*
X3020002Y1130002D02*
Y1619998D01*
X3100002Y1130002D02*
Y1809998D01*
X2980002Y1130002D02*
Y1399997D01*
X2940000Y909561D02*
Y921456D01*
X2898554Y868115D02*
X2940000Y909561D01*
X2898112Y868115D02*
X2898554D01*
X2829997Y800000D02*
X2898112Y868115D01*
X3060002Y1130002D02*
Y1719998D01*
X2639998Y1050002D02*
X2891469D01*
X2670004Y1010002D02*
X2891469D01*
X2660000Y800000D02*
X2829997D01*
X2544993Y1145007D02*
Y1394993D01*
Y1145007D02*
X2639998Y1050002D01*
X2544993Y1394993D02*
X2730000Y1580000D01*
X2829937Y1500000D02*
X2940000Y1389937D01*
X2980002Y850002D02*
Y930002D01*
X2920000Y790000D02*
X2980002Y850002D01*
X2899112Y929111D02*
X2900003Y930002D01*
X2064996Y740800D02*
X2065796Y740000D01*
X2160000D01*
X1910000Y879200D02*
X1966700D01*
X2064996D02*
Y948399D01*
X1987500Y800035D02*
Y900000D01*
Y740800D02*
Y800035D01*
X1966700Y879200D02*
X1987500Y900000D01*
Y800035D02*
X2002491Y815026D01*
X2064996Y1015796D02*
X2155796D01*
X1738942Y810000D02*
X1910000D01*
Y879200D02*
Y948399D01*
Y1015796D01*
X1699782Y830217D02*
X1718725D01*
X1830800Y740800D02*
X1910000D01*
X2064996Y948399D02*
Y1015796D01*
X1718725Y830217D02*
X1738942Y810000D01*
X1800000Y700000D02*
Y710000D01*
X1830800Y740800D01*
X3430000Y2250000D02*
X3475403Y2295403D01*
X3610001Y1692500D02*
X3842500D01*
X4919996Y1350499D02*
Y1790503D01*
X3475403Y2290030D02*
X3515433Y2250000D01*
X3475403Y2290030D02*
Y2295403D01*
X3515433Y2250000D02*
X3624995D01*
X2367999Y2802000D02*
Y2852003D01*
X2480003Y3246998D02*
X2554999Y3172002D01*
X2480003Y2340000D02*
X2580002D01*
X2971009Y3440000D02*
X3138997D01*
X3600002Y3879999D02*
X3870000Y3610000D01*
X2924950Y3540000D02*
X3040000D01*
X2369998Y3300000D02*
X2370000Y3300002D01*
X2367999Y3364001D02*
X2384605Y3380607D01*
X3175404Y3368598D02*
X3180001Y3364001D01*
X3969013Y3510987D02*
X4040000Y3440000D01*
X3948604Y3304599D02*
X3983595D01*
X4070000Y2820000D02*
Y2848740D01*
X4389602Y2629917D02*
Y4137594D01*
X3983781Y2354594D02*
X4260000Y2630813D01*
X2365403Y3145403D02*
X2370000Y3150000D01*
X2367999Y2502001D02*
Y2551998D01*
X3830000Y2340002D02*
X3830002Y2340000D01*
X3100000Y3769937D02*
Y3849998D01*
X3944003Y3361999D02*
Y3435597D01*
X4090000Y2990000D02*
X4169992D01*
X2205000Y3714997D02*
X2219996Y3729993D01*
X3284604Y2300408D02*
X3335011Y2250000D01*
X4290000Y4890000D02*
X4390000Y4790000D01*
X2586606Y3366601D02*
Y3401591D01*
X3902409Y3147400D02*
X3937404D01*
X3942001Y3151997D01*
X3948605Y3254597D02*
X3984561D01*
X3284604Y2300408D02*
Y2335397D01*
X2580002Y2340000D02*
Y2522999D01*
X3490000Y3550000D02*
X3580000D01*
X2532006Y3361999D02*
Y3486794D01*
X3944003Y2849996D02*
X3944003Y2849996D01*
X4080000Y3350036D02*
Y3490038D01*
X2464200Y3664600D02*
X2464600Y3665000D01*
X3989686Y2230000D02*
X4389602Y2629917D01*
X2524999Y2523997D02*
X2527001Y2525999D01*
X2522998D02*
X2524999Y2523997D01*
X2390032Y2270032D02*
X2454142D01*
X3427004Y3350000D02*
X3430003Y3352999D01*
X3948605Y2404596D02*
X3983721D01*
X4169992Y3129992D02*
Y3141369D01*
X3950000Y3620038D02*
X4080000Y3490038D01*
X3804946Y2230000D02*
X3989686D01*
X2657997Y2852003D02*
X2660000Y2850000D01*
X2450000Y3430000D02*
X2475405Y3404595D01*
X2475400Y2291290D02*
Y2335397D01*
X2480003Y2340000D01*
X3720000Y3490000D02*
X3790000D01*
X4311192Y2860752D02*
Y3878808D01*
X3999998Y2899998D02*
X4090000Y2990000D01*
X2205000Y3304937D02*
Y3714997D01*
X4390000Y4137991D02*
Y4790000D01*
X2370000Y2799998D02*
X2374603Y2795396D01*
X2527001Y2525999D02*
X2577003D01*
X3430003Y3490003D02*
X3490000Y3550000D01*
X3190000Y3580000D02*
Y3730000D01*
X2782003Y3361999D02*
X2786606Y3366601D01*
X4110800Y2660360D02*
X4311192Y2860752D01*
X2275800Y3495800D02*
X2295000Y3515000D01*
X2367999Y2852003D02*
X2657997D01*
X2546997Y2699998D02*
X2557000Y2689996D01*
X2930004Y3197001D02*
X2955003Y3172002D01*
X2652003Y2952003D02*
X2660000Y2960000D01*
X3530000Y3451871D02*
X3580006Y3401866D01*
X2786606Y3366601D02*
Y3401656D01*
X3040000Y3540000D02*
X3050000Y3550000D01*
X2562595Y3147405D02*
X2580000Y3130000D01*
X2910413Y3475400D02*
X3085400D01*
X3880000Y3124991D02*
X3902409Y3147400D01*
X3937399Y2997398D02*
X3942001Y3002000D01*
X2411012Y3430000D02*
X2450000D01*
X2561006Y2702001D02*
X2564501Y2705495D01*
X3877404Y3257404D02*
Y3402596D01*
X2630005Y3179995D02*
X2640000Y3170000D01*
X3983721Y2404596D02*
X4110800Y2531676D01*
X3948605Y2854598D02*
X4064142D01*
X2367999Y2292064D02*
X2390032Y2270032D01*
X2530000Y3488800D02*
X2532006Y3486794D01*
X3937399Y2856600D02*
X3944003Y2849996D01*
X3902603Y2997398D02*
X3937399D01*
X3810000Y3940031D02*
Y3940031D01*
X2314600Y3664600D02*
X2464200D01*
X4389602Y4137594D02*
X4390000Y4137991D01*
X2682004Y3361999D02*
Y3402003D01*
X2860000Y3580000D02*
Y3670000D01*
X3880000Y3020000D02*
Y3124991D01*
X2310063Y3300000D02*
X2369998D01*
X3675403Y2335402D02*
X3680000Y2340000D01*
X2480003Y3246998D02*
Y3364001D01*
X2370000Y2649996D02*
Y2699998D01*
X2832006Y3361999D02*
X2836603Y3366596D01*
X3190000Y3730000D02*
Y3758991D01*
X2275800Y3334263D02*
Y3495800D01*
X2384605Y3403593D02*
X2411012Y3430000D01*
X2372596Y3147405D02*
X2562595D01*
X2733971Y3403908D02*
X3100000Y3769937D01*
X3884601Y2874408D02*
X3902409Y2856600D01*
X2384605Y3380607D02*
Y3403593D01*
X2577003Y2525999D02*
X2580002Y2522999D01*
X2367999Y2292064D02*
Y2340000D01*
X3420000Y3620000D02*
X3430000Y3610000D01*
X3085400Y3475400D02*
X3190000Y3580000D01*
X3942001Y2951998D02*
X3991998D01*
X2240400Y3319600D02*
X2310000Y3250000D01*
X3020000Y2530000D02*
X3029999Y2520001D01*
X3944003Y2337998D02*
X3960599Y2354594D01*
X2534999Y2551998D02*
X2554999Y2531998D01*
X2367999Y2551998D02*
X2534999D01*
X2930004Y3197001D02*
Y3364001D01*
X3138997Y3440000D02*
X3175404Y3403593D01*
X3600001Y3929998D02*
X3600002Y3929998D01*
X2836603Y3401591D02*
X2910413Y3475400D01*
X3480000Y2520000D02*
X3480001Y2519999D01*
X2454142Y2270032D02*
X2475400Y2291290D01*
X3902409Y2997398D02*
X3902603D01*
X3810000Y3940031D02*
X4080000Y3670031D01*
X2240400Y3590400D02*
X2314600Y3664600D01*
X3969013Y3510987D02*
Y3510987D01*
X3944003Y3299997D02*
X3948604Y3304599D01*
X3944003Y2849996D02*
X3948605Y2854598D01*
X3950000Y3620038D02*
Y3629600D01*
X2295000Y3515000D02*
X2330000D01*
X2310000Y3250000D02*
X2370000D01*
X3580000Y3550000D02*
X3630003Y3499997D01*
X4110800Y2531676D02*
Y2660360D01*
X3944601Y2754598D02*
X4004598D01*
X4080000Y3490038D02*
Y3670031D01*
X3335011Y2250000D02*
X3430000D01*
X2475405Y3368598D02*
X2480003Y3364001D01*
X2475405Y3368598D02*
Y3404595D01*
X2367999Y3152002D02*
X2372596Y3147405D01*
X3870000Y3610000D02*
X3969013Y3510987D01*
X3430003Y3352999D02*
X3431607Y3354603D01*
X3100000Y3849998D02*
X3110394Y3860393D01*
X3944003Y2399994D02*
X3948605Y2404596D01*
X3942001Y2751998D02*
X3944601Y2754598D01*
X3944003Y2899998D02*
X3999998D01*
X3029999Y2340000D02*
Y2520001D01*
X3734600Y2300346D02*
X3804946Y2230000D01*
X3175404Y3368598D02*
Y3403593D01*
X3430003Y3352999D02*
Y3490003D01*
X2582004Y3361999D02*
X2586606Y3366601D01*
X3880000Y3020000D02*
X3902603Y2997398D01*
X3984561Y3254597D02*
X4080000Y3350036D01*
X2240400Y3319600D02*
Y3590400D01*
X2580002Y2340000D02*
X2880002D01*
X2551999Y2717997D02*
X2564501Y2705495D01*
X2934602Y3403593D02*
X2971009Y3440000D01*
X3600002Y3879999D02*
Y3929998D01*
X3830000Y2340002D02*
Y2477008D01*
X2836603Y3366596D02*
Y3401591D01*
X3830002Y2340000D02*
X3880000D01*
X3430003Y3190003D02*
Y3352999D01*
X3880000Y3499600D02*
X3944003Y3435597D01*
X4230000Y3960000D02*
X4311192Y3878808D01*
X4230000Y3960000D02*
Y4090000D01*
X3991998Y2951998D02*
X4169992Y3129992D01*
X3475403Y2295403D02*
Y2335402D01*
X3960599Y2354594D02*
X3983781D01*
X2934602Y3368598D02*
Y3403593D01*
X2682004Y3402003D02*
X2860000Y3580000D01*
X3884601Y2979590D02*
X3902409Y2997398D01*
X3475403Y2335402D02*
X3480001Y2340000D01*
X2370000Y2699998D02*
X2546997D01*
X2367999Y2952003D02*
X2652003D01*
X3580006Y3364001D02*
Y3401866D01*
X2786606Y3401656D02*
X2924950Y3540000D01*
X2732006Y3361999D02*
X2733971Y3363964D01*
X2275800Y3334263D02*
X2310063Y3300000D01*
X2205000Y3304937D02*
X2309935Y3200002D01*
X2727000Y2525999D02*
X2777003D01*
X3530000Y3451871D02*
Y3470000D01*
X2733971Y3363964D02*
Y3403908D01*
X2309935Y3200002D02*
X2370000D01*
X3480001Y2340000D02*
Y2519999D01*
X2690220Y3505204D02*
Y3509780D01*
X3884601Y2874408D02*
Y2979590D01*
X3280001Y2340000D02*
X3284604Y2335397D01*
X3675403Y2300408D02*
Y2335402D01*
X2930004Y3364001D02*
X2934602Y3368598D01*
X3430000Y3610000D02*
X3870000D01*
X3790000Y3490000D02*
X3877404Y3402596D01*
X3830000Y2477008D02*
X3830400Y2477408D01*
X3942001Y2551998D02*
Y2751998D01*
X3624995Y2250000D02*
X3675403Y2300408D01*
X4260000Y2630813D02*
Y2710000D01*
X4040000Y3361004D02*
Y3440000D01*
X3420000Y3180000D02*
X3430003Y3190003D01*
X3630003Y3364001D02*
Y3499997D01*
X3734600Y2300346D02*
Y2338403D01*
X3983595Y3304599D02*
X4040000Y3361004D01*
X3830400Y3210400D02*
X3877404Y3257404D01*
X4004598Y2754598D02*
X4070000Y2820000D01*
X3944003Y3249995D02*
X3948605Y3254597D01*
X3830400Y2477408D02*
Y3210400D01*
X2630005Y3179995D02*
Y3364001D01*
X2586606Y3401591D02*
X2690220Y3505204D01*
X3902409Y2856600D02*
X3937399D01*
X4169708Y4877300D02*
X4346592Y4700416D01*
X4066608Y4980400D02*
X4169708Y4877300D01*
X3979623Y2270000D02*
X4346592Y2636969D01*
X3781604Y2303406D02*
X3815009Y2270000D01*
X3979623D01*
X3999748Y2190000D02*
X4425400Y2615652D01*
X3175000Y2275000D02*
X3260000Y2190000D01*
X3999748D01*
X1830000Y4255000D02*
Y4360000D01*
Y4220000D02*
Y4255000D01*
X2360000Y4020000D02*
X2540000Y3840000D01*
X1867954Y4181554D02*
X2029508Y4020000D01*
X2360000D01*
X2066109Y3876109D02*
X2075000Y3885000D01*
X2026109Y3876109D02*
X2066109D01*
X1220000Y3970000D02*
X1320000Y3870000D01*
X260001Y3970000D02*
X1220000D01*
X340000Y4210000D02*
X1140000D01*
X1330000Y4020000D02*
Y4020000D01*
X1140000Y4210000D02*
X1330000Y4020000D01*
Y4020000D02*
X1500000Y3850000D01*
X220000Y4330000D02*
X340000Y4210000D01*
X3770000Y422501D02*
Y490000D01*
X3868354Y381646D02*
X3869998Y380002D01*
X3810855Y381646D02*
X3868354D01*
X3770000Y422501D02*
X3810855Y381646D01*
X3834501Y1814501D02*
X3988455Y1968455D01*
X3795000Y1814501D02*
X3834501D01*
X4148358Y1998358D02*
Y2012500D01*
X4165858Y2030000D01*
X3842500Y1692500D02*
X4148358Y1998358D01*
X4165858Y2030000D02*
X4224142D01*
X3789503Y1560000D02*
X3789999Y1560496D01*
X4458802Y2239200D02*
X4667703Y2448101D01*
X3988455Y1968455D02*
Y1968947D01*
X3440400Y1505220D02*
X3538284D01*
X4370000Y2090000D02*
X4800000Y2520000D01*
X4725000Y912502D02*
Y1205000D01*
X4900495Y1370000D02*
X4919996Y1350499D01*
X4111997Y1824499D02*
X4122498Y1835000D01*
X4229382Y2310000D02*
X4380000D01*
X4650000Y1550000D02*
X4830000Y1370000D01*
X4625000Y1980003D02*
X4650000Y1955003D01*
X4290000Y2095858D02*
Y2140000D01*
X3724997Y912502D02*
X4210000D01*
X3538284Y1505220D02*
X3595001Y1448503D01*
X4258708Y2239200D02*
X4458802D01*
X4719140Y870860D02*
X4820000Y770000D01*
X4111997Y1316499D02*
Y1326499D01*
X3553642Y2119200D02*
X4038582D01*
X4530000Y2000000D02*
X4549998Y1980003D01*
X4210000Y912502D02*
Y1208495D01*
X3989993Y1448503D02*
X4111997Y1326499D01*
X3595001Y1448503D02*
X3610001D01*
X4800000Y2520000D02*
X4869600D01*
X4053245Y2083800D02*
X4244045Y2274600D01*
X4667703Y2448101D02*
X4869600Y2649998D01*
X3988455Y1968947D02*
X4258708Y2239200D01*
X4719140Y870860D02*
Y906642D01*
X3610001Y1448503D02*
X3989993D01*
X4650000Y1550000D02*
Y1955003D01*
X4445001Y2007501D02*
X4452501Y2000000D01*
X4210000Y912502D02*
X4725000D01*
X4719140Y906642D02*
X4725000Y912502D01*
X4244045Y2274600D02*
X4434600D01*
X4830000Y1370000D02*
X4900495D01*
X4370000Y1970000D02*
Y2090000D01*
X4111997Y1306499D02*
Y1316499D01*
X4667703Y2448101D02*
Y2448101D01*
X3464600Y1745024D02*
Y1980095D01*
X3627501Y2030000D02*
X3724997D01*
X4919996Y1335854D02*
Y1350499D01*
X4820000Y770000D02*
X4830000D01*
X3464600Y1745024D02*
X3649624Y1560000D01*
X3568305Y2083800D02*
X4053245D01*
X4899996Y1315854D02*
X4919996Y1335854D01*
X4111997Y1306499D02*
X4210000Y1208495D01*
X3510000Y1310000D02*
X3776107D01*
X4530000Y2460000D02*
Y2514969D01*
X4835854Y1315854D02*
X4899996D01*
X4452501Y2000000D02*
X4530000D01*
X4122498Y1835000D02*
X4235000D01*
X4689937Y2529937D02*
Y2730000D01*
X4725000Y1205000D02*
X4835854Y1315854D01*
X4549998Y1980003D02*
X4625000D01*
X4235000Y1835000D02*
X4370000Y1970000D01*
X4380000Y2310000D02*
X4530000Y2460000D01*
X3649624Y1560000D02*
X3789503D01*
X3610001Y2012500D02*
X3627501Y2030000D01*
X4224142D02*
X4290000Y2095858D01*
X3464600Y1980095D02*
X3568305Y2083800D01*
X3610001Y1692500D02*
Y2012500D01*
X4434600Y2274600D02*
X4689937Y2529937D01*
X3370000Y1450000D02*
X3510000Y1310000D01*
X3370000Y1450000D02*
Y1935558D01*
X3553642Y2119200D01*
X4038582D02*
X4229382Y2310000D01*
X3100002Y930002D02*
X3160004Y870000D01*
X3210000D01*
X2940002Y970002D02*
X2940003D01*
X3100002Y1010002D02*
Y1040002D01*
X2940000Y1138547D02*
X2940003Y1138535D01*
X4670000Y4830000D02*
X4737069D01*
X4820000Y4747069D01*
X4660000Y4699999D02*
Y4820000D01*
X4670000Y4830000D01*
X3760400Y4980400D02*
X4066608D01*
X4346592Y2636969D02*
Y4700416D01*
X1781863Y1081863D02*
X1791091D01*
X1790000Y973812D02*
X1970093Y1153905D01*
X1760002Y1060002D02*
X1781863Y1081863D01*
X1692502Y1060002D02*
X1760002D01*
X1790000Y930000D02*
Y973812D01*
X3277405Y3672907D02*
Y4002595D01*
Y3396998D02*
Y3672907D01*
Y3346601D02*
Y3396998D01*
X3004500Y4275500D02*
X3277405Y4002595D01*
X2120833Y3800393D02*
X2439607D01*
X2030000Y3709560D02*
X2120833Y3800393D01*
X2030000Y3430000D02*
Y3709560D01*
X2439607Y3800393D02*
X2460000Y3780000D01*
X4820000Y4699998D02*
Y4747069D01*
X3200000Y465000D02*
Y477497D01*
X2960000Y250000D02*
X3150000Y440000D01*
X3175000D02*
X3200000Y465000D01*
X3150000Y440000D02*
X3175000D01*
X2959994Y250000D02*
X2960000D01*
X2030000Y1100000D02*
X2107995D01*
X1990000Y1019096D02*
Y1060000D01*
X2030000Y1100000D01*
X1987500Y1016596D02*
X1990000Y1019096D01*
X2530000Y3488800D02*
X2540000Y3498800D01*
Y3840000D01*
X1712483Y1129981D02*
X1790400Y1207898D01*
Y1429600D01*
X1692502Y1110000D02*
X1704983D01*
X1712483Y1117500D01*
Y1129981D01*
X2255000Y1767499D02*
X2267501Y1780000D01*
X2330000D01*
X1590000Y3180000D02*
X1829600Y2940400D01*
X1860400Y2200000D02*
Y2216181D01*
X1829600Y2246981D02*
X1860400Y2216181D01*
X1829600Y2246981D02*
Y2940400D01*
X2570000Y809560D02*
X2730440Y970000D01*
X2570000Y400000D02*
Y809560D01*
X2730000Y1580000D02*
X2900000D01*
X2600000Y939998D02*
X2670004Y1010002D01*
X2760000Y1500000D02*
X2829937D01*
X3020000Y640000D02*
X3060000Y600000D01*
Y619498D01*
X3050000Y629498D02*
X3060000Y619498D01*
X3020002Y930002D02*
Y930002D01*
X1990000Y1810000D02*
X1990400D01*
X1959600Y1779600D02*
X1990000Y1810000D01*
X1959600Y1599600D02*
Y1779600D01*
X1970002Y1440002D02*
X2040400Y1510400D01*
Y1670400D01*
X2122504Y1867496D02*
X2218999D01*
X1680000Y2100000D02*
X1890000D01*
X2122504Y1867496D01*
X1790000Y1430000D02*
X1959600Y1599600D01*
X1970002Y1396002D02*
Y1440002D01*
X1710400Y3789600D02*
X1870000Y3630000D01*
Y3510000D02*
Y3630000D01*
X1823160Y3363599D02*
X1960000Y3500439D01*
X1540000Y3363599D02*
X1823160D01*
X1540000D02*
Y3405499D01*
X1960000Y3500439D02*
Y3810000D01*
X1589600Y3789600D02*
X1710400D01*
X1640000Y3581931D02*
Y3719200D01*
X1540000Y3740000D02*
X1589600Y3789600D01*
X4796606Y4316606D02*
X4810000Y4330000D01*
X4796606Y4286606D02*
Y4316606D01*
X4730000Y4220000D02*
X4796606Y4286606D01*
X4510440Y4220000D02*
X4730000D01*
X4439600Y4290840D02*
X4510440Y4220000D01*
X4820000Y4340000D02*
Y4459998D01*
X4810000Y4330000D02*
X4820000Y4340000D01*
Y4459998D02*
X4820000Y4459999D01*
X3360000Y4684507D02*
Y4870000D01*
Y4684507D02*
X3439909Y4604598D01*
X3800439Y4909600D02*
X3800839D01*
X3870220Y4840219D01*
X3570001Y4790001D02*
X3760400Y4980400D01*
X4000000Y4890000D02*
Y4910000D01*
X3934600Y4824600D02*
X4000000Y4890000D01*
X4207498Y4559998D02*
X4224200D01*
X4234200Y4549998D01*
Y4345769D02*
Y4549998D01*
Y4345769D02*
X4277898Y4389466D01*
Y4687590D01*
X4226740Y4738748D02*
X4277898Y4687590D01*
X4180000Y4738748D02*
X4226740D01*
X3948600Y3204595D02*
X4014595D01*
X4130000Y3320000D02*
Y3740000D01*
X4014595Y3204595D02*
X4130000Y3320000D01*
X4064192Y3185192D02*
X4165400Y3286401D01*
X4200800Y3271738D02*
Y3789200D01*
X3469142Y4400858D02*
X4130000Y3740000D01*
X3520000Y4410000D02*
X4165400Y3764600D01*
Y3286401D02*
Y3764600D01*
X3619999Y4370001D02*
X4200800Y3789200D01*
X4099591Y3170529D02*
X4200800Y3271738D01*
X4064192Y3185192D02*
Y3185192D01*
X4275792Y2899615D02*
Y3834208D01*
X4075400Y2699224D02*
X4275792Y2899615D01*
X3934600Y4115401D02*
X4240392Y3809609D01*
Y2914278D02*
Y3809609D01*
X3970000Y4140000D02*
X4275792Y3834208D01*
X4040000Y2713887D02*
X4240392Y2914278D01*
X4099591Y3170529D02*
Y3170529D01*
X3983660Y3054598D02*
X4099591Y3170529D01*
X3983595Y3104595D02*
X4064192Y3185192D01*
X3948600Y3104595D02*
X3983595D01*
X4425400Y2615652D02*
Y2905399D01*
X4490000Y2967499D02*
Y2969999D01*
X4467500Y2944999D02*
X4490000Y2967499D01*
X4425400Y2905399D02*
X4465000Y2944999D01*
X4467500D01*
X4495800Y2860000D02*
Y2865800D01*
X4540002Y2910002D01*
X4510000Y4320000D02*
X4580001Y4390001D01*
X4439600Y4290840D02*
Y4559597D01*
X4580001Y4699998D01*
X4890000Y2930000D02*
Y3010000D01*
X4830000Y2870000D02*
X4890000Y2930000D01*
X4729811Y2870000D02*
X4830000D01*
X4800003Y3067500D02*
Y3070000D01*
Y3067500D02*
X4822503Y3045000D01*
X4855000D01*
X4890000Y3010000D01*
X4014411Y2154600D02*
X4729811Y2870000D01*
X3080409Y2154600D02*
X4014411D01*
X4802498Y1685500D02*
Y2092498D01*
X4880000Y2170000D01*
X3290000Y1550000D02*
Y1860000D01*
X3270000Y1530000D02*
X3290000Y1550000D01*
X4250000Y640000D02*
Y740000D01*
Y640000D02*
X4340000Y550000D01*
X4075400Y2546339D02*
Y2699224D01*
X4040000Y2561002D02*
Y2713887D01*
X3983655Y2454594D02*
X4075400Y2546339D01*
X3948600Y2454594D02*
X3983655D01*
X3944003Y2449996D02*
X3948600Y2454594D01*
X3948605Y2504596D02*
X3983595D01*
X4040000Y2561002D01*
X3781604Y2303406D02*
Y2341397D01*
X2931603Y2303406D02*
X3080409Y2154600D01*
X4584998Y2910002D02*
X4619998Y2945002D01*
X4540002Y2910002D02*
X4584998D01*
X4490000Y3069999D02*
X4594998D01*
X4607498Y3082499D01*
X2931603Y2303406D02*
Y2341397D01*
X3175000Y2275000D02*
Y2343997D01*
X3330004Y3364001D02*
X3332005Y3366002D01*
Y3998058D01*
X2365398Y2595396D02*
X2370000Y2599999D01*
X2365403Y2895401D02*
X2370000Y2899998D01*
X2107995Y1100000D02*
X2540000Y1532006D01*
X2275400Y2334600D02*
X2540000Y2070000D01*
Y1532006D02*
Y2070000D01*
X2450998Y1867496D02*
X2500402Y1916900D01*
Y2059535D01*
X2240000Y2319937D02*
X2500402Y2059535D01*
X2240000Y2319937D02*
Y2804993D01*
X2275400Y2334600D02*
Y2540388D01*
X2270000Y2130000D02*
Y2170000D01*
X2204600Y2235400D02*
X2270000Y2170000D01*
X3304139Y564139D02*
X3340000Y600000D01*
X3750000D01*
X3840400Y690400D01*
X3965401Y564600D02*
X4120000Y410002D01*
X3399999Y485000D02*
X3479599Y564600D01*
X3965401D01*
X3304139Y481637D02*
Y564139D01*
X3299999Y477497D02*
X3304139Y481637D01*
X4370002Y100002D02*
X4389999Y120000D01*
X4670000D01*
X4120000Y100002D02*
Y130002D01*
X4250000Y260003D01*
Y490000D01*
X3210000Y870000D02*
X3360000D01*
X3370000Y860000D01*
X3591607Y835400D02*
X3774161D01*
X3576944Y800000D02*
X3710000D01*
X3774161Y835400D02*
X3840400Y769161D01*
Y690400D02*
Y769161D01*
X3710000Y800000D02*
X3770000Y740000D01*
X1520267Y1127991D02*
X1588255Y1060002D01*
X1520267Y1127991D02*
Y1130330D01*
X1588255Y1060002D02*
X1620000D01*
X1482898Y1017102D02*
X1612898D01*
X1440000Y1060000D02*
Y1200439D01*
Y1060000D02*
X1482898Y1017102D01*
X1440000Y1200439D02*
X1660006Y1420445D01*
X2204600Y2235400D02*
Y2905400D01*
X1325502Y277501D02*
Y465941D01*
X1389780Y530220D01*
X1311903Y226101D02*
X1325502Y212502D01*
X1285410Y226101D02*
X1311903D01*
X1260000Y251510D02*
X1285410Y226101D01*
X1260000Y251510D02*
Y500000D01*
X1692502Y932502D01*
Y1010000D01*
X1330000Y1520000D02*
X1370000D01*
X1330000Y1871934D02*
X1544440Y1657494D01*
X1330000Y1871934D02*
Y1890000D01*
X1410400Y1845609D02*
Y2299600D01*
Y1845609D02*
X1551418Y1704591D01*
X1410400Y2299600D02*
X1410801Y2300000D01*
X1420399D01*
X1956002Y4580000D02*
X1956500Y4580498D01*
X1820000Y4580000D02*
X1956002D01*
X2210500Y4580498D02*
Y4643998D01*
X2134498Y4720000D02*
X2210500Y4643998D01*
X2032502Y4720000D02*
X2134498D01*
X1956500Y4580498D02*
Y4643998D01*
X2032502Y4720000D01*
X2210500Y4580498D02*
X2337500D01*
X4125400Y4476646D02*
X4130002Y4481248D01*
X4125400Y4355839D02*
Y4476646D01*
X4114780Y4345220D02*
X4125400Y4355839D01*
X3970000Y4140000D02*
Y4300000D01*
X4075402Y4405402D02*
Y4476651D01*
X3970000Y4300000D02*
X4075402Y4405402D01*
Y4476651D02*
X4080000Y4481248D01*
X4202900Y4655401D02*
X4207498Y4659998D01*
X4154905Y4655401D02*
X4202900D01*
X4130002Y4630497D02*
X4154905Y4655401D01*
X4130002Y4481248D02*
Y4630497D01*
Y4481248D02*
X4180000D01*
X3719999Y4471248D02*
X3729999Y4461248D01*
Y4359562D02*
Y4461248D01*
Y4359562D02*
X3741978Y4347583D01*
X3860000Y4340000D02*
Y4462500D01*
X3830000Y4492500D02*
X3860000Y4462500D01*
X3934600Y4115401D02*
Y4549998D01*
X3742904Y4645401D02*
X3747502Y4649998D01*
X3694910Y4645401D02*
X3742904D01*
X3670001Y4620492D02*
X3694910Y4645401D01*
X3670001Y4471248D02*
Y4620492D01*
Y4471248D02*
X3719999D01*
X4090858Y4875000D02*
X4167408D01*
X4034600Y4818742D02*
X4090858Y4875000D01*
X4820000Y4459999D02*
X4890002Y4389997D01*
Y3987502D02*
Y4389997D01*
X4740000Y4459999D02*
X4740000Y4459999D01*
X4740000Y4459999D02*
Y4540000D01*
X4820000Y4620000D02*
Y4699998D01*
X4740000Y4540000D02*
X4820000Y4620000D01*
X4740000Y4670000D02*
Y4699998D01*
X4700000Y4630000D02*
X4740000Y4670000D01*
X4630000Y4630000D02*
X4700000D01*
X4580001Y4699998D02*
X4595001Y4684998D01*
Y4664999D02*
Y4684998D01*
Y4664999D02*
X4630000Y4630000D01*
X2900000Y1480000D02*
Y1580000D01*
Y1480000D02*
X2910000Y1470000D01*
X2895821Y970002D02*
X2900003D01*
X2894921Y969102D02*
X2895821Y970002D01*
X3770000Y740000D02*
Y770000D01*
X3765000Y775000D02*
X3770000Y770000D01*
X2700000Y2210000D02*
X3100002Y1809998D01*
X2700000Y2080000D02*
X3060002Y1719998D01*
X2700000Y1940000D02*
X3020002Y1619998D01*
X2910000Y1470000D02*
X2970000Y1410000D01*
X2980002Y1399997D01*
X4370002Y119602D02*
X4415002Y164602D01*
X4370002Y100002D02*
Y119602D01*
X4380003Y370000D02*
X4660000D01*
X4340000Y410003D02*
X4370002Y380002D01*
X4380003Y370000D01*
X4340000Y410003D02*
Y550000D01*
X2330408Y2595396D02*
X2365398D01*
X2275400Y2540388D02*
X2330408Y2595396D01*
X2922662Y4407401D02*
X3332005Y3998058D01*
X3399999Y477497D02*
Y485000D01*
X4120000Y380002D02*
Y410002D01*
X3469142Y4400858D02*
Y4539998D01*
X3520000Y4410000D02*
Y4471247D01*
X3519999Y4471248D02*
X3520000Y4471247D01*
X3619999Y4370001D02*
Y4471248D01*
X2464500Y4275500D02*
X3004500D01*
X2592223Y4407401D02*
X2922662D01*
X4619998Y2945002D02*
X4777503D01*
X4800003Y2967502D01*
Y2970000D01*
X4890002Y3312502D02*
Y3987502D01*
X4800003Y3070000D02*
Y3072500D01*
X4662502Y3210000D02*
X4800003Y3072500D01*
X4490002Y3244502D02*
X4524504Y3210000D01*
X4662502D01*
X4490002Y3244502D02*
Y3312502D01*
Y3987502D01*
X4650000Y4320000D02*
Y4449998D01*
X4580001Y4390001D02*
Y4459999D01*
X4650000Y4449998D02*
X4660001Y4459999D01*
X4660000Y4699999D02*
X4660001Y4699998D01*
X3771252Y4728748D02*
X3830000Y4670000D01*
X3470000Y4659998D02*
Y4820000D01*
X3487904Y4604598D02*
X3492501Y4600001D01*
X3772502Y4549998D02*
X3830000Y4492500D01*
X3719999Y4728748D02*
X3771252D01*
X3747502Y4549998D02*
X3772502D01*
X3830000Y4492500D02*
Y4670000D01*
X3470000Y4659998D02*
X3480000Y4649998D01*
X3470000Y4820000D02*
X3519600Y4869600D01*
X3524268D01*
X3480000Y4649998D02*
X3492501D01*
X3439909Y4604598D02*
X3487904D01*
X3870220Y4644288D02*
Y4840219D01*
Y4644288D02*
X3899910Y4614598D01*
X3570001Y4728748D02*
Y4790001D01*
X3934600Y4669998D02*
Y4824600D01*
X3947904Y4614598D02*
X3952502Y4610001D01*
X3899910Y4614598D02*
X3947904D01*
X3944600Y4659998D02*
X3952502D01*
X3934600Y4669998D02*
X3944600Y4659998D01*
X4030002Y4738748D02*
X4034600Y4743346D01*
Y4818742D01*
X3944600Y4559998D02*
X3952502D01*
X3934600Y4549998D02*
X3944600Y4559998D01*
X3474142Y4544998D02*
X3475000D01*
X3469142Y4539998D02*
X3474142Y4544998D01*
X3944003Y2499994D02*
X3948605Y2504596D01*
X3944003Y3049995D02*
X3948605Y3054598D01*
X3983660D01*
X3944003Y3099998D02*
X3948600Y3104595D01*
X3944003Y3199997D02*
X3948600Y3204595D01*
X1790000Y1430000D02*
X1790400Y1429600D01*
X1720000Y1280000D02*
Y1360000D01*
X1660006Y1419994D02*
X1720000Y1360000D01*
X1540000Y3574501D02*
Y3740000D01*
X1525858Y3180000D02*
X1590000D01*
X1460000Y3245858D02*
X1525858Y3180000D01*
X1910000D02*
X2110001Y3380001D01*
X1590000Y3180000D02*
X1910000D01*
X1559600Y3089600D02*
Y3090400D01*
X1770000Y3100000D02*
X1780000Y3090000D01*
X2020000D01*
X1415499Y3234501D02*
X1559600Y3090400D01*
X1485858Y2710000D02*
X1490400D01*
X1480000Y2715858D02*
X1485858Y2710000D01*
X1480000Y2715858D02*
Y3119937D01*
X1360800Y3239137D02*
X1480000Y3119937D01*
X2020000Y3090000D02*
X2204600Y2905400D01*
X2240000Y2804993D02*
X2330408Y2895401D01*
X2110001Y3380001D02*
Y3690000D01*
X1960000Y3810000D02*
X2026109Y3876109D01*
X2020000Y3430000D02*
X2030000D01*
X1840000Y3250000D02*
X2020000Y3430000D01*
X1550000Y3250000D02*
X1840000D01*
X1500000Y3300000D02*
X1550000Y3250000D01*
X1500000Y3300000D02*
Y3405499D01*
X1700000Y1900000D02*
X1705000Y1905000D01*
X1620000Y1879880D02*
Y2040000D01*
X1580000Y1860000D02*
Y2170000D01*
X1620000Y2040000D02*
X1680000Y2100000D01*
X1615572Y3557503D02*
X1640000Y3581931D01*
X1642499Y3512499D02*
X1730000Y3600000D01*
X1584501Y3512499D02*
X1642499D01*
X1584501Y3557503D02*
X1615572D01*
X2330408Y2895401D02*
X2365403D01*
X2405900Y4407400D02*
X2592223D01*
X1500000Y3574501D02*
Y3850000D01*
X1660006Y1419994D02*
Y1420445D01*
X1589606Y1450000D02*
Y1509606D01*
X1620000Y1540000D01*
X1660006Y1420445D02*
Y1595493D01*
X1700006Y1519994D02*
Y1595493D01*
Y1519994D02*
X1790000Y1430000D01*
X1620000Y1879880D02*
X1660006Y1839874D01*
X1789600Y2029600D02*
X1790000D01*
X1420000Y2300399D02*
Y3120000D01*
Y2300399D02*
X1420399Y2300000D01*
X1325400Y3214600D02*
X1420000Y3120000D01*
X1349600Y2870000D02*
Y2888582D01*
X1460000Y3245858D02*
Y3370000D01*
X1360800Y3239137D02*
Y3450800D01*
X1415499Y3234501D02*
Y3422502D01*
X1325400Y3214600D02*
Y3495400D01*
X1875497Y395497D02*
X1875858Y395858D01*
Y404142D01*
X1870000Y410000D02*
X1875858Y404142D01*
X1870000Y410000D02*
Y420000D01*
X1875497Y262497D02*
Y395497D01*
X1790000Y288998D02*
Y560000D01*
X1320000Y2918182D02*
X1349600Y2888582D01*
X1320000Y2918182D02*
Y2920000D01*
X1290000Y2950000D02*
X1320000Y2920000D01*
X1370000Y1520000D02*
X1462490Y1612490D01*
X1575510D01*
X1514142Y339000D02*
Y525858D01*
X1510000Y530000D02*
X1514142Y525858D01*
X1960000Y1153996D02*
X1970002Y1163998D01*
X1892997Y279997D02*
X1970000D01*
X1875497Y262497D02*
X1892997Y279997D01*
X1780999D02*
X1790000Y288998D01*
X1420000Y260000D02*
X1423902Y263902D01*
X1500899D01*
X1514498Y277501D01*
Y338643D01*
X1514142Y339000D02*
X1514498Y338643D01*
X1775997Y220000D02*
X1780999Y214999D01*
X1660000Y220000D02*
X1775997D01*
X1514498Y277501D02*
X1602499D01*
X1660000Y220000D01*
X1590000Y1140000D02*
Y1250000D01*
Y1140000D02*
X1620000Y1110000D01*
Y1540000D02*
Y1568986D01*
X1620006Y1568993D02*
Y1595493D01*
X1620000Y1568986D02*
X1620006Y1568993D01*
X1612898Y1017102D02*
X1620000Y1010000D01*
X1775400Y2015400D02*
X1789600Y2029600D01*
X1460000Y3370000D02*
X1460000Y3370000D01*
X1460000Y3370000D02*
Y3378999D01*
X1830000Y4360000D02*
X1890000Y4420000D01*
X2367502D02*
X2464500Y4516998D01*
X1830000Y4220000D02*
X1867954Y4182046D01*
Y4181554D02*
Y4182046D01*
X1890000Y4420000D02*
X2367502D01*
X2464500Y4516998D02*
Y4580498D01*
X2337500Y4339000D02*
X2405900Y4407400D01*
X2337500Y4275500D02*
Y4339000D01*
X1460000Y3378999D02*
Y3405499D01*
X1460000Y3378999D02*
X1460000Y3378999D01*
X1660006Y1764494D02*
Y1839874D01*
X1620000Y1788959D02*
Y1820000D01*
X1580000Y1860000D02*
X1620000Y1820000D01*
X1744507Y1747491D02*
X1775400Y1778385D01*
Y2015400D01*
X1700000Y1788965D02*
Y1900000D01*
Y1788965D02*
X1700006Y1788959D01*
Y1764494D02*
Y1788959D01*
X1370000Y3700000D02*
X1380000Y3690000D01*
X1410000D02*
X1460000Y3640000D01*
X1380000Y3690000D02*
X1410000D01*
X1460000Y3574501D02*
Y3601001D01*
X1460000Y3601001D02*
X1460000Y3601001D01*
X1460000Y3601001D02*
Y3640000D01*
X199999Y4030002D02*
X260001Y3970000D01*
X1620006Y1764494D02*
Y1788952D01*
X1620000Y1788959D02*
X1620006Y1788952D01*
X1570000Y1753002D02*
X1575510Y1747491D01*
X1570000Y1753002D02*
Y1800000D01*
X1490000Y1880000D02*
X1570000Y1800000D01*
X1413401Y3469599D02*
X1415499Y3467501D01*
X1390401Y3469599D02*
X1413401D01*
X1390000Y3470000D02*
X1390401Y3469599D01*
X1380000Y3470000D02*
X1390000D01*
X1360800Y3450800D02*
X1380000Y3470000D01*
X1342499Y3512499D02*
X1415499D01*
X1325400Y3495400D02*
X1342499Y3512499D01*
X1290000Y2950000D02*
Y3524663D01*
X1322840Y3557503D01*
X1415499D01*
X1544440Y1657494D02*
X1575510D01*
X1573412Y1704591D02*
X1575510Y1702493D01*
X1551418Y1704591D02*
X1573412D01*
X1639605Y1700394D02*
X1660006Y1679993D01*
X1617411Y1700394D02*
X1639605D01*
D11*
X1910000Y740800D02*
D03*
Y810000D02*
D03*
Y948399D02*
D03*
Y879200D02*
D03*
Y1015796D02*
D03*
X2064996D02*
D03*
Y879200D02*
D03*
Y948399D02*
D03*
Y810000D02*
D03*
Y740800D02*
D03*
X1987500Y1015796D02*
D03*
Y740800D02*
D03*
D12*
X3757003Y2529996D02*
D03*
Y2689996D02*
D03*
Y3010000D02*
D03*
Y2850001D02*
D03*
Y3170000D02*
D03*
X3557003D02*
D03*
Y2850001D02*
D03*
Y3010000D02*
D03*
Y2689996D02*
D03*
Y2529996D02*
D03*
X3357003D02*
D03*
Y2689996D02*
D03*
Y3010000D02*
D03*
Y2850001D02*
D03*
Y3170000D02*
D03*
X2957004Y2529996D02*
D03*
Y2689996D02*
D03*
Y3010000D02*
D03*
Y2850001D02*
D03*
Y3170000D02*
D03*
X3157004Y2529996D02*
D03*
Y2689996D02*
D03*
Y3010000D02*
D03*
Y2850001D02*
D03*
Y3170000D02*
D03*
X2757005Y2529996D02*
D03*
Y2689996D02*
D03*
Y3010000D02*
D03*
Y2850001D02*
D03*
Y3170000D02*
D03*
X2557000Y2689996D02*
D03*
Y3010000D02*
D03*
Y2850001D02*
D03*
Y3170000D02*
D03*
Y2529996D02*
D03*
D13*
X3882001Y2337998D02*
D03*
X3832004D02*
D03*
X3782001D02*
D03*
X3732004D02*
D03*
X3682002D02*
D03*
X3632004D02*
D03*
X3582002D02*
D03*
X3532004D02*
D03*
X3482002D02*
D03*
X3432005D02*
D03*
X3382002D02*
D03*
X3332005D02*
D03*
X3282002D02*
D03*
X3232005D02*
D03*
X3182003D02*
D03*
X3132000D02*
D03*
X3082003D02*
D03*
X3032000D02*
D03*
X2982003D02*
D03*
X2932000D02*
D03*
X2882003D02*
D03*
X2832001D02*
D03*
X2782003D02*
D03*
X2732001D02*
D03*
X2682004D02*
D03*
X2632001D02*
D03*
X2582004D02*
D03*
X2532001D02*
D03*
X2482004D02*
D03*
X2432001D02*
D03*
X2482004Y3361999D02*
D03*
X2532006D02*
D03*
X2582004D02*
D03*
X2632006D02*
D03*
X2682004D02*
D03*
X2732006D02*
D03*
X2782003D02*
D03*
X2832006D02*
D03*
X2882003D02*
D03*
X2932006D02*
D03*
X2982003D02*
D03*
X3032005D02*
D03*
X3082003D02*
D03*
X3132005D02*
D03*
X3182003D02*
D03*
X3232005D02*
D03*
X3282007D02*
D03*
X3332005D02*
D03*
X3382007D02*
D03*
X3432005D02*
D03*
X3482007D02*
D03*
X3532004D02*
D03*
X3582007D02*
D03*
X3632004D02*
D03*
X3682007D02*
D03*
X3732004D02*
D03*
X3782006D02*
D03*
X3832004D02*
D03*
X3882006D02*
D03*
X2432007D02*
D03*
D14*
X3944003Y2337998D02*
D03*
X2370000D02*
D03*
X3944003Y3361999D02*
D03*
X2370000D02*
D03*
D15*
Y2399999D02*
D03*
Y2449996D02*
D03*
Y2499999D02*
D03*
Y2549996D02*
D03*
Y2599999D02*
D03*
Y2649996D02*
D03*
Y2699998D02*
D03*
Y2749996D02*
D03*
Y2799998D02*
D03*
Y2850001D02*
D03*
Y2899998D02*
D03*
Y3000003D02*
D03*
Y3050000D02*
D03*
Y3100003D02*
D03*
Y3150000D02*
D03*
Y3200002D02*
D03*
Y3250000D02*
D03*
Y3300002D02*
D03*
X3944003Y3249995D02*
D03*
Y3199997D02*
D03*
Y3149995D02*
D03*
Y3099998D02*
D03*
Y3049995D02*
D03*
Y2999998D02*
D03*
Y2949995D02*
D03*
Y2899998D02*
D03*
Y2849996D02*
D03*
Y2799998D02*
D03*
Y2749996D02*
D03*
Y2699993D02*
D03*
Y2649996D02*
D03*
Y2599994D02*
D03*
Y2549996D02*
D03*
Y2499994D02*
D03*
Y2449996D02*
D03*
Y2399994D02*
D03*
X2370000Y2950000D02*
D03*
X3944003Y3299997D02*
D03*
D16*
X3732004Y2415000D02*
D03*
X3632004D02*
D03*
X3682002D02*
D03*
X3582002D02*
D03*
X3182003D02*
D03*
X3282002D02*
D03*
X3232000D02*
D03*
X3332005D02*
D03*
X2832001D02*
D03*
X2682004D02*
D03*
X2782003D02*
D03*
X2732001D02*
D03*
X3732004Y3284996D02*
D03*
X3632004D02*
D03*
X3682002D02*
D03*
X3582002D02*
D03*
X3182003D02*
D03*
X3282002D02*
D03*
X3232000D02*
D03*
X3332005D02*
D03*
X2832001D02*
D03*
X2682004D02*
D03*
X2782003D02*
D03*
X2732001D02*
D03*
D17*
X3724997Y912502D02*
D03*
Y2030000D02*
D03*
D18*
X4210000Y912502D02*
D03*
Y2030000D02*
D03*
D19*
X4725000Y912502D02*
D03*
D20*
X4812498Y1625500D02*
D03*
D21*
X4919996Y1350499D02*
D03*
Y1790503D02*
D03*
D22*
X4625000Y1980003D02*
D03*
D23*
X4445001Y2007501D02*
D03*
D24*
X3610001Y1448503D02*
D03*
Y1692500D02*
D03*
D25*
X3795000Y1326501D02*
D03*
Y1570499D02*
D03*
Y1814501D02*
D03*
X4111997Y1316499D02*
D03*
Y1570499D02*
D03*
Y1824499D02*
D03*
D26*
X3100002Y930002D02*
D03*
X3060002D02*
D03*
X3020002D02*
D03*
X2980002D02*
D03*
X2940003D02*
D03*
X2900003D02*
D03*
X3100002Y970002D02*
D03*
X3060002D02*
D03*
X3020002D02*
D03*
X2980002D02*
D03*
X2940003D02*
D03*
X2900003D02*
D03*
X3100002Y1010002D02*
D03*
X3060002D02*
D03*
X2940003D02*
D03*
X2900003D02*
D03*
X3100002Y1050002D02*
D03*
X3060002D02*
D03*
X2940003D02*
D03*
X2900003D02*
D03*
X3100002Y1090002D02*
D03*
X3060002D02*
D03*
X3020002D02*
D03*
X2980002D02*
D03*
X2940003D02*
D03*
X2900003D02*
D03*
X3100002Y1130002D02*
D03*
X3060002D02*
D03*
X3020002D02*
D03*
X2980002D02*
D03*
X2940003D02*
D03*
X2900003D02*
D03*
D27*
X3560004Y90000D02*
D03*
X3040000D02*
D03*
D28*
X3299999Y477497D02*
D03*
X3200000D02*
D03*
X3399999D02*
D03*
D29*
X2465998Y1869998D02*
D03*
X2234000D02*
D03*
D30*
X2445002Y1767499D02*
D03*
Y1972502D02*
D03*
X2255000D02*
D03*
Y1767499D02*
D03*
D31*
X4370002Y380002D02*
D03*
X3869998D02*
D03*
X4120000D02*
D03*
Y100002D02*
D03*
X3869998D02*
D03*
X4370002D02*
D03*
D32*
X4800003Y2970000D02*
D03*
Y3070000D02*
D03*
X4490000Y2969999D02*
D03*
Y3069999D02*
D03*
D33*
X4890002Y3987502D02*
D03*
X4490002D02*
D03*
X4890002Y3312502D02*
D03*
D34*
X4490002D02*
D03*
D35*
X4619998Y2945002D02*
D03*
Y3094999D02*
D03*
D36*
X3747502Y4649998D02*
D03*
Y4600001D02*
D03*
Y4549998D02*
D03*
X3492501D02*
D03*
Y4600001D02*
D03*
Y4649998D02*
D03*
X3952502Y4659998D02*
D03*
Y4610001D02*
D03*
Y4559998D02*
D03*
X4207498D02*
D03*
Y4610001D02*
D03*
Y4659998D02*
D03*
D37*
X3719999Y4471248D02*
D03*
X3670001D02*
D03*
X3619999D02*
D03*
X3570001D02*
D03*
X3519999D02*
D03*
Y4728748D02*
D03*
X3570001D02*
D03*
X3619999D02*
D03*
X3670001D02*
D03*
X3719999D02*
D03*
X4180000Y4738748D02*
D03*
X4130002D02*
D03*
X4080000D02*
D03*
X4030002D02*
D03*
X3980000D02*
D03*
Y4481248D02*
D03*
X4030002D02*
D03*
X4080000D02*
D03*
X4130002D02*
D03*
X4180000D02*
D03*
D38*
X1692502Y1010000D02*
D03*
Y1060002D02*
D03*
Y1110000D02*
D03*
X1620000Y1010000D02*
D03*
Y1060002D02*
D03*
Y1110000D02*
D03*
D39*
X1970002Y1396002D02*
D03*
Y1163998D02*
D03*
D40*
X2072501Y1375001D02*
D03*
X1867498D02*
D03*
Y1184999D02*
D03*
X2072501D02*
D03*
D41*
X1500000Y3490000D02*
D03*
X1660006Y1679993D02*
D03*
D42*
X1460000Y3574501D02*
D03*
X1500000D02*
D03*
X1540000D02*
D03*
Y3405499D02*
D03*
X1500000D02*
D03*
X1460000D02*
D03*
X1620006Y1764494D02*
D03*
X1660006D02*
D03*
X1700006D02*
D03*
Y1595493D02*
D03*
X1660006D02*
D03*
X1620006D02*
D03*
D43*
X1584501Y3557503D02*
D03*
Y3512499D02*
D03*
Y3467501D02*
D03*
Y3422502D02*
D03*
X1415499D02*
D03*
Y3467501D02*
D03*
Y3512499D02*
D03*
Y3557503D02*
D03*
X1744507Y1747491D02*
D03*
Y1702493D02*
D03*
Y1657494D02*
D03*
Y1612490D02*
D03*
X1575510D02*
D03*
Y1657494D02*
D03*
Y1702493D02*
D03*
Y1747491D02*
D03*
D44*
X199999Y1630002D02*
D03*
Y4330002D02*
D03*
D45*
Y4030002D02*
D03*
Y1930001D02*
D03*
Y2980002D02*
D03*
D46*
X4820000Y4699998D02*
D03*
X4740000D02*
D03*
X4660001D02*
D03*
X4580001D02*
D03*
Y4459999D02*
D03*
X4660001D02*
D03*
X4740000D02*
D03*
X4820000D02*
D03*
D47*
X1325502Y277501D02*
D03*
Y212502D02*
D03*
Y147498D02*
D03*
X1514498D02*
D03*
Y212502D02*
D03*
Y277501D02*
D03*
X1780999Y279997D02*
D03*
Y214999D02*
D03*
Y150000D02*
D03*
X1970000D02*
D03*
Y214999D02*
D03*
Y279997D02*
D03*
D48*
X1420000Y260000D02*
D03*
Y164999D02*
D03*
X1875497Y262497D02*
D03*
Y167501D02*
D03*
D49*
X1956500Y4580498D02*
D03*
X2210500D02*
D03*
X2337500D02*
D03*
X2464500D02*
D03*
X1956500Y4275500D02*
D03*
X2083500D02*
D03*
X2210500D02*
D03*
X2337500D02*
D03*
X2464500D02*
D03*
X2083500Y4580498D02*
D03*
D50*
X350000Y350000D02*
D03*
Y4650000D02*
D03*
D51*
X380000Y1260000D02*
X386664D01*
X389997D02*
X396661D01*
X399993D02*
X406658D01*
X409990D02*
X416654D01*
X419987D02*
X426651D01*
X429983D02*
X436648D01*
X439980D02*
X446645D01*
X449977D02*
X456641D01*
X459973D02*
X466638D01*
X469970D02*
X476635D01*
X479967D02*
X486631D01*
X489963D02*
X496628D01*
X499960D02*
X506625D01*
X509957D02*
X516621D01*
X519953D02*
X526618D01*
X529950D02*
X536615D01*
X539947D02*
X546611D01*
X549944D02*
X556608D01*
X559940D02*
X566605D01*
X569937D02*
X576601D01*
X579934D02*
X586598D01*
X589930D02*
X596595D01*
X599927D02*
X606591D01*
X609924D02*
X616588D01*
X619920D02*
X626585D01*
X629917D02*
X636581D01*
X639914D02*
X646578D01*
X649910D02*
X656575D01*
X659907D02*
X666571D01*
X669904D02*
X676568D01*
X679900D02*
X686565D01*
X689897D02*
X696561D01*
X699894D02*
X706558D01*
X709890D02*
X716555D01*
X719887D02*
X726552D01*
X729884D02*
X736548D01*
X739880D02*
X746545D01*
X749877D02*
X756542D01*
X759874D02*
X766538D01*
X769870D02*
X776535D01*
X779867D02*
X786532D01*
X789864D02*
X796528D01*
X799860D02*
X806525D01*
X809857D02*
X816522D01*
X819854D02*
X826518D01*
X829851D02*
X836515D01*
X839847D02*
X846512D01*
X849844D02*
X856508D01*
X859841D02*
X866505D01*
X869837D02*
X876502D01*
X879834D02*
X886498D01*
X889831D02*
X896495D01*
X899827D02*
X906492D01*
X909824D02*
X916488D01*
X919821D02*
X926485D01*
X929817D02*
X936482D01*
X939814D02*
X946478D01*
X949811D02*
X956475D01*
X959807D02*
X966472D01*
X969804D02*
X976468D01*
X979801D02*
X986465D01*
X989797D02*
X996462D01*
X999794D02*
X1006458D01*
X1009791D02*
X1016455D01*
X1019787D02*
X1026452D01*
D52*
X1987504Y912933D02*
D03*
D53*
X1916300Y945435D02*
D03*
X2058703D02*
D03*
D54*
X2033740Y810030D02*
D03*
D55*
X1987484Y793271D02*
D03*
D56*
X327703Y4430002D02*
D03*
D57*
X3780000Y240002D02*
D03*
X4459999D02*
D03*
D58*
X2020000Y4860000D02*
D03*
X2401000D02*
D03*
D59*
X2940003Y1090002D02*
D03*
Y1010002D02*
D03*
X2940000Y970000D02*
D03*
Y1050000D02*
D03*
X2980000Y1090000D02*
D03*
X3060002Y1090002D02*
D03*
X3060000Y1010000D02*
D03*
X3020000Y970000D02*
D03*
X3060000D02*
D03*
Y1050000D02*
D03*
X3020000Y1090000D02*
D03*
D60*
X2800000Y890000D02*
D03*
X3100000Y770000D02*
D03*
X2690000Y1130000D02*
D03*
X2860000Y1370000D02*
D03*
X2160000Y740000D02*
D03*
X1699782Y830217D02*
D03*
X2155796Y1015796D02*
D03*
X1800000Y700000D02*
D03*
X2660006Y2980006D02*
D03*
X3950000Y3629600D02*
D03*
X4260000Y2710000D02*
D03*
X2530000Y3488800D02*
D03*
X4169992Y3141369D02*
D03*
X3880000Y3499600D02*
D03*
X2660006Y2820006D02*
D03*
X3050000Y3550000D02*
D03*
X3110394Y3860393D02*
D03*
X4169992Y2990000D02*
D03*
X2860000Y3670000D02*
D03*
X3720000Y3490000D02*
D03*
X4290000Y4890000D02*
D03*
X3420000Y3620000D02*
D03*
X3190000Y3740400D02*
D03*
X3530000Y3470000D02*
D03*
X2464600Y3665000D02*
D03*
X4230000Y4090000D02*
D03*
X3600001Y3929998D02*
D03*
X3810000Y3940031D02*
D03*
X2330000Y3515000D02*
D03*
X2690220Y3509780D02*
D03*
X2219996Y3729993D02*
D03*
X4070000Y2848740D02*
D03*
X2075000Y3885000D02*
D03*
X4290000Y2140000D02*
D03*
X4830000Y770000D02*
D03*
X4869600Y2520000D02*
D03*
X4689937Y2730000D02*
D03*
X3440400Y1505220D02*
D03*
X4869600Y2649998D02*
D03*
X4530000Y2514969D02*
D03*
X2920000Y790000D02*
D03*
X3210400Y870000D02*
D03*
X4670000Y4830000D02*
D03*
X1791091Y1081863D02*
D03*
X2460000Y3780000D02*
D03*
X2959994Y250000D02*
D03*
X2760000Y1500000D02*
D03*
X2600000Y939998D02*
D03*
X2660000Y800000D02*
D03*
X3060000Y600000D02*
D03*
X1990400Y1810000D02*
D03*
X2040400Y1670400D02*
D03*
X1870000Y3510000D02*
D03*
X1640000Y3719200D02*
D03*
X3660007Y3060007D02*
D03*
Y2900006D02*
D03*
Y2740006D02*
D03*
Y2580006D02*
D03*
X3460007Y3140007D02*
D03*
Y2980006D02*
D03*
Y2820006D02*
D03*
Y2660006D02*
D03*
X3260007Y3060007D02*
D03*
Y2900006D02*
D03*
Y2740006D02*
D03*
Y2580006D02*
D03*
X3060007Y3140007D02*
D03*
Y2980006D02*
D03*
Y2820006D02*
D03*
Y2660006D02*
D03*
X2860006Y3060007D02*
D03*
Y2900006D02*
D03*
Y2740006D02*
D03*
Y2580006D02*
D03*
X2660006Y3140007D02*
D03*
Y2660006D02*
D03*
X2340006Y1860005D02*
D03*
X1980005Y1300005D02*
D03*
X1790000Y930000D02*
D03*
X4810000Y4330000D02*
D03*
X3360000Y4870000D02*
D03*
X4000000Y4910000D02*
D03*
X3800439Y4909600D02*
D03*
X4495800Y2860000D02*
D03*
X4510000Y4320000D02*
D03*
X4234200Y4345769D02*
D03*
X4880000Y2170000D02*
D03*
X3290000Y1860000D02*
D03*
X2570000Y400000D02*
D03*
X4250000Y740000D02*
D03*
X2900000Y2140000D02*
D03*
X2270000Y2130000D02*
D03*
X3770000Y490000D02*
D03*
X4670000Y120000D02*
D03*
X3300000Y970000D02*
D03*
X3370000Y860000D02*
D03*
X1520267Y1130330D02*
D03*
X1389780Y530220D02*
D03*
X1330000Y1520000D02*
D03*
Y1890000D02*
D03*
X1820000Y4580000D02*
D03*
X4114780Y4345220D02*
D03*
X3741978Y4347583D02*
D03*
X3860000Y4340000D02*
D03*
X3270000Y1530000D02*
D03*
X2900000Y1580000D02*
D03*
X3770000Y740000D02*
D03*
X4660000Y370000D02*
D03*
X2700000Y2080000D02*
D03*
Y1940000D02*
D03*
Y2210000D02*
D03*
X4250000Y490000D02*
D03*
X4650000Y4320000D02*
D03*
X3524268Y4869600D02*
D03*
X1720000Y1280000D02*
D03*
X1770000Y3100000D02*
D03*
X1559600Y3089600D02*
D03*
X2110001Y3690000D02*
D03*
X2030000Y3430000D02*
D03*
X1705000Y1905000D02*
D03*
X1730000Y3600000D02*
D03*
X1330000Y4020000D02*
D03*
X1589606Y1450000D02*
D03*
X1860400Y2200000D02*
D03*
X1790000Y2029600D02*
D03*
X1420399Y2300000D02*
D03*
X1349600Y2870000D02*
D03*
X1870000Y420000D02*
D03*
X1790000Y560000D02*
D03*
X1510000Y530000D02*
D03*
X1590000Y1250000D02*
D03*
X1580000Y2170000D02*
D03*
X1370000Y3700000D02*
D03*
X1320000Y3870000D02*
D03*
X1490400Y2710000D02*
D03*
X1490000Y1880000D02*
D03*
D61*
X1660006Y1679993D02*
D03*
X1500000Y3490000D02*
D03*
%TF.MD5,8553a5414da4d7aaf29d3a74ac3d2ba5*%
M02*
