%TF.GenerationSoftware,Altium Limited,Altium Designer,20.1.11 (218)*%
G04 Layer_Physical_Order=2*
G04 Layer_Color=32768*
%FSLAX45Y45*%
%MOMM*%
%TF.SameCoordinates,C7425212-4277-447C-8971-9BA6FDDE4791*%
%TF.FilePolarity,Negative*%
%TF.FileFunction,Copper,L2,Inr,Plane*%
%TF.Part,Single*%
G01*
G75*
%TA.AperFunction,NonConductor*%
%ADD62C,1.00000*%
%ADD63C,1.01600*%
%ADD64C,0.10000*%
%TA.AperFunction,WasherPad*%
%ADD65C,2.01600*%
%TA.AperFunction,ComponentPad*%
%ADD66C,1.91600*%
%ADD67C,2.03600*%
%TA.AperFunction,ViaPad*%
G04:AMPARAMS|DCode=68|XSize=1.924mm|YSize=1.924mm|CornerRadius=0mm|HoleSize=0mm|Usage=FLASHONLY|Rotation=0.000|XOffset=0mm|YOffset=0mm|HoleType=Round|Shape=Relief|Width=0.254mm|Gap=0.254mm|Entries=4|*
%AMTHD68*
7,0,0,1.92400,1.41600,0.25400,45*
%
%ADD68THD68*%
G04:AMPARAMS|DCode=69|XSize=1.654mm|YSize=1.654mm|CornerRadius=0mm|HoleSize=0mm|Usage=FLASHONLY|Rotation=0.000|XOffset=0mm|YOffset=0mm|HoleType=Round|Shape=Relief|Width=0.254mm|Gap=0.254mm|Entries=4|*
%AMTHD69*
7,0,0,1.65400,1.14600,0.25400,45*
%
%ADD69THD69*%
%ADD70C,1.14600*%
%ADD71C,1.13600*%
%ADD72C,1.41600*%
G04:AMPARAMS|DCode=73|XSize=1.724mm|YSize=1.724mm|CornerRadius=0mm|HoleSize=0mm|Usage=FLASHONLY|Rotation=0.000|XOffset=0mm|YOffset=0mm|HoleType=Round|Shape=Relief|Width=0.254mm|Gap=0.254mm|Entries=4|*
%AMTHD73*
7,0,0,1.72400,1.21600,0.25400,45*
%
%ADD73THD73*%
D62*
X2280000Y40000D02*
Y1340000D01*
X2180000Y1440000D02*
X2280000Y1340000D01*
X2115000Y1505000D02*
Y3505000D01*
Y1505000D02*
X2180000Y1440000D01*
X1690000Y3930000D02*
X2115000Y3505000D01*
X1690000Y3930000D02*
Y4960000D01*
D63*
X0Y0D02*
X5000000D01*
Y5000000D01*
X0D02*
X5000000D01*
X0Y0D02*
Y5000000D01*
D64*
X2620000Y4903316D02*
Y4863329D01*
X2639994D01*
X2646658Y4869993D01*
Y4896651D01*
X2639994Y4903316D01*
X2620000D01*
X2659987Y4863329D02*
X2673316D01*
X2666652D01*
Y4889987D01*
X2659987D01*
X2706638Y4850000D02*
X2713303D01*
X2719968Y4856664D01*
Y4889987D01*
X2699974D01*
X2693310Y4883322D01*
Y4869993D01*
X2699974Y4863329D01*
X2719968D01*
X2733297D02*
X2746625D01*
X2739961D01*
Y4889987D01*
X2733297D01*
X2773284Y4896651D02*
Y4889987D01*
X2766619D01*
X2779948D01*
X2773284D01*
Y4869993D01*
X2779948Y4863329D01*
X2806606Y4889987D02*
X2819935D01*
X2826600Y4883322D01*
Y4863329D01*
X2806606D01*
X2799942Y4869993D01*
X2806606Y4876658D01*
X2826600D01*
X2839929Y4863329D02*
X2853257D01*
X2846593D01*
Y4903316D01*
X2839929D01*
X2939896Y4896651D02*
X2933232Y4903316D01*
X2919902D01*
X2913238Y4896651D01*
Y4869993D01*
X2919902Y4863329D01*
X2933232D01*
X2939896Y4869993D01*
Y4883322D01*
X2926567D01*
X2953225Y4863329D02*
Y4903316D01*
X2979883Y4863329D01*
Y4903316D01*
X2993212D02*
Y4863329D01*
X3013206D01*
X3019870Y4869993D01*
Y4896651D01*
X3013206Y4903316D01*
X2993212D01*
X1030000Y4853329D02*
Y4879987D01*
X1043329Y4893316D01*
X1056658Y4879987D01*
Y4853329D01*
Y4873322D01*
X1030000D01*
X1069987Y4853329D02*
Y4879987D01*
X1089981D01*
X1096645Y4873322D01*
Y4853329D01*
X1116638Y4879987D02*
X1129968D01*
X1136632Y4873322D01*
Y4853329D01*
X1116638D01*
X1109974Y4859993D01*
X1116638Y4866658D01*
X1136632D01*
X1149961Y4853329D02*
X1163290D01*
X1156625D01*
Y4893316D01*
X1149961D01*
X1189948Y4853329D02*
X1203277D01*
X1209941Y4859993D01*
Y4873322D01*
X1203277Y4879987D01*
X1189948D01*
X1183283Y4873322D01*
Y4859993D01*
X1189948Y4853329D01*
X1236599Y4840000D02*
X1243264D01*
X1249928Y4846664D01*
Y4879987D01*
X1229935D01*
X1223270Y4873322D01*
Y4859993D01*
X1229935Y4853329D01*
X1249928D01*
X1263257D02*
X1276586D01*
X1269922D01*
Y4879987D01*
X1263257D01*
X1323238D02*
X1303244D01*
X1296580Y4873322D01*
Y4859993D01*
X1303244Y4853329D01*
X1323238D01*
X1343231Y4879987D02*
X1356560D01*
X1363225Y4873322D01*
Y4853329D01*
X1343231D01*
X1336567Y4859993D01*
X1343231Y4866658D01*
X1363225D01*
X1376554Y4853329D02*
X1389883D01*
X1383218D01*
Y4893316D01*
X1376554D01*
X1476521Y4886651D02*
X1469857Y4893316D01*
X1456528D01*
X1449863Y4886651D01*
Y4859993D01*
X1456528Y4853329D01*
X1469857D01*
X1476521Y4859993D01*
Y4873322D01*
X1463192D01*
X1489850Y4853329D02*
Y4893316D01*
X1516508Y4853329D01*
Y4893316D01*
X1529837D02*
Y4853329D01*
X1549831D01*
X1556495Y4859993D01*
Y4886651D01*
X1549831Y4893316D01*
X1529837D01*
D65*
X4840000Y4840000D02*
D03*
X160000Y160000D02*
D03*
Y4840000D02*
D03*
X4840000Y160000D02*
D03*
D66*
X3780000Y240002D02*
D03*
X4459999D02*
D03*
D67*
X2020000Y4860000D02*
D03*
X2401000D02*
D03*
D68*
X2756552Y1265862D02*
D03*
X2800000Y890000D02*
D03*
X2860000Y1370000D02*
D03*
X2140000Y230000D02*
D03*
X2155796Y1015796D02*
D03*
X2460000Y240000D02*
D03*
X2660006Y2980006D02*
D03*
X4260000Y2710000D02*
D03*
X3880000Y3499600D02*
D03*
X2660006Y2820006D02*
D03*
X3050000Y3550000D02*
D03*
X4070000Y2848740D02*
D03*
X4290000Y2140000D02*
D03*
X4830000Y770000D02*
D03*
X2959994Y250000D02*
D03*
X1900000Y2500000D02*
D03*
X3060000Y600000D02*
D03*
X2960000Y480000D02*
D03*
X2410000Y950000D02*
D03*
X1850000Y1680000D02*
D03*
X1630000Y3860000D02*
D03*
X3660007Y3060007D02*
D03*
Y2900006D02*
D03*
Y2740006D02*
D03*
Y2580006D02*
D03*
X3460007Y3140007D02*
D03*
Y2980006D02*
D03*
Y2820006D02*
D03*
Y2660006D02*
D03*
X3260007Y3060007D02*
D03*
Y2900006D02*
D03*
Y2740006D02*
D03*
Y2580006D02*
D03*
X3060007Y3140007D02*
D03*
Y2980006D02*
D03*
Y2820006D02*
D03*
Y2660006D02*
D03*
X2860006Y3060007D02*
D03*
Y2900006D02*
D03*
Y2740006D02*
D03*
Y2580006D02*
D03*
X2660006Y3140007D02*
D03*
Y2660006D02*
D03*
X2340006Y1860005D02*
D03*
X1980005Y1300005D02*
D03*
X4810000Y4330000D02*
D03*
X4495800Y2860000D02*
D03*
X4640000Y2120000D02*
D03*
X3189999Y1620001D02*
D03*
X2900000Y2140000D02*
D03*
D03*
X1520267Y1130330D02*
D03*
X1640000Y2710000D02*
D03*
X1720410Y3490000D02*
D03*
X1420000Y1250000D02*
D03*
X1389780Y530220D02*
D03*
X1490400Y2580000D02*
D03*
X1749192Y2490369D02*
D03*
X1820000Y4580000D02*
D03*
X2670000Y4180000D02*
D03*
X4114780Y4345220D02*
D03*
X3741978Y4347583D02*
D03*
X4244200Y4230000D02*
D03*
D69*
X2940003Y1090002D02*
D03*
D70*
Y1010002D02*
D03*
X2940000Y1050000D02*
D03*
X2980000Y1090000D02*
D03*
X3060002Y1090002D02*
D03*
X3060000Y1010000D02*
D03*
X3020000Y970000D02*
D03*
X3060000D02*
D03*
Y1050000D02*
D03*
X3020000Y1090000D02*
D03*
D71*
X2940000Y970000D02*
D03*
D72*
X3100000Y770000D02*
D03*
D03*
X2690000Y1130000D02*
D03*
X2160000Y740000D02*
D03*
X1699782Y830217D02*
D03*
X1800000Y700000D02*
D03*
X3950000Y3629600D02*
D03*
X2530000Y3488800D02*
D03*
X4169992Y3141369D02*
D03*
X3110394Y3860393D02*
D03*
X4169992Y2990000D02*
D03*
X2860000Y3670000D02*
D03*
X3720000Y3490000D02*
D03*
X4290000Y4890000D02*
D03*
X3420000Y3620000D02*
D03*
X3190000Y3740400D02*
D03*
X3530000Y3470000D02*
D03*
X2464600Y3665000D02*
D03*
X4230000Y4090000D02*
D03*
X3600001Y3929998D02*
D03*
X3810000Y3940031D02*
D03*
X2330000Y3515000D02*
D03*
X2690220Y3509780D02*
D03*
X2219996Y3729993D02*
D03*
X2075000Y3885000D02*
D03*
X4869600Y2520000D02*
D03*
X4689937Y2730000D02*
D03*
X3440400Y1505220D02*
D03*
X4869600Y2649998D02*
D03*
X4530000Y2514969D02*
D03*
X2920000Y790000D02*
D03*
X3210400Y870000D02*
D03*
X4670000Y4830000D02*
D03*
X1791091Y1081863D02*
D03*
X2460000Y3780000D02*
D03*
X2760000Y1500000D02*
D03*
X2600000Y939998D02*
D03*
D03*
X2660000Y800000D02*
D03*
X1990400Y1810000D02*
D03*
X2040400Y1670400D02*
D03*
X1870000Y3510000D02*
D03*
X1640000Y3719200D02*
D03*
X1790000Y930000D02*
D03*
X3360000Y4870000D02*
D03*
X4000000Y4910000D02*
D03*
X3800439Y4909600D02*
D03*
X4510000Y4320000D02*
D03*
X4234200Y4345769D02*
D03*
X4880000Y2170000D02*
D03*
X3290000Y1860000D02*
D03*
X2570000Y400000D02*
D03*
X4250000Y740000D02*
D03*
X2270000Y2130000D02*
D03*
X3770000Y490000D02*
D03*
X4670000Y120000D02*
D03*
X3300000Y970000D02*
D03*
X3370000Y860000D02*
D03*
X1330000Y1520000D02*
D03*
Y1890000D02*
D03*
X3860000Y4340000D02*
D03*
X3270000Y1530000D02*
D03*
X2900000Y1580000D02*
D03*
X3770000Y740000D02*
D03*
X4660000Y370000D02*
D03*
X2700000Y2080000D02*
D03*
Y1940000D02*
D03*
Y2210000D02*
D03*
X4250000Y490000D02*
D03*
X4650000Y4320000D02*
D03*
X3524268Y4869600D02*
D03*
X1720000Y1280000D02*
D03*
X1770000Y3100000D02*
D03*
X1559600Y3089600D02*
D03*
X2110001Y3690000D02*
D03*
X2030000Y3430000D02*
D03*
X1705000Y1905000D02*
D03*
X1730000Y3600000D02*
D03*
X1330000Y4020000D02*
D03*
X1589606Y1450000D02*
D03*
X1860400Y2200000D02*
D03*
X1790000Y2029600D02*
D03*
X1420399Y2300000D02*
D03*
X1349600Y2870000D02*
D03*
X1870000Y420000D02*
D03*
X1790000Y560000D02*
D03*
X1510000Y530000D02*
D03*
X1590000Y1250000D02*
D03*
X1580000Y2170000D02*
D03*
X1370000Y3700000D02*
D03*
X1320000Y3870000D02*
D03*
X1490400Y2710000D02*
D03*
X1490000Y1880000D02*
D03*
D73*
X1660006Y1679993D02*
D03*
X1500000Y3490000D02*
D03*
%TF.MD5,421a0074d77c8c8fd130197328d6ca67*%
M02*
