%TF.GenerationSoftware,Altium Limited,Altium Designer,20.1.11 (218)*%
G04 Layer_Physical_Order=4*
G04 Layer_Color=16711680*
%FSLAX45Y45*%
%MOMM*%
%TF.SameCoordinates,C7425212-4277-447C-8971-9BA6FDDE4791*%
%TF.FilePolarity,Positive*%
%TF.FileFunction,Copper,L4,Bot,Signal*%
%TF.Part,Single*%
G01*
G75*
%TA.AperFunction,Conductor*%
%ADD10C,0.10000*%
%TA.AperFunction,SMDPad,CuDef*%
%ADD32R,0.55000X0.60000*%
%TA.AperFunction,ComponentPad*%
%ADD57C,0.90000*%
%ADD58C,1.02000*%
%TA.AperFunction,ViaPad*%
%ADD59C,0.30000*%
%ADD60C,0.80000*%
%ADD61C,0.50000*%
%TA.AperFunction,SMDPad,CuDef*%
%ADD76R,0.50000X0.60000*%
%ADD77R,0.30000X0.27000*%
%ADD78R,0.80000X0.75000*%
%ADD79C,1.00000*%
%ADD80R,0.40000X0.70000*%
%ADD81R,0.40000X0.25000*%
%TA.AperFunction,BGAPad,CuDef*%
%ADD82C,0.25000*%
%TA.AperFunction,SMDPad,CuDef*%
%ADD83R,0.25000X0.36000*%
%ADD84R,0.50000X0.65000*%
G36*
X2820000Y1250000D02*
D01*
D02*
G37*
G36*
X2900000Y2450000D02*
Y2560000D01*
X3010000D01*
X2900000Y2450000D01*
D02*
G37*
D10*
X2060799Y1809638D02*
G03*
X2060799Y1810452I-70399J362D01*
G01*
X3799423Y4839207D02*
G03*
X3801987Y4839217I1015J70393D01*
G01*
X2035000Y3487506D02*
G03*
X2035000Y3502495I-70000J7495D01*
G01*
X3090000Y1590000D02*
X3120000Y1620000D01*
X3189998D01*
X3089999Y1480001D02*
X3090000Y1480002D01*
Y1590000D01*
X3189998Y1620000D02*
X3189999Y1620001D01*
X3083748Y1373750D02*
X3089999Y1380001D01*
X3043750Y1373750D02*
X3083748D01*
X3020000Y1350000D02*
X3043750Y1373750D01*
X3170001Y1230001D02*
Y1371499D01*
X3060000Y1120000D02*
X3170001Y1230001D01*
X3060000Y1090002D02*
Y1120000D01*
X2756552Y1188448D02*
Y1265862D01*
X2646637D02*
X2756552D01*
X2854999Y1090002D02*
X2940003D01*
X2940000Y909561D02*
Y970000D01*
X3102371Y1012497D02*
X3329998Y1240124D01*
X3109937Y970000D02*
X3410002Y1270065D01*
X3140000Y950000D02*
X3507071Y1317071D01*
X3082103Y1047897D02*
X3257197Y1222991D01*
X3060000Y1010000D02*
X3062497Y1012497D01*
X2989999Y939999D02*
X3020000Y970000D01*
X3060000D02*
X3109937D01*
X3100000Y770000D02*
X3140000Y810000D01*
Y950000D01*
X2989999Y818501D02*
Y939999D01*
X3062497Y1012497D02*
X3102371D01*
X3076983Y1047897D02*
X3082103D01*
X3257197Y1222991D02*
Y1367203D01*
X3259997Y1370003D01*
X2820002Y789563D02*
X2940000Y909561D01*
X2756552Y1188448D02*
X2854999Y1090002D01*
X3005857Y770000D02*
X3100000D01*
X3162498Y707502D01*
X2630000Y1282498D02*
X2646637Y1265862D01*
X2510000Y1260809D02*
X2640809Y1130000D01*
X2510000Y1260809D02*
Y1332496D01*
X2640809Y1130000D02*
X2690000D01*
X2510000Y1332496D02*
X2510002Y1332498D01*
X2690000Y1130000D02*
Y1160000D01*
X2498038Y1052401D02*
X2929059D01*
X2523396Y1010398D02*
X2939606D01*
X3020000Y1098532D02*
Y1350000D01*
X2630000Y1417499D02*
X2635000Y1412499D01*
X2802499D02*
X2890000Y1500000D01*
X2635000Y1412499D02*
X2802499D01*
X2890000Y1570000D02*
X2900000Y1580000D01*
X2890000Y1500000D02*
Y1570000D01*
X2140000Y230000D02*
X2145000Y235000D01*
X2455000D01*
X2460000Y240000D01*
X2040000Y310000D02*
Y449998D01*
X2121058Y230000D02*
X2140000D01*
X2101058Y250000D02*
X2121058Y230000D01*
X2100000Y250000D02*
X2101058D01*
X2040000Y310000D02*
X2100000Y250000D01*
X2019998Y549999D02*
X2029998Y559999D01*
Y459999D02*
X2040000Y449998D01*
X1790000Y560000D02*
X1999998D01*
X1999998Y559999D01*
X2160000Y740000D02*
X2170000D01*
X2200000Y710000D01*
Y480000D02*
Y710000D01*
X2130001Y459999D02*
X2179999D01*
X2200000Y480000D01*
X2029998Y559999D02*
X2140001D01*
X2460000Y240000D02*
X2464409Y235591D01*
X3485859Y525859D02*
Y568358D01*
X2570000Y90000D02*
X3050000D01*
X3485859Y525859D01*
X2075000Y3866058D02*
Y3885000D01*
X4271058Y4890000D02*
X4290000D01*
X4251058Y4910000D02*
X4271058Y4890000D01*
X4000000Y4910000D02*
X4251058D01*
X4669997Y4829997D02*
X4670000Y4830000D01*
X4615000Y4829997D02*
X4669997D01*
X4580002Y4794999D02*
X4615000Y4829997D01*
X4640003Y4830000D02*
X4670000D01*
X4328303Y4818303D02*
X4400000Y4890000D01*
X4328303Y4314103D02*
Y4818303D01*
X4400000Y4890000D02*
X4439998D01*
X4244200Y4230000D02*
X4328303Y4314103D01*
X1712502Y1081863D02*
X1791091D01*
X1692502Y1061863D02*
X1712502Y1081863D01*
X3210400Y869976D02*
X3320000Y760377D01*
Y737498D02*
Y760377D01*
Y737498D02*
X3349999Y707499D01*
X1320000Y1240000D02*
X1410001Y1330001D01*
X1300000Y1240000D02*
X1320000D01*
X1330000Y1510000D02*
Y1540000D01*
X1300000Y1340000D02*
Y1480000D01*
X1330000Y1510000D01*
X3524268Y4869600D02*
Y4869600D01*
X3551078Y4842789D02*
X3555136Y4842730D01*
X3799423Y4839207D01*
X3524268Y4869600D02*
X3551078Y4842789D01*
X3430000Y4940000D02*
X3770039D01*
X3800439Y4909600D01*
X4120002Y4139999D02*
X4154199D01*
X4244200Y4230000D01*
X4120002Y4239999D02*
Y4243891D01*
X4140002Y4263891D01*
X4152323D01*
X4234200Y4345769D01*
X3238876Y3468750D02*
X3528750D01*
X3414150Y3504150D02*
X3540000Y3630000D01*
X2690000Y2919874D02*
X3238876Y3468750D01*
X2560000Y2890000D02*
X3209550Y3539550D01*
X3339550D02*
X3420000Y3620000D01*
X3528750Y3468750D02*
X3530000Y3470000D01*
X3209550Y3539550D02*
X3339550D01*
X2620000Y2899937D02*
X3224213Y3504150D01*
X3414150D01*
X3190000Y3740400D02*
X3195200D01*
X3230200Y3775400D02*
X4134537D01*
X3195200Y3740400D02*
X3230200Y3775400D01*
X2869251Y3509780D02*
X2979871Y3620400D01*
X2690220Y3509780D02*
X2869251D01*
X3230000Y3670000D02*
X3300000Y3740000D01*
X2860000Y3670000D02*
X3230000D01*
X2639752Y3559200D02*
X2840552Y3760000D01*
X2727899Y3697962D02*
X2864448Y3834511D01*
X2727899Y3697409D02*
Y3697962D01*
X2625089Y3594600D02*
X2727899Y3697409D01*
X4134537Y3775400D02*
X4610000Y3299937D01*
X2840552Y3760000D02*
X2980003D01*
X3000002Y3740001D01*
X3300000Y3740000D02*
X4110000D01*
X4120002Y3729998D01*
X4120003D01*
X4570000Y3280000D01*
X3949600Y3630000D02*
X3950000Y3629600D01*
X3260400Y3620400D02*
X3340000Y3700000D01*
X4080000D02*
X4530000Y3250000D01*
X3340000Y3700000D02*
X4080000D01*
X3540000Y3630000D02*
X3949600D01*
X2515063Y3665000D02*
X2595066Y3745003D01*
X2464600Y3665000D02*
X2515063D01*
X2580000Y3780000D02*
X2650002Y3850003D01*
X2595066Y3745003D02*
X2685001D01*
X2460000Y3780000D02*
X2580000D01*
X2205400Y3594600D02*
X2625089D01*
X2374200Y3559200D02*
X2639752D01*
X2330000Y3515000D02*
X2374200Y3559200D01*
X2999998Y3939999D02*
X3009999Y3950000D01*
X3139998Y4009998D02*
Y4010001D01*
X3080000Y3950000D02*
X3139998Y4009998D01*
X3009999Y3950000D02*
X3080000D01*
X4580002Y4789999D02*
Y4794999D01*
X4439998Y4890000D02*
X4439999Y4889999D01*
X4580002D01*
X4439999Y4789999D02*
X4580002D01*
X4880000Y2170000D02*
Y2199995D01*
X4880002Y2199998D01*
X4743500Y2514999D02*
X4746001Y2517499D01*
X4869600Y2649595D02*
Y2649998D01*
X4940000Y2259996D02*
Y2747502D01*
X4787871Y2567866D02*
X4869600Y2649595D01*
X4746001Y2517499D02*
X4867099D01*
X4700000Y2987502D02*
X4940000Y2747502D01*
X4896822Y2216818D02*
X4940000Y2259996D01*
X4867099Y2517499D02*
X4869600Y2520000D01*
X3504142Y3255858D02*
X3508499Y3251501D01*
X3497981Y3255858D02*
X3504142D01*
X2900000Y2657878D02*
X3497981Y3255858D01*
X2900000Y2450000D02*
Y2657878D01*
X3508499Y3251501D02*
X3660000D01*
X3722998Y3190002D02*
X3770002D01*
X3410002Y1428501D02*
Y1466798D01*
X3435220Y1492016D01*
Y1496458D01*
X3435220Y1500039D01*
X3440400Y1505220D01*
X1790000Y2029600D02*
Y2240000D01*
X2090000Y2540000D02*
Y2740000D01*
X1790000Y2240000D02*
X2090000Y2540000D01*
X2210000Y2180000D02*
Y3300063D01*
X2150000Y2189561D02*
Y3310000D01*
X1990000Y1960000D02*
X2210000Y2180000D01*
X2205000Y3305063D02*
X2210000Y3300063D01*
X1920000Y1959560D02*
X2150000Y2189561D01*
X2030000Y3430000D02*
X2150000Y3310000D01*
X2650002Y3850003D02*
X2680001D01*
X2979871Y3620400D02*
X3260400D01*
X1692502Y1059998D02*
Y1061863D01*
X4019999Y658501D02*
X4091499D01*
X4130000Y620000D01*
X2389998Y310002D02*
Y542498D01*
X1900000Y2500000D02*
Y2540000D01*
X1900006Y2540006D02*
Y2591507D01*
X1900000Y2540000D02*
X1900006Y2540006D01*
Y2591507D02*
X1908506Y2600007D01*
X1922996D01*
X1970000Y2647012D01*
X1869999Y2734998D02*
X1910000Y2694998D01*
X1900006Y2648510D02*
X1901500D01*
X1910000Y2657010D01*
Y2694998D01*
X1869999Y2734998D02*
Y2739998D01*
X1873116Y2648510D02*
X1900006D01*
X1824606Y2600000D02*
X1873116Y2648510D01*
X2730001Y350001D02*
X2795858Y415858D01*
X2710000Y350001D02*
X2730001D01*
X2804142Y415858D02*
X2810000Y410000D01*
X2795858Y415858D02*
X2804142D01*
X3507071Y1317071D02*
X3510785Y1503747D01*
X3329998Y1240124D02*
Y1371503D01*
X3410002Y1270065D02*
Y1371498D01*
X2575003Y1500000D02*
X2760000D01*
X2510002Y1434999D02*
X2575003Y1500000D01*
X2510002Y1427499D02*
Y1434999D01*
X2600000Y877782D02*
X2660000Y817782D01*
X2600000Y877782D02*
Y939998D01*
X2660000Y735385D02*
Y800000D01*
Y817782D01*
X2350000Y1200439D02*
X2498038Y1052401D01*
X2660000Y735385D02*
X2700000Y695385D01*
X2694805Y690190D02*
X2700000Y695385D01*
X2979110Y1090890D02*
Y1661117D01*
X3162498Y707502D02*
X3230001D01*
X2989999Y761498D02*
X2998499Y769998D01*
X3005855D01*
X3005857Y770000D01*
X3170001Y1427001D02*
X3259996D01*
X4630002Y2279997D02*
X4660002D01*
X4620002Y2269997D02*
X4630002Y2279997D01*
X4620002Y2264997D02*
X4640000Y2244999D01*
X4394997Y590000D02*
X4436497Y548500D01*
X3380000Y2620000D02*
X3739664D01*
X3490001Y572502D02*
X3639998D01*
X2685005Y4044999D02*
X2999998D01*
X2345001Y4045002D02*
X2669999D01*
X2820002Y689999D02*
Y789563D01*
X2920000Y689997D02*
X2939998Y669999D01*
X2920000Y689997D02*
Y790000D01*
X2889600Y450840D02*
Y547101D01*
Y450840D02*
X3010439Y330000D01*
X3227994D01*
X2889600Y547101D02*
X2924998Y582499D01*
X3137500Y480000D02*
X3230001Y572501D01*
X2960000Y480000D02*
X3137500D01*
X3227994Y330000D02*
X3430000Y532006D01*
X2924998Y584999D02*
X2929998Y589999D01*
X2924998Y582499D02*
Y584999D01*
X2410000Y950000D02*
X2410749Y950749D01*
X2509250D01*
X2509999Y951498D01*
X2510000Y951497D01*
X2510002Y677500D02*
X2520001Y687499D01*
X2619998D01*
X2389998Y677499D02*
X2510001D01*
X2510002Y677500D01*
X2390000Y542499D02*
X2510002D01*
X2389998Y542498D02*
X2390000Y542499D01*
X2900000Y2140000D02*
Y2450000D01*
X3499999Y3049999D02*
X3610004D01*
X2900000Y2450000D02*
X3499999Y3049999D01*
X1920400Y1480400D02*
Y1709160D01*
X1720000Y1280000D02*
X1920400Y1480400D01*
X1920000Y1709561D02*
Y1959560D01*
Y1709561D02*
X1920400Y1709160D01*
X1660013Y1680000D02*
X1850000D01*
X1990000Y1812800D02*
Y1960000D01*
X2057471Y1687471D02*
X2060400Y1690400D01*
X2060401Y1912116D02*
X2060799Y1810452D01*
X2060401Y1912116D02*
Y1920400D01*
X2063329Y1923329D01*
X2040400Y1670400D02*
X2057471Y1687471D01*
X2060400Y1690400D02*
X2060799Y1809638D01*
X1990000Y1812800D02*
X1990400Y1810000D01*
X2063329Y1923329D02*
X2270000Y2130000D01*
X1660006Y1679993D02*
X1660013Y1680000D01*
X1860400Y1960840D02*
Y2200000D01*
X1598694Y1699133D02*
X1860400Y1960840D01*
X1770000Y3720000D02*
X1959600Y3530400D01*
Y2850400D02*
Y3530400D01*
X1870000Y2839999D02*
Y3510000D01*
X1640800Y3720000D02*
X1770000D01*
X1591845Y3821845D02*
X1630000Y3860000D01*
X1591845Y3821845D02*
X1591845D01*
X1500000Y3490000D02*
Y3730000D01*
X1591845Y3821845D01*
X1640000Y3719200D02*
X1640800Y3720000D01*
X2389998Y310002D02*
X2460000Y240000D01*
X2464409Y195591D02*
Y235591D01*
Y195591D02*
X2570000Y90000D01*
X1790000Y820874D02*
Y930000D01*
X1719126Y750000D02*
X1790000Y820874D01*
X1681499Y750000D02*
X1719126D01*
X1439993Y2448493D02*
X1490400Y2498899D01*
Y2580000D02*
X1490400Y2580000D01*
X1490400Y2498899D02*
Y2580000D01*
X3689603Y4019600D02*
X4369537D01*
X3600001Y3929998D02*
X3689603Y4019600D01*
X3570841Y3859598D02*
X4100402D01*
X4700000Y3260000D01*
X3570047Y3860393D02*
X3570841Y3859598D01*
X3110394Y3860393D02*
X3570047D01*
X3360000Y4870000D02*
X3430000Y4940000D01*
X3360000Y4330000D02*
Y4870000D01*
Y4330000D02*
X3610401Y4079599D01*
X4000000Y4890000D02*
Y4910000D01*
X3952529Y4842529D02*
X4000000Y4890000D01*
X2900000Y2140000D02*
X3380000Y2620000D01*
X3729998Y2520001D02*
X3735030Y2514969D01*
X4530000D01*
X3445049Y2865997D02*
X3750000D01*
X4161367Y3149994D02*
X4169992Y3141369D01*
X3949994Y3149994D02*
X4161367D01*
X3750000Y2950000D02*
X3949994Y3149994D01*
X4530000Y2464999D02*
Y2514969D01*
Y2464999D02*
X4620002Y2374997D01*
X4530000Y2514969D02*
X4585031D01*
X4635004Y2464996D01*
X4530000Y2630766D02*
X4642897Y2517869D01*
X4570000Y2640829D02*
Y3280000D01*
Y2640829D02*
X4642963Y2567866D01*
X4530000Y2630766D02*
Y3250000D01*
X4620002Y2369997D02*
Y2374997D01*
X4635004Y2464996D02*
X4656500D01*
X4610000Y2661499D02*
X4656500Y2614999D01*
X4610000Y2661499D02*
Y3299937D01*
X3801987Y4839217D02*
X3952529Y4842529D01*
X4120000Y4240000D02*
Y4244997D01*
X4653630Y2517869D02*
X4656500Y2514999D01*
X4642897Y2517869D02*
X4653630D01*
Y2567866D02*
X4656500Y2564996D01*
X4642963Y2567866D02*
X4653630D01*
X4700000Y2987502D02*
Y2990002D01*
Y3090002D02*
Y3260000D01*
X4640000Y2244999D02*
Y2249999D01*
Y2120000D02*
Y2244999D01*
X4639999Y2249999D02*
X4640000Y2249999D01*
X3259997Y1427000D02*
X3260000Y1427003D01*
Y1520000D02*
X3270000Y1530000D01*
X3260000Y1427003D02*
Y1520000D01*
X3510800Y1503747D02*
Y1549200D01*
X3470000Y1590000D02*
X3510800Y1549200D01*
X3340000Y1590000D02*
X3470000D01*
X3270000Y1530000D02*
X3280000D01*
X3340000Y1590000D01*
X3279998Y1849998D02*
X3290000Y1860000D01*
X3210002Y1849998D02*
X3279998D01*
X3200001Y1859999D02*
X3210002Y1849998D01*
X3864142Y653359D02*
X3865002Y652499D01*
X3862002Y655499D02*
X3864142Y653359D01*
X3639998Y572502D02*
X3668751D01*
X2570000Y400000D02*
Y460000D01*
X2619998Y509998D02*
Y592498D01*
X2570000Y460000D02*
X2619998Y509998D01*
X2652100Y422100D02*
X2670000Y440000D01*
X2652100Y257900D02*
Y422100D01*
X2670000Y440000D02*
X2699999D01*
X2700002Y440003D01*
X2652100Y257900D02*
X2710000Y200000D01*
X2919998Y589999D02*
X2924998Y584999D01*
X2812499Y614999D02*
X2827502D01*
X2700002Y440003D02*
Y590000D01*
Y440003D02*
X2710000Y450001D01*
X2720002Y590000D02*
X2820001D01*
X2700002D02*
X2720002D01*
X3430000Y630001D02*
X3507501Y707502D01*
X3430000Y532006D02*
Y630001D01*
X3878962Y702401D02*
X4167599D01*
X3864142Y653359D02*
Y687581D01*
X3878962Y702401D01*
X2619998Y687499D02*
X2697497D01*
X2350000Y1200439D02*
Y1330000D01*
X2929059Y1052401D02*
X2931460Y1050000D01*
X3210400Y869976D02*
Y870000D01*
X2694805Y690190D02*
X2697497Y687499D01*
X4167599Y702401D02*
X4280000Y590000D01*
X3757213Y740000D02*
X4250000D01*
X3485859Y568358D02*
X3490001Y572501D01*
X3770002Y3290002D02*
Y3439998D01*
X3720000Y3490000D02*
X3770002Y3439998D01*
X3020000Y1820000D02*
X3078501D01*
X2900000Y1857503D02*
X2910001Y1847502D01*
X2900000Y1857503D02*
Y2140000D01*
X2560000Y2080000D02*
Y2890000D01*
X2620000Y2160000D02*
Y2899937D01*
X2690000Y2220000D02*
Y2919874D01*
X2620000Y2160000D02*
X2700000Y2080000D01*
X2560000Y2080000D02*
X2700000Y1940000D01*
X2690000Y2220000D02*
X2700000Y2210000D01*
X2864448Y3834511D02*
X3000002D01*
X3751505Y3308499D02*
X3770002Y3290002D01*
X3660000Y3308499D02*
X3751505D01*
X3660000Y3251501D02*
X3661499D01*
X3722998Y3190002D01*
X1740001Y3240001D02*
X1779999D01*
X2205000Y3305063D02*
Y3305063D01*
X3770000Y490000D02*
X3770001Y490001D01*
Y593001D01*
X4670000Y126296D02*
X4900000Y356296D01*
X4670000Y120000D02*
Y126296D01*
X4620002Y2264997D02*
Y2269997D01*
X4743500Y2614999D02*
Y2656500D01*
X4690002Y2709998D02*
X4743500Y2656500D01*
X4280000Y590000D02*
X4394997D01*
X3299600Y969600D02*
X3300000Y970000D01*
X3340840Y789600D02*
X3407903D01*
X3490001Y707502D01*
X3299600Y830840D02*
X3340840Y789600D01*
X3370000Y860000D02*
X4580000D01*
X3299600Y830840D02*
Y969600D01*
X4580000Y860000D02*
X4900000Y540000D01*
X3230001Y572501D02*
X3349997D01*
X3349999Y572498D01*
X4880002Y2199998D02*
X4881061D01*
X4896822Y2215759D01*
Y2216818D01*
X4743500Y2336500D02*
X4880002Y2199998D01*
X4743500Y2336500D02*
Y2464996D01*
X1640000Y2710000D02*
X1643639D01*
X1673639Y2740000D01*
X1640000Y2710000D02*
Y2813003D01*
X1760001Y3309999D02*
Y3450410D01*
X1720410Y3490000D02*
X1760001Y3450410D01*
X1650010Y3520010D02*
X1730000Y3600000D01*
X1650010Y3258510D02*
Y3520010D01*
X2329999Y3845001D02*
Y3940001D01*
Y3840000D02*
Y3845001D01*
X1520008Y931510D02*
X1521508D01*
X1605000Y848018D01*
X1510002Y779999D02*
X1510003Y780000D01*
X1560000D01*
X1300000Y944998D02*
Y949998D01*
Y944998D02*
X1320000Y924998D01*
X1325000D01*
X1470000Y779999D01*
X1510002D01*
X1419994Y949998D02*
X1419998Y950002D01*
X1300000Y949998D02*
X1419994D01*
X1453503Y988508D02*
X1520008D01*
X1419994Y954998D02*
X1453503Y988508D01*
X1419994Y949998D02*
Y954998D01*
X1692501Y960000D02*
X1692502Y959998D01*
X1630000Y960000D02*
X1692501D01*
X1419998Y1050002D02*
X1539998D01*
X1630000Y960000D01*
X1419998Y1050002D02*
X1420000Y1050004D01*
Y1250000D01*
X1300000Y1049999D02*
X1300000Y1049998D01*
X1419994D01*
X1419998Y1050002D01*
X1300000Y1049999D02*
Y1240000D01*
X1410001Y1330001D02*
Y2029999D01*
X1249600Y1620400D02*
X1330000Y1540000D01*
Y1890000D02*
Y2350002D01*
X1320000Y2360002D02*
X1330000Y2350002D01*
X1249600Y2949600D02*
X1390000Y3090000D01*
X1249600Y1620400D02*
Y2949600D01*
X1320000Y2360002D02*
X1349999Y2390001D01*
X1490000Y1880000D02*
X1492448Y2442448D01*
X1566465Y2516466D02*
Y2733495D01*
X1492448Y2442448D02*
X1566465Y2516466D01*
X1710010Y2347015D02*
X1749192Y2386198D01*
X1695515Y2347015D02*
X1710010D01*
X1749192Y2386198D02*
Y2490369D01*
X1690010Y2341510D02*
X1695515Y2347015D01*
X1959600Y2850400D02*
X1970000Y2840000D01*
Y2647012D02*
Y2740000D01*
Y2840000D02*
X2090000D01*
X2670000Y4045002D02*
X2685001D01*
X2670000D02*
Y4180000D01*
Y4040001D02*
Y4045002D01*
X2669999Y4040000D02*
X2670000Y4040001D01*
X3790000Y4250000D02*
X3860000Y4320000D01*
Y4340000D01*
X3989996Y4140000D02*
X4120001D01*
X4120002Y4139999D01*
X3759999D02*
X3759999Y4140000D01*
X3989996D01*
X3650000D02*
X3759998D01*
X3759999Y4139999D01*
X3170001Y1427001D02*
Y1428502D01*
X3329998Y1428500D02*
X3329998Y1428501D01*
X3410002D01*
X3078501Y1820000D02*
X3079999Y1818502D01*
X2910001Y1847502D02*
X2992498D01*
X3020000Y1820000D01*
X2979110Y1661117D02*
X2999493Y1681500D01*
X3000000D01*
X2900000Y1580000D02*
Y1702500D01*
X2910001Y1712501D01*
X3000000Y1681500D02*
X3069999Y1751499D01*
X3078499Y1761499D02*
X3079999D01*
X3069999Y1752999D02*
X3078499Y1761499D01*
X3069999Y1751499D02*
Y1752999D01*
X2820002Y589999D02*
X2919998D01*
X2820001Y590000D02*
X2820002Y589999D01*
X3668751Y572502D02*
X3750001Y653752D01*
X3775254D01*
X3780001Y658499D01*
X3724716Y707503D02*
X3757213Y740000D01*
X3609998Y707503D02*
X3724716D01*
X4900000Y356296D02*
Y540000D01*
X4805001Y375000D02*
X4810001Y379999D01*
X4665000Y375000D02*
X4805001D01*
X4660000Y370000D02*
X4665000Y375000D01*
X3079999Y1761499D02*
X3198501D01*
X3200001Y1759999D01*
X3778501Y601501D02*
X3780001D01*
X3770001Y593001D02*
X3778501Y601501D01*
X3862002Y604501D02*
X3865002Y607501D01*
X3783001Y604501D02*
X3862002D01*
X3780001Y601501D02*
X3783001Y604501D01*
Y655499D02*
X3862002D01*
X3780001Y658499D02*
X3783001Y655499D01*
X3949999Y601498D02*
X4019999D01*
X3934999Y616498D02*
X3949999Y601498D01*
X3934999Y616498D02*
Y630000D01*
X3259996Y1427001D02*
X3259997Y1427000D01*
X2700000Y1940000D02*
Y1940000D01*
X4436497Y548500D02*
X4509998D01*
X4510747Y549249D01*
X4649252D01*
X4650000Y549998D01*
X4401495Y491498D02*
X4509998D01*
X4399997Y490000D02*
X4401495Y491498D01*
X4250000Y490000D02*
X4399997D01*
X4743500Y2564996D02*
X4746370Y2567866D01*
X4787871D01*
X4700003Y2319998D02*
Y2439998D01*
X4700000Y2440000D02*
X4700003Y2439998D01*
X4660002Y2279997D02*
X4700003Y2319998D01*
X2035000Y3475063D02*
X2205000Y3305063D01*
X2997713Y3747291D02*
X3000002Y3745002D01*
X2994784Y3750220D02*
X2997713Y3747291D01*
X4340032Y3940031D02*
X4450000Y4050000D01*
X3810000Y3940031D02*
X4340032D01*
X4369537Y4019600D02*
X4510000Y4160063D01*
X3610401Y4079599D02*
X4219599D01*
X4230000Y4090000D01*
X2035000Y3825000D02*
X2056109Y3846109D01*
Y3847168D01*
X2075000Y3866058D01*
X2035000Y3502495D02*
Y3825000D01*
Y3502495D02*
Y3502495D01*
Y3475063D02*
Y3487506D01*
X4700000Y2440000D02*
Y2490000D01*
Y2590000D01*
X4510000Y4320000D02*
Y4570000D01*
X4650000Y4250000D02*
Y4320000D01*
X4450000Y4050000D02*
X4650000Y4250000D01*
X4510000Y4160063D02*
Y4320000D01*
X4450000Y4050000D02*
X4450000D01*
X3759999Y4239999D02*
X3769999Y4250000D01*
X3790000D01*
Y4250000D01*
X3989996Y4240000D02*
X4120000D01*
X3650000D02*
X3759998D01*
X3759999Y4239999D01*
X1560000Y3090000D02*
X1750000Y2900000D01*
X1770000Y3100000D02*
Y3200000D01*
X1370000Y3379560D02*
X1805399Y2944161D01*
Y2659604D02*
Y2944161D01*
X1390000Y3090000D02*
X1559200D01*
X1370000Y3379560D02*
Y3700000D01*
X3610004Y2950000D02*
X3750000D01*
X3610004Y2949999D02*
X3610004Y2950000D01*
X2669999Y3840001D02*
X2680000Y3850002D01*
X2669999Y3940001D02*
X2680000Y3930000D01*
Y3850002D02*
Y3930000D01*
X2999998Y3840005D02*
Y3939999D01*
Y3840005D02*
X3000002Y3840001D01*
X2345004Y3944999D02*
X2495003D01*
X2244999Y3845001D02*
X2329999D01*
Y3839999D02*
X2329999Y3840000D01*
X2329992Y3729993D02*
X2345001Y3745002D01*
X2219996Y3729993D02*
X2329992D01*
X2110001Y3690000D02*
X2205400Y3594600D01*
X1559200Y3090000D02*
X1559600Y3089600D01*
X1790000Y420000D02*
X1870000D01*
X1590000Y620000D02*
X1790000Y420000D01*
X1590000Y620000D02*
Y750000D01*
X1824606Y2404669D02*
Y2600000D01*
X1754600Y2334663D02*
X1824606Y2404669D01*
X1754600Y2334608D02*
Y2334663D01*
X1705000Y2285008D02*
X1754600Y2334608D01*
X1530000Y2769961D02*
Y2830000D01*
Y2769961D02*
X1566465Y2733495D01*
X1640000Y2813003D02*
X1641500D01*
X1673639Y2740000D02*
X1749999D01*
X1530000Y2930000D02*
X1578500D01*
X1638500Y2870000D01*
X1640000D01*
X1460000Y2930000D02*
X1530000D01*
X1349600Y2870000D02*
X1400000D01*
X1460000Y2930000D01*
X1590000Y2410004D02*
Y2444205D01*
X1805399Y2659604D01*
X2685001Y4045002D02*
X2685005Y4044999D01*
X1330000Y4020000D02*
X1429996D01*
X1449997Y4000000D01*
X1449999Y4000002D01*
X1681982Y848018D02*
X1690000Y840000D01*
Y840000D02*
X1699782Y830217D01*
X1690000Y840000D02*
Y840000D01*
X1598694Y1459088D02*
Y1699133D01*
X2075000Y3885000D02*
X2205000D01*
X2244999Y3845001D01*
X1589606Y1450000D02*
X1598694Y1459088D01*
X1590000Y1250000D02*
Y1449606D01*
X1415859Y2295859D02*
X1420399Y2300000D01*
X1410000Y2290000D02*
X1415859Y2295859D01*
X1410000Y2149997D02*
Y2290000D01*
X1349600Y2870000D02*
X1355347Y2864253D01*
X1579997Y2400001D02*
X1590000Y2410004D01*
X1579997Y2400001D02*
X1581491Y2398508D01*
X1560000Y780000D02*
X1590000Y750000D01*
X1605000Y848018D02*
X1681982D01*
X1510000Y530000D02*
Y560000D01*
X1510002Y560002D02*
Y679999D01*
X1510000Y560000D02*
X1510002Y560002D01*
X1680006Y748507D02*
X1681499Y750000D01*
X1680006Y748507D02*
X1681505D01*
X1680006Y691509D02*
X1684251Y695755D01*
X1795755D01*
X1800000Y700000D01*
X1589606Y1450000D02*
X1590000Y1449606D01*
X2685001Y3945002D02*
X2685001Y3945003D01*
X2685004Y3945000D02*
X2825000D01*
X2345001Y3945003D02*
X2345004Y3944999D01*
X2685001Y3945003D02*
X2685004Y3945000D01*
X1760001Y3209999D02*
X1770000Y3200000D01*
X1751509Y3201507D02*
X1760001Y3209999D01*
X1650010Y3201507D02*
X1751509D01*
X1579997Y2300001D02*
X1580000Y2299999D01*
Y2170000D02*
Y2299999D01*
X1705000Y1905000D02*
Y2285008D01*
X1869999Y2839998D02*
X1870000Y2839999D01*
X1750000Y2840001D02*
Y2900000D01*
X1449999Y3895002D02*
Y3900002D01*
X1429999Y3875002D02*
X1449999Y3895002D01*
X1325002Y3875002D02*
X1429999D01*
X1320000Y3870000D02*
X1325002Y3875002D01*
X1578494Y3951493D02*
X1579994D01*
X1527003Y3900002D02*
X1578494Y3951493D01*
X1449999Y3900002D02*
X1527003D01*
X1449999Y4000002D02*
X1458488Y4008491D01*
X1579994D01*
X1581491Y2398508D02*
X1690010D01*
X1749999Y2840000D02*
X1750000Y2840001D01*
X1390002Y2129999D02*
X1410001D01*
X1390002D02*
X1410000Y2149997D01*
X1480000Y2710000D02*
X1490400D01*
X1349999Y2390001D02*
X1351493Y2391495D01*
X1349999Y2490001D02*
X1350000Y2490002D01*
Y2580000D01*
X1480000Y2710000D01*
X1351493Y2391495D02*
X1439993D01*
D32*
X4700000Y2990002D02*
D03*
Y3090002D02*
D03*
X2090000Y2840000D02*
D03*
Y2740000D02*
D03*
X2329999Y3839999D02*
D03*
Y3740000D02*
D03*
X2669999Y3740001D02*
D03*
Y3840001D02*
D03*
X3000002D02*
D03*
Y3740001D02*
D03*
X1579997Y2300001D02*
D03*
Y2400001D02*
D03*
X2130001Y559999D02*
D03*
Y459999D02*
D03*
X1510002Y779999D02*
D03*
Y679999D02*
D03*
X2999998Y4039999D02*
D03*
Y3939999D02*
D03*
X2669999Y4040000D02*
D03*
Y3940001D02*
D03*
X2329999Y4040000D02*
D03*
Y3940001D02*
D03*
X2720002Y690000D02*
D03*
Y590000D02*
D03*
X2820002Y589999D02*
D03*
Y689999D02*
D03*
X3089999Y1480001D02*
D03*
Y1380001D02*
D03*
X2929998Y589999D02*
D03*
Y689999D02*
D03*
X2710000Y350001D02*
D03*
Y450001D02*
D03*
X3180001Y1759999D02*
D03*
Y1859999D02*
D03*
D57*
X3780000Y240002D02*
D03*
X4459999D02*
D03*
D58*
X2020000Y4860000D02*
D03*
X2401000D02*
D03*
D59*
X2940003Y1090002D02*
D03*
Y1010002D02*
D03*
X2940000Y970000D02*
D03*
Y1050000D02*
D03*
X2980000Y1090000D02*
D03*
X3060002Y1090002D02*
D03*
X3060000Y1010000D02*
D03*
X3020000Y970000D02*
D03*
X3060000D02*
D03*
Y1050000D02*
D03*
X3020000Y1090000D02*
D03*
D60*
X2756552Y1265862D02*
D03*
X3100000Y770000D02*
D03*
D03*
X2690000Y1130000D02*
D03*
X2140000Y230000D02*
D03*
X1790000Y560000D02*
D03*
X2160000Y740000D02*
D03*
X2460000Y240000D02*
D03*
X4169992Y3141369D02*
D03*
X2860000Y3670000D02*
D03*
X3720000Y3490000D02*
D03*
X3530000Y3470000D02*
D03*
X2690220Y3509780D02*
D03*
X2075000Y3885000D02*
D03*
X4530000Y2514969D02*
D03*
X4290000Y4890000D02*
D03*
X4670000Y4830000D02*
D03*
X1791091Y1081863D02*
D03*
X3190000Y3740400D02*
D03*
X3110394Y3860393D02*
D03*
X3950000Y3629600D02*
D03*
X3420000Y3620000D02*
D03*
X2460000Y3780000D02*
D03*
X2464600Y3665000D02*
D03*
X4880000Y2170000D02*
D03*
X4869600Y2520000D02*
D03*
Y2649998D02*
D03*
X3440400Y1505220D02*
D03*
X4130000Y620000D02*
D03*
X1900000Y2500000D02*
D03*
X2810000Y410000D02*
D03*
X2760000Y1500000D02*
D03*
X2600000Y939998D02*
D03*
X2660000Y800000D02*
D03*
X2920000Y790000D02*
D03*
X2960000Y480000D02*
D03*
X2410000Y950000D02*
D03*
X1850000Y1680000D02*
D03*
X1990400Y1810000D02*
D03*
X2040400Y1670400D02*
D03*
X1870000Y3510000D02*
D03*
X1630000Y3860000D02*
D03*
X1640000Y3719200D02*
D03*
X1790000Y930000D02*
D03*
X3600001Y3929998D02*
D03*
X3360000Y4870000D02*
D03*
X4000000Y4910000D02*
D03*
X3800439Y4909600D02*
D03*
X4510000Y4320000D02*
D03*
X4234200Y4345769D02*
D03*
X4689937Y2730000D02*
D03*
X4640000Y2120000D02*
D03*
X3189999Y1620001D02*
D03*
X3290000Y1860000D02*
D03*
X2570000Y400000D02*
D03*
X3210400Y870000D02*
D03*
X4250000Y740000D02*
D03*
X2900000Y2140000D02*
D03*
X2270000Y2130000D02*
D03*
X3770000Y490000D02*
D03*
X4670000Y120000D02*
D03*
X3300000Y970000D02*
D03*
X3370000Y860000D02*
D03*
X1640000Y2710000D02*
D03*
X1720410Y3490000D02*
D03*
X1420000Y1250000D02*
D03*
X1330000Y1520000D02*
D03*
Y1890000D02*
D03*
X1490400Y2580000D02*
D03*
X1749192Y2490369D02*
D03*
X2670000Y4180000D02*
D03*
X3860000Y4340000D02*
D03*
X4244200Y4230000D02*
D03*
X3270000Y1530000D02*
D03*
X2900000Y1580000D02*
D03*
X3770000Y740000D02*
D03*
X4660000Y370000D02*
D03*
X2700000Y2080000D02*
D03*
Y1940000D02*
D03*
Y2210000D02*
D03*
X4250000Y490000D02*
D03*
X3810000Y3940031D02*
D03*
X4230000Y4090000D02*
D03*
X4650000Y4320000D02*
D03*
X3524268Y4869600D02*
D03*
X1720000Y1280000D02*
D03*
X1559600Y3089600D02*
D03*
X1770000Y3100000D02*
D03*
X2219996Y3729993D02*
D03*
X2110001Y3690000D02*
D03*
X2030000Y3430000D02*
D03*
X1730000Y3600000D02*
D03*
X2330000Y3515000D02*
D03*
X1330000Y4020000D02*
D03*
X1699782Y830217D02*
D03*
X1589606Y1450000D02*
D03*
X1860400Y2200000D02*
D03*
X1790000Y2029600D02*
D03*
X1420399Y2300000D02*
D03*
X1349600Y2870000D02*
D03*
X1870000Y420000D02*
D03*
X1510000Y530000D02*
D03*
X1800000Y700000D02*
D03*
X1590000Y1250000D02*
D03*
X1580000Y2170000D02*
D03*
X1705000Y1905000D02*
D03*
X1370000Y3700000D02*
D03*
X1320000Y3870000D02*
D03*
X1490400Y2710000D02*
D03*
X1490000Y1880000D02*
D03*
D61*
X1660006Y1679993D02*
D03*
X1500000Y3490000D02*
D03*
D76*
X2029998Y559999D02*
D03*
Y459999D02*
D03*
X4439999Y4789999D02*
D03*
Y4889999D02*
D03*
X4560002Y4789999D02*
D03*
Y4889999D02*
D03*
X4399998Y489999D02*
D03*
Y589999D02*
D03*
X4639999Y2349999D02*
D03*
Y2249999D02*
D03*
X1692502Y1059998D02*
D03*
Y959998D02*
D03*
X1449999Y4000002D02*
D03*
Y3900002D02*
D03*
X1530000Y2830000D02*
D03*
Y2930000D02*
D03*
X1410001Y2129999D02*
D03*
Y2029999D02*
D03*
X1749999Y2840000D02*
D03*
Y2740000D02*
D03*
X1869999Y2839998D02*
D03*
Y2739998D02*
D03*
X1349999Y2390001D02*
D03*
Y2490001D02*
D03*
X1760001Y3309999D02*
D03*
Y3209999D02*
D03*
X1970000Y2740000D02*
D03*
Y2840000D02*
D03*
X1300000Y1240000D02*
D03*
Y1340000D02*
D03*
X1419998Y1050002D02*
D03*
Y950002D02*
D03*
X1300000Y1049998D02*
D03*
Y949998D02*
D03*
X3729998Y2620000D02*
D03*
Y2520001D02*
D03*
X3610004Y3049999D02*
D03*
Y2949999D02*
D03*
X3770002Y3190002D02*
D03*
Y3290002D02*
D03*
X3650000Y4140000D02*
D03*
Y4240000D02*
D03*
X3759999Y4139999D02*
D03*
Y4239999D02*
D03*
X3989996Y4140000D02*
D03*
Y4240000D02*
D03*
X4120002Y4139999D02*
D03*
Y4239999D02*
D03*
D77*
X3170001Y1428502D02*
D03*
Y1371499D02*
D03*
X3410002Y1428501D02*
D03*
Y1371498D02*
D03*
X1520008Y931510D02*
D03*
Y988508D02*
D03*
X3780001Y601501D02*
D03*
Y658499D02*
D03*
X4019999Y658501D02*
D03*
Y601498D02*
D03*
X1900006Y2591507D02*
D03*
Y2648510D02*
D03*
X1579994Y4008491D02*
D03*
Y3951493D02*
D03*
X1640000Y2813003D02*
D03*
Y2870000D02*
D03*
X1439993Y2391495D02*
D03*
Y2448493D02*
D03*
X4509998Y491498D02*
D03*
Y548500D02*
D03*
X1650010Y3258510D02*
D03*
Y3201507D02*
D03*
X1690010Y2398508D02*
D03*
Y2341510D02*
D03*
X1680006Y748507D02*
D03*
Y691509D02*
D03*
X3660000Y3251501D02*
D03*
Y3308499D02*
D03*
X3329998Y1371503D02*
D03*
Y1428500D02*
D03*
X3259997Y1370003D02*
D03*
Y1427000D02*
D03*
X2509999Y1008501D02*
D03*
Y951498D02*
D03*
X2989999Y761498D02*
D03*
Y818501D02*
D03*
X3079999Y1761499D02*
D03*
Y1818502D02*
D03*
D78*
X3230001Y572501D02*
D03*
Y707502D02*
D03*
X3520001Y572501D02*
D03*
Y707502D02*
D03*
X2389998Y542498D02*
D03*
Y677499D02*
D03*
X3639998Y572502D02*
D03*
Y707503D02*
D03*
X3349999Y707499D02*
D03*
Y572498D02*
D03*
X2910001Y1712501D02*
D03*
Y1847502D02*
D03*
X2510002Y677500D02*
D03*
Y542499D02*
D03*
X2630000Y1417499D02*
D03*
Y1282498D02*
D03*
D79*
X3460000Y2870000D02*
D03*
X4510000Y4570000D02*
D03*
X2824998Y3944999D02*
D03*
X2470001Y3939998D02*
D03*
X3139998Y4010001D02*
D03*
X2710000Y200000D02*
D03*
X2350000Y1360000D02*
D03*
X4810001Y379999D02*
D03*
X4650000Y549998D02*
D03*
D80*
X3934999Y630000D02*
D03*
D81*
X3865002Y607501D02*
D03*
Y652499D02*
D03*
D82*
X4743500Y2464996D02*
D03*
Y2514999D02*
D03*
Y2564996D02*
D03*
Y2614999D02*
D03*
X4700000Y2490000D02*
D03*
Y2590000D02*
D03*
X4656500Y2464996D02*
D03*
Y2514999D02*
D03*
Y2564996D02*
D03*
Y2614999D02*
D03*
D83*
X3750000Y2865997D02*
D03*
Y2950000D02*
D03*
D84*
X2510002Y1427499D02*
D03*
Y1332498D02*
D03*
X2619998Y687499D02*
D03*
Y592498D02*
D03*
%TF.MD5,7f9ddedd5981d72508205188b62f28af*%
M02*
