%TF.GenerationSoftware,Altium Limited,Altium Designer,20.1.11 (218)*%
G04 Layer_Color=16711935*
%FSLAX45Y45*%
%MOMM*%
%TF.SameCoordinates,C7425212-4277-447C-8971-9BA6FDDE4791*%
%TF.FilePolarity,Positive*%
%TF.FileFunction,Other,Top_Assembly*%
%TF.Part,Single*%
G01*
G75*
%TA.AperFunction,NonConductor*%
%ADD51C,0.20000*%
%ADD190C,0.05000*%
G36*
X4638824Y3080189D02*
X4638732D01*
X4638362D01*
X4637807D01*
X4637068Y3080281D01*
X4636236Y3080374D01*
X4635311Y3080559D01*
X4634386Y3080744D01*
X4633369Y3081113D01*
X4633277D01*
X4633185Y3081206D01*
X4632630Y3081391D01*
X4631798Y3081761D01*
X4630688Y3082315D01*
X4629394Y3083055D01*
X4627915Y3083980D01*
X4626435Y3084997D01*
X4624863Y3086291D01*
X4624771D01*
X4624679Y3086476D01*
X4624124Y3086938D01*
X4623292Y3087770D01*
X4622090Y3088972D01*
X4620703Y3090359D01*
X4619039Y3092116D01*
X4617190Y3094242D01*
X4615248Y3096554D01*
X4615156Y3096646D01*
X4614878Y3097016D01*
X4614416Y3097571D01*
X4613861Y3098218D01*
X4613122Y3099050D01*
X4612289Y3100067D01*
X4611365Y3101084D01*
X4610348Y3102286D01*
X4608129Y3104597D01*
X4605910Y3106909D01*
X4604801Y3108018D01*
X4603691Y3109035D01*
X4602674Y3109960D01*
X4601657Y3110699D01*
X4601565D01*
X4601472Y3110884D01*
X4601195Y3111069D01*
X4600825Y3111254D01*
X4599808Y3111901D01*
X4598606Y3112641D01*
X4597127Y3113288D01*
X4595555Y3113935D01*
X4593798Y3114305D01*
X4592134Y3114490D01*
X4592042D01*
X4591949D01*
X4591394Y3114398D01*
X4590470Y3114305D01*
X4589453Y3114028D01*
X4588158Y3113658D01*
X4586864Y3113011D01*
X4585570Y3112179D01*
X4584275Y3111069D01*
X4584090Y3110884D01*
X4583721Y3110422D01*
X4583258Y3109775D01*
X4582611Y3108758D01*
X4582056Y3107463D01*
X4581502Y3105984D01*
X4581132Y3104227D01*
X4581039Y3102286D01*
Y3101731D01*
X4581132Y3101361D01*
X4581224Y3100252D01*
X4581502Y3098957D01*
X4581871Y3097571D01*
X4582519Y3095999D01*
X4583351Y3094520D01*
X4584460Y3093133D01*
X4584645Y3092948D01*
X4585107Y3092578D01*
X4585847Y3092023D01*
X4586957Y3091469D01*
X4588251Y3090821D01*
X4589915Y3090267D01*
X4591764Y3089897D01*
X4593891Y3089712D01*
X4593059Y3081668D01*
X4592966D01*
X4592689Y3081761D01*
X4592227D01*
X4591579Y3081853D01*
X4590840Y3082038D01*
X4590008Y3082223D01*
X4588991Y3082500D01*
X4587974Y3082778D01*
X4585755Y3083517D01*
X4583536Y3084627D01*
X4582426Y3085274D01*
X4581317Y3086106D01*
X4580300Y3086938D01*
X4579375Y3087863D01*
X4579283Y3087955D01*
X4579190Y3088140D01*
X4578913Y3088417D01*
X4578635Y3088880D01*
X4578266Y3089435D01*
X4577896Y3090082D01*
X4577434Y3090821D01*
X4576971Y3091746D01*
X4576509Y3092763D01*
X4576047Y3093872D01*
X4575677Y3095074D01*
X4575307Y3096369D01*
X4575030Y3097756D01*
X4574752Y3099235D01*
X4574660Y3100807D01*
X4574567Y3102471D01*
Y3103395D01*
X4574660Y3104043D01*
X4574752Y3104782D01*
X4574845Y3105707D01*
X4575030Y3106724D01*
X4575215Y3107741D01*
X4575862Y3110145D01*
X4576786Y3112549D01*
X4577341Y3113750D01*
X4577988Y3114952D01*
X4578820Y3116062D01*
X4579745Y3117079D01*
X4579837Y3117171D01*
X4579930Y3117356D01*
X4580300Y3117541D01*
X4580670Y3117911D01*
X4581132Y3118373D01*
X4581779Y3118836D01*
X4582426Y3119298D01*
X4583258Y3119853D01*
X4585015Y3120777D01*
X4587234Y3121702D01*
X4588343Y3122071D01*
X4589638Y3122256D01*
X4590932Y3122441D01*
X4592319Y3122534D01*
X4592504D01*
X4592966D01*
X4593706Y3122441D01*
X4594723Y3122349D01*
X4595832Y3122164D01*
X4597127Y3121794D01*
X4598514Y3121424D01*
X4599900Y3120870D01*
X4600085Y3120777D01*
X4600548Y3120592D01*
X4601287Y3120222D01*
X4602304Y3119668D01*
X4603414Y3118928D01*
X4604801Y3118003D01*
X4606187Y3116894D01*
X4607759Y3115600D01*
X4607944Y3115415D01*
X4608499Y3114952D01*
X4608961Y3114490D01*
X4609423Y3114028D01*
X4609978Y3113473D01*
X4610718Y3112733D01*
X4611457Y3111994D01*
X4612289Y3111069D01*
X4613214Y3110145D01*
X4614231Y3109035D01*
X4615248Y3107833D01*
X4616450Y3106539D01*
X4617652Y3105060D01*
X4618946Y3103580D01*
X4619039Y3103488D01*
X4619224Y3103303D01*
X4619501Y3102933D01*
X4619871Y3102471D01*
X4620426Y3101916D01*
X4620980Y3101269D01*
X4622182Y3099790D01*
X4623569Y3098218D01*
X4624956Y3096739D01*
X4626158Y3095444D01*
X4626620Y3094889D01*
X4627082Y3094427D01*
X4627175Y3094335D01*
X4627452Y3094057D01*
X4627822Y3093687D01*
X4628377Y3093225D01*
X4629024Y3092763D01*
X4629671Y3092208D01*
X4631243Y3091099D01*
Y3122626D01*
X4638824D01*
Y3080189D01*
D02*
G37*
G36*
X4608406Y3072792D02*
X4609146D01*
X4610903Y3072700D01*
X4612937Y3072423D01*
X4615063Y3072145D01*
X4617282Y3071683D01*
X4619501Y3071128D01*
X4619594D01*
X4619778Y3071036D01*
X4620056Y3070943D01*
X4620426Y3070851D01*
X4621443Y3070481D01*
X4622737Y3069926D01*
X4624216Y3069372D01*
X4625696Y3068632D01*
X4627267Y3067707D01*
X4628747Y3066783D01*
X4628932Y3066690D01*
X4629394Y3066321D01*
X4630041Y3065766D01*
X4630873Y3065026D01*
X4631798Y3064194D01*
X4632722Y3063177D01*
X4633739Y3062160D01*
X4634571Y3060958D01*
X4634664Y3060773D01*
X4634941Y3060403D01*
X4635311Y3059756D01*
X4635773Y3058832D01*
X4636328Y3057722D01*
X4636790Y3056428D01*
X4637345Y3054948D01*
X4637807Y3053284D01*
Y3053099D01*
X4637900Y3052822D01*
X4637992Y3052545D01*
X4638085Y3051620D01*
X4638270Y3050326D01*
X4638455Y3048846D01*
X4638639Y3047090D01*
X4638732Y3045148D01*
X4638824Y3043022D01*
Y3020000D01*
X4574845D01*
Y3044593D01*
X4574937Y3046258D01*
X4575030Y3048107D01*
X4575215Y3049956D01*
X4575492Y3051805D01*
X4575769Y3053377D01*
Y3053469D01*
X4575862Y3053654D01*
Y3053931D01*
X4576047Y3054301D01*
X4576324Y3055318D01*
X4576786Y3056613D01*
X4577434Y3058092D01*
X4578266Y3059664D01*
X4579190Y3061235D01*
X4580392Y3062715D01*
X4580485Y3062807D01*
X4580577Y3062900D01*
X4580854Y3063177D01*
X4581132Y3063547D01*
X4582056Y3064471D01*
X4583351Y3065581D01*
X4584923Y3066783D01*
X4586772Y3068077D01*
X4588898Y3069279D01*
X4591302Y3070296D01*
X4591394D01*
X4591579Y3070389D01*
X4591949Y3070573D01*
X4592504Y3070666D01*
X4593151Y3070943D01*
X4593891Y3071128D01*
X4594723Y3071313D01*
X4595740Y3071591D01*
X4596757Y3071868D01*
X4597959Y3072053D01*
X4600548Y3072515D01*
X4603414Y3072792D01*
X4606557Y3072885D01*
X4606650D01*
X4606835D01*
X4607297D01*
X4607759D01*
X4608406Y3072792D01*
D02*
G37*
%LPC*%
G36*
X4606372Y3064194D02*
X4606280D01*
X4605910D01*
X4605448D01*
X4604708Y3064102D01*
X4603876D01*
X4602951Y3064009D01*
X4601842Y3063917D01*
X4600732Y3063824D01*
X4598236Y3063362D01*
X4595647Y3062807D01*
X4593244Y3061975D01*
X4592042Y3061420D01*
X4591025Y3060866D01*
X4590932D01*
X4590747Y3060681D01*
X4590470Y3060496D01*
X4590100Y3060311D01*
X4589175Y3059571D01*
X4588066Y3058647D01*
X4586864Y3057445D01*
X4585662Y3056058D01*
X4584645Y3054486D01*
X4583813Y3052822D01*
X4583721Y3052637D01*
X4583628Y3052175D01*
X4583351Y3051343D01*
X4583073Y3050141D01*
X4582888Y3048661D01*
X4582611Y3046812D01*
X4582519Y3045703D01*
Y3044501D01*
X4582426Y3043299D01*
Y3028506D01*
X4631243D01*
Y3043669D01*
X4631151Y3044316D01*
X4631058Y3045703D01*
X4630966Y3047275D01*
X4630781Y3048939D01*
X4630503Y3050603D01*
X4630133Y3051990D01*
X4630041Y3052175D01*
X4629949Y3052637D01*
X4629671Y3053284D01*
X4629301Y3054116D01*
X4628747Y3055041D01*
X4628192Y3055965D01*
X4627545Y3056890D01*
X4626805Y3057815D01*
X4626620Y3057907D01*
X4626250Y3058277D01*
X4625603Y3058832D01*
X4624679Y3059479D01*
X4623477Y3060218D01*
X4622090Y3061051D01*
X4620518Y3061790D01*
X4618761Y3062437D01*
X4618669D01*
X4618484Y3062530D01*
X4618207Y3062622D01*
X4617837Y3062715D01*
X4617375Y3062807D01*
X4616727Y3062992D01*
X4616080Y3063177D01*
X4615341Y3063362D01*
X4613491Y3063639D01*
X4611365Y3063917D01*
X4608961Y3064102D01*
X4606372Y3064194D01*
D02*
G37*
%LPD*%
D51*
X4565002Y2895000D02*
Y3145002D01*
X4675000D01*
Y2895000D02*
Y3145002D01*
X4565002Y2895000D02*
X4675000D01*
D190*
X1997500Y808291D02*
X1977507D01*
X1972508Y803293D01*
Y793296D01*
X1977507Y788298D01*
X1997500D01*
X2002498Y793296D01*
Y803293D01*
X1992502Y798295D02*
X2002498Y808291D01*
Y803293D02*
X1997500Y808291D01*
X2002498Y818288D02*
X1972508D01*
X1982505Y828285D01*
X1972508Y838282D01*
X2002498D01*
Y848278D02*
Y858275D01*
Y853277D01*
X1972508D01*
X1977507Y848278D01*
X2002498Y888265D02*
X1972508D01*
X1987503Y873270D01*
Y893264D01*
X1972508Y923254D02*
Y903261D01*
X1987503D01*
X1982505Y913257D01*
Y918256D01*
X1987503Y923254D01*
X1997500D01*
X2002498Y918256D01*
Y908259D01*
X1997500Y903261D01*
X1977507Y933251D02*
X1972508Y938249D01*
Y948246D01*
X1977507Y953244D01*
X1997500D01*
X2002498Y948246D01*
Y938249D01*
X1997500Y933251D01*
X1977507D01*
X2002498Y963241D02*
Y973238D01*
Y968240D01*
X1972508D01*
X1977507Y963241D01*
%TF.MD5,fac82f7973212c51330b9505fae95924*%
M02*
