M48
;Layer_Color=9474304
;FILE_FORMAT=4:4
METRIC,LZ
;TYPE=PLATED
T4F00S00C0.4000
%
T04
X00198001Y0013
X00286Y00137
X0028Y00089
X0026Y00094
X00306001Y00058
X00310001Y0005
X00234001Y00186
X00266001Y00266001
Y00282001
Y00298001
Y00314001
X00286001Y00306001
Y00290001
Y00274001
Y00258001
X00306001Y00266001
Y00282001
Y00298001
Y00314001
X00326001Y00306001
Y00290001
Y00274001
Y00258001
X00346001Y00266001
Y00282001
Y00298001
Y00314001
X00366001Y00306001
Y00290001
Y00274001
Y00258001
X00406453Y00285421
X00426Y00271
X00438001Y0021
X00446001
X00454001
X00486001Y00354001
X00490001Y00362001
X00486001Y00370001
X00490001Y00378001
X00486001Y00418001
X00490001Y00426001
X00486001Y00434001
X00490001Y00442001
X00458001Y00458001
X00450001
X00446001Y00466001
X0042Y00436
X00377Y00437
X00388Y0034996
X00305Y00355
X00182Y00458
M30
