M48
;Layer_Color=9474304
;FILE_FORMAT=4:4
METRIC,LZ
;TYPE=PLATED
T4F00S00C0.4000
%
T04
X00138Y00114
X00142001Y00122
X00146Y0013
X00238001Y00106
X00242001Y00098
X00238001Y0009
X0026Y00094
X00278001Y00122
X00286001
X0031Y00077
X00306001Y0005
X00314001
X00374001Y00074
X00382001
X00466001Y00066
X00474001
X00482001
X00242001Y00034
X00218001
X0021
X00202001
X00185Y00168
X00198001Y00250001
X0017Y00258001
X00166Y00266001
X00146Y00258001
X00157Y00386
X00278001Y00410001
X00286001
X00354001Y00418001
X00366001Y00314001
X00370001Y00306001
X00362001Y00258001
X00354001
X00358001Y00250001
X00350001
X00342001
X00338001Y00242001
X00346001
X00354001
X00342001Y00234001
X00334001
X00326001
X00322001Y00226001
X00330001
X00338001
X00326001Y00218001
X00318001
X00310001
X00306001Y0021
X00314001
X00322001
X00306001Y00162001
M30
