M48
;Layer_Color=9474304
;FILE_FORMAT=4:4
METRIC,LZ
;TYPE=PLATED
T4F00S00C0.4000
%
T04
X00151Y00053
X00179Y00056
X00187Y00042
X00177Y00076191
X00172Y00128
X00159Y00125
X00269Y00113
X00266Y0008
X00292Y00079
X0032104Y00087
X0033Y00097
X00340369Y00087369
X0035Y00078
X00377Y00049
X00425Y00051
X00412Y00082
X00455Y00077
X00488Y00217
Y00252
X0048696Y00265
X00468994Y00273
X00465Y00423
X00451Y00422
X00425Y00424
X00425793Y00407587
X00386Y00425
X00381Y0039296
X0036Y00393
X00342Y00362
X00319Y0037404
X00311Y00383
X00246Y00378
X0024646Y003665
X00233Y003515
X00222Y00372999
X00211Y00369
X002075Y003885
X00203Y00343
X00187Y00351
X00173Y0036
X00164Y0037192
X0015596Y0030896
X00177Y0031
X00149Y00275
X00158008Y00217
X00152Y00205
X0017304Y00194
X0018404Y00202
X00199167Y00209
X0019904Y00181
X00206Y00166
X00158961Y00145
X00276Y0015
X0029Y00158
X00326
X00342Y00152
X00326Y00186
X0027Y00194
Y00208
Y00221
X00229Y00212
X00395Y0036296
X004Y00491
X00380044Y0049096
X00352427Y0048696
X00336Y00487
X0046896Y0047946
X00137Y0037
X00133Y00293
X00139Y00225
X00133Y00188414
X00133Y00152
M30
