%TF.GenerationSoftware,Altium Limited,Altium Designer,20.1.11 (218)*%
G04 Layer_Color=65535*
%FSLAX45Y45*%
%MOMM*%
%TF.SameCoordinates,A720D921-2E1A-4B1E-B03F-C1F3B01285F1*%
%TF.FilePolarity,Positive*%
%TF.FileFunction,Legend,Top*%
%TF.Part,Single*%
G01*
G75*
%TA.AperFunction,NonConductor*%
%ADD53C,0.20000*%
%ADD66C,0.10000*%
%ADD82C,0.15000*%
%ADD83C,0.12500*%
%ADD84C,0.15240*%
%ADD85C,0.25400*%
%ADD109C,0.25000*%
%ADD110C,0.30000*%
D53*
X1866244Y641210D02*
G03*
X1866244Y641210I-5000J0D01*
G01*
X2861000Y1174000D02*
G03*
X2861000Y1174000I-5000J0D01*
G01*
X1377500Y3620000D02*
G03*
X1377500Y3620000I-7500J0D01*
G01*
X1537508Y1809992D02*
G03*
X1537508Y1809992I-7500J0D01*
G01*
X3519999Y2042502D02*
X4934997D01*
X3519999Y897500D02*
Y2042502D01*
Y897500D02*
X4987499D01*
Y1130002D01*
X4934997D02*
X4987499D01*
X4934997D02*
Y2042502D01*
X4539999Y2935000D02*
Y3105002D01*
X4699998Y2935000D02*
Y3105002D01*
X359999Y1480000D02*
Y4479999D01*
X39999Y1480000D02*
X359999D01*
X39999Y4479999D02*
X359999D01*
X39999Y1480000D02*
Y4479999D01*
D66*
X4750016Y2870007D02*
Y2909994D01*
X4770010D01*
X4776674Y2903329D01*
Y2890000D01*
X4770010Y2883336D01*
X4750016D01*
X4763345D02*
X4776674Y2870007D01*
X4790003D02*
X4803332D01*
X4796668D01*
Y2909994D01*
X4790003Y2903329D01*
X4849984Y2870007D02*
X4823326D01*
X4849984Y2896665D01*
Y2903329D01*
X4843319Y2909994D01*
X4829990D01*
X4823326Y2903329D01*
X4596677Y3199994D02*
Y3160007D01*
X4616671D01*
X4623335Y3166671D01*
Y3193329D01*
X4616671Y3199994D01*
X4596677D01*
X4663322Y3160007D02*
X4636664D01*
X4663322Y3186665D01*
Y3193329D01*
X4656658Y3199994D01*
X4643329D01*
X4636664Y3193329D01*
X4446681Y3120007D02*
Y3159994D01*
X4466674D01*
X4473339Y3153329D01*
Y3140000D01*
X4466674Y3133336D01*
X4446681D01*
X4460010D02*
X4473339Y3120007D01*
X4486668D02*
X4499997D01*
X4493332D01*
Y3159994D01*
X4486668Y3153329D01*
X4519990Y3120007D02*
X4533319D01*
X4526655D01*
Y3159994D01*
X4519990Y3153329D01*
X1398347Y3974992D02*
Y3925008D01*
X1431669D01*
X1448331Y3966661D02*
X1456661Y3974992D01*
X1473322D01*
X1481653Y3966661D01*
Y3958331D01*
X1473322Y3950000D01*
X1481653Y3941669D01*
Y3933339D01*
X1473322Y3925008D01*
X1456661D01*
X1448331Y3933339D01*
Y3941669D01*
X1456661Y3950000D01*
X1448331Y3958331D01*
Y3966661D01*
X1456661Y3950000D02*
X1473322D01*
X1606678Y844992D02*
Y795008D01*
X1640000D01*
X1656661D02*
X1673323D01*
X1664992D01*
Y844992D01*
X1656661Y836661D01*
X1310843Y4176661D02*
X1302512Y4184992D01*
X1285851D01*
X1277520Y4176661D01*
Y4143339D01*
X1285851Y4135008D01*
X1302512D01*
X1310843Y4143339D01*
X1327504Y4135008D02*
X1344165D01*
X1335835D01*
Y4184992D01*
X1327504Y4176661D01*
X1402480Y4184992D02*
X1369157D01*
Y4160000D01*
X1385818Y4168331D01*
X1394149D01*
X1402480Y4160000D01*
Y4143339D01*
X1394149Y4135008D01*
X1377488D01*
X1369157Y4143339D01*
D82*
X4827500Y4510000D02*
G03*
X4827500Y4510000I-7500J0D01*
G01*
X4675000Y4640000D02*
G03*
X4675000Y4640000I-35000J0D01*
G01*
X1590537Y1151214D02*
G03*
X1590537Y1151214I-5000J0D01*
G01*
X4542500Y4737499D02*
X4857501D01*
X4542500Y4422498D02*
Y4737499D01*
Y4422498D02*
X4857501D01*
Y4737499D01*
X2332002Y2299999D02*
Y3399997D01*
X3982001Y2299999D02*
Y3399997D01*
X2332002Y2299999D02*
X3982001D01*
X2332002Y3399997D02*
X3982001D01*
X3557510Y207498D02*
Y457500D01*
X3115001Y19391D02*
X3485003D01*
X3042510Y207498D02*
Y457500D01*
X3450002D02*
X3557510D01*
X3042510D02*
X3150018D01*
X2406999Y1815002D02*
Y1924999D01*
Y1815002D02*
X2475000D01*
X2406999Y1924999D02*
X2475000D01*
X2306999Y1995002D02*
X2392999D01*
X2475000Y1815002D02*
Y1834001D01*
Y1906000D02*
Y1924999D01*
X2306999Y1745000D02*
X2392999D01*
X2224998Y1815002D02*
X2242498Y1832503D01*
X2224998Y1924999D02*
X2242498Y1907499D01*
X3457500Y4692497D02*
Y4772497D01*
X3477500D01*
X3457500Y4427499D02*
Y4507499D01*
Y4427499D02*
X3477500D01*
X3762498D02*
X3782498D01*
Y4507499D01*
Y4692497D02*
Y4772497D01*
X3762498D02*
X3782498D01*
X1915001Y1336998D02*
X2024998D01*
Y1404999D01*
X1915001Y1336998D02*
Y1404999D01*
X1844999Y1236998D02*
Y1322997D01*
X2005999Y1404999D02*
X2024998D01*
X1915001D02*
X1934000D01*
X2095001Y1236998D02*
Y1322997D01*
X2007498Y1172497D02*
X2024998Y1155002D01*
X1915001D02*
X1932502Y1172497D01*
X1604999Y3385001D02*
Y3594998D01*
X1395002Y3385001D02*
Y3595009D01*
Y3385001D02*
X1604999D01*
X1395002Y3594998D02*
X1604999D01*
X1765010Y1574990D02*
Y1784992D01*
X1555008Y1574990D02*
Y1785002D01*
Y1574990D02*
X1765010D01*
X1555008Y1784992D02*
X1765010D01*
X4222499Y4782497D02*
X4242499D01*
Y4702497D02*
Y4782497D01*
Y4437499D02*
Y4517499D01*
X4222499Y4437499D02*
X4242499D01*
X3917501D02*
X3937501D01*
X3917501D02*
Y4517499D01*
Y4782497D02*
X3937501D01*
X3917501Y4702497D02*
Y4782497D01*
D83*
X2101243Y658711D02*
Y1001210D01*
X1878744Y658711D02*
X2101243D01*
X1878744D02*
Y1001210D01*
X2101243D01*
X1617999Y767500D02*
X1661996D01*
X1617999Y669497D02*
X1661996D01*
X1617999D02*
Y700998D01*
Y735999D02*
Y767500D01*
X1661996Y669497D02*
Y700998D01*
Y735999D02*
Y767500D01*
X1408009Y3990990D02*
Y4022492D01*
Y4057493D02*
Y4088994D01*
X1452007Y3990990D02*
Y4022492D01*
Y4057493D02*
Y4088994D01*
X1408009D02*
X1452007D01*
X1408009Y3990990D02*
X1452007D01*
X2874999Y904998D02*
X3125001D01*
Y1155000D01*
X2874999Y904998D02*
Y1155000D01*
X3125001D01*
X1608748Y1140002D02*
X1703749D01*
X1608743Y979992D02*
X1703744D01*
X1311501Y312502D02*
Y321001D01*
X1528499D01*
Y312502D02*
Y321001D01*
Y104003D02*
Y112502D01*
X1311501Y104003D02*
Y112502D01*
Y104003D02*
X1528499D01*
X1766998Y314998D02*
Y323497D01*
X1984001D01*
Y314998D02*
Y323497D01*
Y106500D02*
Y114999D01*
X1766998Y106500D02*
Y114999D01*
Y106500D02*
X1984001D01*
D84*
X4850078Y3650000D02*
G03*
X4850078Y3650000I-160078J0D01*
G01*
X3669998Y414998D02*
X4570001D01*
Y65001D02*
Y414998D01*
X3669998Y65001D02*
X4570001D01*
X3669998D02*
Y414998D01*
X4239999Y-140002D02*
X4270002D01*
X4144998Y30000D02*
Y65001D01*
Y-26002D02*
Y4000D01*
X4178999Y-140002D02*
X4204003D01*
X4295001Y-26002D02*
Y4000D01*
Y30000D02*
Y65001D01*
Y-81999D02*
Y-52001D01*
X4144998Y-81999D02*
Y-52001D01*
X4238999Y-140002D02*
X4264002D01*
X4144998D02*
Y-110000D01*
X4295001Y-140002D02*
Y-110000D01*
X4095001Y-140002D02*
Y65001D01*
X3944999Y-140002D02*
X4095001D01*
X3944999D02*
Y65001D01*
X1295010Y4109992D02*
X1365007D01*
X1295010Y3929992D02*
X1365007D01*
X1295010D02*
Y3994991D01*
Y4044993D02*
Y4109992D01*
X1365007Y3929992D02*
Y3994991D01*
Y4044993D02*
Y4109992D01*
X4837498Y3045001D02*
Y3107500D01*
Y2932499D02*
Y2994999D01*
X4762502Y3045001D02*
Y3107500D01*
Y2932499D02*
Y2994999D01*
Y2932499D02*
X4837498D01*
X4762502Y3107500D02*
X4837498D01*
X4389998Y3350002D02*
X4990001D01*
Y3950001D01*
X4389998D02*
X4990001D01*
X4389998Y3350002D02*
Y3950001D01*
X4452499Y2932498D02*
X4527500D01*
X4452499Y3107499D02*
X4527500D01*
Y3045000D02*
Y3107499D01*
Y2932498D02*
Y2994998D01*
X4452499Y3045000D02*
Y3107499D01*
Y2932498D02*
Y2994998D01*
D85*
X1893498Y4735001D02*
Y4984998D01*
Y4735001D02*
X2527497D01*
Y4984998D01*
X1893498D02*
X2527497D01*
X4441700Y4864992D02*
Y4781685D01*
X4458361Y4765024D01*
X4491683D01*
X4508345Y4781685D01*
Y4864992D01*
X4541667Y4781685D02*
X4558329Y4765024D01*
X4591651D01*
X4608312Y4781685D01*
Y4848330D01*
X4591651Y4864992D01*
X4558329D01*
X4541667Y4848330D01*
Y4831669D01*
X4558329Y4815008D01*
X4608312D01*
X3388339Y2032486D02*
X3355016D01*
X3371678D01*
Y1949179D01*
X3355016Y1932518D01*
X3338355D01*
X3321694Y1949179D01*
X3471646Y1932518D02*
Y2032486D01*
X3421662Y1982502D01*
X3488307D01*
X4030357Y2469982D02*
Y2386675D01*
X4047019Y2370014D01*
X4080341D01*
X4097002Y2386675D01*
Y2469982D01*
X4130325Y2370014D02*
X4163648D01*
X4146986D01*
Y2469982D01*
X4130325Y2453320D01*
X1186694Y3589984D02*
Y3506678D01*
X1203355Y3490016D01*
X1236677D01*
X1253339Y3506678D01*
Y3589984D01*
X1286661Y3573323D02*
X1303323Y3589984D01*
X1336645D01*
X1353306Y3573323D01*
Y3556661D01*
X1336645Y3540000D01*
X1319984D01*
X1336645D01*
X1353306Y3523339D01*
Y3506678D01*
X1336645Y3490016D01*
X1303323D01*
X1286661Y3506678D01*
X1336694Y1769984D02*
Y1686678D01*
X1353355Y1670016D01*
X1386677D01*
X1403339Y1686678D01*
Y1769984D01*
X1503306Y1670016D02*
X1436661D01*
X1503306Y1736661D01*
Y1753323D01*
X1486645Y1769984D01*
X1453323D01*
X1436661Y1753323D01*
X2931702Y1289984D02*
Y1206678D01*
X2948363Y1190016D01*
X2981686D01*
X2998347Y1206678D01*
Y1289984D01*
X3031670Y1190016D02*
X3064992D01*
X3048331D01*
Y1289984D01*
X3031670Y1273323D01*
X3114976Y1190016D02*
X3148299D01*
X3131637D01*
Y1289984D01*
X3114976Y1273323D01*
X3246694Y4519984D02*
Y4436677D01*
X3263355Y4420016D01*
X3296677D01*
X3313339Y4436677D01*
Y4519984D01*
X3346661Y4503322D02*
X3363323Y4519984D01*
X3396645D01*
X3413306Y4503322D01*
Y4486661D01*
X3396645Y4470000D01*
X3413306Y4453339D01*
Y4436677D01*
X3396645Y4420016D01*
X3363323D01*
X3346661Y4436677D01*
Y4453339D01*
X3363323Y4470000D01*
X3346661Y4486661D01*
Y4503322D01*
X3363323Y4470000D02*
X3396645D01*
X4286693Y4529984D02*
Y4446677D01*
X4303355Y4430016D01*
X4336677D01*
X4353339Y4446677D01*
Y4529984D01*
X4386661D02*
X4453306D01*
Y4513322D01*
X4386661Y4446677D01*
Y4430016D01*
X1403449Y1038491D02*
Y955185D01*
X1420111Y938524D01*
X1453433D01*
X1470094Y955185D01*
Y1038491D01*
X1570062D02*
X1503417D01*
Y988508D01*
X1536740Y1005169D01*
X1553401D01*
X1570062Y988508D01*
Y955185D01*
X1553401Y938524D01*
X1520078D01*
X1503417Y955185D01*
X1909189Y631646D02*
Y548340D01*
X1925850Y531679D01*
X1959173D01*
X1975834Y548340D01*
Y631646D01*
X2059141Y531679D02*
Y631646D01*
X2009157Y581663D01*
X2075802D01*
X4123355Y3913323D02*
X4106694Y3929984D01*
X4073371D01*
X4056710Y3913323D01*
Y3896661D01*
X4073371Y3880000D01*
X4106694D01*
X4123355Y3863339D01*
Y3846678D01*
X4106694Y3830016D01*
X4073371D01*
X4056710Y3846678D01*
X4156677Y3929984D02*
Y3830016D01*
X4190000Y3863339D01*
X4223323Y3830016D01*
Y3929984D01*
X4256645Y3913323D02*
X4273307Y3929984D01*
X4306629D01*
X4323290Y3913323D01*
Y3896661D01*
X4306629Y3880000D01*
X4289968D01*
X4306629D01*
X4323290Y3863339D01*
Y3846678D01*
X4306629Y3830016D01*
X4273307D01*
X4256645Y3846678D01*
X3960016Y583322D02*
X3943355Y599984D01*
X3910033D01*
X3893371Y583322D01*
Y566661D01*
X3910033Y550000D01*
X3943355D01*
X3960016Y533339D01*
Y516677D01*
X3943355Y500016D01*
X3910033D01*
X3893371Y516677D01*
X3993339Y599984D02*
Y500016D01*
X4026661Y533339D01*
X4059984Y500016D01*
Y599984D01*
X4093307Y500016D02*
X4126629D01*
X4109968D01*
Y599984D01*
X4093307Y583322D01*
X2001685Y366677D02*
Y433322D01*
X1985024Y449984D01*
X1951702D01*
X1935040Y433322D01*
Y366677D01*
X1951702Y350016D01*
X1985024D01*
X1968363Y383339D02*
X2001685Y350016D01*
X1985024D02*
X2001685Y366677D01*
X2035008Y350016D02*
X2068331D01*
X2051670D01*
Y449984D01*
X2035008Y433322D01*
X2118315Y449984D02*
Y350016D01*
X2168298D01*
X2184960Y366677D01*
Y383339D01*
X2168298Y400000D01*
X2118315D01*
X2168298D01*
X2184960Y416661D01*
Y433322D01*
X2168298Y449984D01*
X2118315D01*
X1461685Y366677D02*
Y433322D01*
X1445024Y449984D01*
X1411702D01*
X1395040Y433322D01*
Y366677D01*
X1411702Y350016D01*
X1445024D01*
X1428363Y383339D02*
X1461685Y350016D01*
X1445024D02*
X1461685Y366677D01*
X1495008Y350016D02*
X1528331D01*
X1511670D01*
Y449984D01*
X1495008Y433322D01*
X1578315Y350016D02*
Y416661D01*
X1611637Y449984D01*
X1644960Y416661D01*
Y350016D01*
Y400000D01*
X1578315D01*
X2576694Y4600016D02*
Y4699984D01*
X2626677D01*
X2643339Y4683323D01*
Y4650000D01*
X2626677Y4633339D01*
X2576694D01*
X2743306Y4699984D02*
X2676661D01*
Y4650000D01*
X2709984Y4666661D01*
X2726645D01*
X2743306Y4650000D01*
Y4616678D01*
X2726645Y4600016D01*
X2693323D01*
X2676661Y4616678D01*
X2883339Y449984D02*
X2850016D01*
X2866678D01*
Y366677D01*
X2850016Y350016D01*
X2833355D01*
X2816694Y366677D01*
X2916661Y433322D02*
X2933323Y449984D01*
X2966645D01*
X2983306Y433322D01*
Y416661D01*
X2966645Y400000D01*
X2949984D01*
X2966645D01*
X2983306Y383339D01*
Y366677D01*
X2966645Y350016D01*
X2933323D01*
X2916661Y366677D01*
X1953341Y1559986D02*
X1920018D01*
X1936680D01*
Y1476680D01*
X1920018Y1460018D01*
X1903357D01*
X1886696Y1476680D01*
X2053309Y1460018D02*
X1986664D01*
X2053309Y1526663D01*
Y1543325D01*
X2036647Y1559986D01*
X2003325D01*
X1986664Y1543325D01*
X2380000Y2139984D02*
X2346678D01*
X2363339D01*
Y2056677D01*
X2346678Y2040016D01*
X2330016D01*
X2313355Y2056677D01*
X2413323Y2040016D02*
X2446645D01*
X2429984D01*
Y2139984D01*
X2413323Y2123322D01*
X83355Y4530016D02*
Y4596661D01*
X116677Y4629984D01*
X150000Y4596661D01*
Y4530016D01*
Y4580000D01*
X83355D01*
X183323Y4530016D02*
X216645D01*
X199984D01*
Y4629984D01*
X183323Y4613322D01*
D109*
X4882500Y4402500D02*
G03*
X4882500Y4402500I-5000J0D01*
G01*
X3486423Y868224D02*
G03*
X3488837Y866340I-6425J-10722D01*
G01*
X4632500Y2847500D02*
G03*
X4632500Y2847500I-12500J0D01*
G01*
X3787500Y4837500D02*
G03*
X3787500Y4837500I-12500J0D01*
G01*
X4247500Y4847500D02*
G03*
X4247500Y4847500I-12500J0D01*
G01*
X1282500Y335001D02*
G03*
X1282500Y335001I-5000J0D01*
G01*
X1737998Y337498D02*
G03*
X1737998Y337498I-5000J0D01*
G01*
D110*
X4032502Y2264998D02*
G03*
X4032502Y2264998I-15000J0D01*
G01*
%TF.MD5,81ad1c25f82f8f936597d23ad3de6147*%
M02*
