%TF.GenerationSoftware,Altium Limited,Altium Designer,20.1.11 (218)*%
G04 Layer_Color=32768*
%FSLAX45Y45*%
%MOMM*%
%TF.SameCoordinates,A720D921-2E1A-4B1E-B03F-C1F3B01285F1*%
%TF.FilePolarity,Positive*%
%TF.FileFunction,Other,Mechanical_15*%
%TF.Part,Single*%
G01*
G75*
%TA.AperFunction,NonConductor*%
%ADD66C,0.10000*%
%ADD82C,0.15000*%
%ADD110C,0.30000*%
%ADD185C,0.01000*%
%ADD188C,0.05000*%
%ADD189C,0.12700*%
D66*
X4649998Y4579998D02*
X4749998D01*
X4700001Y4530001D02*
Y4630001D01*
X1653490Y2429991D02*
X1686490D01*
X1669990Y2413491D02*
Y2446491D01*
X1692993Y2379994D02*
Y2479994D01*
X1646993Y2379994D02*
Y2479994D01*
Y2379994D02*
X1692993D01*
X1646993Y2479994D02*
X1692993D01*
X3419999Y382498D02*
X3519999D01*
X3419999Y617499D02*
X3519999D01*
Y382498D02*
Y617499D01*
X3419999Y382498D02*
Y617499D01*
X3424997Y499999D02*
X3515000D01*
X3470001Y455000D02*
Y545002D01*
X4473498Y540001D02*
X4506503D01*
X4489998Y523502D02*
Y556501D01*
X4513000Y489999D02*
Y589999D01*
X4467000Y489999D02*
Y589999D01*
Y489999D02*
X4513000D01*
X4467000Y589999D02*
X4513000D01*
X1623500Y718499D02*
X1656500D01*
X1640000Y701999D02*
Y734999D01*
X1662997Y668496D02*
Y768496D01*
X1616998Y668496D02*
Y768496D01*
X1662997D01*
X1616998Y668496D02*
X1662997D01*
X1407009Y4089995D02*
X1453008D01*
X1407009Y3989995D02*
X1453008D01*
Y4089995D01*
X1407009Y3989995D02*
Y4089995D01*
X1430006Y4023492D02*
Y4056492D01*
X1413506Y4039992D02*
X1446506D01*
X1365002Y3930003D02*
Y4110002D01*
X1295000Y3930003D02*
Y4110002D01*
X1365002D01*
X1295000Y3930003D02*
X1365002D01*
X1330001Y3992502D02*
Y4047498D01*
X1302498Y4020000D02*
X1357499D01*
X1962500Y510002D02*
X2017501D01*
X1989998Y482499D02*
Y537500D01*
X1955002Y419999D02*
X2025000D01*
X1955002Y599999D02*
X2025000D01*
Y419999D02*
Y599999D01*
X1955002Y419999D02*
Y599999D01*
X2322004Y2289997D02*
Y3410000D01*
X3992003D01*
Y2289997D02*
Y3410000D01*
X2322004Y2289997D02*
X3992003D01*
X3000002Y979999D02*
Y1079999D01*
X2950000Y1030002D02*
X3050000D01*
X4412501Y4840002D02*
X4467502D01*
X4439999Y4812499D02*
Y4867500D01*
X4404998Y4929999D02*
X4475000D01*
X4404998Y4749999D02*
X4475000D01*
X4404998D02*
Y4929999D01*
X4475000Y4749999D02*
Y4929999D01*
X4532499Y4840001D02*
X4587500D01*
X4560002Y4812498D02*
Y4867500D01*
X4525001Y4929999D02*
X4594998D01*
X4525001Y4749999D02*
X4594998D01*
X4525001D02*
Y4929999D01*
X4594998Y4749999D02*
Y4929999D01*
X3153501Y1399998D02*
X3186501D01*
X3170001Y1383498D02*
Y1416498D01*
X3192998Y1350001D02*
Y1450001D01*
X3146999Y1350001D02*
Y1450001D01*
Y1350001D02*
X3192998D01*
X3146999Y1450001D02*
X3192998D01*
X3393502Y1400002D02*
X3426502D01*
X3410002Y1383502D02*
Y1416502D01*
X3432999Y1349999D02*
Y1449999D01*
X3387000Y1349999D02*
Y1449999D01*
Y1349999D02*
X3432999D01*
X3387000Y1449999D02*
X3432999D01*
X3230001Y595000D02*
Y685002D01*
X3185002Y639998D02*
X3274999D01*
X3179998Y522498D02*
Y757499D01*
X3279998Y522498D02*
Y757499D01*
X3179998D02*
X3279998D01*
X3179998Y522498D02*
X3279998D01*
X1503509Y960009D02*
X1536508D01*
X1520008Y943509D02*
Y976509D01*
X1497006Y910006D02*
Y1010006D01*
X1543006Y910006D02*
Y1010006D01*
X1497006D02*
X1543006D01*
X1497006Y910006D02*
X1543006D01*
X2389998Y565002D02*
Y654999D01*
X2345000Y610001D02*
X2435002D01*
X2340001Y492500D02*
Y727501D01*
X2440001Y492500D02*
Y727501D01*
X2340001D02*
X2440001D01*
X2340001Y492500D02*
X2440001D01*
X3776999Y680002D02*
X3822998D01*
X3776999Y580003D02*
X3822998D01*
X3776999D02*
Y680002D01*
X3822998Y580003D02*
Y680002D01*
X3800001Y613500D02*
Y646500D01*
X3783501Y630000D02*
X3816501D01*
X3899998Y579998D02*
Y680002D01*
X3850000Y630000D02*
X3950000D01*
X3997002Y580000D02*
X4043001D01*
X3997002Y679999D02*
X4043001D01*
Y580000D02*
Y679999D01*
X3997002Y580000D02*
Y679999D01*
X4019999Y613502D02*
Y646502D01*
X4003499Y630002D02*
X4036499D01*
X3589998Y455001D02*
Y544998D01*
X3544999Y500000D02*
X3635001D01*
X3540000Y382499D02*
Y617500D01*
X3640000Y382499D02*
Y617500D01*
X3540000D02*
X3640000D01*
X3540000Y382499D02*
X3640000D01*
X4332500Y560001D02*
X4387501D01*
X4359998Y532498D02*
Y587499D01*
X4325002Y649999D02*
X4394999D01*
X4325002Y469999D02*
X4394999D01*
X4325002D02*
Y649999D01*
X4394999Y469999D02*
Y649999D01*
X4837498Y2932499D02*
Y3107500D01*
X4762502Y2932499D02*
Y3107500D01*
X4837498D01*
X4762502Y2932499D02*
X4837498D01*
X4800003Y2992499D02*
Y3047500D01*
X4772499Y3020002D02*
X4827501D01*
X4672502Y3039999D02*
X4727498D01*
X4700000Y3012501D02*
Y3067497D01*
X4662499Y3127502D02*
X4737501D01*
X4662499Y2952501D02*
X4737501D01*
X4662499D02*
Y3127502D01*
X4737501Y2952501D02*
Y3127502D01*
X4612501Y2300002D02*
X4667502D01*
X4639999Y2272499D02*
Y2327500D01*
X4604998Y2209999D02*
X4675001D01*
X4604998Y2389999D02*
X4675001D01*
Y2209999D02*
Y2389999D01*
X4604998Y2209999D02*
Y2389999D01*
X4462502Y3020001D02*
X4517498D01*
X4490000Y2992498D02*
Y3047499D01*
X4452499Y3107499D02*
X4527500D01*
X4452499Y2932498D02*
X4527500D01*
Y3107499D01*
X4452499Y2932498D02*
Y3107499D01*
X3570001Y4600001D02*
X3670001D01*
X3619999Y4549998D02*
Y4649998D01*
X1863506Y2620006D02*
X1896506D01*
X1880006Y2603506D02*
Y2636506D01*
X1857009Y2570009D02*
Y2670008D01*
X1903008Y2570009D02*
Y2670008D01*
X1857009D02*
X1903008D01*
X1857009Y2570009D02*
X1903008D01*
X1664999Y1010001D02*
X1720000D01*
X1692502Y982503D02*
Y1037499D01*
X1657501Y919998D02*
X1727504D01*
X1657501Y1099998D02*
X1727504D01*
Y919998D02*
Y1099998D01*
X1657501Y919998D02*
Y1099998D01*
X1656251Y1010000D02*
Y1110000D01*
X1606249Y1060002D02*
X1706248D01*
X2062502Y2790003D02*
X2117503D01*
X2090000Y2762499D02*
Y2817501D01*
X2052504Y2702500D02*
X2127500D01*
X2052504Y2877500D02*
X2127500D01*
Y2702500D02*
Y2877500D01*
X2052504Y2702500D02*
Y2877500D01*
X1525001Y2790000D02*
Y2969999D01*
X1594998Y2790000D02*
Y2969999D01*
X1525001D02*
X1594998D01*
X1525001Y2790000D02*
X1594998D01*
X1560002Y2852499D02*
Y2907500D01*
X1532499Y2880002D02*
X1587500D01*
X1500000Y3440003D02*
Y3540002D01*
X1449998Y3490000D02*
X1549997D01*
X1362498Y2080001D02*
X1417500D01*
X1390002Y2052498D02*
Y2107499D01*
X1355000Y1989999D02*
X1424998D01*
X1355000Y2169999D02*
X1424998D01*
Y1989999D02*
Y2169999D01*
X1355000Y1989999D02*
Y2169999D01*
X2302501Y3790002D02*
X2357502D01*
X2329999Y3762499D02*
Y3817500D01*
X2292498Y3702499D02*
X2367499D01*
X2292498Y3877500D02*
X2367499D01*
Y3702499D02*
Y3877500D01*
X2292498Y3702499D02*
Y3877500D01*
X1722501Y2789997D02*
X1777502D01*
X1749999Y2762499D02*
Y2817501D01*
X1714998Y2700000D02*
X1785000D01*
X1714998Y2880000D02*
X1785000D01*
Y2700000D02*
Y2880000D01*
X1714998Y2700000D02*
Y2880000D01*
X2632498Y3702501D02*
Y3877502D01*
X2707499Y3702501D02*
Y3877502D01*
X2632498D02*
X2707499D01*
X2632498Y3702501D02*
X2707499D01*
X2669999Y3762501D02*
Y3817502D01*
X2642501Y3789999D02*
X2697502D01*
X2972499D02*
X3027500D01*
X3000002Y3762501D02*
Y3817502D01*
X2962501Y3702501D02*
X3037502D01*
X2962501Y3877502D02*
X3037502D01*
Y3702501D02*
Y3877502D01*
X2962501Y3702501D02*
Y3877502D01*
X1623500Y2841501D02*
X1656500D01*
X1640000Y2825001D02*
Y2858001D01*
X1617003Y2791504D02*
Y2891504D01*
X1663002Y2791504D02*
Y2891504D01*
X1617003D02*
X1663002D01*
X1617003Y2791504D02*
X1663002D01*
X1842501Y2790001D02*
X1897502D01*
X1869999Y2762503D02*
Y2817499D01*
X1834998Y2699998D02*
X1905001D01*
X1834998Y2879998D02*
X1905001D01*
Y2699998D02*
Y2879998D01*
X1834998Y2699998D02*
Y2879998D01*
X1660006Y1629991D02*
Y1729991D01*
X1610009Y1679993D02*
X1710009D01*
X1386991Y2469991D02*
X1432991D01*
X1386991Y2369991D02*
X1432991D01*
X1386991D02*
Y2469991D01*
X1432991Y2369991D02*
Y2469991D01*
X1409993Y2403494D02*
Y2436494D01*
X1393494Y2419994D02*
X1426493D01*
X1302501Y2439999D02*
X1357502D01*
X1329999Y2412501D02*
Y2467502D01*
X1294998Y2350001D02*
X1365000D01*
X1294998Y2530001D02*
X1365000D01*
Y2350001D02*
Y2530001D01*
X1294998Y2350001D02*
Y2530001D01*
X4080000Y4559998D02*
Y4659998D01*
X4030002Y4610001D02*
X4130002D01*
X1627008Y3180009D02*
X1673007D01*
X1627008Y3280008D02*
X1673007D01*
Y3180009D02*
Y3280008D01*
X1627008Y3180009D02*
Y3280008D01*
X1650010Y3213506D02*
Y3246506D01*
X1633510Y3230006D02*
X1666510D01*
X1795002Y3169999D02*
Y3349999D01*
X1724999Y3169999D02*
Y3349999D01*
Y3169999D02*
X1795002D01*
X1724999Y3349999D02*
X1795002D01*
X1760001Y3232498D02*
Y3287500D01*
X1732503Y3260002D02*
X1787499D01*
X1934999Y2700000D02*
Y2880000D01*
X2004996Y2700000D02*
Y2880000D01*
X1934999D02*
X2004996D01*
X1934999Y2700000D02*
X2004996D01*
X1970000Y2762499D02*
Y2817501D01*
X1942497Y2789997D02*
X1997498D01*
X1542502Y2262501D02*
Y2437502D01*
X1617498Y2262501D02*
Y2437502D01*
X1542502D02*
X1617498D01*
X1542502Y2262501D02*
X1617498D01*
X1579997Y2322501D02*
Y2377502D01*
X1552499Y2349999D02*
X1607500D01*
X1264999Y1200000D02*
Y1380000D01*
X1335001Y1200000D02*
Y1380000D01*
X1264999D02*
X1335001D01*
X1264999Y1200000D02*
X1335001D01*
X1300000Y1262505D02*
Y1317501D01*
X1272502Y1290003D02*
X1327498D01*
X1454999Y910002D02*
Y1090002D01*
X1385002Y910002D02*
Y1090002D01*
Y910002D02*
X1454999D01*
X1385002Y1090002D02*
X1454999D01*
X1419998Y972501D02*
Y1027498D01*
X1392500Y1000000D02*
X1447501D01*
X2137502Y422499D02*
Y597500D01*
X2062501Y422499D02*
Y597500D01*
Y422499D02*
X2137502D01*
X2062501Y597500D02*
X2137502D01*
X2100001Y482499D02*
Y537500D01*
X2072498Y510002D02*
X2127499D01*
X1547502Y642499D02*
Y817500D01*
X1472501Y642499D02*
Y817500D01*
Y642499D02*
X1547502D01*
X1472501Y817500D02*
X1547502D01*
X1510002Y702499D02*
Y757500D01*
X1482499Y730002D02*
X1537500D01*
X1335002Y909998D02*
Y1089998D01*
X1264999Y909998D02*
Y1089998D01*
Y909998D02*
X1335002D01*
X1264999Y1089998D02*
X1335002D01*
X1300000Y972498D02*
Y1027499D01*
X1272502Y1000001D02*
X1327498D01*
X3037498Y3902498D02*
Y4077499D01*
X2962502Y3902498D02*
Y4077499D01*
Y3902498D02*
X3037498D01*
X2962502Y4077499D02*
X3037498D01*
X2999998Y3962498D02*
Y4017499D01*
X2972500Y3990001D02*
X3027501D01*
X3764999Y2480001D02*
Y2660000D01*
X3695002Y2480001D02*
Y2660000D01*
Y2480001D02*
X3764999D01*
X3695002Y2660000D02*
X3764999D01*
X3729998Y2542500D02*
Y2597501D01*
X3702500Y2569998D02*
X3757501D01*
X3645000Y2910000D02*
Y3089999D01*
X3575003Y2910000D02*
Y3089999D01*
Y2910000D02*
X3645000D01*
X3575003Y3089999D02*
X3645000D01*
X3610004Y2972499D02*
Y3027500D01*
X3582501Y3000002D02*
X3637502D01*
X3700003Y2907999D02*
X3800002D01*
X3750000Y2858001D02*
Y2958001D01*
X2707500Y3902500D02*
Y4077501D01*
X2632499Y3902500D02*
Y4077501D01*
Y3902500D02*
X2707500D01*
X2632499Y4077501D02*
X2707500D01*
X2669999Y3962500D02*
Y4017501D01*
X2642501Y3989998D02*
X2697498D01*
X2367499Y3902500D02*
Y4077501D01*
X2292498Y3902500D02*
Y4077501D01*
Y3902500D02*
X2367499D01*
X2292498Y4077501D02*
X2367499D01*
X2329999Y3962500D02*
Y4017501D01*
X2302501Y3989998D02*
X2357502D01*
X3735001Y3150002D02*
Y3330002D01*
X3804998Y3150002D02*
Y3330002D01*
X3735001D02*
X3804998D01*
X3735001Y3150002D02*
X3804998D01*
X3770002Y3212502D02*
Y3267498D01*
X3742499Y3240000D02*
X3797500D01*
X3643500Y3280000D02*
X3676499D01*
X3660000Y3263500D02*
Y3296500D01*
X3637002Y3230002D02*
Y3330002D01*
X3683002Y3229997D02*
Y3329997D01*
X3637002Y3330002D02*
X3683002Y3329997D01*
X3637002Y3230002D02*
X3683002Y3229997D01*
X2482499Y1380001D02*
X2537500D01*
X2510002Y1352498D02*
Y1407499D01*
X2475001Y1289999D02*
Y1469999D01*
X2544998Y1289999D02*
Y1469999D01*
X2475001D02*
X2544998D01*
X2475001Y1289999D02*
X2544998D01*
X2592500Y640001D02*
X2647501D01*
X2619998Y612498D02*
Y667499D01*
X2585002Y549998D02*
Y729998D01*
X2654999Y549998D02*
Y729998D01*
X2585002D02*
X2654999D01*
X2585002Y549998D02*
X2654999D01*
X3300002Y522500D02*
X3400002D01*
X3300002Y757501D02*
X3400002D01*
Y522500D02*
Y757501D01*
X3300002Y522500D02*
Y757501D01*
X3305001Y640001D02*
X3394998D01*
X3349999Y595002D02*
Y684999D01*
X3307001Y1449999D02*
X3353000D01*
X3307001Y1349999D02*
X3353000D01*
X3307001D02*
Y1449999D01*
X3353000Y1349999D02*
Y1449999D01*
X3329998Y1383502D02*
Y1416501D01*
X3313498Y1400002D02*
X3346498D01*
X2757502Y552500D02*
Y727500D01*
X2682501Y552500D02*
Y727500D01*
Y552500D02*
X2757502D01*
X2682501Y727500D02*
X2757502D01*
X2720002Y612499D02*
Y667501D01*
X2692499Y639997D02*
X2747500D01*
X3237000Y1448499D02*
X3282999D01*
X3237000Y1348499D02*
X3282999D01*
X3237000D02*
Y1448499D01*
X3282999Y1348499D02*
Y1448499D01*
X3259997Y1382002D02*
Y1415001D01*
X3243497Y1398501D02*
X3276497D01*
X2487002Y930000D02*
X2533001D01*
X2487002Y1029999D02*
X2533001D01*
Y930000D02*
Y1029999D01*
X2487002Y930000D02*
Y1029999D01*
X2509999Y963502D02*
Y996502D01*
X2493499Y980002D02*
X2526499D01*
X2782501Y552498D02*
Y727499D01*
X2857503Y552498D02*
Y727499D01*
X2782501D02*
X2857503D01*
X2782501Y552498D02*
X2857503D01*
X2820002Y612498D02*
Y667499D01*
X2792499Y640001D02*
X2847500D01*
X3127499Y1342501D02*
Y1517502D01*
X3052498Y1342501D02*
Y1517502D01*
Y1342501D02*
X3127499D01*
X3052498Y1517502D02*
X3127499D01*
X3089999Y1402501D02*
Y1457502D01*
X3062501Y1429999D02*
X3117502D01*
X2892498Y552499D02*
Y727499D01*
X2967499Y552499D02*
Y727499D01*
X2892498D02*
X2967499D01*
X2892498Y552499D02*
X2967499D01*
X2929998Y612498D02*
Y667500D01*
X2902500Y640002D02*
X2957501D01*
X2682499Y312501D02*
Y487502D01*
X2757500Y312501D02*
Y487502D01*
X2682499D02*
X2757500D01*
X2682499Y312501D02*
X2757500D01*
X2720000Y372501D02*
Y427502D01*
X2692502Y399999D02*
X2747498D01*
X2967002Y839999D02*
X3013001D01*
X2967002Y739999D02*
X3013001D01*
X2967002D02*
Y839999D01*
X3013001Y739999D02*
Y839999D01*
X2989999Y773502D02*
Y806502D01*
X2973499Y790002D02*
X3006499D01*
X2859999Y1897499D02*
X2959999D01*
X2859999Y1662499D02*
X2959999D01*
X2859999D02*
Y1897499D01*
X2959999Y1662499D02*
Y1897499D01*
X2864998Y1779999D02*
X2955000D01*
X2910001Y1735000D02*
Y1824998D01*
X3057002Y1840000D02*
X3103001D01*
X3057002Y1740001D02*
X3103001D01*
X3057002D02*
Y1840000D01*
X3103001Y1740001D02*
Y1840000D01*
X3079999Y1773498D02*
Y1806498D01*
X3063499Y1789998D02*
X3096499D01*
X2460000Y492502D02*
X2560000D01*
X2460000Y727498D02*
X2560000D01*
Y492502D02*
Y727498D01*
X2460000Y492502D02*
Y727498D01*
X2464999Y610002D02*
X2555001D01*
X2510002Y564999D02*
Y655001D01*
X3142500Y1722499D02*
Y1897500D01*
X3217501Y1722499D02*
Y1897500D01*
X3142500D02*
X3217501D01*
X3142500Y1722499D02*
X3217501D01*
X3180001Y1782499D02*
Y1837500D01*
X3152498Y1810002D02*
X3207499D01*
X2579998Y1232501D02*
X2679998D01*
X2579998Y1467502D02*
X2679998D01*
Y1232501D02*
Y1467502D01*
X2579998Y1232501D02*
Y1467502D01*
X2585002Y1350001D02*
X2674999D01*
X2630000Y1305002D02*
Y1395000D01*
X3615004Y4100000D02*
Y4280000D01*
X3685001Y4100000D02*
Y4280000D01*
X3615004D02*
X3685001D01*
X3615004Y4100000D02*
X3685001D01*
X3650000Y4162499D02*
Y4217501D01*
X3622502Y4190003D02*
X3677503D01*
X3725002Y4099999D02*
Y4279999D01*
X3795000Y4099999D02*
Y4279999D01*
X3725002D02*
X3795000D01*
X3725002Y4099999D02*
X3795000D01*
X3759999Y4162499D02*
Y4217500D01*
X3732501Y4190002D02*
X3787502D01*
X3954999Y4100000D02*
Y4280000D01*
X4024997Y4100000D02*
Y4280000D01*
X3954999D02*
X4024997D01*
X3954999Y4100000D02*
X4024997D01*
X3989996Y4162499D02*
Y4217501D01*
X3962498Y4190003D02*
X4017499D01*
X4085001Y4099999D02*
Y4279999D01*
X4154998Y4099999D02*
Y4279999D01*
X4085001D02*
X4154998D01*
X4085001Y4099999D02*
X4154998D01*
X4120002Y4162499D02*
Y4217500D01*
X4092499Y4190002D02*
X4147500D01*
X1369998Y212502D02*
X1470002D01*
X1420000Y162500D02*
Y262499D01*
X1825500Y214999D02*
X1925499D01*
X1875497Y164996D02*
Y265001D01*
D82*
X1935506Y709949D02*
G03*
X1935506Y709949I-5000J0D01*
G01*
X4519997Y1260502D02*
X4845000D01*
X4519997D02*
Y1752500D01*
X4845000D01*
Y1260502D02*
Y1752500D01*
X4485001Y1220502D02*
Y1920501D01*
X3535000D02*
X4485001D01*
X3535000Y1428503D02*
Y1920501D01*
Y1220502D02*
X4485001D01*
D110*
X3822002Y2474998D02*
G03*
X3822002Y2474998I-15000J0D01*
G01*
D185*
X1879993Y659961D02*
Y999960D01*
Y659961D02*
X2099993D01*
Y999960D01*
X1879993D02*
X2099993D01*
D188*
X4662502Y2619998D02*
G03*
X4662502Y2619998I-10000J0D01*
G01*
X4575002Y4455000D02*
Y4705002D01*
X4824999Y4455000D02*
Y4705002D01*
X4575002Y4455000D02*
X4824999D01*
X4575002Y4705002D02*
X4824999D01*
X3535000Y2030000D02*
X4919996D01*
X3535000Y912502D02*
X4919996D01*
Y2030000D01*
X3535000Y912502D02*
Y2030000D01*
X2854999Y884998D02*
X3145001D01*
X2854999Y1175000D02*
X3145001D01*
Y884998D02*
Y1175000D01*
X2854999Y884998D02*
Y1175000D01*
X3837499Y672499D02*
X3962502D01*
X3837499Y587501D02*
X3962502D01*
Y672499D01*
X3837499Y587501D02*
Y672499D01*
X4623500Y2431997D02*
Y2647998D01*
X4776505D01*
Y2431997D02*
Y2647998D01*
X4623500Y2431997D02*
X4776505D01*
X4675001Y2539997D02*
X4725004D01*
X4700000Y2514999D02*
Y2564996D01*
X3410002Y4380001D02*
Y4820000D01*
X3830001Y4380001D02*
Y4820000D01*
X3410002Y4380001D02*
X3830001D01*
X3410002Y4820000D02*
X3830001D01*
X1587752Y960003D02*
X1724750D01*
X1587752Y1160002D02*
X1724750D01*
Y960003D02*
Y1160002D01*
X1587752Y960003D02*
Y1160002D01*
X1372502Y3362502D02*
X1627498D01*
X1372502Y3617503D02*
X1627498D01*
Y3362502D02*
Y3617503D01*
X1372502Y3362502D02*
Y3617503D01*
X1532508Y1552490D02*
X1787509D01*
X1532508Y1807491D02*
X1787509D01*
Y1552490D02*
Y1807491D01*
X1532508Y1552490D02*
Y1807491D01*
X3869998Y4830000D02*
X4290002D01*
X3869998Y4390001D02*
X4290002D01*
Y4830000D01*
X3869998Y4390001D02*
Y4830000D01*
X3800002Y2825499D02*
Y2990498D01*
X3700003Y2825499D02*
Y2990498D01*
Y2825499D02*
X3800002D01*
X3700003Y2990498D02*
X3800002D01*
X1262500Y55002D02*
Y370002D01*
X1577500Y55002D02*
Y370002D01*
X1262500D02*
X1577500D01*
X1262500Y55002D02*
X1577500D01*
X1717997Y57498D02*
Y372499D01*
X2032997Y57498D02*
Y372499D01*
X1717997D02*
X2032997D01*
X1717997Y57498D02*
X2032997D01*
D189*
X4716455Y1659277D02*
X4771437D01*
X4716455Y1622622D01*
X4771437D01*
Y1576804D02*
Y1595131D01*
X4762274Y1604295D01*
X4725619D01*
X4716455Y1595131D01*
Y1576804D01*
X4725619Y1567640D01*
X4762274D01*
X4771437Y1576804D01*
Y1494331D02*
X4734783D01*
X4716455Y1476003D01*
X4734783Y1457676D01*
X4771437D01*
Y1439348D02*
Y1421021D01*
Y1430185D01*
X4716455D01*
Y1439348D01*
Y1421021D01*
Y1393530D02*
X4753110D01*
X4771437Y1375202D01*
X4753110Y1356875D01*
X4716455D01*
X4743946D01*
Y1393530D01*
X4619997Y1718841D02*
X4674979D01*
X4619997Y1682186D01*
X4674979D01*
Y1636368D02*
Y1654695D01*
X4665815Y1663858D01*
X4629160D01*
X4619997Y1654695D01*
Y1636368D01*
X4629160Y1627204D01*
X4665815D01*
X4674979Y1636368D01*
Y1553894D02*
Y1517240D01*
Y1535567D01*
X4619997D01*
Y1498912D02*
X4674979D01*
Y1471421D01*
X4665815Y1462257D01*
X4647488D01*
X4638324Y1471421D01*
Y1498912D01*
Y1480585D02*
X4619997Y1462257D01*
Y1443930D02*
X4656651D01*
X4674979Y1425603D01*
X4656651Y1407275D01*
X4619997D01*
X4647488D01*
Y1443930D01*
X4665815Y1352293D02*
X4674979Y1361457D01*
Y1379784D01*
X4665815Y1388948D01*
X4629160D01*
X4619997Y1379784D01*
Y1361457D01*
X4629160Y1352293D01*
X4674979Y1297311D02*
Y1333966D01*
X4619997D01*
Y1297311D01*
X4647488Y1333966D02*
Y1315638D01*
X4386255Y1735477D02*
X4441237D01*
X4386255Y1698822D01*
X4441237D01*
Y1653004D02*
Y1671331D01*
X4432074Y1680495D01*
X4395419D01*
X4386255Y1671331D01*
Y1653004D01*
X4395419Y1643840D01*
X4432074D01*
X4441237Y1653004D01*
Y1570531D02*
X4404583D01*
X4386255Y1552203D01*
X4404583Y1533876D01*
X4441237D01*
Y1515548D02*
Y1497221D01*
Y1506385D01*
X4386255D01*
Y1515548D01*
Y1497221D01*
Y1469730D02*
X4422910D01*
X4441237Y1451402D01*
X4422910Y1433075D01*
X4386255D01*
X4413746D01*
Y1469730D01*
X4289797Y1795041D02*
X4344779D01*
X4289797Y1758386D01*
X4344779D01*
Y1712568D02*
Y1730895D01*
X4335615Y1740058D01*
X4298960D01*
X4289797Y1730895D01*
Y1712568D01*
X4298960Y1703404D01*
X4335615D01*
X4344779Y1712568D01*
Y1630094D02*
Y1593440D01*
Y1611767D01*
X4289797D01*
Y1575112D02*
X4344779D01*
Y1547621D01*
X4335615Y1538457D01*
X4317288D01*
X4308124Y1547621D01*
Y1575112D01*
Y1556785D02*
X4289797Y1538457D01*
Y1520130D02*
X4326451D01*
X4344779Y1501803D01*
X4326451Y1483475D01*
X4289797D01*
X4317288D01*
Y1520130D01*
X4335615Y1428493D02*
X4344779Y1437657D01*
Y1455984D01*
X4335615Y1465148D01*
X4298960D01*
X4289797Y1455984D01*
Y1437657D01*
X4298960Y1428493D01*
X4344779Y1373511D02*
Y1410166D01*
X4289797D01*
Y1373511D01*
X4317288Y1410166D02*
Y1391838D01*
%TF.MD5,be582a74da84a64b2526f6cc6e972e77*%
M02*
