%TF.GenerationSoftware,Altium Limited,Altium Designer,20.1.11 (218)*%
G04 Layer_Physical_Order=2*
G04 Layer_Color=32768*
%FSLAX45Y45*%
%MOMM*%
%TF.SameCoordinates,A720D921-2E1A-4B1E-B03F-C1F3B01285F1*%
%TF.FilePolarity,Negative*%
%TF.FileFunction,Copper,L2,Inr,Plane*%
%TF.Part,Single*%
G01*
G75*
%TA.AperFunction,NonConductor*%
%ADD64C,1.00000*%
%ADD65C,1.01600*%
%ADD66C,0.10000*%
%TA.AperFunction,ComponentPad*%
%ADD67C,1.91600*%
%TA.AperFunction,WasherPad*%
%ADD68C,2.01600*%
%TA.AperFunction,ComponentPad*%
%ADD69C,2.03600*%
%TA.AperFunction,ViaPad*%
%ADD70C,1.41600*%
%ADD71C,1.14600*%
%ADD72C,1.13600*%
D64*
X2280000Y20000D02*
Y1340000D01*
X2180000Y1440000D02*
X2280000Y1340000D01*
X2115000Y1505000D02*
Y3505000D01*
Y1505000D02*
X2180000Y1440000D01*
X1690000Y3930000D02*
X2115000Y3505000D01*
X1690000Y3930000D02*
Y4960000D01*
D65*
X0Y0D02*
X5000000D01*
Y5000000D01*
X0D02*
X5000000D01*
X0Y0D02*
Y5000000D01*
D66*
X2620000Y4903316D02*
Y4863329D01*
X2639994D01*
X2646658Y4869993D01*
Y4896651D01*
X2639994Y4903316D01*
X2620000D01*
X2659987Y4863329D02*
X2673316D01*
X2666652D01*
Y4889987D01*
X2659987D01*
X2706638Y4850000D02*
X2713303D01*
X2719968Y4856664D01*
Y4889987D01*
X2699974D01*
X2693310Y4883322D01*
Y4869993D01*
X2699974Y4863329D01*
X2719968D01*
X2733297D02*
X2746625D01*
X2739961D01*
Y4889987D01*
X2733297D01*
X2773284Y4896651D02*
Y4889987D01*
X2766619D01*
X2779948D01*
X2773284D01*
Y4869993D01*
X2779948Y4863329D01*
X2806606Y4889987D02*
X2819935D01*
X2826600Y4883322D01*
Y4863329D01*
X2806606D01*
X2799942Y4869993D01*
X2806606Y4876658D01*
X2826600D01*
X2839929Y4863329D02*
X2853257D01*
X2846593D01*
Y4903316D01*
X2839929D01*
X2939896Y4896651D02*
X2933232Y4903316D01*
X2919902D01*
X2913238Y4896651D01*
Y4869993D01*
X2919902Y4863329D01*
X2933232D01*
X2939896Y4869993D01*
Y4883322D01*
X2926567D01*
X2953225Y4863329D02*
Y4903316D01*
X2979883Y4863329D01*
Y4903316D01*
X2993212D02*
Y4863329D01*
X3013206D01*
X3019870Y4869993D01*
Y4896651D01*
X3013206Y4903316D01*
X2993212D01*
X1030000Y4853329D02*
Y4879987D01*
X1043329Y4893316D01*
X1056658Y4879987D01*
Y4853329D01*
Y4873322D01*
X1030000D01*
X1069987Y4853329D02*
Y4879987D01*
X1089981D01*
X1096645Y4873322D01*
Y4853329D01*
X1116638Y4879987D02*
X1129968D01*
X1136632Y4873322D01*
Y4853329D01*
X1116638D01*
X1109974Y4859993D01*
X1116638Y4866658D01*
X1136632D01*
X1149961Y4853329D02*
X1163290D01*
X1156625D01*
Y4893316D01*
X1149961D01*
X1189948Y4853329D02*
X1203277D01*
X1209941Y4859993D01*
Y4873322D01*
X1203277Y4879987D01*
X1189948D01*
X1183283Y4873322D01*
Y4859993D01*
X1189948Y4853329D01*
X1236599Y4840000D02*
X1243264D01*
X1249928Y4846664D01*
Y4879987D01*
X1229935D01*
X1223270Y4873322D01*
Y4859993D01*
X1229935Y4853329D01*
X1249928D01*
X1263257D02*
X1276586D01*
X1269922D01*
Y4879987D01*
X1263257D01*
X1323238D02*
X1303244D01*
X1296580Y4873322D01*
Y4859993D01*
X1303244Y4853329D01*
X1323238D01*
X1343231Y4879987D02*
X1356560D01*
X1363225Y4873322D01*
Y4853329D01*
X1343231D01*
X1336567Y4859993D01*
X1343231Y4866658D01*
X1363225D01*
X1376554Y4853329D02*
X1389883D01*
X1383218D01*
Y4893316D01*
X1376554D01*
X1476521Y4886651D02*
X1469857Y4893316D01*
X1456528D01*
X1449863Y4886651D01*
Y4859993D01*
X1456528Y4853329D01*
X1469857D01*
X1476521Y4859993D01*
Y4873322D01*
X1463192D01*
X1489850Y4853329D02*
Y4893316D01*
X1516508Y4853329D01*
Y4893316D01*
X1529837D02*
Y4853329D01*
X1549831D01*
X1556495Y4859993D01*
Y4886651D01*
X1549831Y4893316D01*
X1529837D01*
D67*
X4459999Y240002D02*
D03*
X3780000D02*
D03*
D68*
X4840000Y4840000D02*
D03*
X160000Y160000D02*
D03*
Y4840000D02*
D03*
X4840000Y160000D02*
D03*
D69*
X2020000Y4860000D02*
D03*
X2401000D02*
D03*
D70*
X4249999Y4239999D02*
D03*
X4257934Y4075866D02*
D03*
X3860000Y4250000D02*
D03*
X4510000Y4220000D02*
D03*
X4650000Y4230000D02*
D03*
X4158000Y3129377D02*
D03*
Y2990000D02*
D03*
X1580076Y2170000D02*
D03*
X1330000Y1884139D02*
D03*
Y2930000D02*
D03*
X1390000Y2250000D02*
D03*
X1490000Y2750000D02*
D03*
X4689600Y4794600D02*
D03*
X3259999Y1859999D02*
D03*
X3420000Y1520000D02*
D03*
X3260000Y1580000D02*
D03*
X1840400Y2020000D02*
D03*
X1730400Y1940000D02*
D03*
X1991665Y2090000D02*
D03*
X2060000Y1660000D02*
D03*
X2290000Y2120000D02*
D03*
X1520000Y2050000D02*
D03*
X3500000Y780000D02*
D03*
X4120000Y820000D02*
D03*
X3770000Y490000D02*
D03*
X3810000Y3929600D02*
D03*
X3110000Y3830000D02*
D03*
X4880000Y2520000D02*
D03*
X3403692Y873692D02*
D03*
X4550000Y770000D02*
D03*
X4250000Y510000D02*
D03*
X1770000Y761909D02*
D03*
X2180000Y700000D02*
D03*
X1791091Y1081863D02*
D03*
X3100000Y770000D02*
D03*
D03*
X2690000Y1130000D02*
D03*
X3950000Y3629600D02*
D03*
X2530000Y3488800D02*
D03*
X2860000Y3670000D02*
D03*
X3720000Y3490000D02*
D03*
X4290000Y4890000D02*
D03*
X3420000Y3620000D02*
D03*
X3190000Y3740400D02*
D03*
X3530000Y3470000D02*
D03*
X2464600Y3665000D02*
D03*
X3600001Y3929998D02*
D03*
X2330000Y3515000D02*
D03*
X2690220Y3509780D02*
D03*
X2219996Y3729993D02*
D03*
X2075000Y3885000D02*
D03*
X4689937Y2730000D02*
D03*
X4869600Y2649998D02*
D03*
X4530000Y2514969D02*
D03*
X2920000Y790000D02*
D03*
X3210400Y870000D02*
D03*
X2460000Y3780000D02*
D03*
X2760000Y1500000D02*
D03*
X2600000Y939998D02*
D03*
D03*
X2660000Y800000D02*
D03*
X1990400Y1810000D02*
D03*
X1870000Y3510000D02*
D03*
X1640000Y3719200D02*
D03*
X3360000Y4870000D02*
D03*
X4000000Y4910000D02*
D03*
X3800439Y4909600D02*
D03*
X4880000Y2170000D02*
D03*
X2570000Y400000D02*
D03*
X3300000Y970000D02*
D03*
X1330000Y1520000D02*
D03*
X2900000Y1580000D02*
D03*
X2700000Y2080000D02*
D03*
Y1940000D02*
D03*
Y2210000D02*
D03*
X3524268Y4869600D02*
D03*
X1720000Y1280000D02*
D03*
X1770000Y3100000D02*
D03*
X1559600Y3089600D02*
D03*
X2110001Y3690000D02*
D03*
X2030000Y3430000D02*
D03*
X1730000Y3600000D02*
D03*
X1589606Y1450000D02*
D03*
X1870000Y420000D02*
D03*
X1790000Y560000D02*
D03*
X1510000Y530000D02*
D03*
X1590000Y1250000D02*
D03*
X1370000Y3700000D02*
D03*
D71*
X3060000Y970000D02*
D03*
Y1050000D02*
D03*
Y1010000D02*
D03*
X3060002Y1090002D02*
D03*
X3020000Y1090000D02*
D03*
X2980000D02*
D03*
X2940003Y1010002D02*
D03*
X2940000Y1050000D02*
D03*
X3020000Y970000D02*
D03*
D72*
X2940000D02*
D03*
%TF.MD5,a7109891bd45c34b3802699052f4ff28*%
M02*
