%TF.GenerationSoftware,Altium Limited,Altium Designer,20.1.11 (218)*%
G04 Layer_Physical_Order=4*
G04 Layer_Color=16711680*
%FSLAX45Y45*%
%MOMM*%
%TF.SameCoordinates,A720D921-2E1A-4B1E-B03F-C1F3B01285F1*%
%TF.FilePolarity,Positive*%
%TF.FileFunction,Copper,L4,Bot,Signal*%
%TF.Part,Single*%
G01*
G75*
%TA.AperFunction,Conductor*%
%ADD10C,0.10000*%
%TA.AperFunction,SMDPad,CuDef*%
%ADD15R,0.30000X0.27000*%
%ADD16R,0.50000X0.60000*%
%ADD36R,0.55000X0.60000*%
%TA.AperFunction,ComponentPad*%
%ADD59C,0.90000*%
%ADD60C,1.02000*%
%TA.AperFunction,ViaPad*%
%ADD61C,0.80000*%
%ADD62C,0.50000*%
%ADD63C,0.30000*%
%TA.AperFunction,SMDPad,CuDef*%
%ADD75R,0.80000X0.75000*%
%ADD76C,1.00000*%
%ADD77R,0.40000X0.70000*%
%ADD78R,0.40000X0.25000*%
%TA.AperFunction,BGAPad,CuDef*%
%ADD79C,0.25000*%
%TA.AperFunction,SMDPad,CuDef*%
%ADD80R,0.25000X0.36000*%
%ADD81R,0.50000X0.65000*%
G36*
X3170000Y1679999D02*
X3170000Y1459999D01*
X3010000Y1460000D01*
Y1480000D01*
X3089999Y1480001D01*
X3010001D01*
X3010000Y1650000D01*
X3040000Y1680000D01*
X3170000Y1679999D01*
D02*
G37*
G36*
X3471752Y1528248D02*
Y1401752D01*
X3470000Y1400000D01*
X3469998Y1400002D01*
X3307004D01*
X3308002Y1401000D01*
Y1460399D01*
X3360000D01*
Y1560000D01*
X3440000D01*
X3471752Y1528248D01*
D02*
G37*
G36*
X2950000Y1230000D02*
X2950000D01*
Y1099999D01*
X2940003Y1090002D01*
X2815000D01*
X2705002Y1200000D01*
X2630000D01*
X2580000Y1250000D01*
X2579998Y1320000D01*
X2949999D01*
X2950000Y1230000D01*
D02*
G37*
G36*
X1510000Y1290000D02*
Y1020000D01*
X1270000D01*
X1272505Y1290000D01*
X1360000D01*
Y1400000D01*
X1510000Y1400000D01*
Y1290000D01*
D02*
G37*
G36*
X2470000Y1030000D02*
X2470000Y980000D01*
X2533001D01*
Y783001D01*
X2530000Y780000D01*
X2330000D01*
Y1170000D01*
X2470000Y1030000D01*
D02*
G37*
G36*
X3890000Y642376D02*
X3630000Y642376D01*
Y790000D01*
X3890000D01*
X3890000Y642376D01*
D02*
G37*
G36*
X4940000Y540000D02*
X4930000D01*
X4440000Y540000D01*
X4419998Y560001D01*
X4310000D01*
Y680000D01*
X4600000D01*
X4750000Y830000D01*
X4940000D01*
Y540000D01*
D02*
G37*
G36*
X3400002Y545569D02*
X3294433Y440000D01*
X3010000D01*
X2990000Y460000D01*
X2990000Y640000D01*
X3160001Y640001D01*
X3400002D01*
Y545569D01*
D02*
G37*
G36*
X2550000Y510000D02*
X2490000Y450000D01*
Y270000D01*
X1960000D01*
Y490000D01*
X2040000D01*
Y400000D01*
X2350000D01*
Y580000D01*
X2550000D01*
Y510000D01*
D02*
G37*
G36*
X3690000Y390000D02*
X3420000D01*
Y488700D01*
X3420743Y490000D01*
X3690000D01*
Y390000D01*
D02*
G37*
G36*
X4607505Y4950000D02*
X4607503Y4860000D01*
X4392495Y4860000D01*
Y4950000D01*
X4607505Y4950000D01*
D02*
G37*
G36*
X3481000Y4250000D02*
X3530000D01*
X3600000Y4180000D01*
X4190000D01*
Y4160000D01*
Y4100000D01*
X3530000D01*
X3380000Y4250000D01*
X3481000D01*
X3481000Y4250000D01*
D02*
G37*
G36*
X3030000Y4142000D02*
Y4100000D01*
Y4020000D01*
X2280000D01*
Y4130000D01*
X2560000D01*
Y4220000D01*
X2952000D01*
X3030000Y4142000D01*
D02*
G37*
G36*
X3730000Y3239999D02*
X3820000Y3240000D01*
Y3100000D01*
X3730000Y3010000D01*
X3560000D01*
Y3280000D01*
X3690000D01*
X3730000Y3239999D01*
D02*
G37*
G36*
X2030000Y2420000D02*
X1860000D01*
Y2550000D01*
X1860000Y2550000D01*
Y2610007D01*
X1920000Y2610000D01*
X1920000Y2610000D01*
X1920000Y2610000D01*
Y2670501D01*
D01*
X1918319Y2760000D01*
X1925501D01*
Y2760000D01*
X2014499D01*
D01*
X2030000D01*
Y2420000D01*
D02*
G37*
G36*
X1559999Y2519999D02*
X1470000Y2430000D01*
X1390000Y2429999D01*
X1390000Y2639999D01*
X1439999Y2689999D01*
X1560000Y2690000D01*
X1559999Y2519999D01*
D02*
G37*
G36*
X1618507Y2840000D02*
X1680000D01*
Y2790000D01*
X1785000D01*
Y2522002D01*
X1692988Y2429989D01*
X1620000Y2429995D01*
X1617003Y2841504D01*
X1618507Y2840000D01*
D02*
G37*
G36*
X3780000Y2590000D02*
X3680000D01*
X3680000Y2480000D01*
X3210000Y2010000D01*
X3170000Y1970000D01*
X3149704Y1949704D01*
X3096499Y1896499D01*
Y1819999D01*
X3078501Y1820000D01*
Y1820001D01*
X2850000D01*
Y1970000D01*
Y2000000D01*
Y2010000D01*
X3490000Y2650000D01*
X3780000D01*
Y2590000D01*
D02*
G37*
G36*
X3096499Y1819999D02*
Y1800000D01*
X2850000D01*
Y1820001D01*
X3096499Y1819999D01*
D02*
G37*
%LPC*%
G36*
X3129408Y1970000D02*
D01*
X3150000D01*
D01*
X3129408D01*
D02*
G37*
%LPD*%
D10*
X1622304Y1720585D02*
G03*
X1617392Y1715395I37702J-40592D01*
G01*
X1888390Y1968491D02*
G03*
X1894225Y1974623I-47989J51509D01*
G01*
X3351106Y826885D02*
G03*
X3356885Y821106I52586J46807D01*
G01*
X3504224Y1314224D02*
G03*
X3507151Y1321096I-7072J7071D01*
G01*
X2060799Y1809638D02*
G03*
X2060799Y1810452I-70399J362D01*
G01*
X3799423Y4839207D02*
G03*
X3801987Y4839217I1015J70393D01*
G01*
X2035000Y3487506D02*
G03*
X2035000Y3502495I-70000J7495D01*
G01*
X4120002Y4239999D02*
X4249999D01*
X4340400Y4210400D02*
Y4788393D01*
X4417007Y4864999D01*
X4290000Y4160000D02*
X4340400Y4210400D01*
X4166824Y4160000D02*
X4290000D01*
X4251668Y4069600D02*
X4257934Y4075866D01*
X3670003Y4000000D02*
X4349937D01*
X4510000Y4160063D01*
X3517408Y4069600D02*
X4251668D01*
X3349600Y4237408D02*
Y4859600D01*
X3360000Y4870000D01*
X3349600Y4237408D02*
X3517408Y4069600D01*
X3769999Y4250000D02*
X3860000D01*
X4510000Y4220000D02*
Y4320000D01*
X4509999Y4320001D02*
X4510000Y4320000D01*
Y4160063D02*
Y4220000D01*
X4509999Y4320001D02*
Y4479999D01*
X4450000Y4050000D02*
X4630000Y4230000D01*
X4650000D01*
X4450000Y4050000D02*
X4450000D01*
X4158000Y3129377D02*
Y3149377D01*
X3949994Y3149994D02*
X4158617D01*
X4158000Y3149377D02*
X4158617Y3149994D01*
X4640000Y2244999D02*
Y2259995D01*
X1509675Y2439676D02*
X1580000Y2510000D01*
X1579997Y2300001D02*
X1580076Y2299923D01*
X1509675Y2060325D02*
X1520000Y2050000D01*
X1580076Y2170000D02*
Y2299923D01*
X1509675Y2060325D02*
Y2439676D01*
X1329999Y2490001D02*
Y2669999D01*
X1410000Y2750000D02*
X1490000D01*
X1329999Y2669999D02*
X1410000Y2750000D01*
X1319600Y1894539D02*
X1330000Y1884139D01*
X1319600Y1894539D02*
Y2279161D01*
X1330000Y2930000D02*
X1530000D01*
X1259600Y1610400D02*
X1270000Y1600000D01*
X1259600Y1610400D02*
Y2959600D01*
X1390000Y3090000D01*
X1559200D01*
X1319600Y2279161D02*
X1320000Y2279561D01*
Y2380002D02*
X1329999Y2390001D01*
X1320000Y2279561D02*
Y2380002D01*
X1390000Y2150000D02*
X1410001Y2129999D01*
X1390000Y2150000D02*
Y2250000D01*
X1580000Y2510000D02*
Y2810001D01*
X1560002Y2830000D02*
X1580000Y2810001D01*
X1530000Y2930000D02*
X1578500D01*
X1638500Y2870000D01*
X1351493Y2391495D02*
X1409993D01*
X4880000Y2180000D02*
X4950400Y2250400D01*
X4880000Y2170000D02*
Y2180000D01*
X4950400Y2250400D02*
Y2737102D01*
X4880000Y2170000D02*
Y2170000D01*
X4743500Y2306500D02*
Y2464996D01*
Y2306500D02*
X4880000Y2170000D01*
X4417007Y4864999D02*
X4419999D01*
X4439999Y4884999D01*
Y4889999D01*
X4564603Y4794600D02*
X4689600D01*
X4560002Y4789999D02*
X4564603Y4794600D01*
X4439999Y4789999D02*
X4560002D01*
X3200001Y1859999D02*
X3259999D01*
X3170001Y1427001D02*
X3259996D01*
X3510800Y1503747D02*
Y1528760D01*
X3449160Y1590400D02*
X3510800Y1528760D01*
X3270400Y1590400D02*
X3449160D01*
X3260000Y1580000D02*
X3270400Y1590400D01*
X3420000Y1515259D02*
Y1520000D01*
Y1515259D02*
X3435220Y1500039D01*
X3260000Y1430002D02*
Y1580000D01*
X2924998Y465002D02*
Y584999D01*
X2980000Y410000D02*
X3309999D01*
X2924998Y465002D02*
X2980000Y410000D01*
X3091498Y761498D02*
X3100000Y770000D01*
X2989999Y761498D02*
X3091498D01*
X2820000Y440000D02*
X2830000D01*
X2730001Y350001D02*
X2820000Y440000D01*
X2720000Y589998D02*
X2720002Y590000D01*
X2720000Y460001D02*
Y589998D01*
X2700002Y440003D02*
X2720000Y460001D01*
X2700002Y437503D02*
Y440003D01*
X2687500Y425001D02*
X2700002Y437503D01*
X2652100Y392593D02*
X2669908Y410401D01*
X2685000Y425001D02*
X2687500D01*
X2669908Y410401D02*
X2670400D01*
X2650000Y390001D02*
X2652100Y392101D01*
X2670400Y410401D02*
X2685000Y425001D01*
X2652100Y392101D02*
Y392593D01*
X2650000Y190000D02*
Y390001D01*
X1873759Y2653257D02*
X1873759Y2653257D01*
X1869999Y2739998D02*
X1873759Y2736239D01*
Y2653257D02*
Y2736239D01*
X1840000Y2615247D02*
X1878010Y2653257D01*
X1873759D02*
X1878010D01*
X1859091Y2057633D02*
Y2059091D01*
X2090000Y2290000D02*
Y2740000D01*
X1840400Y2020000D02*
Y2038942D01*
X1859091Y2057633D01*
Y2059091D02*
X2090000Y2290000D01*
X1804600Y2504663D02*
Y2696609D01*
X1805399Y2697408D01*
Y2944161D01*
X1840000Y2490000D02*
Y2615247D01*
X1730400Y2380400D02*
X1840000Y2490000D01*
X1701430Y2401493D02*
X1804600Y2504663D01*
X1370000Y3379560D02*
X1805399Y2944161D01*
X1730400Y1940000D02*
Y2380400D01*
X1671490Y2401493D02*
X1701430D01*
X1670010Y2400012D02*
X1671490Y2401493D01*
X1581491Y2398508D02*
X1670010D01*
X1669990Y2401493D02*
X1671490D01*
X1622304Y1720585D02*
X1888390Y1968491D01*
X1598694Y1459088D02*
Y1692886D01*
X1617392Y1715395D01*
X1894225Y1974623D02*
X1991665Y2090000D01*
X1670010Y2398508D02*
Y2400012D01*
X1660006Y1679993D02*
X1660013Y1680000D01*
X1850000D01*
X2150000Y2120439D02*
Y3310000D01*
X1920000Y1890439D02*
X2150000Y2120439D01*
X1920000Y1709561D02*
Y1890439D01*
X2205000Y2125376D02*
Y3305063D01*
X1990000Y1910376D02*
X2205000Y2125376D01*
X1990000Y1812800D02*
Y1910376D01*
X2260000Y2120000D02*
X2290000D01*
X2060401Y1920400D02*
X2063329Y1923329D01*
X1990000Y1812800D02*
X1990400Y1810000D01*
X2063329Y1923329D02*
X2260000Y2120000D01*
X2060401Y1912116D02*
Y1920400D01*
Y1912116D02*
X2060799Y1810452D01*
X2060000Y1660000D02*
Y1684942D01*
X2057471Y1687471D02*
X2060000Y1684942D01*
X1410800Y1390800D02*
Y1890533D01*
X1410798D02*
X1410800D01*
X1410000Y1390000D02*
X1410800Y1390800D01*
X3500000Y780000D02*
X3595244Y684756D01*
X3500000Y780000D02*
X3540400Y820400D01*
X3902592D01*
X3595244Y582749D02*
Y684756D01*
X4335646Y790000D02*
X4360000D01*
X4305646Y820000D02*
X4335646Y790000D01*
X4120000Y820000D02*
X4305646D01*
X3902992D02*
X4120000D01*
X3902592Y820400D02*
X3902992Y820000D01*
X3403692Y873692D02*
X4440000Y870000D01*
X4442929Y867071D01*
X4540000Y770000D01*
X3770000Y507779D02*
X3800001Y537780D01*
Y601501D01*
X3770000Y490000D02*
Y507779D01*
X3862002Y604501D02*
X3865002Y607501D01*
X3803001Y604501D02*
X3862002D01*
X3800001Y601501D02*
X3803001Y604501D01*
X3589998Y577503D02*
X3595244Y582749D01*
X3660000Y660000D02*
X3660398Y659602D01*
Y450398D02*
Y659602D01*
X3660000Y450000D02*
X3660398Y450398D01*
X3467071Y570432D02*
Y710919D01*
X3309999Y410000D02*
X3467501Y567502D01*
X4120002Y4243891D02*
X4140002Y4263891D01*
X4120002Y4239999D02*
Y4243891D01*
X3820432Y3940031D02*
X4340032D01*
X3600001Y3929998D02*
X3670003Y4000000D01*
X3810000Y3929600D02*
X3820432Y3940031D01*
X3110000Y3830000D02*
X4130000D01*
X4700000Y3260000D01*
X4640000Y2259995D02*
X4700003Y2319998D01*
X4620002Y2264997D02*
Y2269997D01*
Y2264997D02*
X4640000Y2244999D01*
X4700003Y2319998D02*
Y2439998D01*
X4748501Y2520000D02*
X4880000D01*
X4743500Y2514999D02*
X4748501Y2520000D01*
X4700000Y2987502D02*
X4950400Y2737102D01*
X3250897Y856606D02*
X3349999Y757504D01*
Y707499D02*
Y757504D01*
X3210400Y870000D02*
X3223794Y856606D01*
X3250897D01*
X3303795Y874195D02*
X3350906Y827085D01*
X3351106Y826884D01*
X3356884Y821106D02*
X3357082Y820908D01*
X3303795Y874195D02*
Y966205D01*
X3357082Y820908D02*
X3467071Y710919D01*
X3300000Y970000D02*
X3303795Y966205D01*
X2919998Y589999D02*
X2924998Y584999D01*
X2812499Y614999D02*
X2827502D01*
X4019999Y658501D02*
X4168501D01*
X4489998Y568500D02*
X4490746Y569249D01*
X4449998Y568500D02*
X4489998D01*
X4408498Y610000D02*
X4449998Y568500D01*
X4359999Y610000D02*
X4408498D01*
X4361497Y511498D02*
X4489998D01*
X4540000Y770000D02*
X4550000D01*
X3507151Y1321096D02*
X3510785Y1503747D01*
X3395400Y1205400D02*
X3504224Y1314224D01*
X3060000Y1010000D02*
X3066742D01*
X3109874Y970000D02*
X3410002Y1270128D01*
X3140000Y810000D02*
Y950063D01*
X3410002Y1270128D02*
Y1371498D01*
X3096766Y1012497D02*
X3329998Y1245730D01*
X3069239Y1012497D02*
X3096766D01*
X3066742Y1010000D02*
X3069239Y1012497D01*
X3395337Y1205400D02*
X3395400D01*
X3060000Y970000D02*
X3109874D01*
X3329998Y1245730D02*
Y1371503D01*
X3140000Y950063D02*
X3395337Y1205400D01*
X2979110Y1090890D02*
Y1661117D01*
X3020000Y1098532D02*
Y1350000D01*
X1340000Y2380002D02*
X1351493Y2391495D01*
X1272929Y1597071D02*
X1330000Y1540000D01*
X1410001Y2029999D02*
X1410798Y1890533D01*
X1270000Y1600000D02*
X1272929Y1597071D01*
X2389998Y542498D02*
X2400000Y532496D01*
X4359998Y609999D02*
X4359999Y610000D01*
X4250000Y510000D02*
X4359999D01*
X4361497Y511498D01*
X4359998Y509999D02*
X4359999Y510000D01*
X2137502Y453748D02*
X2180000Y496246D01*
Y700000D01*
X2100001Y459999D02*
X2106252Y453748D01*
X2137502D01*
X1790000Y560000D02*
X1989998D01*
Y559999D02*
X2100001D01*
X1598490Y931510D02*
X1768091Y761909D01*
X1770000D01*
X1520008Y931510D02*
X1598490D01*
X1692502Y1059998D02*
Y1061863D01*
X1712502Y1081863D02*
X1791091D01*
X1692502Y1061863D02*
X1712502Y1081863D01*
X1500000Y3490000D02*
Y3790000D01*
X1570000Y3860000D01*
X3083748Y1373750D02*
X3089999Y1380001D01*
X3043750Y1373750D02*
X3083748D01*
X3020000Y1350000D02*
X3043750Y1373750D01*
X3170001Y1230001D02*
Y1371499D01*
X3060000Y1120000D02*
X3170001Y1230001D01*
X3060000Y1090002D02*
Y1120000D01*
X2940000Y909561D02*
Y970000D01*
X3082103Y1047897D02*
X3257197Y1222991D01*
X2989999Y939999D02*
X3020000Y970000D01*
X3100000Y770000D02*
X3140000Y810000D01*
X2989999Y818501D02*
Y939999D01*
X3076983Y1047897D02*
X3082103D01*
X3257197Y1222991D02*
Y1367203D01*
X3259997Y1370003D01*
X2820002Y789563D02*
X2940000Y909561D01*
X3100000Y770000D02*
X3162498Y707502D01*
X2630000Y1282498D02*
X2646637Y1265862D01*
X2510000Y1260809D02*
X2640809Y1130000D01*
X2510000Y1260809D02*
Y1332496D01*
X2640809Y1130000D02*
X2690000D01*
X2510000Y1332496D02*
X2510002Y1332498D01*
X2690000Y1130000D02*
Y1160000D01*
X2498038Y1052401D02*
X2929059D01*
X2523396Y1010398D02*
X2939606D01*
X2630000Y1417499D02*
X2635000Y1412499D01*
X2802499D02*
X2890000Y1500000D01*
X2635000Y1412499D02*
X2802499D01*
X2890000Y1570000D02*
X2900000Y1580000D01*
X2890000Y1500000D02*
Y1570000D01*
X2075000Y3866058D02*
Y3885000D01*
X4271058Y4890000D02*
X4290000D01*
X4251058Y4910000D02*
X4271058Y4890000D01*
X4000000Y4910000D02*
X4251058D01*
X1300000Y1240000D02*
X1320000D01*
X1330000Y1510000D02*
Y1540000D01*
X1300000Y1340000D02*
Y1480000D01*
X1330000Y1510000D01*
X3524268Y4869600D02*
Y4869600D01*
X3551078Y4842789D02*
X3555136Y4842730D01*
X3799423Y4839207D01*
X3524268Y4869600D02*
X3551078Y4842789D01*
X3430000Y4940000D02*
X3770039D01*
X3800439Y4909600D01*
X3238876Y3468750D02*
X3528750D01*
X3414150Y3504150D02*
X3540000Y3630000D01*
X2690000Y2919874D02*
X3238876Y3468750D01*
X2560000Y2890000D02*
X3209550Y3539550D01*
X3339550D02*
X3420000Y3620000D01*
X3528750Y3468750D02*
X3530000Y3470000D01*
X3209550Y3539550D02*
X3339550D01*
X2620000Y2899937D02*
X3224213Y3504150D01*
X3414150D01*
X3190000Y3740400D02*
X3195200D01*
X3230200Y3775400D02*
X4134537D01*
X3195200Y3740400D02*
X3230200Y3775400D01*
X2869251Y3509780D02*
X2979871Y3620400D01*
X2690220Y3509780D02*
X2869251D01*
X3230000Y3670000D02*
X3300000Y3740000D01*
X2860000Y3670000D02*
X3230000D01*
X2639752Y3559200D02*
X2840552Y3760000D01*
X2727899Y3697962D02*
X2864448Y3834511D01*
X2727899Y3697409D02*
Y3697962D01*
X2625089Y3594600D02*
X2727899Y3697409D01*
X4134537Y3775400D02*
X4610000Y3299937D01*
X2840552Y3760000D02*
X2980003D01*
X3000002Y3740001D01*
X3300000Y3740000D02*
X4110000D01*
X4120002Y3729998D01*
X4120003D01*
X4570000Y3280000D01*
X3949600Y3630000D02*
X3950000Y3629600D01*
X3260400Y3620400D02*
X3340000Y3700000D01*
X4080000D02*
X4530000Y3250000D01*
X3340000Y3700000D02*
X4080000D01*
X3540000Y3630000D02*
X3949600D01*
X2515063Y3665000D02*
X2595066Y3745003D01*
X2464600Y3665000D02*
X2515063D01*
X2580000Y3780000D02*
X2650002Y3850003D01*
X2595066Y3745003D02*
X2685001D01*
X2460000Y3780000D02*
X2580000D01*
X2205400Y3594600D02*
X2625089D01*
X2374200Y3559200D02*
X2639752D01*
X2330000Y3515000D02*
X2374200Y3559200D01*
X2999998Y3939999D02*
X3009999Y3950000D01*
X3139998Y4009998D02*
Y4010001D01*
X3080000Y3950000D02*
X3139998Y4009998D01*
X3009999Y3950000D02*
X3080000D01*
X4869600Y2649595D02*
Y2649998D01*
X4787871Y2567866D02*
X4869600Y2649595D01*
X3435220Y1492016D02*
Y1496458D01*
X3435220Y1500039D01*
X2030000Y3430000D02*
X2150000Y3310000D01*
X2650002Y3850003D02*
X2680001D01*
X2979871Y3620400D02*
X3260400D01*
X2710000Y350001D02*
X2730001D01*
X2575003Y1500000D02*
X2760000D01*
X2510002Y1434999D02*
X2575003Y1500000D01*
X2510002Y1427499D02*
Y1434999D01*
X2600000Y877782D02*
X2660000Y817782D01*
X2600000Y877782D02*
Y939998D01*
X2660000Y735385D02*
Y800000D01*
Y817782D01*
X2350000Y1200439D02*
X2498038Y1052401D01*
X2660000Y735385D02*
X2700000Y695385D01*
X2694805Y690190D02*
X2700000Y695385D01*
X3162498Y707502D02*
X3230001D01*
X2820002Y689999D02*
Y789563D01*
X2920000Y689997D02*
X2939998Y669999D01*
X2920000Y689997D02*
Y790000D01*
X2924998Y584999D02*
X2929998Y589999D01*
X2509250Y950749D02*
X2509999Y951498D01*
X2510000Y951497D01*
X2510002Y677500D02*
X2520001Y687499D01*
X2619998D01*
X2389998Y677499D02*
X2510001D01*
X2510002Y677500D01*
X2390000Y542499D02*
X2510002D01*
X2389998Y542498D02*
X2390000Y542499D01*
X1920400Y1480400D02*
Y1709160D01*
X1720000Y1280000D02*
X1920400Y1480400D01*
X1920000Y1709561D02*
X1920400Y1709160D01*
X2057471Y1687471D02*
X2060400Y1690400D01*
X2060799Y1809638D01*
X1770000Y3720000D02*
X1959600Y3530400D01*
Y2850400D02*
Y3530400D01*
X1870000Y2839999D02*
Y3510000D01*
X1640800Y3720000D02*
X1770000D01*
X1640000Y3719200D02*
X1640800Y3720000D01*
X3360000Y4870000D02*
X3430000Y4940000D01*
X4000000Y4890000D02*
Y4910000D01*
X3952529Y4842529D02*
X4000000Y4890000D01*
X3729998Y2520001D02*
X3735030Y2514969D01*
X4530000D01*
X3445049Y2865997D02*
X3750000D01*
Y2950000D02*
X3949994Y3149994D01*
X4530000Y2464999D02*
Y2514969D01*
Y2464999D02*
X4620002Y2374997D01*
X4530000Y2514969D02*
X4585031D01*
X4635004Y2464996D01*
X4530000Y2630766D02*
X4642897Y2517869D01*
X4570000Y2640829D02*
Y3280000D01*
Y2640829D02*
X4642963Y2567866D01*
X4530000Y2630766D02*
Y3250000D01*
X4620002Y2369997D02*
Y2374997D01*
X4635004Y2464996D02*
X4656500D01*
X4610000Y2661499D02*
X4656500Y2614999D01*
X4610000Y2661499D02*
Y3299937D01*
X3801987Y4839217D02*
X3952529Y4842529D01*
X4120000Y4240000D02*
Y4244997D01*
X4653630Y2517869D02*
X4656500Y2514999D01*
X4642897Y2517869D02*
X4653630D01*
Y2567866D02*
X4656500Y2564996D01*
X4642963Y2567866D02*
X4653630D01*
X4700000Y2987502D02*
Y2990002D01*
Y3090002D02*
Y3260000D01*
X4640000Y2120000D02*
Y2244999D01*
X4639999Y2249999D02*
X4640000Y2249999D01*
X3862002Y655499D02*
X3865002Y652499D01*
X2570000Y400000D02*
Y460000D01*
X2619998Y509998D02*
Y592498D01*
X2570000Y460000D02*
X2619998Y509998D01*
X2720002Y590000D02*
X2820001D01*
X2619998Y687499D02*
X2697497D01*
X2350000Y1200439D02*
Y1330000D01*
X2929059Y1052401D02*
X2931460Y1050000D01*
X2694805Y690190D02*
X2697497Y687499D01*
X3770002Y3290002D02*
Y3439998D01*
X3720000Y3490000D02*
X3770002Y3439998D01*
X2900000Y1857503D02*
X2910001Y1847502D01*
X2560000Y2080000D02*
Y2890000D01*
X2620000Y2160000D02*
Y2899937D01*
X2690000Y2220000D02*
Y2919874D01*
X2620000Y2160000D02*
X2700000Y2080000D01*
X2560000Y2080000D02*
X2700000Y1940000D01*
X2690000Y2220000D02*
X2700000Y2210000D01*
X2864448Y3834511D02*
X3000002D01*
X3751505Y3308499D02*
X3770002Y3290002D01*
X3660000Y3308499D02*
X3751505D01*
X3660000Y3251501D02*
X3661499D01*
X1740001Y3240001D02*
X1779999D01*
X4743500Y2614999D02*
Y2656500D01*
X4690002Y2709998D02*
X4743500Y2656500D01*
X3349997Y572501D02*
X3349999Y572498D01*
X1760001Y3309999D02*
Y3450410D01*
X1720410Y3490000D02*
X1760001Y3450410D01*
X1650010Y3520010D02*
X1730000Y3600000D01*
X1650010Y3258510D02*
Y3520010D01*
X2329999Y3845001D02*
Y3940001D01*
Y3840000D02*
Y3845001D01*
X1510002Y779999D02*
X1510003Y780000D01*
X1560000D01*
X1300000Y944998D02*
Y949998D01*
Y944998D02*
X1320000Y924998D01*
X1325000D01*
X1470000Y779999D01*
X1510002D01*
X1419994Y949998D02*
X1419998Y950002D01*
X1300000Y949998D02*
X1419994D01*
X1453503Y988508D02*
X1520008D01*
X1419994Y954998D02*
X1453503Y988508D01*
X1419994Y949998D02*
Y954998D01*
X1692501Y960000D02*
X1692502Y959998D01*
X1630000Y960000D02*
X1692501D01*
X1419998Y1050002D02*
X1539998D01*
X1630000Y960000D01*
X1419998Y1050002D02*
X1420000Y1050004D01*
X1300000Y1049999D02*
X1300000Y1049998D01*
X1419994D02*
X1419998Y1050002D01*
X1959600Y2850400D02*
X1970000Y2840000D01*
X2090000D01*
X2670000Y4045002D02*
X2685001D01*
X2670000Y4040001D02*
Y4045002D01*
X2669999Y4040000D02*
X2670000Y4040001D01*
X4120001Y4140000D02*
X4120002Y4139999D01*
X3759999D02*
X3759999Y4140000D01*
X3759998D02*
X3759999Y4139999D01*
X3170001Y1427001D02*
Y1428502D01*
X3329998Y1428500D02*
X3329998Y1428501D01*
X3078501Y1820000D02*
X3079999Y1818502D01*
X2979110Y1661117D02*
X2999493Y1681500D01*
X3000000D01*
X2900000Y1580000D02*
Y1702500D01*
X2910001Y1712501D01*
X3000000Y1681500D02*
X3069999Y1751499D01*
X3078499Y1761499D02*
X3079999D01*
X3069999Y1752999D02*
X3078499Y1761499D01*
X3069999Y1751499D02*
Y1752999D01*
X2820002Y589999D02*
X2919998D01*
X2820001Y590000D02*
X2820002Y589999D01*
X3079999Y1761499D02*
X3198501D01*
X3200001Y1759999D01*
X3949999Y601498D02*
X4019999D01*
X3934999Y616498D02*
X3949999Y601498D01*
X3934999Y616498D02*
Y630000D01*
X3259996Y1427001D02*
X3259997Y1427000D01*
X2700000Y1940000D02*
Y1940000D01*
X4743500Y2564996D02*
X4746370Y2567866D01*
X4787871D01*
X4700000Y2440000D02*
X4700003Y2439998D01*
X2035000Y3475063D02*
X2205000Y3305063D01*
X2997713Y3747291D02*
X3000002Y3745002D01*
X2994784Y3750220D02*
X2997713Y3747291D01*
X4340032Y3940031D02*
X4450000Y4050000D01*
X2035000Y3825000D02*
X2056109Y3846109D01*
Y3847168D01*
X2075000Y3866058D01*
X2035000Y3502495D02*
Y3825000D01*
Y3502495D02*
Y3502495D01*
Y3475063D02*
Y3487506D01*
X4700000Y2440000D02*
Y2490000D01*
Y2590000D01*
X3759999Y4239999D02*
X3769999Y4250000D01*
X3989996Y4240000D02*
X4120000D01*
X3650000D02*
X3759998D01*
X3759999Y4239999D01*
X1560000Y3090000D02*
X1750000Y2900000D01*
X1770000Y3100000D02*
Y3200000D01*
X1370000Y3379560D02*
Y3700000D01*
X3610004Y2950000D02*
X3750000D01*
X3610004Y2949999D02*
X3610004Y2950000D01*
X2669999Y3840001D02*
X2680000Y3850002D01*
X2669999Y3940001D02*
X2680000Y3930000D01*
Y3850002D02*
Y3930000D01*
X2999998Y3840005D02*
Y3939999D01*
Y3840005D02*
X3000002Y3840001D01*
X2345004Y3944999D02*
X2495003D01*
X2244999Y3845001D02*
X2329999D01*
Y3839999D02*
X2329999Y3840000D01*
X2329992Y3729993D02*
X2345001Y3745002D01*
X2219996Y3729993D02*
X2329992D01*
X2110001Y3690000D02*
X2205400Y3594600D01*
X1559200Y3090000D02*
X1559600Y3089600D01*
X1790000Y420000D02*
X1870000D01*
X1590000Y620000D02*
X1790000Y420000D01*
X1590000Y620000D02*
Y750000D01*
X1640000Y2813003D02*
X1641500D01*
X1638500Y2870000D02*
X1640000D01*
X2685001Y4045002D02*
X2685005Y4044999D01*
X2075000Y3885000D02*
X2205000D01*
X2244999Y3845001D01*
X1589606Y1450000D02*
X1598694Y1459088D01*
X1590000Y1250000D02*
Y1449606D01*
X1579997Y2400001D02*
X1581491Y2398508D01*
X1560000Y780000D02*
X1590000Y750000D01*
X1510000Y530000D02*
Y560000D01*
X1510002Y560002D02*
Y679999D01*
X1510000Y560000D02*
X1510002Y560002D01*
X1589606Y1450000D02*
X1590000Y1449606D01*
X2685001Y3945002D02*
X2685001Y3945003D01*
X2685004Y3945000D02*
X2825000D01*
X2345001Y3945003D02*
X2345004Y3944999D01*
X2685001Y3945003D02*
X2685004Y3945000D01*
X1760001Y3209999D02*
X1770000Y3200000D01*
X1751509Y3201507D02*
X1760001Y3209999D01*
X1650010Y3201507D02*
X1751509D01*
X1869999Y2839998D02*
X1870000Y2839999D01*
X1750000Y2840001D02*
Y2900000D01*
X1749999Y2840000D02*
X1750000Y2840001D01*
D15*
X1669990Y2458490D02*
D03*
Y2401493D02*
D03*
X4489998Y568500D02*
D03*
Y511498D02*
D03*
X3170001Y1428502D02*
D03*
Y1371499D02*
D03*
X3410002Y1428501D02*
D03*
Y1371498D02*
D03*
X1520008Y931510D02*
D03*
Y988508D02*
D03*
X3800001Y601501D02*
D03*
Y658499D02*
D03*
X4019999Y658501D02*
D03*
Y601498D02*
D03*
X1880006Y2591507D02*
D03*
Y2648510D02*
D03*
X1640000Y2813003D02*
D03*
Y2870000D02*
D03*
X1409993Y2391495D02*
D03*
Y2448493D02*
D03*
X1650010Y3258510D02*
D03*
Y3201507D02*
D03*
X3660000Y3251501D02*
D03*
Y3308499D02*
D03*
X3329998Y1371503D02*
D03*
Y1428500D02*
D03*
X3259997Y1370003D02*
D03*
Y1427000D02*
D03*
X2509999Y1008501D02*
D03*
Y951498D02*
D03*
X2989999Y761498D02*
D03*
Y818501D02*
D03*
X3079999Y1761499D02*
D03*
Y1818502D02*
D03*
D16*
X1989998Y559999D02*
D03*
Y459999D02*
D03*
X4439999Y4789999D02*
D03*
Y4889999D02*
D03*
X4560002Y4789999D02*
D03*
Y4889999D02*
D03*
X4359998Y509999D02*
D03*
Y609999D02*
D03*
X4639999Y2349999D02*
D03*
Y2249999D02*
D03*
X1692502Y1059998D02*
D03*
Y959998D02*
D03*
X1560002Y2830000D02*
D03*
Y2929999D02*
D03*
X1390002Y2129999D02*
D03*
Y2029999D02*
D03*
X1749999Y2840000D02*
D03*
Y2740000D02*
D03*
X1869999Y2839998D02*
D03*
Y2739998D02*
D03*
X1329999Y2390001D02*
D03*
Y2490001D02*
D03*
X1760001Y3309999D02*
D03*
Y3209999D02*
D03*
X1970000Y2740000D02*
D03*
Y2840000D02*
D03*
X1300000Y1240000D02*
D03*
Y1340000D02*
D03*
X1419998Y1050002D02*
D03*
Y950002D02*
D03*
X1300000Y1049998D02*
D03*
Y949998D02*
D03*
X3729998Y2620000D02*
D03*
Y2520001D02*
D03*
X3610004Y3049999D02*
D03*
Y2949999D02*
D03*
X3770002Y3190002D02*
D03*
Y3290002D02*
D03*
X3650000Y4140000D02*
D03*
Y4240000D02*
D03*
X3759999Y4139999D02*
D03*
Y4239999D02*
D03*
X3989996Y4140000D02*
D03*
Y4240000D02*
D03*
X4120002Y4139999D02*
D03*
Y4239999D02*
D03*
D36*
X4700000Y2990002D02*
D03*
Y3090002D02*
D03*
X2090000Y2840000D02*
D03*
Y2740000D02*
D03*
X2329999Y3839999D02*
D03*
Y3740000D02*
D03*
X2669999Y3740001D02*
D03*
Y3840001D02*
D03*
X3000002D02*
D03*
Y3740001D02*
D03*
X1579997Y2300001D02*
D03*
Y2400001D02*
D03*
X2100001Y559999D02*
D03*
Y459999D02*
D03*
X1510002Y779999D02*
D03*
Y679999D02*
D03*
X2999998Y4039999D02*
D03*
Y3939999D02*
D03*
X2669999Y4040000D02*
D03*
Y3940001D02*
D03*
X2329999Y4040000D02*
D03*
Y3940001D02*
D03*
X2720002Y690000D02*
D03*
Y590000D02*
D03*
X2820002Y589999D02*
D03*
Y689999D02*
D03*
X3089999Y1480001D02*
D03*
Y1380001D02*
D03*
X2929998Y589999D02*
D03*
Y689999D02*
D03*
X2720000Y350001D02*
D03*
Y450001D02*
D03*
X3180001Y1759999D02*
D03*
Y1859999D02*
D03*
D59*
X4459999Y240002D02*
D03*
X3780000D02*
D03*
D60*
X2020000Y4860000D02*
D03*
X2401000D02*
D03*
D61*
X4249999Y4239999D02*
D03*
X4257934Y4075866D02*
D03*
X3860000Y4250000D02*
D03*
X4510000Y4220000D02*
D03*
X4650000Y4230000D02*
D03*
X4158000Y3129377D02*
D03*
X4820009Y660004D02*
D03*
X4660008D02*
D03*
X3700007Y3060007D02*
D03*
X3740007Y740004D02*
D03*
X3660007Y3140007D02*
D03*
X3540007Y4180008D02*
D03*
Y2580006D02*
D03*
X3500007Y2500006D02*
D03*
X3460007Y2420006D02*
D03*
X3420007Y2500006D02*
D03*
X3380007Y2420006D02*
D03*
X3420007Y2340006D02*
D03*
X3260007D02*
D03*
Y2180006D02*
D03*
X3220007Y2100005D02*
D03*
X3180007Y2180006D02*
D03*
X3140007Y2100005D02*
D03*
X3060007D02*
D03*
Y1620005D02*
D03*
Y500004D02*
D03*
X2860006Y4100008D02*
D03*
X2780006Y1220004D02*
D03*
X2420006Y980004D02*
D03*
X2380006Y1060004D02*
D03*
X1460005Y2580006D02*
D03*
X1380005Y1140004D02*
D03*
X4740009Y660004D02*
D03*
X3820007Y740004D02*
D03*
X3620007Y2580006D02*
D03*
X3580007Y2500006D02*
D03*
X3540007Y2420006D02*
D03*
X3380007Y2260006D02*
D03*
X3340007Y2340006D02*
D03*
X3300007Y2260006D02*
D03*
X3220007D02*
D03*
X3140007Y500004D02*
D03*
X3100006Y2180006D02*
D03*
X2860006Y1220004D02*
D03*
X2780006Y4100008D02*
D03*
X2420006Y340003D02*
D03*
X2380006Y900004D02*
D03*
X2180006Y340003D02*
D03*
X2100005D02*
D03*
X2020005D02*
D03*
X1980005Y2500006D02*
D03*
X1700005Y2580006D02*
D03*
X1660005Y2660006D02*
D03*
X1460005Y1300005D02*
D03*
X1420005Y1220004D02*
D03*
X1580076Y2170000D02*
D03*
X1330000Y1884139D02*
D03*
Y2930000D02*
D03*
X1390000Y2250000D02*
D03*
X1490000Y2750000D02*
D03*
X4689600Y4794600D02*
D03*
X3259999Y1859999D02*
D03*
X3420000Y1520000D02*
D03*
X3260000Y1580000D02*
D03*
X2830000Y440000D02*
D03*
X1840400Y2020000D02*
D03*
X1730400Y1940000D02*
D03*
X1991665Y2090000D02*
D03*
X2060000Y1660000D02*
D03*
X2290000Y2120000D02*
D03*
X1520000Y2050000D02*
D03*
X3500000Y780000D02*
D03*
X4120000Y820000D02*
D03*
X3770000Y490000D02*
D03*
X3810000Y3929600D02*
D03*
X3110000Y3830000D02*
D03*
X4880000Y2520000D02*
D03*
X3403692Y873692D02*
D03*
X4168501Y658501D02*
D03*
X4550000Y770000D02*
D03*
X4250000Y510000D02*
D03*
X2180000Y700000D02*
D03*
X1770000Y761909D02*
D03*
X1791091Y1081863D02*
D03*
X1570000Y3860000D02*
D03*
X3100000Y770000D02*
D03*
D03*
X2690000Y1130000D02*
D03*
X1790000Y560000D02*
D03*
X2860000Y3670000D02*
D03*
X3720000Y3490000D02*
D03*
X3530000Y3470000D02*
D03*
X2690220Y3509780D02*
D03*
X2075000Y3885000D02*
D03*
X4530000Y2514969D02*
D03*
X4290000Y4890000D02*
D03*
X3190000Y3740400D02*
D03*
X3950000Y3629600D02*
D03*
X3420000Y3620000D02*
D03*
X2460000Y3780000D02*
D03*
X2464600Y3665000D02*
D03*
X4880000Y2170000D02*
D03*
X4869600Y2649998D02*
D03*
X2760000Y1500000D02*
D03*
X2600000Y939998D02*
D03*
X2660000Y800000D02*
D03*
X2920000Y790000D02*
D03*
X1850000Y1680000D02*
D03*
X1990400Y1810000D02*
D03*
X1870000Y3510000D02*
D03*
X1640000Y3719200D02*
D03*
X3600001Y3929998D02*
D03*
X3360000Y4870000D02*
D03*
X4000000Y4910000D02*
D03*
X3800439Y4909600D02*
D03*
X4689937Y2730000D02*
D03*
X4640000Y2120000D02*
D03*
X2570000Y400000D02*
D03*
X3210400Y870000D02*
D03*
X3300000Y970000D02*
D03*
X1720410Y3490000D02*
D03*
X1330000Y1520000D02*
D03*
X2900000Y1580000D02*
D03*
X2700000Y2080000D02*
D03*
Y1940000D02*
D03*
Y2210000D02*
D03*
X3524268Y4869600D02*
D03*
X1720000Y1280000D02*
D03*
X1559600Y3089600D02*
D03*
X1770000Y3100000D02*
D03*
X2219996Y3729993D02*
D03*
X2110001Y3690000D02*
D03*
X2030000Y3430000D02*
D03*
X1730000Y3600000D02*
D03*
X2330000Y3515000D02*
D03*
X1589606Y1450000D02*
D03*
X1870000Y420000D02*
D03*
X1510000Y530000D02*
D03*
X1590000Y1250000D02*
D03*
X1370000Y3700000D02*
D03*
D62*
X1660006Y1679993D02*
D03*
X1500000Y3490000D02*
D03*
D63*
X3060000Y970000D02*
D03*
Y1050000D02*
D03*
Y1010000D02*
D03*
X3060002Y1090002D02*
D03*
X3020000Y1090000D02*
D03*
X2940003Y1090002D02*
D03*
X2980000Y1090000D02*
D03*
X2940003Y1010002D02*
D03*
X2940000Y970000D02*
D03*
Y1050000D02*
D03*
X3020000Y970000D02*
D03*
D75*
X3470001Y567502D02*
D03*
Y432501D02*
D03*
X3230001Y572501D02*
D03*
Y707502D02*
D03*
X2389998Y542498D02*
D03*
Y677499D02*
D03*
X3589998Y432502D02*
D03*
Y567503D02*
D03*
X3349999Y707499D02*
D03*
Y572498D02*
D03*
X2910001Y1712501D02*
D03*
Y1847502D02*
D03*
X2510002Y677500D02*
D03*
Y542499D02*
D03*
X2630000Y1417499D02*
D03*
Y1282498D02*
D03*
D76*
X3460000Y2870000D02*
D03*
X4509998Y4399999D02*
D03*
X2824998Y3944999D02*
D03*
X2470001Y3939998D02*
D03*
X3139998Y4010001D02*
D03*
X2650000Y190000D02*
D03*
X2350000Y1360000D02*
D03*
X4360000Y790000D02*
D03*
X4780000Y769998D02*
D03*
D77*
X3934999Y630000D02*
D03*
D78*
X3865002Y607501D02*
D03*
Y652499D02*
D03*
D79*
X4743500Y2464996D02*
D03*
Y2514999D02*
D03*
Y2564996D02*
D03*
Y2614999D02*
D03*
X4700000Y2490000D02*
D03*
Y2590000D02*
D03*
X4656500Y2464996D02*
D03*
Y2514999D02*
D03*
Y2564996D02*
D03*
Y2614999D02*
D03*
D80*
X3750000Y2865997D02*
D03*
Y2950000D02*
D03*
D81*
X2510002Y1427499D02*
D03*
Y1332498D02*
D03*
X2619998Y687499D02*
D03*
Y592498D02*
D03*
%TF.MD5,f644c2e6a04e39999a82011b8f26ba71*%
M02*
