%TF.GenerationSoftware,Altium Limited,Altium Designer,20.1.11 (218)*%
G04 Layer_Color=255*
%FSLAX45Y45*%
%MOMM*%
%TF.SameCoordinates,A720D921-2E1A-4B1E-B03F-C1F3B01285F1*%
%TF.FilePolarity,Positive*%
%TF.FileFunction,Pads,Top*%
%TF.Part,Single*%
G01*
G75*
%TA.AperFunction,BGAPad,CuDef*%
%ADD11R,0.40000X0.40000*%
%TA.AperFunction,ConnectorPad*%
%ADD12R,1.00000X1.60000*%
%TA.AperFunction,SMDPad,CuDef*%
%ADD13C,2.00000*%
%TA.AperFunction,BGAPad,CuDef*%
%ADD14R,0.35000X0.35000*%
%TA.AperFunction,SMDPad,CuDef*%
%ADD15R,0.30000X0.27000*%
%ADD16R,0.50000X0.60000*%
%TA.AperFunction,BGAPad,CuDef*%
%ADD17R,0.80000X0.80000*%
%TA.AperFunction,SMDPad,CuDef*%
%ADD18R,0.30000X0.54000*%
%ADD19R,0.54000X0.54000*%
%ADD20R,0.54000X0.30000*%
%TA.AperFunction,BGAPad,CuDef*%
%ADD21R,0.30000X0.30000*%
%TA.AperFunction,SMDPad,CuDef*%
%ADD22R,2.90000X0.45000*%
%ADD23R,1.90000X0.45000*%
%ADD24R,2.40000X0.45000*%
%ADD25R,0.65000X1.20000*%
%ADD26R,0.50000X1.40000*%
%ADD27R,0.70000X0.75000*%
%ADD28R,0.60000X0.60000*%
%ADD29R,0.60000X0.30000*%
%ADD30R,0.70000X0.90000*%
%TA.AperFunction,BGAPad,CuDef*%
%ADD31C,0.21000*%
%TA.AperFunction,SMDPad,CuDef*%
%ADD32R,1.20000X1.80000*%
%ADD33R,0.60000X1.55000*%
%ADD34R,0.58000X0.50000*%
%ADD35R,0.80000X0.75000*%
%ADD36R,0.55000X0.60000*%
%ADD37R,1.40000X2.75000*%
%ADD38R,1.39000X2.75000*%
%ADD39R,0.80000X0.80000*%
%ADD40R,0.80000X0.30000*%
%ADD41R,0.30000X0.92500*%
%ADD42R,0.52500X0.25000*%
%ADD43R,0.50000X0.58000*%
%ADD44R,0.75000X0.80000*%
%ADD45R,1.00000X1.00000*%
%ADD46R,0.25000X0.23000*%
%ADD47R,0.23000X0.25000*%
%ADD48R,3.00000X3.00000*%
%ADD49R,3.00000X2.00000*%
%ADD50R,0.55000X0.42000*%
%ADD51R,0.92000X0.71000*%
%TA.AperFunction,ConnectorPad*%
%ADD52R,0.76000X2.03000*%
%TA.AperFunction,ComponentPad*%
%ADD59C,0.90000*%
%ADD60C,1.02000*%
D11*
X4820000Y4699998D02*
D03*
X4740000D02*
D03*
X4660001D02*
D03*
X4580001D02*
D03*
Y4459999D02*
D03*
X4660001D02*
D03*
X4740000D02*
D03*
X4820000D02*
D03*
D12*
X4370002Y100002D02*
D03*
X3869998D02*
D03*
X4120000D02*
D03*
Y380002D02*
D03*
X3869998D02*
D03*
X4370002D02*
D03*
D13*
X4685000Y315000D02*
D03*
X315000D02*
D03*
Y4685000D02*
D03*
D14*
X1989996Y692463D02*
D03*
Y967458D02*
D03*
X2067491Y692463D02*
D03*
Y761662D02*
D03*
Y900062D02*
D03*
Y830862D02*
D03*
Y967458D02*
D03*
X1912495D02*
D03*
Y830862D02*
D03*
Y900062D02*
D03*
Y761662D02*
D03*
Y692463D02*
D03*
D15*
X1640000Y690000D02*
D03*
Y746997D02*
D03*
X1430006Y4011493D02*
D03*
Y4068491D02*
D03*
D16*
X1330001Y3970002D02*
D03*
Y4070002D02*
D03*
D17*
X3757003Y2529996D02*
D03*
Y2689996D02*
D03*
Y3010000D02*
D03*
Y2850001D02*
D03*
Y3170000D02*
D03*
X3557003D02*
D03*
Y2850001D02*
D03*
Y3010000D02*
D03*
Y2689996D02*
D03*
Y2529996D02*
D03*
X3357003D02*
D03*
Y2689996D02*
D03*
Y3010000D02*
D03*
Y2850001D02*
D03*
Y3170000D02*
D03*
X2957004Y2529996D02*
D03*
Y2689996D02*
D03*
Y3010000D02*
D03*
Y2850001D02*
D03*
Y3170000D02*
D03*
X3157004Y2529996D02*
D03*
Y2689996D02*
D03*
Y3010000D02*
D03*
Y2850001D02*
D03*
Y3170000D02*
D03*
X2757005Y2529996D02*
D03*
Y2689996D02*
D03*
Y3010000D02*
D03*
Y2850001D02*
D03*
Y3170000D02*
D03*
X2557000Y2689996D02*
D03*
Y3010000D02*
D03*
Y2850001D02*
D03*
Y3170000D02*
D03*
Y2529996D02*
D03*
D18*
X3882001Y2337998D02*
D03*
X3832004D02*
D03*
X3782001D02*
D03*
X3732004D02*
D03*
X3682002D02*
D03*
X3632004D02*
D03*
X3582002D02*
D03*
X3532004D02*
D03*
X3482002D02*
D03*
X3432005D02*
D03*
X3382002D02*
D03*
X3332005D02*
D03*
X3282002D02*
D03*
X3232005D02*
D03*
X3182003D02*
D03*
X3132000D02*
D03*
X3082003D02*
D03*
X3032000D02*
D03*
X2982003D02*
D03*
X2932000D02*
D03*
X2882003D02*
D03*
X2832001D02*
D03*
X2782003D02*
D03*
X2732001D02*
D03*
X2682004D02*
D03*
X2632001D02*
D03*
X2582004D02*
D03*
X2532001D02*
D03*
X2482004D02*
D03*
X2432001D02*
D03*
X2482004Y3361999D02*
D03*
X2532006D02*
D03*
X2582004D02*
D03*
X2632006D02*
D03*
X2682004D02*
D03*
X2732006D02*
D03*
X2782003D02*
D03*
X2832006D02*
D03*
X2882003D02*
D03*
X2932006D02*
D03*
X2982003D02*
D03*
X3032005D02*
D03*
X3082003D02*
D03*
X3132005D02*
D03*
X3182003D02*
D03*
X3232005D02*
D03*
X3282007D02*
D03*
X3332005D02*
D03*
X3382007D02*
D03*
X3432005D02*
D03*
X3482007D02*
D03*
X3532004D02*
D03*
X3582007D02*
D03*
X3632004D02*
D03*
X3682007D02*
D03*
X3732004D02*
D03*
X3782006D02*
D03*
X3832004D02*
D03*
X3882006D02*
D03*
X2432007D02*
D03*
D19*
X3944003Y2337998D02*
D03*
X2370000D02*
D03*
X3944003Y3361999D02*
D03*
X2370000D02*
D03*
D20*
Y2399999D02*
D03*
Y2449996D02*
D03*
Y2499999D02*
D03*
Y2549996D02*
D03*
Y2599999D02*
D03*
Y2649996D02*
D03*
Y2699998D02*
D03*
Y2749996D02*
D03*
Y2799998D02*
D03*
Y2850001D02*
D03*
Y2899998D02*
D03*
Y3000003D02*
D03*
Y3050000D02*
D03*
Y3100003D02*
D03*
Y3150000D02*
D03*
Y3200002D02*
D03*
Y3250000D02*
D03*
Y3300002D02*
D03*
X3944003Y3249995D02*
D03*
Y3199997D02*
D03*
Y3149995D02*
D03*
Y3099998D02*
D03*
Y3049995D02*
D03*
Y2999998D02*
D03*
Y2949995D02*
D03*
Y2899998D02*
D03*
Y2849996D02*
D03*
Y2799998D02*
D03*
Y2749996D02*
D03*
Y2699993D02*
D03*
Y2649996D02*
D03*
Y2599994D02*
D03*
Y2549996D02*
D03*
Y2499994D02*
D03*
Y2449996D02*
D03*
Y2399994D02*
D03*
X2370000Y2950000D02*
D03*
X3944003Y3299997D02*
D03*
D21*
X3732004Y2415000D02*
D03*
X3632004D02*
D03*
X3682002D02*
D03*
X3582002D02*
D03*
X3182003D02*
D03*
X3282002D02*
D03*
X3232000D02*
D03*
X3332005D02*
D03*
X2832001D02*
D03*
X2682004D02*
D03*
X2782003D02*
D03*
X2732001D02*
D03*
X3732004Y3284996D02*
D03*
X3632004D02*
D03*
X3682002D02*
D03*
X3582002D02*
D03*
X3182003D02*
D03*
X3282002D02*
D03*
X3232000D02*
D03*
X3332005D02*
D03*
X2832001D02*
D03*
X2682004D02*
D03*
X2782003D02*
D03*
X2732001D02*
D03*
D22*
X3724997Y912502D02*
D03*
Y2030000D02*
D03*
D23*
X4210000Y912502D02*
D03*
Y2030000D02*
D03*
D24*
X4725000Y912502D02*
D03*
D25*
X4812498Y1625500D02*
D03*
D26*
X4919996Y1350499D02*
D03*
Y1790503D02*
D03*
D27*
X4625000Y1980003D02*
D03*
D28*
X4445001Y2007501D02*
D03*
D29*
X3610001Y1448503D02*
D03*
Y1692500D02*
D03*
D30*
X3795000Y1326501D02*
D03*
Y1570499D02*
D03*
Y1814501D02*
D03*
X4111997Y1316499D02*
D03*
Y1570499D02*
D03*
Y1824499D02*
D03*
D31*
X3100002Y930002D02*
D03*
X3060002D02*
D03*
X3020002D02*
D03*
X2980002D02*
D03*
X2940003D02*
D03*
X2900003D02*
D03*
X3100002Y970002D02*
D03*
X3060002D02*
D03*
X3020002D02*
D03*
X2980002D02*
D03*
X2940003D02*
D03*
X2900003D02*
D03*
X3100002Y1010002D02*
D03*
X3060002D02*
D03*
X2940003D02*
D03*
X2900003D02*
D03*
X3100002Y1050002D02*
D03*
X3060002D02*
D03*
X2940003D02*
D03*
X2900003D02*
D03*
X3100002Y1090002D02*
D03*
X3060002D02*
D03*
X3020002D02*
D03*
X2980002D02*
D03*
X2940003D02*
D03*
X2900003D02*
D03*
X3100002Y1130002D02*
D03*
X3060002D02*
D03*
X3020002D02*
D03*
X2980002D02*
D03*
X2940003D02*
D03*
X2900003D02*
D03*
D32*
X3560004Y100000D02*
D03*
X3040000D02*
D03*
D33*
X3299999Y487497D02*
D03*
X3200000D02*
D03*
X3399999D02*
D03*
D34*
X2465998Y1869998D02*
D03*
X2234000D02*
D03*
D35*
X2445002Y1767499D02*
D03*
Y1972502D02*
D03*
X2255000D02*
D03*
Y1767499D02*
D03*
D36*
X4800003Y2970000D02*
D03*
Y3070000D02*
D03*
X4490000Y2969999D02*
D03*
Y3069999D02*
D03*
D37*
X4890002Y3987502D02*
D03*
X4490002D02*
D03*
X4890002Y3312502D02*
D03*
D38*
X4490002D02*
D03*
D39*
X4619998Y2945002D02*
D03*
Y3094999D02*
D03*
D40*
X3747502Y4649998D02*
D03*
Y4600001D02*
D03*
Y4549998D02*
D03*
X3492501D02*
D03*
Y4600001D02*
D03*
Y4649998D02*
D03*
X3952502Y4659998D02*
D03*
Y4610001D02*
D03*
Y4559998D02*
D03*
X4207498D02*
D03*
Y4610001D02*
D03*
Y4659998D02*
D03*
D41*
X3719999Y4471248D02*
D03*
X3670001D02*
D03*
X3619999D02*
D03*
X3570001D02*
D03*
X3519999D02*
D03*
Y4728748D02*
D03*
X3570001D02*
D03*
X3619999D02*
D03*
X3670001D02*
D03*
X3719999D02*
D03*
X4180000Y4738748D02*
D03*
X4130002D02*
D03*
X4080000D02*
D03*
X4030002D02*
D03*
X3980000D02*
D03*
Y4481248D02*
D03*
X4030002D02*
D03*
X4080000D02*
D03*
X4130002D02*
D03*
X4180000D02*
D03*
D42*
X1692502Y1010000D02*
D03*
Y1060002D02*
D03*
Y1110000D02*
D03*
X1620000Y1010000D02*
D03*
Y1060002D02*
D03*
Y1110000D02*
D03*
D43*
X1970002Y1396002D02*
D03*
Y1163998D02*
D03*
D44*
X2072501Y1375001D02*
D03*
X1867498D02*
D03*
Y1184999D02*
D03*
X2072501D02*
D03*
D45*
X1500000Y3490000D02*
D03*
X1660006Y1679993D02*
D03*
D46*
X1460000Y3574501D02*
D03*
X1500000D02*
D03*
X1540000D02*
D03*
Y3405499D02*
D03*
X1500000D02*
D03*
X1460000D02*
D03*
X1620006Y1764494D02*
D03*
X1660006D02*
D03*
X1700006D02*
D03*
Y1595493D02*
D03*
X1660006D02*
D03*
X1620006D02*
D03*
D47*
X1584501Y3557503D02*
D03*
Y3512499D02*
D03*
Y3467501D02*
D03*
Y3422502D02*
D03*
X1415499D02*
D03*
Y3467501D02*
D03*
Y3512499D02*
D03*
Y3557503D02*
D03*
X1744507Y1747491D02*
D03*
Y1702493D02*
D03*
Y1657494D02*
D03*
Y1612490D02*
D03*
X1575510D02*
D03*
Y1657494D02*
D03*
Y1702493D02*
D03*
Y1747491D02*
D03*
D48*
X199999Y1630002D02*
D03*
Y4330002D02*
D03*
D49*
Y4030002D02*
D03*
Y1930001D02*
D03*
Y2980002D02*
D03*
D50*
X1325502Y277501D02*
D03*
Y212502D02*
D03*
Y147498D02*
D03*
X1514498D02*
D03*
Y212502D02*
D03*
Y277501D02*
D03*
X1780999Y279997D02*
D03*
Y214999D02*
D03*
Y150000D02*
D03*
X1970000D02*
D03*
Y214999D02*
D03*
Y279997D02*
D03*
D51*
X1420000Y260000D02*
D03*
Y164999D02*
D03*
X1875497Y262497D02*
D03*
Y167501D02*
D03*
D52*
X1956500Y4580498D02*
D03*
X2210500D02*
D03*
X2337500D02*
D03*
X2464500D02*
D03*
X1956500Y4275500D02*
D03*
X2083500D02*
D03*
X2210500D02*
D03*
X2337500D02*
D03*
X2464500D02*
D03*
X2083500Y4580498D02*
D03*
D59*
X4459999Y240002D02*
D03*
X3780000D02*
D03*
D60*
X2020000Y4860000D02*
D03*
X2401000D02*
D03*
%TF.MD5,cd63633a7ac844e71387a3c421daaf04*%
M02*
