%TF.GenerationSoftware,Altium Limited,Altium Designer,20.1.11 (218)*%
G04 Layer_Color=32896*
%FSLAX45Y45*%
%MOMM*%
%TF.SameCoordinates,A720D921-2E1A-4B1E-B03F-C1F3B01285F1*%
%TF.FilePolarity,Positive*%
%TF.FileFunction,Legend,Bot*%
%TF.Part,Single*%
G01*
G75*
%TA.AperFunction,NonConductor*%
%ADD53C,0.20000*%
%ADD66C,0.10000*%
%ADD82C,0.15000*%
%ADD83C,0.12500*%
%ADD84C,0.15240*%
%ADD85C,0.25400*%
%ADD86C,0.15400*%
%ADD87R,0.15001X0.10003*%
%ADD88R,0.15001X0.09997*%
%ADD89R,0.15001X0.35001*%
%ADD90R,0.12502X0.35001*%
D53*
X4613503Y2662998D02*
G03*
X4613503Y2662998I-5000J0D01*
G01*
X3499999Y490001D02*
Y510001D01*
X3439999Y490001D02*
Y510001D01*
X3199998Y630001D02*
Y650001D01*
X3259998Y630001D02*
Y650001D01*
X2360001Y599998D02*
Y619998D01*
X2420001Y599998D02*
Y619998D01*
X3560000Y490002D02*
Y510002D01*
X3620000Y490002D02*
Y510002D01*
X3380002Y629998D02*
Y649998D01*
X3320002Y629998D02*
Y649998D01*
X2879999Y1770002D02*
Y1790001D01*
X2939999Y1770002D02*
Y1790001D01*
X2540000Y600000D02*
Y620000D01*
X2480000Y600000D02*
Y620000D01*
X2659998Y1339999D02*
Y1359999D01*
X2599998Y1339999D02*
Y1359999D01*
D66*
X3852500Y567501D02*
G03*
X3852500Y567501I-5000J0D01*
G01*
X3710002Y2972999D02*
G03*
X3710002Y2972999I-5000J0D01*
G01*
X3715004Y2863000D02*
X3720002D01*
X3780002D02*
X3785001D01*
X3715004Y2952997D02*
X3720002D01*
X3780002D02*
X3785001D01*
Y2863000D02*
Y2952997D01*
X3715004Y2863000D02*
Y2952997D01*
X2003326Y2933329D02*
X2009990Y2939994D01*
X2023319D01*
X2029984Y2933329D01*
Y2906671D01*
X2023319Y2900007D01*
X2009990D01*
X2003326Y2906671D01*
X1989997Y2900007D02*
X1976668D01*
X1983332D01*
Y2939994D01*
X1989997Y2933329D01*
X1936681Y2900007D02*
Y2939994D01*
X1956674Y2920000D01*
X1930016D01*
X4406658Y703329D02*
X4413322Y709993D01*
X4426651D01*
X4433316Y703329D01*
Y676671D01*
X4426651Y670007D01*
X4413322D01*
X4406658Y676671D01*
X4373335Y670007D02*
Y709993D01*
X4393329Y690000D01*
X4366671D01*
X4353342Y703329D02*
X4346677Y709993D01*
X4333348D01*
X4326684Y703329D01*
Y696665D01*
X4333348Y690000D01*
X4340013D01*
X4333348D01*
X4326684Y683335D01*
Y676671D01*
X4333348Y670007D01*
X4346677D01*
X4353342Y676671D01*
X4586658Y4723329D02*
X4593322Y4729993D01*
X4606651D01*
X4613316Y4723329D01*
Y4696671D01*
X4606651Y4690006D01*
X4593322D01*
X4586658Y4696671D01*
X4553335Y4690006D02*
Y4729993D01*
X4573329Y4710000D01*
X4546671D01*
X4533342Y4723329D02*
X4526678Y4729993D01*
X4513348D01*
X4506684Y4723329D01*
Y4696671D01*
X4513348Y4690006D01*
X4526678D01*
X4533342Y4696671D01*
Y4723329D01*
X4459993Y4723329D02*
X4466658Y4729994D01*
X4479987D01*
X4486651Y4723329D01*
Y4696671D01*
X4479987Y4690007D01*
X4466658D01*
X4459993Y4696671D01*
X4426671Y4690007D02*
Y4729994D01*
X4446664Y4710000D01*
X4420006D01*
X4406677Y4690007D02*
X4393349D01*
X4400013D01*
Y4729994D01*
X4406677Y4723329D01*
X1553331Y1068501D02*
Y1028514D01*
X1526673D01*
X1486686D02*
X1513344D01*
X1486686Y1055172D01*
Y1061837D01*
X1493350Y1068501D01*
X1506679D01*
X1513344Y1061837D01*
X1583327Y3023329D02*
X1589992Y3029993D01*
X1603321D01*
X1609985Y3023329D01*
Y2996671D01*
X1603321Y2990006D01*
X1589992D01*
X1583327Y2996671D01*
X1569998Y2990006D02*
X1556669D01*
X1563334D01*
Y3029993D01*
X1569998Y3023329D01*
X1536676D02*
X1530011Y3029993D01*
X1516682D01*
X1510018Y3023329D01*
Y2996671D01*
X1516682Y2990006D01*
X1530011D01*
X1536676Y2996671D01*
Y3023329D01*
X2899977Y4079994D02*
X2873319D01*
X2886648D01*
Y4040007D01*
X2859990D02*
Y4079994D01*
X2839997D01*
X2833332Y4073329D01*
Y4060000D01*
X2839997Y4053336D01*
X2859990D01*
X2820003Y4040007D02*
X2806674D01*
X2813339D01*
Y4079994D01*
X2820003Y4073329D01*
X2786681D02*
X2780016Y4079994D01*
X2766687D01*
X2760023Y4073329D01*
Y4046671D01*
X2766687Y4040007D01*
X2780016D01*
X2786681Y4046671D01*
Y4073329D01*
X4413315Y919994D02*
X4386657D01*
X4399986D01*
Y880007D01*
X4373328D02*
Y919994D01*
X4353334D01*
X4346670Y913330D01*
Y900001D01*
X4353334Y893336D01*
X4373328D01*
X4333341Y913330D02*
X4326677Y919994D01*
X4313347D01*
X4306683Y913330D01*
Y906665D01*
X4313347Y900001D01*
X4306683Y893336D01*
Y886672D01*
X4313347Y880007D01*
X4326677D01*
X4333341Y886672D01*
Y893336D01*
X4326677Y900001D01*
X4333341Y906665D01*
Y913330D01*
X4326677Y900001D02*
X4313347D01*
X2693316Y99993D02*
X2666658D01*
X2679987D01*
Y60006D01*
X2653329D02*
Y99993D01*
X2633335D01*
X2626671Y93329D01*
Y80000D01*
X2633335Y73335D01*
X2653329D01*
X2613342Y99993D02*
X2586684D01*
Y93329D01*
X2613342Y66671D01*
Y60006D01*
X4833316Y899994D02*
X4806658D01*
X4819987D01*
Y860007D01*
X4793329D02*
Y899994D01*
X4773335D01*
X4766671Y893329D01*
Y880000D01*
X4773335Y873336D01*
X4793329D01*
X4726684Y899994D02*
X4740013Y893329D01*
X4753342Y880000D01*
Y866671D01*
X4746678Y860007D01*
X4733348D01*
X4726684Y866671D01*
Y873336D01*
X4733348Y880000D01*
X4753342D01*
X2393316Y1489994D02*
X2366658D01*
X2379987D01*
Y1450007D01*
X2353329D02*
Y1489994D01*
X2333335D01*
X2326671Y1483329D01*
Y1470000D01*
X2333335Y1463336D01*
X2353329D01*
X2286684Y1489994D02*
X2313342D01*
Y1470000D01*
X2300013Y1476665D01*
X2293348D01*
X2286684Y1470000D01*
Y1456671D01*
X2293348Y1450007D01*
X2306678D01*
X2313342Y1456671D01*
X2523316Y4069994D02*
X2496658D01*
X2509987D01*
Y4030007D01*
X2483329D02*
Y4069994D01*
X2463335D01*
X2456671Y4063329D01*
Y4050000D01*
X2463335Y4043336D01*
X2483329D01*
X2443342Y4063329D02*
X2436677Y4069994D01*
X2423348D01*
X2416684Y4063329D01*
Y4056665D01*
X2423348Y4050000D01*
X2430013D01*
X2423348D01*
X2416684Y4043336D01*
Y4036671D01*
X2423348Y4030007D01*
X2436677D01*
X2443342Y4036671D01*
X3203316Y4139993D02*
X3176658D01*
X3189987D01*
Y4100007D01*
X3163329D02*
Y4139993D01*
X3143335D01*
X3136671Y4133329D01*
Y4120000D01*
X3143335Y4113335D01*
X3163329D01*
X3096684Y4100007D02*
X3123342D01*
X3096684Y4126665D01*
Y4133329D01*
X3103348Y4139993D01*
X3116678D01*
X3123342Y4133329D01*
X3518314Y3014992D02*
X3484992D01*
X3501653D01*
Y2965008D01*
X3468330D02*
Y3014992D01*
X3443339D01*
X3435008Y3006661D01*
Y2990000D01*
X3443339Y2981669D01*
X3468330D01*
X3418347Y2965008D02*
X3401686D01*
X3410016D01*
Y3014992D01*
X3418347Y3006661D01*
X3843316Y530007D02*
Y569994D01*
X3823322D01*
X3816658Y563329D01*
Y550000D01*
X3823322Y543335D01*
X3843316D01*
X3829987D02*
X3816658Y530007D01*
X3783335D02*
Y569994D01*
X3803329Y550000D01*
X3776671D01*
X3763342Y563329D02*
X3756678Y569994D01*
X3743348D01*
X3736684Y563329D01*
Y556665D01*
X3743348Y550000D01*
X3736684Y543335D01*
Y536671D01*
X3743348Y530007D01*
X3756678D01*
X3763342Y536671D01*
Y543335D01*
X3756678Y550000D01*
X3763342Y556665D01*
Y563329D01*
X3756678Y550000D02*
X3743348D01*
X4073316Y690007D02*
Y729994D01*
X4053322D01*
X4046658Y723329D01*
Y710000D01*
X4053322Y703336D01*
X4073316D01*
X4059987D02*
X4046658Y690007D01*
X4013335D02*
Y729994D01*
X4033329Y710000D01*
X4006671D01*
X3993342Y729994D02*
X3966684D01*
Y723329D01*
X3993342Y696671D01*
Y690007D01*
X4763316Y3150007D02*
Y3189994D01*
X4743322D01*
X4736658Y3183329D01*
Y3170000D01*
X4743322Y3163336D01*
X4763316D01*
X4749987D02*
X4736658Y3150007D01*
X4723329Y3183329D02*
X4716664Y3189994D01*
X4703335D01*
X4696671Y3183329D01*
Y3176665D01*
X4703335Y3170000D01*
X4710000D01*
X4703335D01*
X4696671Y3163336D01*
Y3156671D01*
X4703335Y3150007D01*
X4716664D01*
X4723329Y3156671D01*
X4683342Y3183329D02*
X4676677Y3189994D01*
X4663348D01*
X4656684Y3183329D01*
Y3176665D01*
X4663348Y3170000D01*
X4656684Y3163336D01*
Y3156671D01*
X4663348Y3150007D01*
X4676677D01*
X4683342Y3156671D01*
Y3163336D01*
X4676677Y3170000D01*
X4683342Y3176665D01*
Y3183329D01*
X4676677Y3170000D02*
X4663348D01*
X3553316Y1400007D02*
Y1439994D01*
X3533322D01*
X3526658Y1433329D01*
Y1420000D01*
X3533322Y1413336D01*
X3553316D01*
X3539987D02*
X3526658Y1400007D01*
X3513329Y1433329D02*
X3506665Y1439994D01*
X3493335D01*
X3486671Y1433329D01*
Y1426665D01*
X3493335Y1420000D01*
X3500000D01*
X3493335D01*
X3486671Y1413336D01*
Y1406671D01*
X3493335Y1400007D01*
X3506665D01*
X3513329Y1406671D01*
X3473342Y1439994D02*
X3446684D01*
Y1433329D01*
X3473342Y1406671D01*
Y1400007D01*
X3383316Y1300007D02*
Y1339994D01*
X3363322D01*
X3356658Y1333329D01*
Y1320000D01*
X3363322Y1313335D01*
X3383316D01*
X3369987D02*
X3356658Y1300007D01*
X3343329Y1333329D02*
X3336664Y1339994D01*
X3323335D01*
X3316671Y1333329D01*
Y1326665D01*
X3323335Y1320000D01*
X3330000D01*
X3323335D01*
X3316671Y1313335D01*
Y1306671D01*
X3323335Y1300007D01*
X3336664D01*
X3343329Y1306671D01*
X3276684Y1339994D02*
X3290013Y1333329D01*
X3303342Y1320000D01*
Y1306671D01*
X3296677Y1300007D01*
X3283348D01*
X3276684Y1306671D01*
Y1313335D01*
X3283348Y1320000D01*
X3303342D01*
X3123316Y1860007D02*
Y1899994D01*
X3103322D01*
X3096658Y1893329D01*
Y1880000D01*
X3103322Y1873336D01*
X3123316D01*
X3109987D02*
X3096658Y1860007D01*
X3083329Y1893329D02*
X3076664Y1899994D01*
X3063335D01*
X3056671Y1893329D01*
Y1886665D01*
X3063335Y1880000D01*
X3070000D01*
X3063335D01*
X3056671Y1873336D01*
Y1866671D01*
X3063335Y1860007D01*
X3076664D01*
X3083329Y1866671D01*
X3016684Y1899994D02*
X3043342D01*
Y1880000D01*
X3030013Y1886665D01*
X3023348D01*
X3016684Y1880000D01*
Y1866671D01*
X3023348Y1860007D01*
X3036677D01*
X3043342Y1866671D01*
X3043316Y850007D02*
Y889994D01*
X3023322D01*
X3016658Y883329D01*
Y870000D01*
X3023322Y863336D01*
X3043316D01*
X3029987D02*
X3016658Y850007D01*
X3003329Y883329D02*
X2996665Y889994D01*
X2983335D01*
X2976671Y883329D01*
Y876665D01*
X2983335Y870000D01*
X2990000D01*
X2983335D01*
X2976671Y863336D01*
Y856671D01*
X2983335Y850007D01*
X2996665D01*
X3003329Y856671D01*
X2943348Y850007D02*
Y889994D01*
X2963342Y870000D01*
X2936684D01*
X3233316Y1910007D02*
Y1949994D01*
X3213322D01*
X3206658Y1943329D01*
Y1930000D01*
X3213322Y1923335D01*
X3233316D01*
X3219987D02*
X3206658Y1910007D01*
X3193329Y1943329D02*
X3186664Y1949994D01*
X3173335D01*
X3166671Y1943329D01*
Y1936665D01*
X3173335Y1930000D01*
X3180000D01*
X3173335D01*
X3166671Y1923335D01*
Y1916671D01*
X3173335Y1910007D01*
X3186664D01*
X3193329Y1916671D01*
X3153342Y1943329D02*
X3146677Y1949994D01*
X3133348D01*
X3126684Y1943329D01*
Y1936665D01*
X3133348Y1930000D01*
X3140013D01*
X3133348D01*
X3126684Y1923335D01*
Y1916671D01*
X3133348Y1910007D01*
X3146677D01*
X3153342Y1916671D01*
X3143316Y1540007D02*
Y1579994D01*
X3123322D01*
X3116658Y1573329D01*
Y1560000D01*
X3123322Y1553335D01*
X3143316D01*
X3129987D02*
X3116658Y1540007D01*
X3103329Y1573329D02*
X3096664Y1579994D01*
X3083335D01*
X3076671Y1573329D01*
Y1566665D01*
X3083335Y1560000D01*
X3090000D01*
X3083335D01*
X3076671Y1553335D01*
Y1546671D01*
X3083335Y1540007D01*
X3096664D01*
X3103329Y1546671D01*
X3036684Y1540007D02*
X3063342D01*
X3036684Y1566665D01*
Y1573329D01*
X3043348Y1579994D01*
X3056677D01*
X3063342Y1573329D01*
X2866651Y320007D02*
Y359994D01*
X2846658D01*
X2839993Y353329D01*
Y340000D01*
X2846658Y333336D01*
X2866651D01*
X2853322D02*
X2839993Y320007D01*
X2826664Y353329D02*
X2820000Y359994D01*
X2806671D01*
X2800006Y353329D01*
Y346665D01*
X2806671Y340000D01*
X2813335D01*
X2806671D01*
X2800006Y333336D01*
Y326671D01*
X2806671Y320007D01*
X2820000D01*
X2826664Y326671D01*
X2786677Y320007D02*
X2773349D01*
X2780013D01*
Y359994D01*
X2786677Y353329D01*
X2873316Y490007D02*
Y529994D01*
X2853322D01*
X2846658Y523329D01*
Y510000D01*
X2853322Y503336D01*
X2873316D01*
X2859987D02*
X2846658Y490007D01*
X2833329Y523329D02*
X2826664Y529994D01*
X2813335D01*
X2806671Y523329D01*
Y516665D01*
X2813335Y510000D01*
X2820000D01*
X2813335D01*
X2806671Y503336D01*
Y496671D01*
X2813335Y490007D01*
X2826664D01*
X2833329Y496671D01*
X2793342Y523329D02*
X2786677Y529994D01*
X2773348D01*
X2766684Y523329D01*
Y496671D01*
X2773348Y490007D01*
X2786677D01*
X2793342Y496671D01*
Y523329D01*
X3003316Y490007D02*
Y529994D01*
X2983322D01*
X2976658Y523329D01*
Y510000D01*
X2983322Y503336D01*
X3003316D01*
X2989987D02*
X2976658Y490007D01*
X2936671D02*
X2963329D01*
X2936671Y516665D01*
Y523329D01*
X2943335Y529994D01*
X2956664D01*
X2963329Y523329D01*
X2923342Y496671D02*
X2916677Y490007D01*
X2903348D01*
X2896684Y496671D01*
Y523329D01*
X2903348Y529994D01*
X2916677D01*
X2923342Y523329D01*
Y516665D01*
X2916677Y510000D01*
X2896684D01*
X3303316Y1460007D02*
Y1499994D01*
X3283322D01*
X3276658Y1493329D01*
Y1480000D01*
X3283322Y1473336D01*
X3303316D01*
X3289987D02*
X3276658Y1460007D01*
X3236671D02*
X3263329D01*
X3236671Y1486665D01*
Y1493329D01*
X3243335Y1499994D01*
X3256665D01*
X3263329Y1493329D01*
X3223342D02*
X3216678Y1499994D01*
X3203348D01*
X3196684Y1493329D01*
Y1486665D01*
X3203348Y1480000D01*
X3196684Y1473336D01*
Y1466671D01*
X3203348Y1460007D01*
X3216678D01*
X3223342Y1466671D01*
Y1473336D01*
X3216678Y1480000D01*
X3223342Y1486665D01*
Y1493329D01*
X3216678Y1480000D02*
X3203348D01*
X3213316Y1290007D02*
Y1329994D01*
X3193322D01*
X3186658Y1323329D01*
Y1310000D01*
X3193322Y1303335D01*
X3213316D01*
X3199987D02*
X3186658Y1290007D01*
X3146671D02*
X3173329D01*
X3146671Y1316665D01*
Y1323329D01*
X3153335Y1329994D01*
X3166664D01*
X3173329Y1323329D01*
X3133342Y1329994D02*
X3106684D01*
Y1323329D01*
X3133342Y1296671D01*
Y1290007D01*
X2563316Y1050007D02*
Y1089994D01*
X2543322D01*
X2536658Y1083329D01*
Y1070000D01*
X2543322Y1063335D01*
X2563316D01*
X2549987D02*
X2536658Y1050007D01*
X2496671D02*
X2523329D01*
X2496671Y1076665D01*
Y1083329D01*
X2503335Y1089994D01*
X2516665D01*
X2523329Y1083329D01*
X2456684Y1089994D02*
X2470013Y1083329D01*
X2483342Y1070000D01*
Y1056671D01*
X2476678Y1050007D01*
X2463348D01*
X2456684Y1056671D01*
Y1063335D01*
X2463348Y1070000D01*
X2483342D01*
X2783316Y740007D02*
Y779994D01*
X2763322D01*
X2756658Y773329D01*
Y760000D01*
X2763322Y753336D01*
X2783316D01*
X2769987D02*
X2756658Y740007D01*
X2716671D02*
X2743329D01*
X2716671Y766665D01*
Y773329D01*
X2723335Y779994D01*
X2736664D01*
X2743329Y773329D01*
X2676684Y779994D02*
X2703342D01*
Y760000D01*
X2690013Y766665D01*
X2683348D01*
X2676684Y760000D01*
Y746671D01*
X2683348Y740007D01*
X2696677D01*
X2703342Y746671D01*
X1629984Y2460007D02*
Y2499994D01*
X1609990D01*
X1603325Y2493329D01*
Y2480000D01*
X1609990Y2473336D01*
X1629984D01*
X1616655D02*
X1603325Y2460007D01*
X1589997D02*
X1576668D01*
X1583332D01*
Y2499994D01*
X1589997Y2493329D01*
X1556674D02*
X1550010Y2499994D01*
X1536680D01*
X1530016Y2493329D01*
Y2466671D01*
X1536680Y2460007D01*
X1550010D01*
X1556674Y2466671D01*
Y2493329D01*
X2123325Y2900007D02*
Y2939994D01*
X2103331D01*
X2096667Y2933330D01*
Y2920001D01*
X2103331Y2913336D01*
X2123325D01*
X2109996D02*
X2096667Y2900007D01*
X2083338Y2906672D02*
X2076673Y2900007D01*
X2063344D01*
X2056680Y2906672D01*
Y2933330D01*
X2063344Y2939994D01*
X2076673D01*
X2083338Y2933330D01*
Y2926665D01*
X2076673Y2920001D01*
X2056680D01*
X1543323Y840007D02*
Y879994D01*
X1523329D01*
X1516664Y873329D01*
Y860000D01*
X1523329Y853336D01*
X1543323D01*
X1529994D02*
X1516664Y840007D01*
X1503336Y873329D02*
X1496671Y879994D01*
X1483342D01*
X1476678Y873329D01*
Y866665D01*
X1483342Y860000D01*
X1476678Y853336D01*
Y846671D01*
X1483342Y840007D01*
X1496671D01*
X1503336Y846671D01*
Y853336D01*
X1496671Y860000D01*
X1503336Y866665D01*
Y873329D01*
X1496671Y860000D02*
X1483342D01*
X2151653Y615008D02*
Y664992D01*
X2126661D01*
X2118331Y656661D01*
Y640000D01*
X2126661Y631669D01*
X2151653D01*
X2134992D02*
X2118331Y615008D01*
X2101669Y664992D02*
X2068347D01*
Y656661D01*
X2101669Y623339D01*
Y615008D01*
X2363322Y4100007D02*
Y4139993D01*
X2343329D01*
X2336664Y4133329D01*
Y4120000D01*
X2343329Y4113335D01*
X2363322D01*
X2349994D02*
X2336664Y4100007D01*
X2296677Y4139993D02*
X2310007Y4133329D01*
X2323335Y4120000D01*
Y4106671D01*
X2316671Y4100007D01*
X2303342D01*
X2296677Y4106671D01*
Y4113335D01*
X2303342Y4120000D01*
X2323335D01*
X2703323Y4100007D02*
Y4139993D01*
X2683329D01*
X2676664Y4133329D01*
Y4120000D01*
X2683329Y4113335D01*
X2703323D01*
X2689994D02*
X2676664Y4100007D01*
X2636677Y4139993D02*
X2663336D01*
Y4120000D01*
X2650007Y4126665D01*
X2643342D01*
X2636677Y4120000D01*
Y4106671D01*
X2643342Y4100007D01*
X2656671D01*
X2663336Y4106671D01*
X3033323Y4090007D02*
Y4129994D01*
X3013329D01*
X3006665Y4123329D01*
Y4110000D01*
X3013329Y4103335D01*
X3033323D01*
X3019994D02*
X3006665Y4090007D01*
X2973342D02*
Y4129994D01*
X2993336Y4110000D01*
X2966678D01*
X3033323Y3640007D02*
Y3679994D01*
X3013329D01*
X3006665Y3673329D01*
Y3660000D01*
X3013329Y3653336D01*
X3033323D01*
X3019994D02*
X3006665Y3640007D01*
X2993336Y3673329D02*
X2986671Y3679994D01*
X2973342D01*
X2966678Y3673329D01*
Y3666665D01*
X2973342Y3660000D01*
X2980007D01*
X2973342D01*
X2966678Y3653336D01*
Y3646671D01*
X2973342Y3640007D01*
X2986671D01*
X2993336Y3646671D01*
X2703323Y3630007D02*
Y3669994D01*
X2683329D01*
X2676664Y3663329D01*
Y3650000D01*
X2683329Y3643336D01*
X2703323D01*
X2689994D02*
X2676664Y3630007D01*
X2636677D02*
X2663336D01*
X2636677Y3656665D01*
Y3663329D01*
X2643342Y3669994D01*
X2656671D01*
X2663336Y3663329D01*
X2341258Y3644607D02*
Y3684594D01*
X2321264D01*
X2314600Y3677929D01*
Y3664600D01*
X2321264Y3657936D01*
X2341258D01*
X2327929D02*
X2314600Y3644607D01*
X2301271D02*
X2287942D01*
X2294607D01*
Y3684594D01*
X2301271Y3677929D01*
X3906665Y696671D02*
Y723329D01*
X3913329Y729994D01*
X3926658D01*
X3933323Y723329D01*
Y696671D01*
X3926658Y690007D01*
X3913329D01*
X3919994Y703336D02*
X3906665Y690007D01*
X3913329D02*
X3906665Y696671D01*
X3893336Y723329D02*
X3886671Y729994D01*
X3873342D01*
X3866678Y723329D01*
Y716665D01*
X3873342Y710000D01*
X3866678Y703336D01*
Y696671D01*
X3873342Y690007D01*
X3886671D01*
X3893336Y696671D01*
Y703336D01*
X3886671Y710000D01*
X3893336Y716665D01*
Y723329D01*
X3886671Y710000D02*
X3873342D01*
X2559984Y1529994D02*
Y1490007D01*
X2533326D01*
X2519997D02*
X2506668D01*
X2513332D01*
Y1529994D01*
X2519997Y1523329D01*
X2466681Y1490007D02*
Y1529994D01*
X2486674Y1510000D01*
X2460016D01*
X2669984Y529994D02*
Y490007D01*
X2643326D01*
X2629997D02*
X2616668D01*
X2623332D01*
Y529994D01*
X2629997Y523329D01*
X2596674D02*
X2590010Y529994D01*
X2576681D01*
X2570016Y523329D01*
Y516665D01*
X2576681Y510000D01*
X2583345D01*
X2576681D01*
X2570016Y503336D01*
Y496671D01*
X2576681Y490007D01*
X2590010D01*
X2596674Y496671D01*
X1646677Y2500006D02*
Y2539993D01*
X1673335D01*
X1686664Y2500006D02*
X1713322D01*
Y2506671D01*
X1686664Y2533329D01*
Y2539993D01*
X1673317Y2951489D02*
Y2911502D01*
X1646659D01*
X1606672Y2951489D02*
X1620001Y2944824D01*
X1633330Y2931495D01*
Y2918166D01*
X1626665Y2911502D01*
X1613336D01*
X1606672Y2918166D01*
Y2924831D01*
X1613336Y2931495D01*
X1633330D01*
X1833322Y2639994D02*
Y2600007D01*
X1806664D01*
X1766677Y2639994D02*
X1793336D01*
Y2620000D01*
X1780007Y2626665D01*
X1773342D01*
X1766677Y2620000D01*
Y2606671D01*
X1773342Y2600007D01*
X1786671D01*
X1793336Y2606671D01*
X1443322Y2529994D02*
Y2490007D01*
X1416664D01*
X1383342D02*
Y2529994D01*
X1403336Y2510000D01*
X1376677D01*
X1683323Y3339994D02*
Y3300007D01*
X1656664D01*
X1643336Y3333329D02*
X1636671Y3339994D01*
X1623342D01*
X1616677Y3333329D01*
Y3326665D01*
X1623342Y3320000D01*
X1630007D01*
X1623342D01*
X1616677Y3313336D01*
Y3306671D01*
X1623342Y3300007D01*
X1636671D01*
X1643336Y3306671D01*
X3783324Y3052991D02*
Y3003007D01*
X3758332D01*
X3750002Y3011338D01*
Y3044660D01*
X3758332Y3052991D01*
X3783324D01*
X3733341Y3003007D02*
X3716679D01*
X3725010D01*
Y3052991D01*
X3733341Y3044660D01*
X4766658Y2383329D02*
X4773322Y2389993D01*
X4786652D01*
X4793316Y2383329D01*
Y2356671D01*
X4786652Y2350006D01*
X4773322D01*
X4766658Y2356671D01*
X4726671Y2389993D02*
X4753329D01*
Y2370000D01*
X4740000Y2376665D01*
X4733335D01*
X4726671Y2370000D01*
Y2356671D01*
X4733335Y2350006D01*
X4746665D01*
X4753329Y2356671D01*
X4693348Y2350006D02*
Y2389993D01*
X4713342Y2370000D01*
X4686684D01*
X3376658Y803329D02*
X3383322Y809994D01*
X3396651D01*
X3403316Y803329D01*
Y776671D01*
X3396651Y770007D01*
X3383322D01*
X3376658Y776671D01*
X3336671Y809994D02*
X3363329D01*
Y790000D01*
X3350000Y796665D01*
X3343335D01*
X3336671Y790000D01*
Y776671D01*
X3343335Y770007D01*
X3356664D01*
X3363329Y776671D01*
X3323342Y803329D02*
X3316677Y809994D01*
X3303348D01*
X3296684Y803329D01*
Y796665D01*
X3303348Y790000D01*
X3310013D01*
X3303348D01*
X3296684Y783335D01*
Y776671D01*
X3303348Y770007D01*
X3316677D01*
X3323342Y776671D01*
X3256658Y803329D02*
X3263322Y809994D01*
X3276651D01*
X3283316Y803329D01*
Y776671D01*
X3276651Y770007D01*
X3263322D01*
X3256658Y776671D01*
X3216671Y809994D02*
X3243329D01*
Y790000D01*
X3230000Y796665D01*
X3223335D01*
X3216671Y790000D01*
Y776671D01*
X3223335Y770007D01*
X3236664D01*
X3243329Y776671D01*
X3176684Y770007D02*
X3203342D01*
X3176684Y796665D01*
Y803329D01*
X3183348Y809994D01*
X3196677D01*
X3203342Y803329D01*
X3489993Y663329D02*
X3496658Y669994D01*
X3509987D01*
X3516651Y663329D01*
Y636671D01*
X3509987Y630007D01*
X3496658D01*
X3489993Y636671D01*
X3450006Y669994D02*
X3476664D01*
Y650000D01*
X3463335Y656665D01*
X3456671D01*
X3450006Y650000D01*
Y636671D01*
X3456671Y630007D01*
X3470000D01*
X3476664Y636671D01*
X3436677Y630007D02*
X3423348D01*
X3430013D01*
Y669994D01*
X3436677Y663329D01*
X3616658D02*
X3623322Y669994D01*
X3636651D01*
X3643316Y663329D01*
Y636671D01*
X3636651Y630007D01*
X3623322D01*
X3616658Y636671D01*
X3576671Y669994D02*
X3603329D01*
Y650000D01*
X3590000Y656665D01*
X3583335D01*
X3576671Y650000D01*
Y636671D01*
X3583335Y630007D01*
X3596664D01*
X3603329Y636671D01*
X3563342Y663329D02*
X3556677Y669994D01*
X3543348D01*
X3536684Y663329D01*
Y636671D01*
X3543348Y630007D01*
X3556677D01*
X3563342Y636671D01*
Y663329D01*
X2656658Y1523329D02*
X2663322Y1529994D01*
X2676651D01*
X2683316Y1523329D01*
Y1496671D01*
X2676651Y1490007D01*
X2663322D01*
X2656658Y1496671D01*
X2623335Y1490007D02*
Y1529994D01*
X2643329Y1510000D01*
X2616671D01*
X2603342Y1496671D02*
X2596678Y1490007D01*
X2583348D01*
X2576684Y1496671D01*
Y1523329D01*
X2583348Y1529994D01*
X2596678D01*
X2603342Y1523329D01*
Y1516665D01*
X2596678Y1510000D01*
X2576684D01*
X2936658Y1953329D02*
X2943322Y1959994D01*
X2956651D01*
X2963316Y1953329D01*
Y1926671D01*
X2956651Y1920007D01*
X2943322D01*
X2936658Y1926671D01*
X2903335Y1920007D02*
Y1959994D01*
X2923329Y1940000D01*
X2896671D01*
X2883342Y1953329D02*
X2876678Y1959994D01*
X2863348D01*
X2856684Y1953329D01*
Y1946665D01*
X2863348Y1940000D01*
X2856684Y1933335D01*
Y1926671D01*
X2863348Y1920007D01*
X2876678D01*
X2883342Y1926671D01*
Y1933335D01*
X2876678Y1940000D01*
X2883342Y1946665D01*
Y1953329D01*
X2876678Y1940000D02*
X2863348D01*
X2526658Y783329D02*
X2533322Y789994D01*
X2546651D01*
X2553316Y783329D01*
Y756671D01*
X2546651Y750007D01*
X2533322D01*
X2526658Y756671D01*
X2493335Y750007D02*
Y789994D01*
X2513329Y770000D01*
X2486671D01*
X2473342Y789994D02*
X2446684D01*
Y783329D01*
X2473342Y756671D01*
Y750007D01*
X2406658Y783329D02*
X2413322Y789994D01*
X2426651D01*
X2433316Y783329D01*
Y756671D01*
X2426651Y750007D01*
X2413322D01*
X2406658Y756671D01*
X2373335Y750007D02*
Y789994D01*
X2393329Y770000D01*
X2366671D01*
X2326684Y789994D02*
X2340013Y783329D01*
X2353342Y770000D01*
Y756671D01*
X2346678Y750007D01*
X2333348D01*
X2326684Y756671D01*
Y763336D01*
X2333348Y770000D01*
X2353342D01*
X4516658Y633329D02*
X4523322Y639994D01*
X4536651D01*
X4543316Y633329D01*
Y606671D01*
X4536651Y600007D01*
X4523322D01*
X4516658Y606671D01*
X4483335Y600007D02*
Y639994D01*
X4503329Y620000D01*
X4476671D01*
X4443348Y600007D02*
Y639994D01*
X4463342Y620000D01*
X4436684D01*
X3666658Y4333329D02*
X3673322Y4339994D01*
X3686652D01*
X3693316Y4333329D01*
Y4306671D01*
X3686652Y4300007D01*
X3673322D01*
X3666658Y4306671D01*
X3653329Y4333329D02*
X3646665Y4339994D01*
X3633335D01*
X3626671Y4333329D01*
Y4326665D01*
X3633335Y4320000D01*
X3640000D01*
X3633335D01*
X3626671Y4313336D01*
Y4306671D01*
X3633335Y4300007D01*
X3646665D01*
X3653329Y4306671D01*
X3613342D02*
X3606678Y4300007D01*
X3593348D01*
X3586684Y4306671D01*
Y4333329D01*
X3593348Y4339994D01*
X3606678D01*
X3613342Y4333329D01*
Y4326665D01*
X3606678Y4320000D01*
X3586684D01*
X3796658Y4333329D02*
X3803322Y4339994D01*
X3816651D01*
X3823316Y4333329D01*
Y4306671D01*
X3816651Y4300007D01*
X3803322D01*
X3796658Y4306671D01*
X3783329Y4333329D02*
X3776665Y4339994D01*
X3763335D01*
X3756671Y4333329D01*
Y4326665D01*
X3763335Y4320000D01*
X3770000D01*
X3763335D01*
X3756671Y4313336D01*
Y4306671D01*
X3763335Y4300007D01*
X3776665D01*
X3783329Y4306671D01*
X3743342Y4333329D02*
X3736678Y4339994D01*
X3723348D01*
X3716684Y4333329D01*
Y4326665D01*
X3723348Y4320000D01*
X3716684Y4313336D01*
Y4306671D01*
X3723348Y4300007D01*
X3736678D01*
X3743342Y4306671D01*
Y4313336D01*
X3736678Y4320000D01*
X3743342Y4326665D01*
Y4333329D01*
X3736678Y4320000D02*
X3723348D01*
X4016656Y4333330D02*
X4023320Y4339994D01*
X4036649D01*
X4043314Y4333330D01*
Y4306672D01*
X4036649Y4300007D01*
X4023320D01*
X4016656Y4306672D01*
X4003327Y4333330D02*
X3996662Y4339994D01*
X3983333D01*
X3976669Y4333330D01*
Y4326665D01*
X3983333Y4320001D01*
X3989998D01*
X3983333D01*
X3976669Y4313336D01*
Y4306672D01*
X3983333Y4300007D01*
X3996662D01*
X4003327Y4306672D01*
X3963340Y4339994D02*
X3936682D01*
Y4333330D01*
X3963340Y4306672D01*
Y4300007D01*
X4146658Y4333329D02*
X4153322Y4339994D01*
X4166652D01*
X4173316Y4333329D01*
Y4306671D01*
X4166652Y4300007D01*
X4153322D01*
X4146658Y4306671D01*
X4133329Y4333329D02*
X4126665Y4339994D01*
X4113335D01*
X4106671Y4333329D01*
Y4326665D01*
X4113335Y4320000D01*
X4120000D01*
X4113335D01*
X4106671Y4313336D01*
Y4306671D01*
X4113335Y4300007D01*
X4126665D01*
X4133329Y4306671D01*
X4066684Y4339994D02*
X4080013Y4333329D01*
X4093342Y4320000D01*
Y4306671D01*
X4086678Y4300007D01*
X4073348D01*
X4066684Y4306671D01*
Y4313336D01*
X4073348Y4320000D01*
X4093342D01*
X1773326Y2933329D02*
X1779990Y2939994D01*
X1793319D01*
X1799984Y2933329D01*
Y2906671D01*
X1793319Y2900007D01*
X1779990D01*
X1773326Y2906671D01*
X1759997Y2900007D02*
X1746668D01*
X1753332D01*
Y2939994D01*
X1759997Y2933329D01*
X1726674Y2939994D02*
X1700016D01*
Y2933329D01*
X1726674Y2906671D01*
Y2900007D01*
X1329157Y1446664D02*
X1337487Y1454994D01*
X1354148D01*
X1362479Y1446664D01*
Y1413341D01*
X1354148Y1405010D01*
X1337487D01*
X1329157Y1413341D01*
X1312495Y1405010D02*
X1295834D01*
X1304165D01*
Y1454994D01*
X1312495Y1446664D01*
X1237520Y1454994D02*
X1254181Y1446664D01*
X1270842Y1430002D01*
Y1413341D01*
X1262512Y1405010D01*
X1245850D01*
X1237520Y1413341D01*
Y1421672D01*
X1245850Y1430002D01*
X1270842D01*
X1783326Y3413329D02*
X1789990Y3419994D01*
X1803319D01*
X1809984Y3413329D01*
Y3386671D01*
X1803319Y3380007D01*
X1789990D01*
X1783326Y3386671D01*
X1769997Y3380007D02*
X1756668D01*
X1763332D01*
Y3419994D01*
X1769997Y3413329D01*
X1736674D02*
X1730010Y3419994D01*
X1716681D01*
X1710016Y3413329D01*
Y3406665D01*
X1716681Y3400000D01*
X1723345D01*
X1716681D01*
X1710016Y3393336D01*
Y3386671D01*
X1716681Y3380007D01*
X1730010D01*
X1736674Y3386671D01*
X1423326Y2223329D02*
X1429990Y2229994D01*
X1443319D01*
X1449984Y2223329D01*
Y2196671D01*
X1443319Y2190007D01*
X1429990D01*
X1423326Y2196671D01*
X1409997Y2190007D02*
X1396668D01*
X1403332D01*
Y2229994D01*
X1409997Y2223329D01*
X1350016Y2190007D02*
X1376674D01*
X1350016Y2216665D01*
Y2223329D01*
X1356681Y2229994D01*
X1370010D01*
X1376674Y2223329D01*
X1886661Y2933329D02*
X1893326Y2939994D01*
X1906655D01*
X1913319Y2933329D01*
Y2906671D01*
X1906655Y2900007D01*
X1893326D01*
X1886661Y2906671D01*
X1873332Y2900007D02*
X1860003D01*
X1866668D01*
Y2939994D01*
X1873332Y2933329D01*
X1840010Y2900007D02*
X1826681D01*
X1833345D01*
Y2939994D01*
X1840010Y2933329D01*
X1328330Y2586661D02*
X1336661Y2594992D01*
X1353322D01*
X1361653Y2586661D01*
Y2553339D01*
X1353322Y2545008D01*
X1336661D01*
X1328330Y2553339D01*
X1311669D02*
X1303339Y2545008D01*
X1286677D01*
X1278347Y2553339D01*
Y2586661D01*
X1286677Y2594992D01*
X1303339D01*
X1311669Y2586661D01*
Y2578331D01*
X1303339Y2570000D01*
X1278347D01*
X1704166Y1148329D02*
X1710831Y1154993D01*
X1724160D01*
X1730824Y1148329D01*
Y1121671D01*
X1724160Y1115006D01*
X1710831D01*
X1704166Y1121671D01*
X1690837Y1148329D02*
X1684173Y1154993D01*
X1670844D01*
X1664179Y1148329D01*
Y1141664D01*
X1670844Y1135000D01*
X1664179Y1128335D01*
Y1121671D01*
X1670844Y1115006D01*
X1684173D01*
X1690837Y1121671D01*
Y1128335D01*
X1684173Y1135000D01*
X1690837Y1141664D01*
Y1148329D01*
X1684173Y1135000D02*
X1670844D01*
X1988331Y656661D02*
X1996661Y664992D01*
X2013322D01*
X2021653Y656661D01*
Y623339D01*
X2013322Y615008D01*
X1996661D01*
X1988331Y623339D01*
X1971669Y664992D02*
X1938347D01*
Y656661D01*
X1971669Y623339D01*
Y615008D01*
X1306664Y1143329D02*
X1313329Y1149994D01*
X1326658D01*
X1333322Y1143329D01*
Y1116671D01*
X1326658Y1110007D01*
X1313329D01*
X1306664Y1116671D01*
X1266677Y1149994D02*
X1280007Y1143329D01*
X1293335Y1130000D01*
Y1116671D01*
X1286671Y1110007D01*
X1273342D01*
X1266677Y1116671D01*
Y1123336D01*
X1273342Y1130000D01*
X1293335D01*
X1426664Y1143329D02*
X1433329Y1149994D01*
X1446658D01*
X1453322Y1143329D01*
Y1116671D01*
X1446658Y1110007D01*
X1433329D01*
X1426664Y1116671D01*
X1386677Y1149994D02*
X1413336D01*
Y1130000D01*
X1400007Y1136665D01*
X1393342D01*
X1386677Y1130000D01*
Y1116671D01*
X1393342Y1110007D01*
X1406671D01*
X1413336Y1116671D01*
X3728329Y2716662D02*
X3736659Y2724993D01*
X3753320D01*
X3761651Y2716662D01*
Y2683340D01*
X3753320Y2675009D01*
X3736659D01*
X3728329Y2683340D01*
X3686676Y2675009D02*
Y2724993D01*
X3711667Y2700001D01*
X3678345D01*
X3618332Y3156661D02*
X3626663Y3164992D01*
X3643324D01*
X3651655Y3156661D01*
Y3123339D01*
X3643324Y3115008D01*
X3626663D01*
X3618332Y3123339D01*
X3601671Y3156661D02*
X3593341Y3164992D01*
X3576679D01*
X3568349Y3156661D01*
Y3148331D01*
X3576679Y3140000D01*
X3585010D01*
X3576679D01*
X3568349Y3131669D01*
Y3123339D01*
X3576679Y3115008D01*
X3593341D01*
X3601671Y3123339D01*
X3761670Y3353339D02*
X3753339Y3345008D01*
X3736678D01*
X3728347Y3353339D01*
Y3386661D01*
X3736678Y3394992D01*
X3753339D01*
X3761670Y3386661D01*
X3811653Y3394992D02*
X3778331D01*
X3811653Y3361669D01*
Y3353339D01*
X3803323Y3345008D01*
X3786661D01*
X3778331Y3353339D01*
X3660000Y3173339D02*
X3651670Y3165008D01*
X3635008D01*
X3626678Y3173339D01*
Y3206661D01*
X3635008Y3214992D01*
X3651670D01*
X3660000Y3206661D01*
X3676661Y3214992D02*
X3693323D01*
X3684992D01*
Y3165008D01*
X3676661Y3173339D01*
D82*
X3536200Y2870000D02*
G03*
X3536200Y2870000I-76200J0D01*
G01*
X4586199Y4400000D02*
G03*
X4586199Y4400000I-76200J0D01*
G01*
X2901200Y3945000D02*
G03*
X2901200Y3945000I-76200J0D01*
G01*
X2546200Y3940000D02*
G03*
X2546200Y3940000I-76200J0D01*
G01*
X3216200Y4010000D02*
G03*
X3216200Y4010000I-76200J0D01*
G01*
X2726199Y189998D02*
G03*
X2726199Y189998I-76200J0D01*
G01*
X2426199Y1359998D02*
G03*
X2426199Y1359998I-76200J0D01*
G01*
X4436199Y790001D02*
G03*
X4436199Y790001I-76200J0D01*
G01*
X4856200Y770000D02*
G03*
X4856200Y770000I-76200J0D01*
G01*
D83*
X1647994Y2380995D02*
X1691992D01*
X1647994Y2478993D02*
X1691992D01*
X1647994Y2447492D02*
Y2478993D01*
Y2380995D02*
Y2412491D01*
X1691992Y2447492D02*
Y2478993D01*
Y2380995D02*
Y2412491D01*
X4468001Y491000D02*
X4511999D01*
X4468001Y588998D02*
X4511999D01*
X4468001Y557502D02*
Y588998D01*
Y491000D02*
Y522501D01*
X4511999Y557502D02*
Y588998D01*
Y491000D02*
Y522501D01*
X3147999Y1351002D02*
X3192002D01*
X3147999Y1449000D02*
X3192002D01*
X3147999Y1417499D02*
Y1449000D01*
Y1351002D02*
Y1382503D01*
X3192002Y1417499D02*
Y1449000D01*
Y1351002D02*
Y1382503D01*
X3388001Y1351000D02*
X3431998D01*
X3388001Y1448998D02*
X3431998D01*
X3388001Y1417502D02*
Y1448998D01*
Y1351000D02*
Y1382501D01*
X3431998Y1417502D02*
Y1448998D01*
Y1351000D02*
Y1382501D01*
X1498007Y1009005D02*
X1542010D01*
X1498007Y911007D02*
X1542010D01*
Y942508D01*
Y977509D02*
Y1009005D01*
X1498007Y911007D02*
Y942508D01*
Y977509D02*
Y1009005D01*
X3821998Y580998D02*
Y612499D01*
Y647501D02*
Y679002D01*
X3778000Y580998D02*
Y612499D01*
Y647501D02*
Y679002D01*
X3821998D01*
X3778000Y580998D02*
X3821998D01*
X3998003Y647498D02*
Y678999D01*
Y581000D02*
Y612501D01*
X4042001Y647498D02*
Y678999D01*
Y581000D02*
Y612501D01*
X3998003Y581000D02*
X4042001D01*
X3998003Y678999D02*
X4042001D01*
X4627254Y2644249D02*
X4772751D01*
Y2435746D02*
Y2644249D01*
X4627254Y2435746D02*
Y2644249D01*
Y2435746D02*
X4772751D01*
X1858010Y2669008D02*
X1902008D01*
X1858010Y2571009D02*
X1902008D01*
Y2602505D01*
Y2637507D02*
Y2669008D01*
X1858010Y2571009D02*
Y2602505D01*
Y2637507D02*
Y2669008D01*
X1618004Y2890503D02*
X1662002D01*
X1618004Y2792505D02*
X1662002D01*
Y2824001D01*
Y2859002D02*
Y2890503D01*
X1618004Y2792505D02*
Y2824001D01*
Y2859002D02*
Y2890503D01*
X1431990Y2370992D02*
Y2402493D01*
Y2437494D02*
Y2468990D01*
X1387992Y2370992D02*
Y2402493D01*
Y2437494D02*
Y2468990D01*
X1431990D01*
X1387992Y2370992D02*
X1431990D01*
X1628009Y3247507D02*
Y3279008D01*
Y3181009D02*
Y3212505D01*
X1672007Y3247507D02*
Y3279008D01*
Y3181009D02*
Y3212505D01*
X1628009Y3181009D02*
X1672007D01*
X1628009Y3279008D02*
X1672007D01*
X3637998Y3329001D02*
X3682001D01*
X3637998Y3230998D02*
X3682001D01*
Y3262499D01*
Y3297500D02*
Y3329001D01*
X3637998Y3230998D02*
Y3262499D01*
Y3297500D02*
Y3329001D01*
X3352000Y1351000D02*
Y1382501D01*
Y1417502D02*
Y1448998D01*
X3308002Y1351000D02*
Y1382501D01*
Y1417502D02*
Y1448998D01*
X3352000D01*
X3308002Y1351000D02*
X3352000D01*
X3281999Y1349500D02*
Y1381001D01*
Y1416002D02*
Y1447503D01*
X3238001Y1349500D02*
Y1381001D01*
Y1416002D02*
Y1447503D01*
X3281999D01*
X3238001Y1349500D02*
X3281999D01*
X2488002Y997498D02*
Y1028999D01*
Y931000D02*
Y962502D01*
X2532000Y997498D02*
Y1028999D01*
Y931000D02*
Y962502D01*
X2488002Y931000D02*
X2532000D01*
X2488002Y1028999D02*
X2532000D01*
X3012000Y741000D02*
Y772501D01*
Y807502D02*
Y838998D01*
X2968002Y741000D02*
Y772501D01*
Y807502D02*
Y838998D01*
X3012000D01*
X2968002Y741000D02*
X3012000D01*
X3102001Y1741001D02*
Y1772502D01*
Y1807499D02*
Y1839000D01*
X3057998Y1741001D02*
Y1772502D01*
Y1807499D02*
Y1839000D01*
X3102001D01*
X3057998Y1741001D02*
X3102001D01*
D84*
X3419999Y617499D02*
X3519999D01*
X3419999Y382498D02*
X3519999D01*
Y475000D01*
Y524997D02*
Y617499D01*
X3419999Y382498D02*
Y475000D01*
Y524997D02*
Y617499D01*
X1954992Y534990D02*
Y599994D01*
Y419994D02*
Y484993D01*
X2024989Y534990D02*
Y599994D01*
Y419994D02*
Y484993D01*
X1954992Y419994D02*
X2024989D01*
X1954992Y599994D02*
X2024989D01*
X4475010Y4750010D02*
Y4815008D01*
Y4865011D02*
Y4930009D01*
X4405008Y4750010D02*
Y4815008D01*
Y4865011D02*
Y4930009D01*
X4475010D01*
X4405008Y4750010D02*
X4475010D01*
X4595008Y4750009D02*
Y4815008D01*
Y4865010D02*
Y4930009D01*
X4525006Y4750009D02*
Y4815008D01*
Y4865010D02*
Y4930009D01*
X4595008D01*
X4525006Y4750009D02*
X4595008D01*
X3179998Y665002D02*
Y757499D01*
Y522498D02*
Y615000D01*
X3279998Y665002D02*
Y757499D01*
Y522498D02*
Y615000D01*
X3179998Y522498D02*
X3279998D01*
X3179998Y757499D02*
X3279998D01*
X2340001Y634999D02*
Y727501D01*
Y492500D02*
Y585002D01*
X2440001Y634999D02*
Y727501D01*
Y492500D02*
Y585002D01*
X2340001Y492500D02*
X2440001D01*
X2340001Y727501D02*
X2440001D01*
X3540000Y524998D02*
Y617500D01*
Y382499D02*
Y475001D01*
X3640000Y524998D02*
Y617500D01*
Y382499D02*
Y475001D01*
X3540000Y382499D02*
X3640000D01*
X3540000Y617500D02*
X3640000D01*
X4395009Y470009D02*
Y535008D01*
Y585010D02*
Y650009D01*
X4325007Y470009D02*
Y535008D01*
Y585010D02*
Y650009D01*
X4395009D01*
X4325007Y470009D02*
X4395009D01*
X4662499Y2952501D02*
X4737501D01*
X4662499Y3127502D02*
X4737501D01*
X4662499Y3064998D02*
Y3127502D01*
Y2952501D02*
Y3015001D01*
X4737501Y3064998D02*
Y3127502D01*
Y2952501D02*
Y3015001D01*
X4604993Y2324990D02*
Y2389994D01*
Y2209989D02*
Y2274993D01*
X4674990Y2324990D02*
Y2389994D01*
Y2209989D02*
Y2274993D01*
X4604993Y2209989D02*
X4674990D01*
X4604993Y2389994D02*
X4674990D01*
X1657496Y1034989D02*
Y1099993D01*
Y919993D02*
Y984992D01*
X1727493Y1034989D02*
Y1099993D01*
Y919993D02*
Y984992D01*
X1657496Y919993D02*
X1727493D01*
X1657496Y1099993D02*
X1727493D01*
X2052504Y2877500D02*
X2127500D01*
X2052504Y2702500D02*
X2127500D01*
Y2764999D01*
Y2815001D02*
Y2877500D01*
X2052504Y2702500D02*
Y2764999D01*
Y2815001D02*
Y2877500D01*
X1524990Y2969994D02*
X1594993D01*
X1524990Y2789990D02*
X1594993D01*
Y2854993D01*
Y2904991D02*
Y2969994D01*
X1524990Y2789990D02*
Y2854993D01*
Y2904991D02*
Y2969994D01*
X1354990Y2104990D02*
Y2169994D01*
Y1989994D02*
Y2054993D01*
X1424993Y2104990D02*
Y2169994D01*
Y1989994D02*
Y2054993D01*
X1354990Y1989994D02*
X1424993D01*
X1354990Y2169994D02*
X1424993D01*
X2292498Y3877500D02*
X2367499D01*
X2292498Y3702499D02*
X2367499D01*
Y3764998D01*
Y3815001D02*
Y3877500D01*
X2292498Y3702499D02*
Y3764998D01*
Y3815001D02*
Y3877500D01*
X1714993Y2814991D02*
Y2879990D01*
Y2699990D02*
Y2764994D01*
X1784990Y2814991D02*
Y2879990D01*
Y2699990D02*
Y2764994D01*
X1714993Y2699990D02*
X1784990D01*
X1714993Y2879990D02*
X1784990D01*
X2632498Y3815003D02*
Y3877502D01*
Y3702501D02*
Y3765000D01*
X2707499Y3815003D02*
Y3877502D01*
Y3702501D02*
Y3765000D01*
X2632498Y3702501D02*
X2707499D01*
X2632498Y3877502D02*
X2707499D01*
X2962501D02*
X3037502D01*
X2962501Y3702501D02*
X3037502D01*
Y3765000D01*
Y3815003D02*
Y3877502D01*
X2962501Y3702501D02*
Y3765000D01*
Y3815003D02*
Y3877502D01*
X1834993Y2814989D02*
Y2879993D01*
Y2699993D02*
Y2764992D01*
X1904990Y2814989D02*
Y2879993D01*
Y2699993D02*
Y2764992D01*
X1834993Y2699993D02*
X1904990D01*
X1834993Y2879993D02*
X1904990D01*
X1294993Y2464992D02*
Y2529991D01*
Y2349991D02*
Y2414990D01*
X1364990Y2464992D02*
Y2529991D01*
Y2349991D02*
Y2414990D01*
X1294993Y2349991D02*
X1364990D01*
X1294993Y2529991D02*
X1364990D01*
X1725010Y3170009D02*
X1795007D01*
X1725010Y3350009D02*
X1795007D01*
X1725010Y3285010D02*
Y3350009D01*
Y3170009D02*
Y3235008D01*
X1795007Y3285010D02*
Y3350009D01*
Y3170009D02*
Y3235008D01*
X1934989Y2879990D02*
X2004991D01*
X1934989Y2699990D02*
X2004991D01*
Y2764989D01*
Y2814991D02*
Y2879990D01*
X1934989Y2699990D02*
Y2764989D01*
Y2814991D02*
Y2879990D01*
X1542502Y2375002D02*
Y2437502D01*
Y2262501D02*
Y2325000D01*
X1617498Y2375002D02*
Y2437502D01*
Y2262501D02*
Y2325000D01*
X1542502Y2262501D02*
X1617498D01*
X1542502Y2437502D02*
X1617498D01*
X1264994Y1379995D02*
X1334991D01*
X1264994Y1199995D02*
X1334991D01*
Y1264994D01*
Y1314991D02*
Y1379995D01*
X1264994Y1199995D02*
Y1264994D01*
Y1314991D02*
Y1379995D01*
X1385007Y910007D02*
X1455009D01*
X1385007Y1090007D02*
X1455009D01*
X1385007Y1025008D02*
Y1090007D01*
Y910007D02*
Y975006D01*
X1455009Y1025008D02*
Y1090007D01*
Y910007D02*
Y975006D01*
X2137502Y422499D02*
Y484998D01*
Y535000D02*
Y597500D01*
X2062501Y422499D02*
Y484998D01*
Y535000D02*
Y597500D01*
X2137502D01*
X2062501Y422499D02*
X2137502D01*
X1547502Y642499D02*
Y704998D01*
Y755001D02*
Y817500D01*
X1472501Y642499D02*
Y704998D01*
Y755001D02*
Y817500D01*
X1547502D01*
X1472501Y642499D02*
X1547502D01*
X1265009Y910009D02*
X1335007D01*
X1265009Y1090008D02*
X1335007D01*
X1265009Y1025010D02*
Y1090008D01*
Y910009D02*
Y975007D01*
X1335007Y1025010D02*
Y1090008D01*
Y910009D02*
Y975007D01*
X3037498Y3902498D02*
Y3964997D01*
Y4015000D02*
Y4077499D01*
X2962502Y3902498D02*
Y3964997D01*
Y4015000D02*
Y4077499D01*
X3037498D01*
X2962502Y3902498D02*
X3037498D01*
X3695007Y2480011D02*
X3765009D01*
X3695007Y2660010D02*
X3765009D01*
X3695007Y2595007D02*
Y2660010D01*
Y2480011D02*
Y2545009D01*
X3765009Y2595007D02*
Y2660010D01*
Y2480011D02*
Y2545009D01*
X3575008Y2910010D02*
X3645010D01*
X3575008Y3090009D02*
X3645010D01*
X3575008Y3025006D02*
Y3090009D01*
Y2910010D02*
Y2975008D01*
X3645010Y3025006D02*
Y3090009D01*
Y2910010D02*
Y2975008D01*
X2707500Y3902500D02*
Y3964999D01*
Y4015002D02*
Y4077501D01*
X2632499Y3902500D02*
Y3964999D01*
Y4015002D02*
Y4077501D01*
X2707500D01*
X2632499Y3902500D02*
X2707500D01*
X2367499D02*
Y3964999D01*
Y4015002D02*
Y4077501D01*
X2292498Y3902500D02*
Y3964999D01*
Y4015002D02*
Y4077501D01*
X2367499D01*
X2292498Y3902500D02*
X2367499D01*
X3734990Y3329992D02*
X3804993D01*
X3734990Y3149992D02*
X3804993D01*
Y3214991D01*
Y3264993D02*
Y3329992D01*
X3734990Y3149992D02*
Y3214991D01*
Y3264993D02*
Y3329992D01*
X2474991Y1404990D02*
Y1469994D01*
Y1289994D02*
Y1354992D01*
X2544993Y1404990D02*
Y1469994D01*
Y1289994D02*
Y1354992D01*
X2474991Y1289994D02*
X2544993D01*
X2474991Y1469994D02*
X2544993D01*
X2584992Y664989D02*
Y729993D01*
Y549993D02*
Y614992D01*
X2654994Y664989D02*
Y729993D01*
Y549993D02*
Y614992D01*
X2584992Y549993D02*
X2654994D01*
X2584992Y729993D02*
X2654994D01*
X3300002Y757501D02*
X3400002D01*
X3300002Y522500D02*
X3400002D01*
Y615002D01*
Y664999D02*
Y757501D01*
X3300002Y522500D02*
Y615002D01*
Y664999D02*
Y757501D01*
X2757502Y552500D02*
Y614999D01*
Y665001D02*
Y727500D01*
X2682501Y552500D02*
Y614999D01*
Y665001D02*
Y727500D01*
X2757502D01*
X2682501Y552500D02*
X2757502D01*
X2782501Y665000D02*
Y727499D01*
Y552498D02*
Y614998D01*
X2857503Y665000D02*
Y727499D01*
Y552498D02*
Y614998D01*
X2782501Y552498D02*
X2857503D01*
X2782501Y727499D02*
X2857503D01*
X3127499Y1342501D02*
Y1405000D01*
Y1455002D02*
Y1517502D01*
X3052498Y1342501D02*
Y1405000D01*
Y1455002D02*
Y1517502D01*
X3127499D01*
X3052498Y1342501D02*
X3127499D01*
X2892498Y665000D02*
Y727499D01*
Y552499D02*
Y614998D01*
X2967499Y665000D02*
Y727499D01*
Y552499D02*
Y614998D01*
X2892498Y552499D02*
X2967499D01*
X2892498Y727499D02*
X2967499D01*
X2682499Y425002D02*
Y487502D01*
Y312501D02*
Y375000D01*
X2757500Y425002D02*
Y487502D01*
Y312501D02*
Y375000D01*
X2682499Y312501D02*
X2757500D01*
X2682499Y487502D02*
X2757500D01*
X2859999Y1662499D02*
X2959999D01*
X2859999Y1897499D02*
X2959999D01*
X2859999Y1804998D02*
Y1897499D01*
Y1662499D02*
Y1755000D01*
X2959999Y1804998D02*
Y1897499D01*
Y1662499D02*
Y1755000D01*
X2460000Y727498D02*
X2560000D01*
X2460000Y492502D02*
X2560000D01*
Y584999D01*
Y635001D02*
Y727498D01*
X2460000Y492502D02*
Y584999D01*
Y635001D02*
Y727498D01*
X3142500Y1835000D02*
Y1897500D01*
Y1722499D02*
Y1784998D01*
X3217501Y1835000D02*
Y1897500D01*
Y1722499D02*
Y1784998D01*
X3142500Y1722499D02*
X3217501D01*
X3142500Y1897500D02*
X3217501D01*
X2579998Y1467502D02*
X2679998D01*
X2579998Y1232501D02*
X2679998D01*
Y1325002D01*
Y1375000D02*
Y1467502D01*
X2579998Y1232501D02*
Y1325002D01*
Y1375000D02*
Y1467502D01*
X3614994Y4279995D02*
X3684996D01*
X3614994Y4099995D02*
X3684996D01*
Y4164994D01*
Y4214991D02*
Y4279995D01*
X3614994Y4099995D02*
Y4164994D01*
Y4214991D02*
Y4279995D01*
X3724992Y4279994D02*
X3794990D01*
X3724992Y4099994D02*
X3794990D01*
Y4164993D01*
Y4214990D02*
Y4279994D01*
X3724992Y4099994D02*
Y4164993D01*
Y4214990D02*
Y4279994D01*
X3954989Y4279995D02*
X4024992D01*
X3954989Y4099995D02*
X4024992D01*
Y4164994D01*
Y4214991D02*
Y4279995D01*
X3954989Y4099995D02*
Y4164994D01*
Y4214991D02*
Y4279995D01*
X4084991Y4279994D02*
X4154993D01*
X4084991Y4099994D02*
X4154993D01*
Y4164993D01*
Y4214990D02*
Y4279994D01*
X4084991Y4099994D02*
Y4164993D01*
Y4214990D02*
Y4279994D01*
D85*
X4953309Y2839982D02*
Y2740014D01*
X4903325D01*
X4886664Y2756675D01*
Y2823320D01*
X4903325Y2839982D01*
X4953309D01*
X4853341Y2823320D02*
X4836680Y2839982D01*
X4803357D01*
X4786696Y2823320D01*
Y2806659D01*
X4803357Y2789998D01*
X4820019D01*
X4803357D01*
X4786696Y2773336D01*
Y2756675D01*
X4803357Y2740014D01*
X4836680D01*
X4853341Y2756675D01*
D86*
X4739841Y4466190D02*
X4704919D01*
X4722380D01*
Y4413807D01*
X4687458D02*
Y4466190D01*
X4661267D01*
X4652537Y4457460D01*
Y4439999D01*
X4661267Y4431268D01*
X4687458D01*
X4635076Y4422538D02*
X4626345Y4413807D01*
X4608884D01*
X4600154Y4422538D01*
Y4457460D01*
X4608884Y4466190D01*
X4626345D01*
X4635076Y4457460D01*
Y4448729D01*
X4626345Y4439999D01*
X4600154D01*
D87*
X3722520Y2862997D02*
D03*
D88*
X3777513Y2863002D02*
D03*
D89*
X3777518Y2940498D02*
D03*
D90*
X3723767D02*
D03*
%TF.MD5,e75e26e84a083d18d40ec975b425dc32*%
M02*
